<svg height="997" viewBox="0 0 997 997" width="997" xmlns="http://www.w3.org/2000/svg" xmlns:xlink="http://www.w3.org/1999/xlink"><linearGradient id="a" x1="100%" x2="20.652%" y1="0%" y2="86.768%"><stop offset=".00083" stop-color="#fe5555"/><stop offset="1" stop-color="#ff8e61"/></linearGradient><linearGradient id="b" x1="49.075%" x2="49.075%" y1="-16.859%" y2="130.573%"><stop offset="0"/><stop offset="1" stop-color="#3a1c80"/></linearGradient><linearGradient id="c" x1="104.033%" x2="-17.504%" y1="26.805%" y2="84.104%"><stop offset="0" stop-color="#707070"/><stop offset="1"/></linearGradient><linearGradient id="d" x1="125.759%" x2="27.895%" y1="-29.962%" y2="80.233%"><stop offset="0" stop-color="#ddd"/><stop offset="1" stop-color="#b9b9b9"/></linearGradient><linearGradient id="e" x1="1.969%" x2="68.947%" y1="50%" y2="50%"><stop offset="0" stop-color="#6d8cc6"/><stop offset="1" stop-color="#aedeff"/></linearGradient><g fill="none" fill-rule="evenodd" transform="translate(-5 -5)"><path d="m0 0h1007.999v1008h-1007.999z" fill="url(#a)"/><path d="m1005.49933 2.5v179h-1002.99933v-179z" fill="url(#b)" stroke="#000" stroke-width="5"/><path d="m398 109h6v6h-6z" fill="#fff39a"/><path d="m404 115h6v6h-6z" fill="#fff39a"/><path d="m398 121h6v6h-6z" fill="#fff39a"/><path d="m449 46h6v6h-6z" fill="#b4a5ff"/><path d="m586 98h6v6h-6z" fill="#fff"/><path d="m755 76h6v6h-6z" fill="#fe765c"/><path d="m243 82h6v6h-6z" fill="#fff"/><path d="m392 115h6v6h-6z" fill="#fff39a"/><g fill="#fff"><path d="m903 83h6v6h-6z"/><path d="m909 89h6v6h-6z"/><path d="m903 95h6v6h-6z"/><path d="m897 89h6v6h-6z"/></g><g fill="#fff"><path d="m94 48h6v6h-6z"/><path d="m100 54h6v6h-6z"/><path d="m94 60h6v6h-6z"/><path d="m88 54h6v6h-6z"/></g><g fill="#fff"><path d="m912 380h6v6h-6z"/><path d="m918 386h6v6h-6z"/><path d="m912 392h6v6h-6z"/><path d="m906 386h6v6h-6z"/></g><g transform="translate(558.43 845)"><path d="m300.069008 7.5c2.071068 0 3.946068.83946609 5.303301 2.19669914 1.357233 1.35723306 2.196699 3.23223306 2.196699 5.30330086v77.5h-121.499712v-85z" fill="#fff" stroke="#000" stroke-width="5"/><path d="m279.888163 18.5c1.794925 0 3.419925.7275373 4.596194 1.9038059 1.176269 1.1762687 1.903806 2.8012687 1.903806 4.5961941 0 .3394775-.026595.6784334-.079541 1.0137567l-1.736842 11c-.249421 1.5796692-1.054917 2.95123-2.197866 3.9278735-1.14295.9766436-2.623354 1.5583698-4.222593 1.5583698h-30.164049c-1.599239 0-3.079643-.5817262-4.222593-1.5583698-1.14295-.9766435-1.948445-2.3482043-2.197866-3.9278735l-1.736842-11c-.279942-1.7729608.185254-3.4915442 1.163674-4.8368727.978421-1.3453285 2.470067-2.3174021 4.243028-2.5973433.335323-.0529458.674279-.0795407 1.013757-.0795407z" fill="#4e95ca" stroke="#000" stroke-linejoin="round" stroke-width="5"/><path d="m283.888163 18.5c1.794925 0 3.419925.7275373 4.596194 1.9038059 1.176269 1.1762687 1.903806 2.8012687 1.903806 4.5961941 0 .3394775-.026595.6784334-.079541 1.0137567l-1.736842 11c-.249421 1.5796692-1.054917 2.95123-2.197866 3.9278735-1.14295.9766436-2.623354 1.5583698-4.222593 1.5583698h-30.164049c-1.599239 0-3.079643-.5817262-4.222593-1.5583698-1.14295-.9766435-1.948445-2.3482043-2.197866-3.9278735l-1.736842-11c-.279942-1.7729608.185254-3.4915442 1.163674-4.8368727.978421-1.3453285 2.470067-2.3174021 4.243028-2.5973433.335323-.0529458.674279-.0795407 1.013757-.0795407z" fill="#4e95ca" stroke="#000" stroke-linejoin="round" stroke-width="5"/><path d="m99.5692964 61.2940277h-32c-45.0461976 1.5075794-67.5692964 19.060668-67.5692964 52.6592653" stroke="#000" stroke-width="10"/><path d="m99.5692964 61.2940277h-32c-45.0461976 1.5075794-67.5692964 19.060668-67.5692964 52.6592653" stroke="#000" stroke-width="10"/><path d="m117.569296 68.2940277h-31.9999996c-45.0461976 1.5075794-67.5692964 19.060668-67.5692964 52.6592653" stroke="#000" stroke-width="10"/><circle cx="252.569" cy="27" fill="#000" r="2"/><circle cx="258.569" cy="34" fill="#000" r="2"/><circle cx="268.569" cy="34" fill="#000" r="2"/><circle cx="277.569" cy="34" fill="#000" r="2"/><circle cx="262.569" cy="27" fill="#000" r="2"/><circle cx="272.569" cy="27" fill="#000" r="2"/><circle cx="282.569" cy="27" fill="#000" r="2"/><ellipse cx="232.569" cy="30" fill="#d8d8d8" rx="1" ry="2.5" stroke="#000" stroke-width="5"/><ellipse cx="296.569" cy="30" fill="#d8d8d8" rx="1" ry="2.5" stroke="#000" stroke-width="5"/><path d="m214.069296 7.5v85h-128.9999996v-77.5c0-2.0710678.8394661-3.9460678 2.1966991-5.30330086 1.3572331-1.35723305 3.2322331-2.19669914 5.3033009-2.19669914z" fill="url(#c)" stroke="#000" stroke-width="5"/><path d="m207.323898 0h12.490796c1.550092 0 2.707362.27847683 3.68514.80139811.977777.52292128 1.745143 1.290287 2.268064 2.26806478.522922.97777778.801398 2.13504723.801398 3.68513903v.24539808h-26v-.24539808c0-1.5500918.278477-2.70736125.801399-3.68513903.522921-.97777778 1.290287-1.7451435 2.268064-2.26806478.977778-.52292128 2.135048-.80139811 3.685139-.80139811zm30 0h12.490796c1.550092 0 2.707362.27847683 3.68514.80139811.977777.52292128 1.745143 1.290287 2.268064 2.26806478.522922.97777778.801398 2.13504723.801398 3.68513903v.24539808h-26v-.24539808c0-1.5500918.278477-2.70736125.801399-3.68513903.522921-.97777778 1.290287-1.7451435 2.268064-2.26806478.977778-.52292128 2.135048-.80139811 3.685139-.80139811zm30 0h12.490796c1.550092 0 2.707362.27847683 3.68514.80139811.977777.52292128 1.745143 1.290287 2.268064 2.26806478.522922.97777778.801398 2.13504723.801398 3.68513903v.24539808h-26v-.24539808c0-1.5500918.278477-2.70736125.801399-3.68513903.522921-.97777778 1.290287-1.7451435 2.268064-2.26806478.977778-.52292128 2.135048-.80139811 3.685139-.80139811z" fill="#000"/><g stroke="#000"><path d="m134.569296 65.5c2.347211 0 4.472211.9513949 6.010408 2.4895924 1.538197 1.5381974 2.489592 3.6631974 2.489592 6.0104076s-.951395 4.4722102-2.489592 6.0104076c-1.538197 1.5381975-3.663197 2.4895924-6.010408 2.4895924h-23.5v-17z" fill="#d8d8d8" stroke-width="5"/><path d="m120.569296 65.5c2.347211 0 4.472211.9513949 6.010408 2.4895924 1.538197 1.5381974 2.489592 3.6631974 2.489592 6.0104076s-.951395 4.4722102-2.489592 6.0104076c-1.538197 1.5381975-3.663197 2.4895924-6.010408 2.4895924h-15c-2.34721 0-4.47221-.9513949-6.0104072-2.4895924-1.5381975-1.5381974-2.4895924-3.6631974-2.4895924-6.0104076s.9513949-4.4722102 2.4895924-6.0104076c1.5381972-1.5381975 3.6631972-2.4895924 6.0104072-2.4895924z" fill="#4e95ca" stroke-width="5"/><path d="m193.569296 65.5c2.347211 0 4.472211.9513949 6.010408 2.4895924 1.538197 1.5381974 2.489592 3.6631974 2.489592 6.0104076s-.951395 4.4722102-2.489592 6.0104076c-1.538197 1.5381975-3.663197 2.4895924-6.010408 2.4895924h-23.5v-17z" fill="#d8d8d8" stroke-width="5"/><path d="m179.569296 65.5c2.347211 0 4.472211.9513949 6.010408 2.4895924 1.538197 1.5381974 2.489592 3.6631974 2.489592 6.0104076s-.951395 4.4722102-2.489592 6.0104076c-1.538197 1.5381975-3.663197 2.4895924-6.010408 2.4895924h-15c-2.34721 0-4.47221-.9513949-6.010407-2.4895924-1.538198-1.5381974-2.489593-3.6631974-2.489593-6.0104076s.951395-4.4722102 2.489593-6.0104076c1.538197-1.5381975 3.663197-2.4895924 6.010407-2.4895924z" fill="#4e95ca" stroke-width="5"/><path d="m192.569296 19.5c2.347211 0 4.472211.9513949 6.010408 2.4895924 1.538197 1.5381974 2.489592 3.6631974 2.489592 6.0104076s-.951395 4.4722102-2.489592 6.0104076c-1.538197 1.5381975-3.663197 2.4895924-6.010408 2.4895924h-4.5v-17z" fill="#000" stroke-width="5"/><path d="m186.569296 19.5c2.347211 0 4.472211.9513949 6.010408 2.4895924 1.538197 1.5381974 2.489592 3.6631974 2.489592 6.0104076s-.951395 4.4722102-2.489592 6.0104076c-1.538197 1.5381975-3.663197 2.4895924-6.010408 2.4895924-2.34721 0-4.47221-.9513949-6.010407-2.4895924-1.538198-1.5381974-2.489593-3.6631974-2.489593-6.0104076s.951395-4.4722102 2.489593-6.0104076c1.538197-1.5381975 3.663197-2.4895924 6.010407-2.4895924z" fill="#ff7070" stroke-width="5"/><path d="m160.569296 19.5c2.347211 0 4.472211.9513949 6.010408 2.4895924 1.538197 1.5381974 2.489592 3.6631974 2.489592 6.0104076s-.951395 4.4722102-2.489592 6.0104076c-1.538197 1.5381975-3.663197 2.4895924-6.010408 2.4895924h-4.5v-17z" fill="#000" stroke-width="5"/><path d="m154.569296 19.5c2.347211 0 4.472211.9513949 6.010408 2.4895924 1.538197 1.5381974 2.489592 3.6631974 2.489592 6.0104076s-.951395 4.4722102-2.489592 6.0104076c-1.538197 1.5381975-3.663197 2.4895924-6.010408 2.4895924-2.34721 0-4.47221-.9513949-6.010407-2.4895924-1.538198-1.5381974-2.489593-3.6631974-2.489593-6.0104076s.951395-4.4722102 2.489593-6.0104076c1.538197-1.5381975 3.663197-2.4895924 6.010407-2.4895924z" fill="#ff7070" stroke-width="5"/><path d="m234.569 55.223h62.541" stroke-linecap="round" stroke-width="5"/><path d="m234.569 65.223h62.541" stroke-linecap="round" stroke-width="5"/><path d="m268.569 75.223h28.541" stroke-linecap="round" stroke-width="5"/></g></g><g stroke-width="5" transform="translate(2.432 121)"><g stroke="#000"><path d="m725.99 0h277v301h-277z" fill="url(#d)" stroke-linejoin="round"/><path d="m0 0h277v301h-277z" fill="url(#d)" stroke-linejoin="round"/><path d="m615.99 50 110-50v301l-110-50z" fill="#696969" stroke-linejoin="round"/><path d="m690.068 96.176v-5.176"/><path d="m755.068 50.176v-5.176"/><path d="m849.068 173.176v-5.176"/><path d="m965.068 212.176v-5.176"/><path d="m858.068 278.176v-5.176"/><path d="m858.068 278.176v-5.176"/><path d="m983.068 24.176v-5.176"/><path d="m649.068 69.176v-5.176"/><path d="m629.068 165.176v-5.176"/><path d="m674.068 136.176v-5.176"/><path d="m699.068 226.176v-5.176"/><path d="m277 50 110-50v301l-110-50z" fill="#696969" stroke-linejoin="round" transform="matrix(-1 0 0 1 664 0)"/><path d="m387 50h36.846v201h-36.846z" fill="#696969" stroke-linejoin="round"/><path d="m579.144 50h36.846v201h-36.846z" fill="#696969" stroke-linejoin="round"/><path d="m579.425817 49.9501501v201.0271049h-155.979512v-201.0271049z" fill="#eac281"/><path d="m555.025374 74.4637025v152.9999995h-107.725146v-152.9999995z" fill="#f5c577" stroke-opacity=".282"/></g><path d="m51.485 115v-29h59.49" stroke="#fff"/><path d="m51.485 115v-29h59.49" stroke="#2a2a2a" transform="matrix(-1 0 0 -1 162.46 201)"/><path d="m158.485 195v-29h59.49" stroke="#fff"/><path d="m158.485 195v-29h59.49" stroke="#000" transform="matrix(-1 0 0 -1 376.46 361)"/><path d="m0 210v-29h59.49" stroke="#000"/><path d="m0 210v-29h59.49" stroke="#fff" transform="matrix(-1 0 0 -1 59.49 391)"/><path d="m72.485 268v-29h59.49" stroke="#000"/><path d="m72.485 268v-29h59.49" stroke="#fff" transform="matrix(-1 0 0 -1 204.46 507)"/><path d="m207.485 86v-29h59.49" stroke="#000"/><path d="m207.485 86v-29h59.49" stroke="#fff" transform="matrix(-1 0 0 -1 474.46 143)"/><path d="m166.485 130v-5.176" stroke="#000"/><path d="m102.485 186v-5.176" stroke="#000"/><path d="m72.485 46v-5.176" stroke="#000"/><path d="m217.485 256v-5.176" stroke="#000"/><path d="m759.485 210v-29h59.49" stroke="#000"/><path d="m759.485 210v-29h59.49" stroke="#fff" transform="matrix(-1 0 0 -1 1578.46 391)"/><path d="m913.485 165v-29h59.49" stroke="#fff"/><path d="m913.485 165v-29h59.49" stroke="#000" transform="matrix(-1 0 0 -1 1886.46 301)"/><path d="m805.485 100v-29h59.49" stroke="#000"/><path d="m805.485 100v-29h59.49" stroke="#fff" transform="matrix(-1 0 0 -1 1670.46 171)"/><path d="m935.485 268v-29h59.49" stroke="#fff"/><path d="m935.485 268v-29h59.49" stroke="#000" transform="matrix(-1 0 0 -1 1930.46 507)"/></g><path d="m554.905 200.476h-100.403v145.636" stroke="#000" stroke-width="5"/><path d="m552.407 203.122v140.471h-95.402" stroke="#fff" stroke-width="5"/><g stroke-width="5" transform="translate(535 337)"><path d="m107 71v35h35v36h-36v-35h-35v-36zm-1-71v36h-35v35h-35v35h-36v-106z" fill="#aedeff" stroke="#000"/><g stroke="#fff"><path d="m103.467 5.045h-98.421v99.459"/><path d="m104.441 75.967h-28.422v28.537"/><path d="m139.441 110.967h-28.422v28.537"/></g></g><path d="m898.314207 937.5c4.832491 0 9.207491 1.958754 12.374368 5.125631s5.125632 7.541877 5.125632 12.374369v49.32755h-834.314207v-49.32755c0-4.832492 1.9587542-9.207492 5.1256313-12.374369s7.5418771-5.125631 12.3743687-5.125631z" fill="#d3cab3" stroke="#000" stroke-width="5"/><path d="m908.314207 937.5c4.832491 0 9.207491 1.958754 12.374368 5.125631s5.125632 7.541877 5.125632 12.374369v49.32755h-781.369714v-49.32755c0-4.832492 1.958755-9.207492 5.125632-12.374369s7.541877-5.125631 12.374368-5.125631z" fill="#f0ede5" stroke="#000" stroke-width="5"/><g transform="translate(104.27 449.178)"><circle cx="250.5" cy="312.5" fill="#f0ede5" r="154.5" stroke="#000" stroke-width="5"/><path d="m121.729449 466.639173h228.004774c12.150265 0 22 9.849736 22 22h-272.0047736c0-12.150264 9.8497356-22 21.9999996-22z" fill="#d3cab3" stroke="#000" stroke-width="5"/><path d="m146.729449 466.639173h231c12.150265 0 22 9.849736 22 22h-275c0-12.150264 9.849736-22 22-22z" fill="#f0ede5" stroke="#000" stroke-width="5"/><path d="m75.6346134 67.8217696h315.3546156c13.81854 0 18.829477 1.438797 23.881329 4.1405569s9.016575 6.6664828 11.718335 11.7183347c2.701759 5.0518518 4.140556 10.0627885 4.140556 23.8813288v297.519559c0 13.81854-1.438797 18.829477-4.140556 23.881329-2.70176 5.051852-6.666483 9.016575-11.718335 11.718335s-10.062789 4.140557-23.881329 4.140557h-347.4031806c-15.1558186 0-20.6516846-1.578036-26.1924254-4.541256-5.5407407-2.963221-9.88914646-7.311627-12.85236704-12.852367-2.96322057-5.540741-4.54125596-11.036607-4.54125596-26.192426v-44.853663-47.604831-81.235192-84.085652c0-26.299803 2.73835553-35.836747 7.88041476-45.4515617 5.14205924-9.6148148 12.68782214-17.1605777 22.30263694-22.3026369 9.6148149-5.1420593 19.1517589-7.8804148 45.4515617-7.8804148z" fill="#d3cab3" stroke="#000" stroke-width="5"/><path d="m62.7294494 68h371.9999996c11.045695 0 20 8.954305 20 20v337c0 11.045695-8.954305 20-20 20h-273.970935-61.7398039-36.2892607c-11.045695 0-20-8.954305-20-20v-337c0-11.045695 8.954305-20 20-20z" fill="#f0ede5" stroke="#000" stroke-width="5"/><g transform="translate(168.268 24.822)"><path d="m129.503542-2.5c10.898135 0 20.76543 4.45002401 27.907611 11.64745182 7.135235 7.19042878 11.550097 17.12346548 11.550097 28.09613788 0 10.9726725-4.414862 20.9057092-11.550097 28.096138-7.142181 7.1974278-17.009476 11.6474518-27.907611 11.6474518s-20.76543-4.450024-27.90761-11.6474518c-7.1352355-7.1904288-11.5500979-17.1234655-11.5500979-28.096138 0-10.9726724 4.4148624-20.9057091 11.5500979-28.09613788 7.14218-7.19742781 17.009475-11.64745182 27.90761-11.64745182z" fill="#fff" stroke="#000" stroke-width="5"/><path d="m58.7559296-2.5c10.8981351 0 20.7654302 4.45002401 27.9076106 11.64745182 7.135235 7.19042878 11.5500974 17.12346548 11.5500974 28.09613788 0 10.9726725-4.4148624 20.9057092-11.5500974 28.096138-7.1421804 7.1974278-17.0094755 11.6474518-27.9076106 11.6474518s-20.7654302-4.450024-27.9076106-11.6474518c-7.135235-7.1904288-11.5500975-17.1234655-11.5500975-28.096138 0-10.9726724 4.4148625-20.9057091 11.5500975-28.09613788 7.1421804-7.19742781 17.0094755-11.64745182 27.9076106-11.64745182z" fill="#fff" stroke="#000" stroke-width="5"/><path d="m130.391673 56.3974359c10.497178 0 19.006821-8.575469 19.006821-19.1538462 0-10.5783771-8.509643-19.1538461-19.006821-19.1538461-6.084594 0-11.501409 2.8812173-14.980265 7.3636465-2.522887 3.2506841 8.502886 7.3434832 8.502886 11.7901996 0 4.323873-11.107706 8.3131129-8.709632 11.5188749 3.468826 4.6371512 8.980516 7.6349713 15.187011 7.6349713zm-70.7476124 0c10.4971775 0 19.0068212-8.575469 19.0068212-19.1538462 0-10.5783771-8.5096437-19.1538461-19.0068212-19.1538461-7.6308039 0-14.2113158 4.5316189-17.2361112 11.0700515-1.1362097 2.4560442 9.8445695 5.1952485 9.8445695 8.0837946 0 2.8658999-10.9906892 5.5847905-9.8712006 8.0259762 3.0126768 6.5695209 9.609466 11.12787 17.2627423 11.12787z" fill="#000"/><g fill="#f0ede5" stroke="#000" stroke-linecap="round" stroke-width="5"><path d="m46.3084535 80c0-16.5685425-13.1775966-30-29.4329856-30-6.2782274 0-12.09734266 2.0035606-16.8754679 5.4175941"/><path d="m189.308453 80c0-16.5685425-13.177596-30-29.432985-30-6.278227 0-12.097343 2.0035606-16.875468 5.4175941" transform="matrix(-1 0 0 1 332.308 0)"/></g></g><g stroke="#000" stroke-width="5"><path d="m52.8731382 18.6035666c-7.0141139-4.521198-15.7183976-6.781797-26.1128514-6.781797-11.2894886 0-20.58520482 2.6666667-27.88714865 8" stroke-linecap="round" transform="matrix(.89100652 -.4539905 .4539905 .89100652 163.492951 13.470591)"/><path d="m180.873138 18.8217696c-6.749964-4-14.995431-6-24.736402-6-7.249527 0-13.670727 1.1077579-19.263598 3.3232738" stroke-linecap="round" transform="matrix(.89100652 .4539905 -.4539905 .89100652 192.355158 -70.402338)"/><rect fill="#77b37b" height="22" rx="10.5" width="21" x="250.729" y="409"/><path d="m83.729 117.822h330v277h-330z" fill="#59d3bf"/><path d="m83.7294494 148.063636h329.9999996v-24.241866c0-3.313709-2.686291-6-6-6h-317.9999996c-3.3137085 0-6 2.686291-6 6z" fill="#000"/><path d="m83.7294494 148.063636h329.9999996v-15.241866c0-8.284272-6.715728-15-15-15h-299.9999996c-8.2842712 0-15 6.715728-15 15z" fill="#fff"/></g></g><g stroke-width="5"><g stroke="#000" transform="translate(269 626)"><path d="m211.5 9.5v144h-200.7154572v-7.579298h-8.2845428v-136.420702z" fill="#000"/><path d="m11.5 2.5h209v144h-209z" fill="#fff"/><path d="m11.5 2.5h209v32h-209z" fill="url(#e)"/><g fill="#fff"><path d="m220.5 34.5838629v29.9161371h-209v-29.9161371z" transform="matrix(1 0 0 -1 0 99.084)"/><path d="m188.5 2.5h32v32h-32z"/><path d="m157.5 2.5h32v32h-32z"/></g><path d="m170.5 15.5h6v6h-6z" fill="#000"/><path d="m201.5 15.5h6v6h-6z" fill="#000"/><path d="m46.766 80.204v23.659"/><path d="m41.727 75.863v4.341"/><path d="m51.727 75.863v4.341"/><path d="m41.727 103.863v4.341"/><path d="m51.727 103.863v4.341"/></g><path d="m210.5 619.5h27v27h-27z" fill="#fff" stroke="#000"/><path d="m210.5 667.5h27v27h-27z" fill="#98ebff" stroke="#000"/><path d="m210.5 715.5h27v27h-27z" fill="#ff7070" stroke="#000"/><path d="m188.071 816.768h27v27h-27z" fill="#98ebff" stroke="#000"/><path d="m215.071 816.768h302v27h-302z" fill="#fff" stroke="#000"/><path d="m457.071 816.768h60v27h-60z" fill="#fff" stroke="#000"/><g stroke="#000" transform="matrix(-1 0 0 1 775.007 356.763)"><g fill="#fff"><path d="m85.6315933 87.9191115c0-3.0683058 24.5686737-57.4017254 10.7412709-67.3652007-10.5422552-7.5963289-23.9110992 27.0134512-29.6684414 53.1465331-1.7940866 8.1435164 18.9271705 17.2869733 18.9271705 14.2186676z" transform="matrix(.78801075 .61566148 -.61566148 .78801075 50.971058 -40.016702)"/><path d="m73.7959725 74.8475596c0-3.0683058 35.9103215-57.4017254 15.6997688-67.36520067-15.4088814-7.59632892-34.949191 27.01345117-43.3642978 53.14653307-2.6222916 8.1435164 27.664529 17.2869733 27.664529 14.2186676z" transform="matrix(.93969262 .34202014 -.34202014 .93969262 18.271785 -21.75244)"/><path d="m45.9739237 40.603312.7092933-1.5277104c10.1663054-21.6149187 16.5630429-35.08179936 28.6149041-28.8557749 7.8484778 4.0545451 6.9209683 14.8354025 2.904001 26.6102413l-.3735315 1.0730186c-.063621.1792396-.1279117.3586676-.1928523.5382639l-.397284 1.0794388-.4119324 1.0825227-.4256312 1.0846494-.4383806 1.0858192-.4501806 1.0860317-.4610313 1.0852873c-.07769.180766-.1557925.3614612-.2342879.5420655l-.4755269 1.0823761-.4840041 1.0792391-.4915317 1.075145-.4981099 1.0700937-.5037387 1.0640855-.5084181 1.0571201-.5121481 1.0491977-.5149286 1.0403182-.5167598 1.0304817c4.4063329-1.2291044 9.0494476-1.8850009 13.8450175-1.8850009 9.8088335 0 19.1432411 1.5639334 27.2410851 6.8551014 9.997533 6.5324335 10.570991 15.8799144 6.844678 21.866396-3.676628 5.9066617-14.018651 4.5364945-19.9456157.9881729l-.2393014-.1468106c-4.1339212-2.5981396-8.8992279-3.9926284-13.900846-3.9926284-14.5074036 0-26.2679778 11.8174788-26.2679778 26.3950774 0 14.577599 11.7605742 26.395078 26.2679778 26.395078 5.1826682 0 10.1118274-1.498413 14.3394015-4.274338l.3942659-.263979c5.8126607-3.967781 13.7257877-2.44941 17.6744617 3.391376 3.948675 5.840786 2.437616 13.792201-3.375046 17.759981-5.961994 4.069717-12.686253 6.837226-19.7884914 8.126983-1.2461192.309671-2.8635912.524615-4.8502183.644392-1.4556987.123483-2.9207316.185816-4.3943734.185816l-.4666082-.005327c-2.1388311.443752-3.3659152 3.035299-4.2039033 6.507662l-.1399411.603655-.1329031.619492-.1264502.633913-.1788562.974804-.1128781.663757-.1612407 1.012921-.2029836 1.375381-.2445924 1.769572-.4006024 2.955673-.1454525 1.023138-.1509559 1.007083-.158395.986335-.1106854.643713-.1154254.631016-.1207389.616929-.1266261.601451-.1330866.584584-.1401208.566325c-.8150309 3.15482-1.9964957 5.363245-4.0140081 5.486865l-65.52793922.005468c.34826477-.237068.68747159-.473951 1.01762046-.710647l.64822049-.473145c9.96624377-7.408712 15.52195807-14.63475 7.70241847-21.678113l-.4236092-.377158-.3574552-.331243c-.0612294-.058116-.1232666-.117678-.186083-.178675l-.3860206-.383116-.4033526-.417015-.4193154-.450366c-.1422801-.15562-.2869924-.316707-.4339088-.483171l-.4471331-.515429-.4589881-.54714c-.0774099-.093802-.1552567-.188903-.2335118-.285291l-.4742033-.593683-.4826351-.624026-.4896978-.653825-.4953911-.683075-.4997153-.71178-.50267013-.739937c-.16789706-.251278-.33605839-.507157-.50425578-.767547l-.50447216-.794612c-5.62938395-9.022233-11.04313357-23.004271-7.66167643-38.520148 2.31917146-10.641559 7.33224398-19.0136729 12.9924434-27.2106367l.9762772-1.4038688.9866642-1.402782 3.5020395-4.9350284 1.0050491-1.4269059c4.5194537-6.4458875 23.9462861-35.1300143 25.4648171-38.4435732z" stroke-linejoin="round"/></g><path d="m70.8182024 54.7016854c-2.3348954.7948558-4.1549816 1.4879816-5.4602588 2.0793775s-3.1253634 1.6661492-5.4602588 3.2242598" stroke-linecap="round"/></g><path d="m811 409.5c2.899495 0 5.524495 1.175253 7.424621 3.075379s3.075379 4.525126 3.075379 7.424621v125c0 2.899495-1.175253 5.524495-3.075379 7.424621s-4.525126 3.075379-7.424621 3.075379-5.524495-1.175253-7.424621-3.075379-3.075379-4.525126-3.075379-7.424621v-125c0-2.899495 1.175253-5.524495 3.075379-7.424621s4.525126-3.075379 7.424621-3.075379z" fill="#000" stroke="#000"/><path d="m811 473.5c2.899495 0 5.524495 1.175253 7.424621 3.075379s3.075379 4.525126 3.075379 7.424621v61c0 2.899495-1.175253 5.524495-3.075379 7.424621s-4.525126 3.075379-7.424621 3.075379-5.524495-1.175253-7.424621-3.075379-3.075379-4.525126-3.075379-7.424621v-61c0-2.899495 1.175253-5.524495 3.075379-7.424621s4.525126-3.075379 7.424621-3.075379z" fill="#6ac766" stroke="#000"/><path d="m845 409.5.346593.005612c2.761742.089568 5.253907 1.245646 7.078028 3.069767 1.900126 1.900126 3.075379 4.525126 3.075379 7.424621v125c0 2.899495-1.175253 5.524495-3.075379 7.424621s-4.525126 3.075379-7.424621 3.075379-5.524495-1.175253-7.424621-3.075379-3.075379-4.525126-3.075379-7.424621v-125c0-2.899495 1.175253-5.524495 3.075379-7.424621s4.525126-3.075379 7.424621-3.075379z" fill="#000" stroke="#000"/><path d="m845 428.26845c2.899495 0 5.524495 1.175253 7.424621 3.075379s3.075379 4.525126 3.075379 7.424621v106.23155c0 2.899495-1.175253 5.524495-3.075379 7.424621s-4.525126 3.075379-7.424621 3.075379-5.524495-1.175253-7.424621-3.075379-3.075379-4.525126-3.075379-7.424621v-106.23155c0-2.899495 1.175253-5.524495 3.075379-7.424621s4.525126-3.075379 7.424621-3.075379z" fill="#4ce4ff" stroke="#000"/><path d="m879 409.5c2.899495 0 5.524495 1.175253 7.424621 3.075379s3.075379 4.525126 3.075379 7.424621v125c0 2.899495-1.175253 5.524495-3.075379 7.424621s-4.525126 3.075379-7.424621 3.075379-5.524495-1.175253-7.424621-3.075379-3.075379-4.525126-3.075379-7.424621v-125c0-2.899495 1.175253-5.524495 3.075379-7.424621s4.525126-3.075379 7.424621-3.075379z" fill="#000" stroke="#000"/><path d="m879 519.67823c2.899495 0 5.524495 1.175253 7.424621 3.075379s3.075379 4.525126 3.075379 7.424621v14.82177c0 2.899495-1.175253 5.524495-3.075379 7.424621s-4.525126 3.075379-7.424621 3.075379-5.524495-1.175253-7.424621-3.075379-3.075379-4.525126-3.075379-7.424621v-14.82177c0-2.899495 1.175253-5.524495 3.075379-7.424621s4.525126-3.075379 7.424621-3.075379z" fill="#ff7070" stroke="#000"/><path d="m314.5 189.176v-5.176" stroke="#000"/><path d="m361.5 219.176v-5.176" stroke="#000"/><path d="m346.5 292.176v-5.176" stroke="#000"/><path d="m314.5 366.176v-5.176" stroke="#000"/><path d="m479.5 226.176v-5.176" stroke="#af8d55"/><path d="m536.5 256.176v-5.176" stroke="#af8d55"/><path d="m491.5 282.176v-5.176" stroke="#af8d55"/><path d="m439.5 190.176v-5.176" stroke="#ffe3b5"/><path d="m568.5 260.176v-5.176" stroke="#ffe3b5"/><path d="m514.5 366.176v-5.176" stroke="#ffe3b5"/><path d="m436.5 328.176v-5.176" stroke="#ffe3b5"/><path d="m529.5 315.176v-5.176" stroke="#ffe3b5"/><path d="m496.5 277.176v-5.176" stroke="#ffe3b5"/><path d="m531.5 261.176v-5.176" stroke="#ffe3b5"/><path d="m485.5 231.176v-5.176" stroke="#ffe3b5"/><path d="m476.5 326.176v-5.176" stroke="#ffe3b5"/><path d="m471.5 331.176v-5.176" stroke="#af8d55"/></g></g></svg>