<svg height="1001" viewBox="0 0 1001 1001" width="1001" xmlns="http://www.w3.org/2000/svg" xmlns:xlink="http://www.w3.org/1999/xlink"><defs><filter id="a" height="333.3%" width="333.3%" x="-116.7%" y="-116.7%"><feOffset in="SourceAlpha" result="shadowOffsetOuter1"/><feGaussianBlur in="shadowOffsetOuter1" result="shadowBlurOuter1" stdDeviation="3.5"/><feColorMatrix in="shadowBlurOuter1" result="shadowMatrixOuter1" values="0 0 0 0 1 0 0 0 0 0 0 0 0 0 0 0 0 0 0.594968996 0"/><feOffset in="SourceAlpha" result="shadowOffsetOuter2"/><feGaussianBlur in="shadowOffsetOuter2" result="shadowBlurOuter2" stdDeviation="3.5"/><feColorMatrix in="shadowBlurOuter2" result="shadowMatrixOuter2" values="0 0 0 0 1 0 0 0 0 0 0 0 0 0 0 0 0 0 0.5 0"/><feMerge><feMergeNode in="shadowMatrixOuter1"/><feMergeNode in="shadowMatrixOuter2"/></feMerge></filter><filter id="b" height="333.3%" width="333.3%" x="-116.7%" y="-116.7%"><feOffset in="SourceAlpha" result="shadowOffsetOuter1"/><feGaussianBlur in="shadowOffsetOuter1" result="shadowBlurOuter1" stdDeviation="3.5"/><feColorMatrix in="shadowBlurOuter1" result="shadowMatrixOuter1" values="0 0 0 0 1 0 0 0 0 0 0 0 0 0 0 0 0 0 0.594968996 0"/><feOffset in="SourceAlpha" result="shadowOffsetOuter2"/><feGaussianBlur in="shadowOffsetOuter2" result="shadowBlurOuter2" stdDeviation="3.5"/><feColorMatrix in="shadowBlurOuter2" result="shadowMatrixOuter2" values="0 0 0 0 1 0 0 0 0 0 0 0 0 0 0 0 0 0 0.5 0"/><feMerge><feMergeNode in="shadowMatrixOuter1"/><feMergeNode in="shadowMatrixOuter2"/></feMerge></filter><filter id="c" height="333.3%" width="333.3%" x="-116.7%" y="-116.7%"><feOffset in="SourceAlpha" result="shadowOffsetOuter1"/><feGaussianBlur in="shadowOffsetOuter1" result="shadowBlurOuter1" stdDeviation="3.5"/><feColorMatrix in="shadowBlurOuter1" result="shadowMatrixOuter1" values="0 0 0 0 1 0 0 0 0 0 0 0 0 0 0 0 0 0 0.594968996 0"/><feOffset in="SourceAlpha" result="shadowOffsetOuter2"/><feGaussianBlur in="shadowOffsetOuter2" result="shadowBlurOuter2" stdDeviation="3.5"/><feColorMatrix in="shadowBlurOuter2" result="shadowMatrixOuter2" values="0 0 0 0 1 0 0 0 0 0 0 0 0 0 0 0 0 0 0.5 0"/><feMerge><feMergeNode in="shadowMatrixOuter1"/><feMergeNode in="shadowMatrixOuter2"/></feMerge></filter><filter id="d" height="333.3%" width="333.3%" x="-116.7%" y="-116.7%"><feOffset in="SourceAlpha" result="shadowOffsetOuter1"/><feGaussianBlur in="shadowOffsetOuter1" result="shadowBlurOuter1" stdDeviation="3.5"/><feColorMatrix in="shadowBlurOuter1" result="shadowMatrixOuter1" values="0 0 0 0 1 0 0 0 0 0 0 0 0 0 0 0 0 0 0.594968996 0"/><feOffset in="SourceAlpha" result="shadowOffsetOuter2"/><feGaussianBlur in="shadowOffsetOuter2" result="shadowBlurOuter2" stdDeviation="3.5"/><feColorMatrix in="shadowBlurOuter2" result="shadowMatrixOuter2" values="0 0 0 0 1 0 0 0 0 0 0 0 0 0 0 0 0 0 0.5 0"/><feMerge><feMergeNode in="shadowMatrixOuter1"/><feMergeNode in="shadowMatrixOuter2"/></feMerge></filter><filter id="e" height="333.3%" width="333.3%" x="-116.7%" y="-116.7%"><feOffset in="SourceAlpha" result="shadowOffsetOuter1"/><feGaussianBlur in="shadowOffsetOuter1" result="shadowBlurOuter1" stdDeviation="3.5"/><feColorMatrix in="shadowBlurOuter1" result="shadowMatrixOuter1" values="0 0 0 0 1 0 0 0 0 0 0 0 0 0 0 0 0 0 0.594968996 0"/><feOffset in="SourceAlpha" result="shadowOffsetOuter2"/><feGaussianBlur in="shadowOffsetOuter2" result="shadowBlurOuter2" stdDeviation="3.5"/><feColorMatrix in="shadowBlurOuter2" result="shadowMatrixOuter2" values="0 0 0 0 1 0 0 0 0 0 0 0 0 0 0 0 0 0 0.5 0"/><feMerge><feMergeNode in="shadowMatrixOuter1"/><feMergeNode in="shadowMatrixOuter2"/></feMerge></filter><filter id="f" height="333.3%" width="333.3%" x="-116.7%" y="-116.7%"><feOffset in="SourceAlpha" result="shadowOffsetOuter1"/><feGaussianBlur in="shadowOffsetOuter1" result="shadowBlurOuter1" stdDeviation="3.5"/><feColorMatrix in="shadowBlurOuter1" result="shadowMatrixOuter1" values="0 0 0 0 1 0 0 0 0 0 0 0 0 0 0 0 0 0 0.594968996 0"/><feOffset in="SourceAlpha" result="shadowOffsetOuter2"/><feGaussianBlur in="shadowOffsetOuter2" result="shadowBlurOuter2" stdDeviation="3.5"/><feColorMatrix in="shadowBlurOuter2" result="shadowMatrixOuter2" values="0 0 0 0 1 0 0 0 0 0 0 0 0 0 0 0 0 0 0.5 0"/><feMerge><feMergeNode in="shadowMatrixOuter1"/><feMergeNode in="shadowMatrixOuter2"/></feMerge></filter><filter id="g" height="333.3%" width="333.3%" x="-116.7%" y="-116.7%"><feOffset in="SourceAlpha" result="shadowOffsetOuter1"/><feGaussianBlur in="shadowOffsetOuter1" result="shadowBlurOuter1" stdDeviation="3.5"/><feColorMatrix in="shadowBlurOuter1" result="shadowMatrixOuter1" values="0 0 0 0 1 0 0 0 0 0 0 0 0 0 0 0 0 0 0.594968996 0"/><feOffset in="SourceAlpha" result="shadowOffsetOuter2"/><feGaussianBlur in="shadowOffsetOuter2" result="shadowBlurOuter2" stdDeviation="3.5"/><feColorMatrix in="shadowBlurOuter2" result="shadowMatrixOuter2" values="0 0 0 0 1 0 0 0 0 0 0 0 0 0 0 0 0 0 0.5 0"/><feMerge><feMergeNode in="shadowMatrixOuter1"/><feMergeNode in="shadowMatrixOuter2"/></feMerge></filter><filter id="h" height="333.3%" width="333.3%" x="-116.7%" y="-116.7%"><feOffset in="SourceAlpha" result="shadowOffsetOuter1"/><feGaussianBlur in="shadowOffsetOuter1" result="shadowBlurOuter1" stdDeviation="3.5"/><feColorMatrix in="shadowBlurOuter1" result="shadowMatrixOuter1" values="0 0 0 0 1 0 0 0 0 0 0 0 0 0 0 0 0 0 0.594968996 0"/><feOffset in="SourceAlpha" result="shadowOffsetOuter2"/><feGaussianBlur in="shadowOffsetOuter2" result="shadowBlurOuter2" stdDeviation="3.5"/><feColorMatrix in="shadowBlurOuter2" result="shadowMatrixOuter2" values="0 0 0 0 1 0 0 0 0 0 0 0 0 0 0 0 0 0 0.5 0"/><feMerge><feMergeNode in="shadowMatrixOuter1"/><feMergeNode in="shadowMatrixOuter2"/></feMerge></filter><filter id="i" height="333.3%" width="333.3%" x="-116.7%" y="-116.7%"><feOffset in="SourceAlpha" result="shadowOffsetOuter1"/><feGaussianBlur in="shadowOffsetOuter1" result="shadowBlurOuter1" stdDeviation="3.5"/><feColorMatrix in="shadowBlurOuter1" result="shadowMatrixOuter1" values="0 0 0 0 1 0 0 0 0 0 0 0 0 0 0 0 0 0 0.594968996 0"/><feOffset in="SourceAlpha" result="shadowOffsetOuter2"/><feGaussianBlur in="shadowOffsetOuter2" result="shadowBlurOuter2" stdDeviation="3.5"/><feColorMatrix in="shadowBlurOuter2" result="shadowMatrixOuter2" values="0 0 0 0 1 0 0 0 0 0 0 0 0 0 0 0 0 0 0.5 0"/><feMerge><feMergeNode in="shadowMatrixOuter1"/><feMergeNode in="shadowMatrixOuter2"/></feMerge></filter><filter id="j" height="333.3%" width="333.3%" x="-116.7%" y="-116.7%"><feOffset in="SourceAlpha" result="shadowOffsetOuter1"/><feGaussianBlur in="shadowOffsetOuter1" result="shadowBlurOuter1" stdDeviation="3.5"/><feColorMatrix in="shadowBlurOuter1" result="shadowMatrixOuter1" values="0 0 0 0 1 0 0 0 0 0 0 0 0 0 0 0 0 0 0.594968996 0"/><feOffset in="SourceAlpha" result="shadowOffsetOuter2"/><feGaussianBlur in="shadowOffsetOuter2" result="shadowBlurOuter2" stdDeviation="3.5"/><feColorMatrix in="shadowBlurOuter2" result="shadowMatrixOuter2" values="0 0 0 0 1 0 0 0 0 0 0 0 0 0 0 0 0 0 0.5 0"/><feMerge><feMergeNode in="shadowMatrixOuter1"/><feMergeNode in="shadowMatrixOuter2"/></feMerge></filter><filter id="k" height="333.3%" width="333.3%" x="-116.7%" y="-116.7%"><feOffset in="SourceAlpha" result="shadowOffsetOuter1"/><feGaussianBlur in="shadowOffsetOuter1" result="shadowBlurOuter1" stdDeviation="3.5"/><feColorMatrix in="shadowBlurOuter1" result="shadowMatrixOuter1" values="0 0 0 0 1 0 0 0 0 0 0 0 0 0 0 0 0 0 0.594968996 0"/><feOffset in="SourceAlpha" result="shadowOffsetOuter2"/><feGaussianBlur in="shadowOffsetOuter2" result="shadowBlurOuter2" stdDeviation="3.5"/><feColorMatrix in="shadowBlurOuter2" result="shadowMatrixOuter2" values="0 0 0 0 1 0 0 0 0 0 0 0 0 0 0 0 0 0 0.5 0"/><feMerge><feMergeNode in="shadowMatrixOuter1"/><feMergeNode in="shadowMatrixOuter2"/></feMerge></filter><filter id="l" height="333.3%" width="333.3%" x="-116.7%" y="-116.7%"><feOffset in="SourceAlpha" result="shadowOffsetOuter1"/><feGaussianBlur in="shadowOffsetOuter1" result="shadowBlurOuter1" stdDeviation="3.5"/><feColorMatrix in="shadowBlurOuter1" result="shadowMatrixOuter1" values="0 0 0 0 1 0 0 0 0 0 0 0 0 0 0 0 0 0 0.594968996 0"/><feOffset in="SourceAlpha" result="shadowOffsetOuter2"/><feGaussianBlur in="shadowOffsetOuter2" result="shadowBlurOuter2" stdDeviation="3.5"/><feColorMatrix in="shadowBlurOuter2" result="shadowMatrixOuter2" values="0 0 0 0 1 0 0 0 0 0 0 0 0 0 0 0 0 0 0.5 0"/><feMerge><feMergeNode in="shadowMatrixOuter1"/><feMergeNode in="shadowMatrixOuter2"/></feMerge></filter><filter id="m" height="333.3%" width="333.3%" x="-116.7%" y="-116.7%"><feOffset in="SourceAlpha" result="shadowOffsetOuter1"/><feGaussianBlur in="shadowOffsetOuter1" result="shadowBlurOuter1" stdDeviation="3.5"/><feColorMatrix in="shadowBlurOuter1" result="shadowMatrixOuter1" values="0 0 0 0 1 0 0 0 0 0 0 0 0 0 0 0 0 0 0.594968996 0"/><feOffset in="SourceAlpha" result="shadowOffsetOuter2"/><feGaussianBlur in="shadowOffsetOuter2" result="shadowBlurOuter2" stdDeviation="3.5"/><feColorMatrix in="shadowBlurOuter2" result="shadowMatrixOuter2" values="0 0 0 0 1 0 0 0 0 0 0 0 0 0 0 0 0 0 0.5 0"/><feMerge><feMergeNode in="shadowMatrixOuter1"/><feMergeNode in="shadowMatrixOuter2"/></feMerge></filter><filter id="n" height="333.3%" width="333.3%" x="-116.7%" y="-116.7%"><feOffset in="SourceAlpha" result="shadowOffsetOuter1"/><feGaussianBlur in="shadowOffsetOuter1" result="shadowBlurOuter1" stdDeviation="3.5"/><feColorMatrix in="shadowBlurOuter1" result="shadowMatrixOuter1" values="0 0 0 0 1 0 0 0 0 0 0 0 0 0 0 0 0 0 0.594968996 0"/><feOffset in="SourceAlpha" result="shadowOffsetOuter2"/><feGaussianBlur in="shadowOffsetOuter2" result="shadowBlurOuter2" stdDeviation="3.5"/><feColorMatrix in="shadowBlurOuter2" result="shadowMatrixOuter2" values="0 0 0 0 1 0 0 0 0 0 0 0 0 0 0 0 0 0 0.5 0"/><feMerge><feMergeNode in="shadowMatrixOuter1"/><feMergeNode in="shadowMatrixOuter2"/></feMerge></filter><filter id="o" height="333.3%" width="333.3%" x="-116.7%" y="-116.7%"><feOffset in="SourceAlpha" result="shadowOffsetOuter1"/><feGaussianBlur in="shadowOffsetOuter1" result="shadowBlurOuter1" stdDeviation="3.5"/><feColorMatrix in="shadowBlurOuter1" result="shadowMatrixOuter1" values="0 0 0 0 1 0 0 0 0 0 0 0 0 0 0 0 0 0 0.594968996 0"/><feOffset in="SourceAlpha" result="shadowOffsetOuter2"/><feGaussianBlur in="shadowOffsetOuter2" result="shadowBlurOuter2" stdDeviation="3.5"/><feColorMatrix in="shadowBlurOuter2" result="shadowMatrixOuter2" values="0 0 0 0 1 0 0 0 0 0 0 0 0 0 0 0 0 0 0.5 0"/><feMerge><feMergeNode in="shadowMatrixOuter1"/><feMergeNode in="shadowMatrixOuter2"/></feMerge></filter><filter id="p" height="333.3%" width="333.3%" x="-116.7%" y="-116.7%"><feOffset in="SourceAlpha" result="shadowOffsetOuter1"/><feGaussianBlur in="shadowOffsetOuter1" result="shadowBlurOuter1" stdDeviation="3.5"/><feColorMatrix in="shadowBlurOuter1" result="shadowMatrixOuter1" values="0 0 0 0 1 0 0 0 0 0 0 0 0 0 0 0 0 0 0.594968996 0"/><feOffset in="SourceAlpha" result="shadowOffsetOuter2"/><feGaussianBlur in="shadowOffsetOuter2" result="shadowBlurOuter2" stdDeviation="3.5"/><feColorMatrix in="shadowBlurOuter2" result="shadowMatrixOuter2" values="0 0 0 0 1 0 0 0 0 0 0 0 0 0 0 0 0 0 0.5 0"/><feMerge><feMergeNode in="shadowMatrixOuter1"/><feMergeNode in="shadowMatrixOuter2"/></feMerge></filter><filter id="q" height="333.3%" width="333.3%" x="-116.7%" y="-116.7%"><feOffset in="SourceAlpha" result="shadowOffsetOuter1"/><feGaussianBlur in="shadowOffsetOuter1" result="shadowBlurOuter1" stdDeviation="3.5"/><feColorMatrix in="shadowBlurOuter1" result="shadowMatrixOuter1" values="0 0 0 0 1 0 0 0 0 0 0 0 0 0 0 0 0 0 0.594968996 0"/><feOffset in="SourceAlpha" result="shadowOffsetOuter2"/><feGaussianBlur in="shadowOffsetOuter2" result="shadowBlurOuter2" stdDeviation="3.5"/><feColorMatrix in="shadowBlurOuter2" result="shadowMatrixOuter2" values="0 0 0 0 1 0 0 0 0 0 0 0 0 0 0 0 0 0 0.5 0"/><feMerge><feMergeNode in="shadowMatrixOuter1"/><feMergeNode in="shadowMatrixOuter2"/></feMerge></filter><filter id="r" height="333.3%" width="333.3%" x="-116.7%" y="-116.7%"><feOffset in="SourceAlpha" result="shadowOffsetOuter1"/><feGaussianBlur in="shadowOffsetOuter1" result="shadowBlurOuter1" stdDeviation="3.5"/><feColorMatrix in="shadowBlurOuter1" result="shadowMatrixOuter1" values="0 0 0 0 1 0 0 0 0 0 0 0 0 0 0 0 0 0 0.594968996 0"/><feOffset in="SourceAlpha" result="shadowOffsetOuter2"/><feGaussianBlur in="shadowOffsetOuter2" result="shadowBlurOuter2" stdDeviation="3.5"/><feColorMatrix in="shadowBlurOuter2" result="shadowMatrixOuter2" values="0 0 0 0 1 0 0 0 0 0 0 0 0 0 0 0 0 0 0.5 0"/><feMerge><feMergeNode in="shadowMatrixOuter1"/><feMergeNode in="shadowMatrixOuter2"/></feMerge></filter><filter id="s" height="333.3%" width="333.3%" x="-116.7%" y="-116.7%"><feOffset in="SourceAlpha" result="shadowOffsetOuter1"/><feGaussianBlur in="shadowOffsetOuter1" result="shadowBlurOuter1" stdDeviation="3.5"/><feColorMatrix in="shadowBlurOuter1" result="shadowMatrixOuter1" values="0 0 0 0 1 0 0 0 0 0 0 0 0 0 0 0 0 0 0.594968996 0"/><feOffset in="SourceAlpha" result="shadowOffsetOuter2"/><feGaussianBlur in="shadowOffsetOuter2" result="shadowBlurOuter2" stdDeviation="3.5"/><feColorMatrix in="shadowBlurOuter2" result="shadowMatrixOuter2" values="0 0 0 0 1 0 0 0 0 0 0 0 0 0 0 0 0 0 0.5 0"/><feMerge><feMergeNode in="shadowMatrixOuter1"/><feMergeNode in="shadowMatrixOuter2"/></feMerge></filter><filter id="t" height="333.3%" width="333.3%" x="-116.7%" y="-116.7%"><feOffset in="SourceAlpha" result="shadowOffsetOuter1"/><feGaussianBlur in="shadowOffsetOuter1" result="shadowBlurOuter1" stdDeviation="3.5"/><feColorMatrix in="shadowBlurOuter1" result="shadowMatrixOuter1" values="0 0 0 0 1 0 0 0 0 0 0 0 0 0 0 0 0 0 0.594968996 0"/><feOffset in="SourceAlpha" result="shadowOffsetOuter2"/><feGaussianBlur in="shadowOffsetOuter2" result="shadowBlurOuter2" stdDeviation="3.5"/><feColorMatrix in="shadowBlurOuter2" result="shadowMatrixOuter2" values="0 0 0 0 1 0 0 0 0 0 0 0 0 0 0 0 0 0 0.5 0"/><feMerge><feMergeNode in="shadowMatrixOuter1"/><feMergeNode in="shadowMatrixOuter2"/></feMerge></filter><filter id="u" height="333.3%" width="333.3%" x="-116.7%" y="-116.7%"><feOffset in="SourceAlpha" result="shadowOffsetOuter1"/><feGaussianBlur in="shadowOffsetOuter1" result="shadowBlurOuter1" stdDeviation="3.5"/><feColorMatrix in="shadowBlurOuter1" result="shadowMatrixOuter1" values="0 0 0 0 1 0 0 0 0 0 0 0 0 0 0 0 0 0 0.594968996 0"/><feOffset in="SourceAlpha" result="shadowOffsetOuter2"/><feGaussianBlur in="shadowOffsetOuter2" result="shadowBlurOuter2" stdDeviation="3.5"/><feColorMatrix in="shadowBlurOuter2" result="shadowMatrixOuter2" values="0 0 0 0 1 0 0 0 0 0 0 0 0 0 0 0 0 0 0.5 0"/><feMerge><feMergeNode in="shadowMatrixOuter1"/><feMergeNode in="shadowMatrixOuter2"/></feMerge></filter><filter id="v" height="333.3%" width="333.3%" x="-116.7%" y="-116.7%"><feOffset in="SourceAlpha" result="shadowOffsetOuter1"/><feGaussianBlur in="shadowOffsetOuter1" result="shadowBlurOuter1" stdDeviation="3.5"/><feColorMatrix in="shadowBlurOuter1" result="shadowMatrixOuter1" values="0 0 0 0 1 0 0 0 0 0 0 0 0 0 0 0 0 0 0.594968996 0"/><feOffset in="SourceAlpha" result="shadowOffsetOuter2"/><feGaussianBlur in="shadowOffsetOuter2" result="shadowBlurOuter2" stdDeviation="3.5"/><feColorMatrix in="shadowBlurOuter2" result="shadowMatrixOuter2" values="0 0 0 0 1 0 0 0 0 0 0 0 0 0 0 0 0 0 0.5 0"/><feMerge><feMergeNode in="shadowMatrixOuter1"/><feMergeNode in="shadowMatrixOuter2"/></feMerge></filter><filter id="w" height="333.3%" width="333.3%" x="-116.7%" y="-116.7%"><feOffset in="SourceAlpha" result="shadowOffsetOuter1"/><feGaussianBlur in="shadowOffsetOuter1" result="shadowBlurOuter1" stdDeviation="3.5"/><feColorMatrix in="shadowBlurOuter1" result="shadowMatrixOuter1" values="0 0 0 0 1 0 0 0 0 0 0 0 0 0 0 0 0 0 0.594968996 0"/><feOffset in="SourceAlpha" result="shadowOffsetOuter2"/><feGaussianBlur in="shadowOffsetOuter2" result="shadowBlurOuter2" stdDeviation="3.5"/><feColorMatrix in="shadowBlurOuter2" result="shadowMatrixOuter2" values="0 0 0 0 1 0 0 0 0 0 0 0 0 0 0 0 0 0 0.5 0"/><feMerge><feMergeNode in="shadowMatrixOuter1"/><feMergeNode in="shadowMatrixOuter2"/></feMerge></filter><filter id="x" height="333.3%" width="333.3%" x="-116.7%" y="-116.7%"><feOffset in="SourceAlpha" result="shadowOffsetOuter1"/><feGaussianBlur in="shadowOffsetOuter1" result="shadowBlurOuter1" stdDeviation="3.5"/><feColorMatrix in="shadowBlurOuter1" result="shadowMatrixOuter1" values="0 0 0 0 1 0 0 0 0 0 0 0 0 0 0 0 0 0 0.594968996 0"/><feOffset in="SourceAlpha" result="shadowOffsetOuter2"/><feGaussianBlur in="shadowOffsetOuter2" result="shadowBlurOuter2" stdDeviation="3.5"/><feColorMatrix in="shadowBlurOuter2" result="shadowMatrixOuter2" values="0 0 0 0 1 0 0 0 0 0 0 0 0 0 0 0 0 0 0.5 0"/><feMerge><feMergeNode in="shadowMatrixOuter1"/><feMergeNode in="shadowMatrixOuter2"/></feMerge></filter><filter id="y" height="333.3%" width="333.3%" x="-116.7%" y="-116.7%"><feOffset in="SourceAlpha" result="shadowOffsetOuter1"/><feGaussianBlur in="shadowOffsetOuter1" result="shadowBlurOuter1" stdDeviation="3.5"/><feColorMatrix in="shadowBlurOuter1" result="shadowMatrixOuter1" values="0 0 0 0 1 0 0 0 0 0 0 0 0 0 0 0 0 0 0.594968996 0"/><feOffset in="SourceAlpha" result="shadowOffsetOuter2"/><feGaussianBlur in="shadowOffsetOuter2" result="shadowBlurOuter2" stdDeviation="3.5"/><feColorMatrix in="shadowBlurOuter2" result="shadowMatrixOuter2" values="0 0 0 0 1 0 0 0 0 0 0 0 0 0 0 0 0 0 0.5 0"/><feMerge><feMergeNode in="shadowMatrixOuter1"/><feMergeNode in="shadowMatrixOuter2"/></feMerge></filter><circle id="z" cx="435.5" cy="754.5" r="4.5"/><circle id="A" cx="449.5" cy="754.5" r="4.5"/><circle id="B" cx="478.5" cy="754.5" r="4.5"/><circle id="C" cx="492.5" cy="754.5" r="4.5"/><circle id="D" cx="506.5" cy="754.5" r="4.5"/><circle id="E" cx="563.5" cy="754.5" r="4.5"/><circle id="F" cx="591.5" cy="754.5" r="4.5"/><circle id="G" cx="605.5" cy="754.5" r="4.5"/><circle id="H" cx="633.5" cy="754.5" r="4.5"/><circle id="I" cx="647.5" cy="754.5" r="4.5"/><circle id="J" cx="661.5" cy="754.5" r="4.5"/><circle id="K" cx="675.5" cy="754.5" r="4.5"/><circle id="L" cx="435.5" cy="790.5" r="4.5"/><circle id="M" cx="464.5" cy="790.5" r="4.5"/><circle id="N" cx="478.5" cy="790.5" r="4.5"/><circle id="O" cx="506.5" cy="790.5" r="4.5"/><circle id="P" cx="521.5" cy="790.5" r="4.5"/><circle id="Q" cx="535.5" cy="790.5" r="4.5"/><circle id="R" cx="563.5" cy="790.5" r="4.5"/><circle id="S" cx="577.5" cy="790.5" r="4.5"/><circle id="T" cx="591.5" cy="790.5" r="4.5"/><circle id="U" cx="619.5" cy="790.5" r="4.5"/><circle id="V" cx="633.5" cy="790.5" r="4.5"/><circle id="W" cx="661.5" cy="790.5" r="4.5"/><circle id="X" cx="675.5" cy="790.5" r="4.5"/><linearGradient id="Y" x1="57.341%" x2="57.341%" y1="32.877%" y2="100%"><stop offset="0"/><stop offset="1" stop-color="#66c8ff"/></linearGradient><linearGradient id="Z" x1="100%" x2="0%" y1="0%" y2="100%"><stop offset="0" stop-color="#fff" stop-opacity="0"/><stop offset="1" stop-color="#fff"/></linearGradient><linearGradient id="aa" x1="104.033%" x2="-17.504%" y1="26.805%" y2="84.104%"><stop offset="0" stop-color="#707070"/><stop offset="1"/></linearGradient><linearGradient id="ab" x1="50%" x2="50%" y1="0%" y2="100%"><stop offset="0" stop-color="#eee"/><stop offset="1" stop-color="#d8d8d8"/></linearGradient><linearGradient id="ac" x1="133.322%" x2="26.778%" y1="-15.282%" y2="58.794%"><stop offset="0" stop-color="#727272"/><stop offset="1" stop-color="#1e1e1e"/></linearGradient><radialGradient id="ad" cx="66.303%" cy="28.511%" r="63.669%"><stop offset="0" stop-color="#ffa5a5"/><stop offset="1" stop-color="#f55050"/></radialGradient></defs><g fill="none" fill-rule="evenodd" transform="translate(-2)"><path d="m0 0h1007.999v1008h-1007.999z" fill="url(#Y)"/><g fill="#fff"><path d="m104 118h5v5h-5z"/><path d="m219 155h5v5h-5z"/><path d="m454 196h5v5h-5z"/><path d="m346 135h5v5h-5z"/><path d="m37 566h5v5h-5z"/><path d="m82 666h5v5h-5z"/><path d="m644 268h5v5h-5z"/><path d="m580 353h5v5h-5z"/><path d="m484 421h5v5h-5z"/><path d="m845 653h5v5h-5z"/><path d="m319 426h5v5h-5z"/><path d="m82 456h5v5h-5z"/><path d="m67 257h5v5h-5z"/><path d="m480 284h5v5h-5z"/><path d="m668 191h5v5h-5z"/><path d="m465 80h5v5h-5z"/><path d="m920 42h5v5h-5z"/><path d="m901 449h5v5h-5z"/><path d="m933 336h5v5h-5z"/><path d="m767 356h5v5h-5z"/><path d="m641 403h5v5h-5z"/><path d="m796 609h5v5h-5z"/><path d="m906 722h5v5h-5z"/><path d="m873 256h5v5h-5z"/><path d="m748 61h5v5h-5z"/></g><path d="m482.5 286.5 97.975-97.975" stroke="url(#Z)" stroke-width="7"/><path d="m670.5 193.5 97.975-97.975" stroke="url(#Z)" stroke-width="7"/><path d="m643.5 405.5 97.975-97.975" stroke="url(#Z)" stroke-width="7"/><path d="m798.5 611.5 97.975-97.975" stroke="url(#Z)" stroke-width="7"/><path d="m39.5 568.5 97.975-97.975" stroke="url(#Z)" stroke-width="7"/><path d="m221.5 157.5 97.975-97.975" stroke="url(#Z)" stroke-width="7"/><g transform="translate(493.998 845)"><path d="m-2.49968146 8.53052738c10.7448069.37120947 22.59968646 4.23844262 35.43162066 11.69674032 7.1293153 4.1437678 13.2306311 8.4094698 19.3686517 13.3644304l1.3555642 1.1061517 1.9938649 1.6786826 4.1365701 3.5470834 7.0111361 6.0463918.6354402.5369324c8.6220093 7.1458729 15.530219 10.8499038 25.8985372 13.0175162l1.0145997.2043798.5003741.0952867 1.0471255.1881583c.5182786.0894417 1.0442948.1748657 1.5782451.256266l1.1074301.1614619c.9164225.1276317 1.8555819.2438565 2.8184069.3486386l1.182986.1217773 1.207257.1105968c.602814.05186 1.21443.0995601 1.83505.1430907l1.270669.082508 1.296236.0711504c.213353.0106578.427718.0208581.6431.0306004l1.341692.0542885c.444346.0158986.892917.0299186 1.34577.0420565l1.395222.0311927c.229567.0041302.460206.007794.691925.0109909l1.431308.01371 1.454099.0020878c.24478-.0006241.490708-.0017334.728195-.0032478l1.506772-.0154911c.504054-.0070886 1.01279-.0161282 1.517329-.0269154l1.564739-.0391063 1.585523-.0506851 1.61568-.0625338 1.646195-.074426 1.677064-.0863609 1.708289-.0983377 1.739877-.110356 1.771743-.1223998c.298013-.0214116.597342-.0433252.891391-.0652403l1.827048-.1410899 1.853219-.1527318 1.886409-.1649265 1.919959-.177159 1.953868-.1894287 1.988137-.2017353 2.022766-.2140784 4.440984-.4887337 1.533458 9.9107159-4.721965.5195235c-.352238.0380099-.70303.0754878-1.057774.1129983l-2.074005.2147927-2.045792.2026645-2.012639.1900008-1.979893.1773544-1.947557.1647254-1.915551.1520979c-.31666.024304-.631977.0480807-.952778.0718264l-1.861715.1327398-1.837555.1206472-1.807043.108087-1.776939.0955405-1.747242.0830069-1.717964.0704859-1.688987.0579575c-.279166.0086217-.557107.0167213-.842721.024527l-1.637716.0390197-1.618563.0267245c-.267517.0034177-.53385.0063148-.808489.008759l-1.564539.0080911c-.524552.0000085-1.044396-.0010106-1.559599-.0046038l-1.513861-.0167837c-.7598-.0116064-1.509326-.0279294-2.248805-.0489509l-1.448657-.0476652c-.728251-.0272762-1.446572-.0592639-2.155189-.0959437l-1.385935-.0784741c-.235344-.0144884-.469597-.029512-.702769-.04507l-1.356117-.0974045-1.339042-.1103202-1.316041-.1227868-1.2861974-.1345026c-.218638-.0241128-.4362496-.0487634-.6528435-.0739509l-1.253038-.1530998-1.2386516-.1664775-1.2094498-.1778095c-1.6158074-.2478545-3.1719675-.5287966-4.6728258-.8423841-12.1412219-2.536772-20.4334438-6.8632174-30.2137029-14.875303l-.9122899-.7566901-10.3472121-8.9089988-2.1621055-1.8387503-1.2703738-1.0584854c-6.0314186-4.9352062-11.9392325-9.1096763-18.9078165-13.1600224-10.9360891-6.3563767-20.76076975-9.7763304-29.60199184-10.1576382z" fill="#000" fill-rule="nonzero" stroke="#000" stroke-width="5"/><path d="m364.501513 7.5c2.071068 0 3.946068.83946609 5.303301 2.19669914 1.357233 1.35723306 2.196699 3.23223306 2.196699 5.30330086v77.5h-121.499712v-85z" fill="#fff" stroke="#000" stroke-width="5"/><path d="m344.320668 18.5c1.794925 0 3.419925.7275373 4.596194 1.9038059 1.176269 1.1762687 1.903806 2.8012687 1.903806 4.5961941 0 .3394775-.026595.6784334-.079541 1.0137567l-1.736842 11c-.249421 1.5796692-1.054917 2.95123-2.197866 3.9278735-1.14295.9766436-2.623354 1.5583698-4.222593 1.5583698h-30.164049c-1.599239 0-3.079643-.5817262-4.222593-1.5583698-1.14295-.9766435-1.948445-2.3482043-2.197866-3.9278735l-1.736842-11c-.279942-1.7729608.185254-3.4915442 1.163674-4.8368727.978421-1.3453285 2.470067-2.3174021 4.243028-2.5973433.335323-.0529458.674279-.0795407 1.013757-.0795407z" fill="#4e95ca" stroke="#000" stroke-linejoin="round" stroke-width="5"/><path d="m348.320668 18.5c1.794925 0 3.419925.7275373 4.596194 1.9038059 1.176269 1.1762687 1.903806 2.8012687 1.903806 4.5961941 0 .3394775-.026595.6784334-.079541 1.0137567l-1.736842 11c-.249421 1.5796692-1.054917 2.95123-2.197866 3.9278735-1.14295.9766436-2.623354 1.5583698-4.222593 1.5583698h-30.164049c-1.599239 0-3.079643-.5817262-4.222593-1.5583698-1.14295-.9766435-1.948445-2.3482043-2.197866-3.9278735l-1.736842-11c-.279942-1.7729608.185254-3.4915442 1.163674-4.8368727.978421-1.3453285 2.470067-2.3174021 4.243028-2.5973433.335323-.0529458.674279-.0795407 1.013757-.0795407z" fill="#4e95ca" stroke="#000" stroke-linejoin="round" stroke-width="5"/><circle cx="317.002" cy="27" fill="#000" r="2"/><circle cx="323.002" cy="34" fill="#000" r="2"/><circle cx="333.002" cy="34" fill="#000" r="2"/><circle cx="342.002" cy="34" fill="#000" r="2"/><circle cx="327.002" cy="27" fill="#000" r="2"/><circle cx="337.002" cy="27" fill="#000" r="2"/><circle cx="347.002" cy="27" fill="#000" r="2"/><ellipse cx="297.002" cy="30" fill="#d8d8d8" rx="1" ry="2.5" stroke="#000" stroke-width="5"/><ellipse cx="361.002" cy="30" fill="#d8d8d8" rx="1" ry="2.5" stroke="#000" stroke-width="5"/><path d="m278.501801 7.5v85h-129v-77.5c0-2.0710678.839466-3.9460678 2.1967-5.30330086 1.357233-1.35723305 3.232233-2.19669914 5.3033-2.19669914z" fill="url(#aa)" stroke="#000" stroke-width="5"/><path d="m271.756403 0h12.490796c1.550092 0 2.707362.27847683 3.68514.80139811.977777.52292128 1.745143 1.290287 2.268064 2.26806478.522922.97777778.801398 2.13504723.801398 3.68513903v.24539808h-26v-.24539808c0-1.5500918.278477-2.70736125.801399-3.68513903.522921-.97777778 1.290287-1.7451435 2.268064-2.26806478.977778-.52292128 2.135048-.80139811 3.685139-.80139811zm30 0h12.490796c1.550092 0 2.707362.27847683 3.68514.80139811.977777.52292128 1.745143 1.290287 2.268064 2.26806478.522922.97777778.801398 2.13504723.801398 3.68513903v.24539808h-26v-.24539808c0-1.5500918.278477-2.70736125.801399-3.68513903.522921-.97777778 1.290287-1.7451435 2.268064-2.26806478.977778-.52292128 2.135048-.80139811 3.685139-.80139811zm30 0h12.490796c1.550092 0 2.707362.27847683 3.68514.80139811.977777.52292128 1.745143 1.290287 2.268064 2.26806478.522922.97777778.801398 2.13504723.801398 3.68513903v.24539808h-26v-.24539808c0-1.5500918.278477-2.70736125.801399-3.68513903.522921-.97777778 1.290287-1.7451435 2.268064-2.26806478.977778-.52292128 2.135048-.80139811 3.685139-.80139811z" fill="#000"/><g stroke="#000" stroke-width="5"><path d="m199.001801 65.5c2.347211 0 4.472211.9513949 6.010408 2.4895924 1.538197 1.5381974 2.489592 3.6631974 2.489592 6.0104076s-.951395 4.4722102-2.489592 6.0104076c-1.538197 1.5381975-3.663197 2.4895924-6.010408 2.4895924h-23.5v-17z" fill="#d8d8d8"/><path d="m161.502 65.5h32v17h-32z" fill="#4e95ca"/><path d="m258.001801 65.5c2.347211 0 4.472211.9513949 6.010408 2.4895924 1.538197 1.5381974 2.489592 3.6631974 2.489592 6.0104076s-.951395 4.4722102-2.489592 6.0104076c-1.538197 1.5381975-3.663197 2.4895924-6.010408 2.4895924h-23.5v-17z" fill="#d8d8d8"/><path d="m244.001801 65.5c2.347211 0 4.472211.9513949 6.010408 2.4895924 1.538197 1.5381974 2.489592 3.6631974 2.489592 6.0104076s-.951395 4.4722102-2.489592 6.0104076c-1.538197 1.5381975-3.663197 2.4895924-6.010408 2.4895924h-15c-2.34721 0-4.47221-.9513949-6.010407-2.4895924-1.538198-1.5381974-2.489593-3.6631974-2.489593-6.0104076s.951395-4.4722102 2.489593-6.0104076c1.538197-1.5381975 3.663197-2.4895924 6.010407-2.4895924z" fill="#4e95ca"/><path d="m257.001801 19.5c2.347211 0 4.472211.9513949 6.010408 2.4895924 1.538197 1.5381974 2.489592 3.6631974 2.489592 6.0104076s-.951395 4.4722102-2.489592 6.0104076c-1.538197 1.5381975-3.663197 2.4895924-6.010408 2.4895924h-4.5v-17z" fill="#000"/><path d="m251.001801 19.5c2.347211 0 4.472211.9513949 6.010408 2.4895924 1.538197 1.5381974 2.489592 3.6631974 2.489592 6.0104076s-.951395 4.4722102-2.489592 6.0104076c-1.538197 1.5381975-3.663197 2.4895924-6.010408 2.4895924-2.34721 0-4.47221-.9513949-6.010407-2.4895924-1.538198-1.5381974-2.489593-3.6631974-2.489593-6.0104076s.951395-4.4722102 2.489593-6.0104076c1.538197-1.5381975 3.663197-2.4895924 6.010407-2.4895924z" fill="#ff7070"/><path d="m225.001801 19.5c2.347211 0 4.472211.9513949 6.010408 2.4895924 1.538197 1.5381974 2.489592 3.6631974 2.489592 6.0104076s-.951395 4.4722102-2.489592 6.0104076c-1.538197 1.5381975-3.663197 2.4895924-6.010408 2.4895924h-4.5v-17z" fill="#000"/><path d="m210.502 19.5h17v17h-17z" fill="#ff7070"/><path d="m299.002 55.223h62.54" stroke-linecap="round"/><path d="m299.002 65.223h62.54" stroke-linecap="round"/><path d="m333.002 75.223h28.54" stroke-linecap="round"/></g></g><g stroke="#000" stroke-width="5" transform="translate(79 935)"><path d="m819.314207 2.5c4.832491 0 9.207491 1.95875422 12.374368 5.12563133 3.166877 3.16687707 5.125632 7.54187707 5.125632 12.37436867v49.3275459h-834.314207v-49.3275459c0-4.8324916 1.95875422-9.2074916 5.12563133-12.37436867 3.16687707-3.16687711 7.54187707-5.12563133 12.37436867-5.12563133z" fill="#589bf4"/><path d="m829.314207 2.5c4.832491 0 9.207491 1.95875422 12.374368 5.12563133 3.166877 3.16687707 5.125632 7.54187707 5.125632 12.37436867v49.3275459h-781.3697135v-49.3275459c0-4.8324916 1.9587542-9.2074916 5.1256313-12.37436867 3.1668771-3.16687711 7.5418771-5.12563133 12.3743687-5.12563133z" fill="#afd2ff"/></g><g fill="#fff" stroke="#000" stroke-width="2"><path d="m171 240h19v19h-19z"/><path d="m192 240h19v19h-19z"/><path d="m213 240h19v19h-19z"/><path d="m234 261h19v19h-19z"/><path d="m234 282h19v19h-19z"/><path d="m234 303h19v19h-19z"/><path d="m234 324h19v19h-19z"/><path d="m234 345h19v19h-19z"/><path d="m150 261h19v19h-19z"/><path d="m150 282h19v19h-19z"/><path d="m150 303h19v19h-19z"/><path d="m150 324h19v19h-19z"/><path d="m150 345h19v19h-19z"/><path d="m150 366h19v19h-19z"/><path d="m234 366h19v19h-19z"/><path d="m171 324h19v19h-19z"/><path d="m192 324h19v19h-19z"/><path d="m213 324h19v19h-19z"/><path d="m276 240h19v19h-19z"/><path d="m297 261h19v19h-19z"/><path d="m318 282h19v19h-19z"/><path d="m339 303h19v19h-19z"/><path d="m360 366h19v19h-19z"/><path d="m381 366h19v19h-19z"/><path d="m402 366h19v19h-19z"/><path d="m423 366h19v19h-19z"/><path d="m318 324h19v19h-19z"/><path d="m297 345h19v19h-19z"/><path d="m276 366h19v19h-19z"/></g><path d="m145.673008 583.343423c-16.653371 145.622504-30.911601 238.174696-42.77469 277.656577-17.7946346 59.222821 21.80482 92 28.68591 30 4.587393-41.333333 9.629305-54.333333 15.125736-39" stroke="#000" stroke-linecap="round" stroke-width="5"/><path d="m146.709964 583.378141c1.165577 168.414573-14.956966 274.621859-48.3676294 318.621859-50.115995 66 22.6488184 91.505417 27.3049174 33 3.104066-39.003611 10.12497-66.670278 21.062712-83" stroke="#ff5757" stroke-linecap="round" stroke-width="5"/><path d="m144 596.387588s-20.391338 166.612412 2.709964 214.612412" stroke="#000" stroke-linecap="round" stroke-width="5"/><path d="m146.709964 583.378141s-92.73547 184.621859-3.020198 255.009447" stroke="#5fd350" stroke-linecap="round" stroke-width="5"/><path d="m146.709964 583.378141s-134.5980129 211.621859-3.020198 255.009447" stroke="#1369ff" stroke-linecap="round" stroke-width="5"/><path d="m551.5 709.5v228h-405v-228z" fill="url(#ab)" stroke="#000" stroke-width="5"/><path d="m702.138203 866.5v71h-556v-71z" fill="#fff" stroke="#000" stroke-width="5"/><path d="m702.138203 881.5v56h-556v-56z" fill="#589bf4" stroke="#000" stroke-width="5"/><path d="m702.138203 709.5v228h-340.638203v-228z" fill="#589bf4" stroke="#000" stroke-width="5"/><path d="m719.5 709.5v228h-340.638203v-228z" fill="#afd2ff" stroke="#000" stroke-width="5"/><path d="m710.819102 719.809735v207.38053h-313.276407v-207.38053z" fill="url(#ac)" stroke="#000" stroke-width="5"/><path d="m710.819102 896.106195v31.08407h-313.276407v-31.08407z" fill="#fff" stroke="#000" stroke-width="5"/><g stroke="#000" stroke-linecap="round" stroke-width="5"><path d="m159.811 729.72v24.288"/><path d="m169.811 729.72v24.288"/><path d="m179.811 729.72v24.288"/><path d="m189.811 729.72v24.288"/><path d="m199.811 729.72v24.288"/><path d="m209.811 729.72v24.288"/><path d="m219.811 729.72v24.288"/><path d="m229.811 729.72v24.288"/><path d="m239.811 729.72v24.288"/><path d="m239.811 729.72v24.288"/><path d="m249.811 729.72v24.288"/><path d="m259.811 729.72v24.288"/><path d="m269.811 729.72v24.288"/><path d="m279.811 729.72v24.288"/><path d="m289.811 729.72v24.288"/><path d="m299.811 729.72v24.288"/><path d="m309.811 729.72v24.288"/><path d="m319.811 729.72v24.288"/><path d="m329.811 729.72v24.288"/><path d="m339.811 729.72v24.288"/><path d="m349.811 729.72v24.288"/></g><circle cx="184.5" cy="911.5" fill="#d8d8d8" r="7" stroke="#000" stroke-width="5"/><circle cx="322.5" cy="911.5" fill="#d8d8d8" r="7" stroke="#000" stroke-width="5"/><path d="m551.5 466.5v228h-405.361797v-228z" fill="url(#ab)" stroke="#000" stroke-width="5"/><g stroke="#000" stroke-linecap="round" stroke-width="5"><path d="m159.811 486.72v24.288"/><path d="m169.811 486.72v24.288"/><path d="m179.811 486.72v24.288"/><path d="m189.811 486.72v24.288"/><path d="m199.811 486.72v24.288"/><path d="m209.811 486.72v24.288"/><path d="m219.811 486.72v24.288"/><path d="m229.811 486.72v24.288"/><path d="m239.811 486.72v24.288"/><path d="m239.811 486.72v24.288"/><path d="m249.811 486.72v24.288"/><path d="m259.811 486.72v24.288"/><path d="m269.811 486.72v24.288"/><path d="m279.811 486.72v24.288"/><path d="m289.811 486.72v24.288"/><path d="m299.811 486.72v24.288"/><path d="m309.811 486.72v24.288"/><path d="m319.811 486.72v24.288"/><path d="m329.811 486.72v24.288"/><path d="m339.811 486.72v24.288"/><path d="m349.811 486.72v24.288"/></g><path d="m166 693h34v9c0 3.865993-3.134007 7-7 7h-20c-3.865993 0-7-3.134007-7-7zm140 0h34v9c0 3.865993-3.134007 7-7 7h-20c-3.865993 0-7-3.134007-7-7zm89 0h34v9c0 3.865993-3.134007 7-7 7h-20c-3.865993 0-7-3.134007-7-7zm276 0h34v9c0 3.865993-3.134007 7-7 7h-20c-3.865993 0-7-3.134007-7-7z" fill="#000"/><path d="m702.138203 623.5v71h-556v-71z" fill="#fff" stroke="#000" stroke-width="5"/><path d="m702.138203 638.5v56h-556v-56z" fill="#589bf4" stroke="#000" stroke-width="5"/><path d="m361.5 466.5h340.638203v228h-340.638203z" fill="#589bf4" stroke="#000" stroke-width="5"/><path d="m719.5 466.5v228h-340.638203v-228z" fill="#afd2ff" stroke="#000" stroke-width="5"/><path d="m710.819102 476.809735v207.38053h-313.276407v-207.38053z" fill="url(#ac)" stroke="#000" stroke-width="5"/><circle cx="184.5" cy="668.5" fill="#d8d8d8" r="7" stroke="#000" stroke-width="5"/><circle cx="322.5" cy="668.5" fill="#d8d8d8" r="7" stroke="#000" stroke-width="5"/><use fill="#000" filter="url(#a)" xlink:href="#z"/><use fill="url(#ad)" xlink:href="#z"/><circle cx="439.5" cy="867.5" fill="#51df68" r="8"/><use fill="#000" filter="url(#b)" xlink:href="#A"/><use fill="url(#ad)" xlink:href="#A"/><circle cx="464.5" cy="754.5" fill="#000" r="4.5"/><use fill="#000" filter="url(#c)" xlink:href="#B"/><use fill="url(#ad)" xlink:href="#B"/><use fill="#000" filter="url(#d)" xlink:href="#C"/><use fill="url(#ad)" xlink:href="#C"/><use fill="#000" filter="url(#e)" xlink:href="#D"/><use fill="url(#ad)" xlink:href="#D"/><use fill="#000" filter="url(#f)" xlink:href="#E"/><use fill="url(#ad)" xlink:href="#E"/><circle cx="577.5" cy="754.5" fill="#000" r="4.5"/><use fill="#000" filter="url(#g)" xlink:href="#F"/><use fill="url(#ad)" xlink:href="#F"/><use fill="#000" filter="url(#h)" xlink:href="#G"/><use fill="url(#ad)" xlink:href="#G"/><circle cx="619.5" cy="754.5" fill="#000" r="4.5"/><use fill="#000" filter="url(#i)" xlink:href="#H"/><use fill="url(#ad)" xlink:href="#H"/><use fill="#000" filter="url(#j)" xlink:href="#I"/><use fill="url(#ad)" xlink:href="#I"/><use fill="#000" filter="url(#k)" xlink:href="#J"/><use fill="url(#ad)" xlink:href="#J"/><use fill="#000" filter="url(#l)" xlink:href="#K"/><use fill="url(#ad)" xlink:href="#K"/><use fill="#000" filter="url(#m)" xlink:href="#L"/><use fill="url(#ad)" xlink:href="#L"/><circle cx="449.5" cy="790.5" fill="#000" r="4.5"/><use fill="#000" filter="url(#n)" xlink:href="#M"/><use fill="url(#ad)" xlink:href="#M"/><use fill="#000" filter="url(#o)" xlink:href="#N"/><use fill="url(#ad)" xlink:href="#N"/><circle cx="492.5" cy="790.5" fill="#000" r="4.5"/><use fill="#000" filter="url(#p)" xlink:href="#O"/><use fill="url(#ad)" xlink:href="#O"/><use fill="#000" filter="url(#q)" xlink:href="#P"/><use fill="url(#ad)" xlink:href="#P"/><use fill="#000" filter="url(#r)" xlink:href="#Q"/><use fill="url(#ad)" xlink:href="#Q"/><circle cx="549.5" cy="790.5" fill="#000" r="4.5"/><use fill="#000" filter="url(#s)" xlink:href="#R"/><use fill="url(#ad)" xlink:href="#R"/><use fill="#000" filter="url(#t)" xlink:href="#S"/><use fill="url(#ad)" xlink:href="#S"/><use fill="#000" filter="url(#u)" xlink:href="#T"/><use fill="url(#ad)" xlink:href="#T"/><circle cx="605.5" cy="790.5" fill="#000" r="4.5"/><use fill="#000" filter="url(#v)" xlink:href="#U"/><use fill="url(#ad)" xlink:href="#U"/><use fill="#000" filter="url(#w)" xlink:href="#V"/><use fill="url(#ad)" xlink:href="#V"/><circle cx="647.5" cy="790.5" fill="#000" r="4.5"/><use fill="#000" filter="url(#x)" xlink:href="#W"/><use fill="url(#ad)" xlink:href="#W"/><use fill="#000" filter="url(#y)" xlink:href="#X"/><use fill="url(#ad)" xlink:href="#X"/><path d="m460 768 51-.472" opacity=".317" stroke="#fff" stroke-width="2"/><path d="m431 804 249-.472" opacity=".317" stroke="#fff" stroke-width="2"/><path d="m559.5 767.528 120.5.472" opacity=".317" stroke="#fff" stroke-width="2"/><g transform="translate(476.539 522)"><path d="m163.752217 50.9303227c1.809578-4.3939467 2.709033-8.633053 2.709033-13.686733 0-20.5690666-16.546529-37.2435897-36.957708-37.2435897-20.411178 0-36.9577079 16.6745231-36.9577079 37.2435897 0 8.4068559 2.764044 16.1631409 7.4262859 22.3963114" fill="#fff" stroke="#000" stroke-width="5"/><path d="m58.7559296 74.4871795c20.4111785 0 36.957708-16.6745231 36.957708-37.2435898 0-20.5690666-16.5465295-37.2435897-36.957708-37.2435897-20.4111786 0-36.9577081 16.6745231-36.9577081 37.2435897 0 20.5690667 16.5465295 37.2435898 36.9577081 37.2435898z" fill="#fff" stroke="#000" stroke-width="5"/><path d="m118.391673 47.3974359c10.497178 0 19.006821-8.575469 19.006821-19.1538462 0-10.5783771-8.509643-19.15384611-19.006821-19.15384611-6.084594 0-11.501409 2.88121731-14.980265 7.36364651-2.522887 3.2506841 8.502886 7.3434832 8.502886 11.7901996 0 4.323873-11.107706 8.3131129-8.709632 11.5188749 3.468826 4.6371512 8.980516 7.6349713 15.187011 7.6349713zm-70.7476124 0c10.4971775 0 19.0068212-8.575469 19.0068212-19.1538462 0-10.5783771-8.5096437-19.15384611-19.0068212-19.15384611-7.6308039 0-14.2113158 4.53161891-17.2361112 11.07005151-1.1362097 2.4560442 9.8445695 5.1952485 9.8445695 8.0837946 0 2.8658999-10.9906892 5.5847905-9.8712006 8.0259762 3.0126768 6.5695209 9.609466 11.12787 17.2627423 11.12787z" fill="#000"/><path d="m46.3084535 80c0-16.5685425-13.1775966-30-29.4329856-30-6.2782274 0-12.09734266 2.0035606-16.8754679 5.4175941" fill="#232323" stroke="#000" stroke-linecap="round" stroke-width="5"/></g><path d="m703.638 725.875h-299.931v194.348" stroke="#fff" stroke-opacity=".257" stroke-width="5"/><path d="m703.638 725.875h-299.931v194.348" stroke="#000" stroke-opacity=".257" stroke-width="5" transform="matrix(-1 0 0 -1 1107.344 1646.098)"/><path d="m710.819102 653.106195v31.08407h-313.276407v-31.08407z" fill="#fff" stroke="#000" stroke-width="5"/><path d="m703.638 482.875h-299.931v194.348" stroke="#fff" stroke-opacity=".257" stroke-width="5"/><path d="m703.638 482.875h-299.931v194.348" stroke="#000" stroke-opacity=".257" stroke-width="5" transform="matrix(-1 0 0 -1 1107.344 1160.098)"/><g stroke="#000" stroke-linejoin="round" stroke-width="5" transform="translate(668 852)"><path d="m15 30h-15v-16h15z" fill="#b4b4b4"/><path d="m15.306 14h-15.306l6.694-14h15.306z" fill="#fff"/><path d="m7 0-7 2.494v10.506"/></g><g stroke="#000" stroke-linejoin="round" stroke-width="5" transform="translate(636.707 852)"><path d="m15.293 30h-15v-16h15z" fill="#b4b4b4"/><path d="m15.6 14h-15.307l6.694-14h15.306z" fill="#fff"/><path d="m7.293 0-7 3.748v9.252"/></g><g stroke="#000" stroke-linejoin="round" stroke-width="5" transform="translate(574.745 852)"><path d="m15.255 30h-15v-16h15z" fill="#b4b4b4"/><path d="m15.561 14h-15.306l6.693-14h15.307z" fill="#fff"/><path d="m7.255 0-7 2.494v10.506"/></g><g stroke="#000" stroke-linejoin="round" stroke-width="5" transform="translate(605.986 852)"><path d="m15.014 30h-15v-16h15z" fill="#b4b4b4"/><path d="m15.321 14h-15.307l6.694-14h15.306z" fill="#fff"/><path d="m7.014 0-7 2.494v10.506"/></g><path d="m573 582.153154c55.333333-13.846661 83.333333-12.10185 84 5.234434.568421 14.781473-33 34.020027-93.5 14.612412" stroke="#000" stroke-linecap="round" stroke-width="5"/></g></svg>