<svg xmlns="http://www.w3.org/2000/svg" width="1003" height="1003" viewBox="0 0 1003 1003"><defs><linearGradient id="a" x1="100%" x2="20.652%" y1="0%" y2="86.768%"><stop offset="0%" stop-color="#B46CFF"/><stop offset="100%" stop-color="#B4FFFC"/></linearGradient><linearGradient id="b" x1="101.015%" x2="7.605%" y1="50%" y2="50%"><stop offset="0%" stop-opacity=".442"/><stop offset="100%" stop-opacity="0"/></linearGradient><linearGradient id="c" x1="50%" x2="50%" y1="0%" y2="100%"><stop offset="0%" stop-color="#FFF"/><stop offset="100%" stop-color="#FFE3A1"/></linearGradient><linearGradient id="d" x1="50%" x2="50%" y1="0%" y2="100%"><stop offset="0%" stop-color="#A8E0FC"/><stop offset="100%" stop-color="#6FBEF9"/></linearGradient><linearGradient id="e" x1="60.347%" x2="60.347%" y1="0%" y2="100%"><stop offset="0%" stop-color="#FFF3CF"/><stop offset="100%" stop-color="#FFE3A1"/></linearGradient><linearGradient id="f" x1="104.033%" x2="-17.504%" y1="26.805%" y2="84.104%"><stop offset="0%" stop-color="#707070"/><stop offset="100%"/></linearGradient></defs><g fill="none" fill-rule="evenodd"><polygon fill="url(#a)" points="0 0 1007.999 0 1007.999 1008 0 1008"/><g transform="rotate(-31 1425.944 375.706)"><circle cx="1020" cy="21" r="21" fill="#000"/><path fill="url(#b)" d="M21,1.8189894e-12 L738.496952,1.8189894e-12 L738.496952,1.8189894e-12 L1020,1.8189894e-12 L1020,42 L737.441412,42 L21,42 C9.40202025,42 1.82040975e-12,32.5979797 1.8189894e-12,21 C1.81756906e-12,9.40202025 9.40202025,1.82467263e-12 21,1.8189894e-12 Z"/></g><g transform="translate(201 251)"><path fill="#FFE3A1" stroke="#000" stroke-linejoin="round" stroke-width="5" d="M398.892201,0 L404.002359,22.0446664 C411.976405,56.4438334 401.217396,92.4983965 375.696004,116.902221 L364.223469,127.87238 L364.223469,127.87238 L390.544547,337.790347 L422.466605,337.790347 C440.548497,337.790347 455.206766,352.448616 455.206766,370.530508 L455.206766,373.967114 C455.206766,389.862726 442.320826,402.748666 426.425214,402.748666 C426.25278,402.748666 426.08035,402.747117 425.907944,402.744018 L425.907944,402.744018 L425.907944,402.744018 L425.907944,754 L168.892201,754 L183.587172,715.102167 L183.587172,110.537573 L398.892201,0 Z"/><path fill="url(#c)" stroke="#000" stroke-linejoin="round" stroke-width="5" d="M398.892201,0 L404.002359,22.0446664 C411.976405,56.4438334 401.217396,92.4983965 375.696004,116.902221 L364.223469,127.87238 L364.223469,127.87238 L390.544547,337.790347 L422.466605,337.790347 C440.548497,337.790347 455.206766,352.448616 455.206766,370.530508 L455.206766,373.967114 C455.206766,389.862726 442.320826,402.748666 426.425214,402.748666 C426.25278,402.748666 426.08035,402.747117 425.907944,402.744018 L425.907944,402.744018 L425.907944,402.744018 L425.907944,754 L168.892201,754 L183.587172,715.102167 L183.587172,110.537573 L398.892201,0 Z"/><path fill="#C5B48B" stroke="#000" stroke-width="5" d="M386,548.5 C388.623353,548.5 390.998353,549.563324 392.717514,551.282486 C394.436676,553.001647 395.5,555.376647 395.5,558 L395.5,751.5 L295.381661,751.5 L295.381661,548.5 Z"/><path fill="#000" stroke="#000" d="M381.701613,546.5 L381.701613,753.5 L261.5,753.5 L261.5,560 C261.5,556.272078 263.011039,552.897078 265.454058,550.454058 C267.897078,548.011039 271.272078,546.5 275,546.5 L381.701613,546.5 Z"/><polygon fill="#FFE3A1" stroke="#000" stroke-linejoin="round" stroke-width="5" points="134.223 127.872 364.223 127.872 390.545 337.79 160.545 337.79"/><path fill="url(#d)" stroke="#000" stroke-linejoin="round" stroke-width="5" d="M168.892201,0 L186.865625,77.5353955 L134.223469,127.87238 L157.367716,310.685954 C159.202975,325.182447 171.215751,336.248011 185.813883,336.889131 L209.682149,337.937376 C227.541368,338.721717 241.616761,353.428839 241.616761,371.305274 C241.616761,388.757039 227.46931,402.904489 210.017546,402.904489 C209.89619,402.904489 209.774835,402.90379 209.653488,402.902392 L195.907944,402.744018 L195.907944,402.744018 L195.907944,754 L0,754 L0,147.75891 C-1.57448898e-14,135.232563 5.8680192,123.42956 15.854842,115.868294 L168.892201,0 L168.892201,0 Z"/><path fill="url(#e)" stroke="#000" stroke-linejoin="round" stroke-width="5" d="M398.892201,0 L168.892201,0 L181.205788,53.1194747 C184.714368,68.2551082 179.980404,84.119116 168.750991,94.8567986 L134.223469,127.87238 L134.223469,127.87238 L364.223469,127.87238 L398.750991,94.8567986 C409.980404,84.119116 414.714368,68.2551082 411.205788,53.1194747 L398.892201,0 L398.892201,0 Z"/><polygon fill="#CEC8FF" stroke="#000" stroke-linejoin="round" stroke-width="5" points="164.988 152.826 339.777 152.826 359.78 310.826 184.991 310.826"/><circle cx="235.117" cy="310.795" r="13.5" fill="#FF7070" stroke="#000" stroke-width="5"/><line x1="194.587" x2="426.566" y1="402.749" y2="402.749" stroke="#000" stroke-width="5"/><line x1="194.587" x2="426.566" y1="427.749" y2="427.749" stroke="#000" stroke-width="5"/><line x1="194.587" x2="426.566" y1="447.749" y2="447.749" stroke="#000" stroke-width="5"/><line x1="194.587" x2="426.566" y1="467.749" y2="467.749" stroke="#000" stroke-width="5"/><line x1="250.617" x2="438.329" y1="354.017" y2="354.017" stroke="#000" stroke-linecap="round" stroke-width="5"/><g transform="translate(188.33 142.336)"><path fill="#FFF" stroke="#000" stroke-width="5" d="M107.443607,88.1445214 C114.254008,95.1251367 123.764541,99.4593547 134.287385,99.4593547 C154.998063,99.4593547 171.787385,82.6700329 171.787385,61.9593547 C171.787385,41.2486766 154.998063,24.4593547 134.287385,24.4593547 C113.576707,24.4593547 96.7873846,41.2486766 96.7873846,61.9593547 C96.7873846,67.0262277 97.7922886,71.8583928 99.6136678,76.2674213"/><circle cx="62.287" cy="61.959" r="40" fill="#FFF" stroke="#000" stroke-width="5"/><path fill="#000" d="M76.9158123,78 C87.685365,78 96.4158123,65.9116882 96.4158123,51 C96.4158123,36.0883118 87.685365,24 76.9158123,24 C66.1462597,24 60,36.0883118 60,51 C60,65.9116882 66.1462597,78 76.9158123,78 Z" transform="rotate(-20 78.208 51)"/><path fill="#000" d="M143.803199,78 C154.572751,78 163.303199,65.9116882 163.303199,51 C163.303199,36.0883118 154.572751,24 143.803199,24 C133.033646,24 127,36.0883118 127,51 C127,65.9116882 133.033646,78 143.803199,78 Z" transform="rotate(-13 145.152 51)"/><path fill="#CEC8FF" stroke="#000" stroke-linecap="round" stroke-width="5" d="M59.7873846 116.459355C59.7873846 95.4725343 42.7742051 78.4593547 21.7873846 78.4593547 13.6817632 78.4593547 6.16888689 80.9971982 0 85.3216406M99.7873846 81.8162032C110.051749 81.8162032 120.233461 79.9813133 129.852082 76.3981164 179.764915 57.8042273 204.721332 59.6102562 204.721332 81.8162032 204.721332 118.074002 121.315031 112.816203 116.008747 112.816203"/><path stroke="#000" stroke-linecap="round" stroke-width="5" d="M98.2151704,17.5539385 C91.5492205,5.85131283 81.1445895,0 67.0012775,0 C52.8579656,0 42.4533346,5.85131283 35.7873846,17.5539385"/><path stroke="#000" stroke-linecap="round" stroke-width="5" d="M160.21517,17.5539385 C153.54922,5.85131283 143.14459,0 129.001278,0 C114.857966,0 104.453335,5.85131283 97.7873846,17.5539385"/></g><line x1="188.329" x2="398.097" y1="75.269" y2="75.269" stroke="#000" stroke-linecap="round" stroke-width="5"/><path stroke="#000" stroke-linecap="round" stroke-width="5" d="M212.223069,250.105172 C213.333979,273.443602 226.131877,284.165489 250.616761,282.270835"/><path stroke="#000" stroke-linecap="round" stroke-width="5" d="M225.704033,249.953867 C214.95602,246.631536 207.07962,249.148524 202.074836,257.504832"/><circle cx="201.617" cy="233.295" r="19.5" fill="#FF9090" style="mix-blend-mode:multiply"/><line x1="234.617" x2="234.617" y1="324.929" y2="337.79" stroke="#000" stroke-width="5"/><circle cx="382.117" cy="310.795" r="13.5" fill="#FF7070" stroke="#000" stroke-width="5"/><ellipse cx="382.273" cy="305" fill="#FFF" rx="7.273" ry="5"/><path fill="#FFF" d="M235.272727 310C239.289344 310 242.545455 307.761424 242.545455 305 242.545455 302.238576 239.289344 300 235.272727 300 231.256111 300 228 302.238576 228 305 228 307.761424 231.256111 310 235.272727 310ZM248.116761 197.795185C252.535039 197.795185 256.116761 195.332751 256.116761 192.295185 256.116761 189.257619 252.535039 186.795185 248.116761 186.795185 243.698483 186.795185 240.116761 189.257619 240.116761 192.295185 240.116761 195.332751 243.698483 197.795185 248.116761 197.795185ZM316.116761 199.795185C320.535039 199.795185 324.116761 197.332751 324.116761 194.295185 324.116761 191.257619 320.535039 188.795185 316.116761 188.795185 311.698483 188.795185 308.116761 191.257619 308.116761 194.295185 308.116761 197.332751 311.698483 199.795185 316.116761 199.795185Z"/><line x1="381.617" x2="381.617" y1="324.929" y2="337.79" stroke="#000" stroke-width="5"/><path fill="#FFEBBD" fill-rule="nonzero" stroke="#000" stroke-width="5" d="M96.4335391,428.886266 L98.3424056,428.813918 L100.783992,428.731973 L103.104873,428.665738 L104.764783,428.625791 L107.374297,428.576542 L109.31773,428.551656 L111.562609,428.53711 L113.597928,428.539209 L115.756665,428.561053 L117.313386,428.593152 L118.396622,428.626573 L106.459306,454.242358 C103.882107,452.811777 99.8372963,451.746126 94.7694997,451.947539 C90.36272,452.122681 85.2300287,454.319586 83.6286814,457.755849 C82.9648502,459.180337 83.705813,460.610804 85.0967705,462.217117 L85.4576146,462.622457 L85.842921,463.035714 L86.2500688,463.457478 L86.8960102,464.107363 L88.7626794,465.95559 L89.2479139,466.447024 L89.9790439,467.208602 L90.4648273,467.733467 C94.6598131,472.343864 98.3627988,478.5772 93.8964957,488.161252 C86.7624937,503.469808 69.6675182,512.86374 41.3192271,514.163196 L39.1071504,514.250139 L37.7242569,514.285009 L36.6048725,514.297041 L35.364362,514.292835 L34.2779495,514.274511 L33.4049079,514.250409 L32.7939375,514.228825 L31.1604943,514.153287 L30.1044962,514.091614 L29.3675112,514.043038 L28.2109369,513.958204 L26.9911054,513.858074 L25.7058332,513.741598 L24.3529369,513.607724 L23.4123588,513.508292 L21.9419033,513.343091 L20.3980009,513.157693 L32.1169512,488.01049 L32.5319129,488.162025 L33.0392976,488.334373 L33.6365232,488.520184 L34.08331,488.647908 L34.5681132,488.776171 L35.090168,488.902796 C35.1802389,488.923643 35.27183,488.94433 35.3649255,488.964813 L35.9414228,489.084898 C37.7243052,489.435617 39.9842599,489.690725 42.6283277,489.58564 C42.8045989,489.578634 42.9822228,489.569953 43.1609519,489.559547 L43.7002076,489.523107 C43.7905537,489.516155 43.8811142,489.50876 43.9718582,489.500915 L44.5182771,489.4484 L45.0676155,489.384801 C45.1593327,489.373262 45.2511097,489.361248 45.3429155,489.348753 L45.8938491,489.267975 C49.8411403,488.647054 53.7273761,487.115375 55.0931533,484.184611 C55.8443307,482.572691 55.1830109,481.1317 53.8646721,479.613333 L53.5218367,479.231986 C53.4032871,479.104237 53.280612,478.975807 53.1542487,478.846552 L52.7645313,478.45617 L52.3553076,478.059977 L50.1084076,475.96168 L49.6372336,475.512518 L49.1649157,475.051511 C49.0862464,474.973641 49.0076388,474.895242 48.9291475,474.816295 L48.4600321,474.335903 L47.9963309,473.841509 C44.2386855,469.74444 41.2851004,464.160412 45.5650648,454.976216 C53.7173781,437.482509 73.5182849,429.797005 96.4335391,428.886266 Z M245.859869,421.037404 C276.928133,419.802633 281.927816,432.476053 282.550308,442.385566 L282.587621,443.088462 L282.611801,443.780608 L282.624607,444.460652 L282.626329,445.455075 L282.612339,446.414674 L282.579492,447.632095 L212.329186,478.784778 C212.519355,478.892196 212.76504,479.002198 213.060014,479.112037 L213.437243,479.243591 C213.570607,479.287299 213.711458,479.330805 213.859398,479.373934 L214.324088,479.502011 C214.404948,479.52311 214.487481,479.544071 214.571637,479.564871 L215.095646,479.687573 L215.656211,479.805372 L216.250943,479.917215 L216.877449,480.022046 C217.091314,480.055704 217.310077,480.088018 217.533338,480.118811 L218.21622,480.206455 C218.56401,480.247821 218.921025,480.285371 219.285921,480.318511 L220.025821,480.378738 C220.400626,480.405736 220.782414,480.42793 221.169841,480.444725 L221.951815,480.470943 C222.740509,480.489611 223.548171,480.485106 224.364039,480.45268 C237.014333,479.94991 254.746039,473.43849 264.56776,467.744215 L264.995898,467.493548 L255.232629,493.942734 L253.230418,494.718823 L251.24083,495.476918 L249.779539,496.021368 L248.614881,496.446765 L247.806435,496.737351 L246.546693,497.1822 L245.676029,497.483862 L244.324717,497.942486 L242.92015,498.406651 L241.954811,498.718164 L240.96674,499.030626 L239.956311,499.343432 L238.9239,499.655976 L237.869882,499.967653 C237.692432,500.019493 237.514098,500.071272 237.334887,500.122977 L236.24916,500.432219 L235.142763,500.73908 L234.01607,501.042955 L232.869456,501.343238 L231.703296,501.639325 C231.31136,501.737254 230.916229,501.834382 230.517965,501.93061 L229.313837,502.216487 C228.90937,502.31081 228.501833,502.404132 228.091288,502.49635 L226.850692,502.769596 C225.392948,503.084286 223.899124,503.384228 222.371898,503.665094 L221.05473,503.901065 C220.833859,503.939581 220.612323,503.977683 220.390128,504.015357 L219.049122,504.236179 C214.103595,505.026323 208.847035,505.597532 203.362588,505.815505 C184.869574,506.550487 151.451784,499.447086 167.101314,465.865417 C180.639977,436.813368 219.96965,422.066379 245.859869,421.037404 Z M-85.9624946,406.051391 L-78.3630799,448.166626 L-29.609863,403.811724 L3.15329487,402.509592 L-27.011744,512.781431 L-68.9485861,514.44816 L-56.8313508,469.125467 L-57.2681929,469.142828 L-110.371388,516.85191 L-120.173456,471.642922 L-120.610298,471.660284 L-151.074902,517.71217 L-193.011744,519.378899 L-118.725652,407.353523 L-85.9624946,406.051391 Z M51.5469548,431.609358 L14.3553441,511.417274 L-23.6446559,512.927538 L13.5469548,433.119622 L51.5469548,431.609358 Z M180.153756,401.205206 L168.376988,426.476477 L182.425769,425.918125 L171.654335,449.032093 L157.605554,449.590444 L147.096627,472.145744 L146.853973,472.689068 L146.681262,473.097513 L146.573057,473.368305 L146.471615,473.637442 L146.377977,473.904541 L146.293184,474.169215 L146.218278,474.43108 L146.154298,474.68975 L146.102287,474.944839 C146.094673,474.987035 146.087602,475.029065 146.081094,475.070921 L146.048987,475.319919 C146.036489,475.443314 146.029456,475.565005 146.028472,475.684776 L146.034743,475.921692 C146.110614,477.131869 146.874133,478.121562 148.971409,478.651665 L149.394162,478.748463 C150.053793,478.884858 150.829357,478.981215 151.736664,479.031684 L152.361225,479.058467 C153.113056,479.081633 153.946709,479.076252 154.869622,479.039572 L155.544624,479.008225 L156.161791,478.970579 L156.726088,478.927097 L157.242481,478.878244 C157.324831,478.86968 157.405391,478.860912 157.484266,478.851948 L157.938114,478.795908 C158.01066,478.786204 158.081728,478.776325 158.15142,478.76628 L158.553896,478.704096 L158.928332,478.638397 L159.279693,478.569647 L159.612945,478.49831 L160.089731,478.387468 L160.864177,478.196369 L142.374759,505.851774 L135.933373,506.101327 L132.498816,506.2196 L130.019723,506.292199 L128.414036,506.331265 L126.846565,506.361829 C126.588532,506.366165 126.332112,506.37011 126.077315,506.373645 L124.568101,506.389789 L123.098349,506.395212 C122.856707,506.395212 122.61673,506.395212 122.378427,506.393626 L120.968803,506.381301 C120.505686,506.375085 120.049353,506.366712 119.599888,506.356035 L118.272179,506.316939 L116.986176,506.263127 C102.228035,505.546014 96.0866404,501.642933 102.1253,488.210078 L102.391567,487.628531 L119.410433,451.108463 L111.507993,451.422536 L122.279427,428.308569 L130.181866,427.994496 L134.777678,418.132537 L180.153756,401.205206 Z M334.328629,419.908938 L330.595867,427.918915 L331.033367,427.901527 C336.33631,423.517209 341.41125,421.158193 348.433361,419.942892 L349.303091,419.799736 C349.889596,419.70803 350.489669,419.623705 351.104492,419.546282 L352.037938,419.435266 C352.195405,419.417605 352.353831,419.400362 352.513235,419.383527 L353.481533,419.287366 L354.474176,419.200659 C354.809213,419.173292 355.148456,419.147441 355.492051,419.123046 L356.536046,419.054168 C356.712271,419.043396 356.889621,419.032973 357.068115,419.022892 L358.152953,418.966442 L359.266129,418.917827 L346.775733,445.720444 L345.520574,445.776486 C345.314358,445.786733 345.109621,445.797432 344.906351,445.808582 L343.704224,445.880899 C342.322028,445.971577 341.010405,446.084304 339.764849,446.218792 L338.713305,446.339391 C326.631597,447.808392 321.027895,451.445335 317.396828,456.962571 L317.090319,457.440075 L316.792842,457.926749 C316.499671,458.417993 316.219101,458.922932 315.948294,459.441382 L315.680638,459.96433 C315.636536,460.052237 315.592679,460.140517 315.549054,460.22917 L315.289979,460.765555 L297.144576,499.700636 L259.082076,501.213383 L296.266129,421.421686 L334.328629,419.908938 Z M205.109584,460.369 C204.63315,461.39136 204.386867,462.404572 204.175353,463.475373 L203.941765,464.70784 L242.333994,446.93209 C241.273917,445.318571 237.061734,444.742626 233.793237,444.619209 L233.084103,444.598995 C232.969058,444.596788 232.855723,444.595142 232.744307,444.594028 L232.100503,444.593485 C231.997595,444.594379 231.897021,444.595744 231.798991,444.597552 L231.24299,444.613472 C220.799876,445.02852 209.622472,450.684984 205.109584,460.369 Z M66.0502471,400.487353 L54.8496847,424.522169 L16.8496847,426.032433 L28.0502471,401.997617 L66.0502471,400.487353 Z" transform="rotate(-90 83.127 459.933)"/></g><rect width="30" height="178" x="34" y="672" fill="#000" rx="15"/><rect width="30" height="178" x="948" y="177" fill="#000" rx="15"/><g fill="#000" transform="translate(432 72.489)"><path d="M9.5,0.000563898015 C14.7467051,0.000563898015 19,4.25385877 19,9.5005639 L19,79.5005639 C19,84.747269 14.7467051,89.0005639 9.5,89.0005639 C4.25329488,89.0005639 6.42536064e-16,84.747269 0,79.5005639 L0,9.5005639 C-6.42536064e-16,4.25385877 4.25329488,0.000563898015 9.5,0.000563898015 Z"/><path d="M0,70.606 L18,70.606 L18,89 L9.50065592,89.0005639 C4.2539508,89.0005639 0.000655922759,84.747269 0.000655922759,79.5005639 L0,70.606 Z M47,70.606 L47,89 L20,89 L20,70.606 L47,70.606 Z M67,70.606 L67.0006559,79.5005639 C67.0006559,84.747269 62.747361,89.0005639 57.5006559,89.0005639 L49,89 L49,70.606 L67,70.606 Z M67,68.606 L49,68.606 L49,20.606 L67,20.606 L67,68.606 Z M0,20.606 L18,20.606 L18,68.606 L0,68.606 L0,20.606 Z M57.396641,0.00112157677 C57.4312685,0.0007501057 57.4659405,0.000563898015 57.5006559,0.000563898015 C62.747361,0.000563898015 67.0006559,4.25385877 67.0006559,9.5005639 L67,18.606 L49,18.606 L49,0 L57.2927498,0.000563898013 L57.396641,0.00112157677 Z M18,0 L18,18.606 L0,18.606 L0.000655922759,9.5005639 C0.000655922759,4.25385877 4.2539508,0.000563898015 9.50065592,0.000563898015 L18,0 Z M47,0 L47,18.606 L20,18.606 L20,0 L47,0 Z" transform="translate(128)"/><path d="M75.3960469,11.104517 C80.642752,11.104517 84.8960469,15.3578119 84.8960469,20.604517 L84.8960469,68.3966108 C84.8960469,73.6433159 80.642752,77.8966108 75.3960469,77.8966108 C70.1493418,77.8966108 65.8960469,73.6433159 65.8960469,68.3966108 L65.8960469,20.604517 C65.8960469,15.3578119 70.1493418,11.104517 75.3960469,11.104517 Z" transform="rotate(90 75.396 44.5)"/></g><path fill="#FF7070" fill-rule="nonzero" stroke="#000" stroke-width="5" d="M513.746011,925.317744 C529.126145,919.556294 540.346558,921.256546 553.618529,929.449292 L554.458393,929.976349 L555.084572,930.383702 L556.051686,931.026035 L557.74038,932.167521 L560.591798,934.12365 L565.924981,937.829829 L568.343729,939.525245 C583.92656,950.124639 597.360737,955.164033 617.188535,955.294432 L620.5,955.30527 L620.5,965.274534 C597.730237,965.680498 582.339045,960.616219 565.309603,949.519096 L564.017912,948.667904 C563.79648,948.520385 563.574732,948.371845 563.352648,948.222282 L562.500435,947.640537 L556.648253,943.555846 L552.890391,940.964079 L550.592529,939.404703 L549.566463,938.723012 L548.777639,938.2148 C538.18554,931.576869 529.785947,930.115191 517.77601,934.489401 L517.248713,934.684233 C495.528217,942.820008 477.923236,944.503649 464.498739,939.88619 L464.499266,929.100678 C475.988052,934.548639 492.132,933.297264 512.982538,925.601635 Z"/><path fill="#58B9FF" fill-rule="nonzero" stroke="#000" stroke-width="5" d="M464.499156,929.635923 C471.993561,923.534636 480.484389,920.926958 489.882664,921.805389 C498.572149,922.617571 508.087248,926.460493 518.319562,933.447522 C524.393068,937.594752 529.591406,941.863678 534.830234,946.831763 L535.979443,947.933466 L537.676249,949.611792 L541.193217,953.154787 L547.151209,959.1912 L547.68955,959.725608 C554.942583,966.787614 560.745577,970.463338 569.470795,972.606795 L570.31672,972.806986 L571.632346,973.090198 C572.064743,973.177804 572.503546,973.261501 572.948917,973.341286 L573.885157,973.501652 C574.654914,973.627568 575.443732,973.742244 576.252385,973.845658 L577.251069,973.966436 L578.270469,974.076149 C578.777274,974.127357 579.291459,974.174467 579.813193,974.217472 L580.88704,974.299389 L581.982707,974.370045 C582.161488,974.380533 582.34111,974.390574 582.521578,974.400168 L583.658074,974.454193 C584.032124,974.469909 584.409718,974.483773 584.790905,974.495783 L585.973143,974.526834 C586.165977,974.530907 586.359705,974.534523 586.554336,974.53768 L587.76578,974.551313 L589.000917,974.553376 C589.204137,974.552759 589.40829,974.551677 589.613385,974.55013 L590.890797,974.534683 C591.313714,974.52768 591.740528,974.51877 592.171289,974.507948 L593.493081,974.469139 L594.835086,974.418738 L596.202921,974.356542 L597.596883,974.282502 L599.017269,974.196572 L600.464374,974.098707 L601.938507,973.988861 L603.439862,973.867012 C603.69243,973.845693 603.946113,973.823874 604.193185,973.802244 L605.743952,973.661554 L607.314977,973.509445 L608.914362,973.345167 L610.542405,973.168682 L612.199407,972.97995 L613.885668,972.778934 L615.60149,972.565595 L619.826492,972.019345 L621.13226,981.933826 L616.838928,982.488764 C616.538994,982.526788 616.240292,982.564279 615.93652,982.602013 L614.172038,982.816696 L612.429703,983.019473 L610.715405,983.209602 L609.028794,983.387097 L607.369511,983.551975 L605.737303,983.704228 C605.46745,983.72856 605.198742,983.752364 604.923184,983.776324 L603.338638,983.909052 L601.772285,984.029872 L600.23169,984.138131 L598.716503,984.23384 L597.22637,984.317008 L595.760939,984.387644 L594.325006,984.445546 C594.083328,984.454322 593.842726,984.462559 593.603191,984.470258 L592.203128,984.509447 L590.827,984.536159 C590.594859,984.539651 590.363764,984.542604 590.133706,984.545019 L588.796347,984.553144 C588.347336,984.553156 587.902367,984.55213 587.461381,984.54851 L586.171368,984.531708 C585.520798,984.520042 584.87904,984.503621 584.245901,984.482466 L583.011025,984.434732 C582.386875,984.407278 581.771254,984.375069 581.163966,984.338128 L579.982116,984.259511 C579.779356,984.24485 579.577542,984.229644 579.376667,984.213894 L578.217851,984.11611 L577.071272,984.005132 L575.944017,983.881573 L574.844223,983.746457 C574.655321,983.721987 574.467314,983.696967 574.280192,983.671397 L573.20826,983.517529 L572.146056,983.349809 L571.110974,983.171031 C569.722924,982.92094 568.386155,982.637414 567.096908,982.320948 C556.691838,979.766865 549.575911,975.422652 541.191664,967.353337 L540.414066,966.595612 L531.61878,957.69896 L529.782593,955.864392 L528.704627,954.809205 C523.592958,949.895454 518.586403,945.738694 512.680438,941.705867 C503.461087,935.41053 495.19174,932.006241 487.743359,931.656367 C478.743267,931.233605 471.068889,935.406242 464.500317,944.013918 Z"/><path fill="#2CD546" fill-rule="nonzero" stroke="#000" stroke-width="5" d="M533.711051,973.691152 C555.14812,962.612397 582.972493,958.007517 617.207757,959.945095 L620.797306,960.155133 L620.193216,970.152655 C586.58149,967.826402 559.489859,971.832168 538.948896,982.243947 L538.295927,982.578163 C518.314281,992.906727 493.696642,991.926167 464.50067,979.402529 L464.500722,968.461669 C492.106089,981.143348 514.961424,983.089138 533.121016,973.991488 Z"/><path fill="#FFF" stroke="#000" stroke-width="5" d="M717.5,920.5 L831.499711,920.5 C833.570779,920.5 835.445779,921.339466 836.803012,922.696699 C838.160245,924.053932 838.999711,925.928932 838.999711,928 L838.999711,1005.5 L717.5,1005.5 L717.5,920.5 Z"/><path fill="#4E95CA" stroke="#000" stroke-linejoin="round" stroke-width="5" d="M811.318867,931.5 C813.113792,931.5 814.738792,932.227537 815.915061,933.403806 C817.091329,934.580075 817.818867,936.205075 817.818867,938 C817.818867,938.339478 817.792272,938.678433 817.739326,939.013757 L816.002484,950.013757 C815.753062,951.593426 814.947567,952.964987 813.804617,953.94163 C812.661668,954.918274 811.181264,955.5 809.582024,955.5 L779.417976,955.5 C777.818736,955.5 776.338332,954.918274 775.195383,953.94163 C774.052433,952.964987 773.246938,951.593426 772.997516,950.013757 L771.260674,939.013757 C770.980733,937.240796 771.445928,935.522212 772.424349,934.176884 C773.40277,932.831555 774.894416,931.859482 776.667377,931.579541 C777.0027,931.526595 777.341656,931.5 777.681133,931.5 Z"/><path fill="#4E95CA" stroke="#000" stroke-linejoin="round" stroke-width="5" d="M815.318867,931.5 C817.113792,931.5 818.738792,932.227537 819.915061,933.403806 C821.091329,934.580075 821.818867,936.205075 821.818867,938 C821.818867,938.339478 821.792272,938.678433 821.739326,939.013757 L820.002484,950.013757 C819.753062,951.593426 818.947567,952.964987 817.804617,953.94163 C816.661668,954.918274 815.181264,955.5 813.582024,955.5 L783.417976,955.5 C781.818736,955.5 780.338332,954.918274 779.195383,953.94163 C778.052433,952.964987 777.246938,951.593426 776.997516,950.013757 L775.260674,939.013757 C774.980733,937.240796 775.445928,935.522212 776.424349,934.176884 C777.40277,932.831555 778.894416,931.859482 780.667377,931.579541 C781.0027,931.526595 781.341656,931.5 781.681133,931.5 L815.318867,931.5 Z"/><circle cx="784" cy="940" r="2" fill="#000"/><circle cx="790" cy="947" r="2" fill="#000"/><circle cx="800" cy="947" r="2" fill="#000"/><circle cx="809" cy="947" r="2" fill="#000"/><circle cx="794" cy="940" r="2" fill="#000"/><circle cx="804" cy="940" r="2" fill="#000"/><circle cx="814" cy="940" r="2" fill="#000"/><ellipse cx="764" cy="943" fill="#D8D8D8" stroke="#000" stroke-width="5" rx="1" ry="2.5"/><ellipse cx="828" cy="943" fill="#D8D8D8" stroke="#000" stroke-width="5" rx="1" ry="2.5"/><path fill="url(#f)" stroke="#000" stroke-width="5" d="M745.5,920.5 L745.5,1005.5 L616.5,1005.5 L616.5,928 C616.5,925.928932 617.339466,924.053932 618.696699,922.696699 C620.053932,921.339466 621.928932,920.5 624,920.5 L745.5,920.5 Z"/><path fill="#000" d="M738.754602 913 751.245398 913C752.79549 913 753.952759 913.278477 754.930537 913.801398 755.908315 914.324319 756.675681 915.091685 757.198602 916.069463 757.721523 917.047241 758 918.20451 758 919.754602L758 920 758 920 732 920 732 919.754602C732 918.20451 732.278477 917.047241 732.801398 916.069463 733.324319 915.091685 734.091685 914.324319 735.069463 913.801398 736.047241 913.278477 737.20451 913 738.754602 913ZM768.754602 913 781.245398 913C782.79549 913 783.952759 913.278477 784.930537 913.801398 785.908315 914.324319 786.675681 915.091685 787.198602 916.069463 787.721523 917.047241 788 918.20451 788 919.754602L788 920 788 920 762 920 762 919.754602C762 918.20451 762.278477 917.047241 762.801398 916.069463 763.324319 915.091685 764.091685 914.324319 765.069463 913.801398 766.047241 913.278477 767.20451 913 768.754602 913ZM798.754602 913 811.245398 913C812.79549 913 813.952759 913.278477 814.930537 913.801398 815.908315 914.324319 816.675681 915.091685 817.198602 916.069463 817.721523 917.047241 818 918.20451 818 919.754602L818 920 818 920 792 920 792 919.754602C792 918.20451 792.278477 917.047241 792.801398 916.069463 793.324319 915.091685 794.091685 914.324319 795.069463 913.801398 796.047241 913.278477 797.20451 913 798.754602 913Z"/><path fill="#D8D8D8" stroke="#000" stroke-width="5" d="M666,978.5 C668.34721,978.5 670.47221,979.451395 672.010408,980.989592 C673.548605,982.52779 674.5,984.65279 674.5,987 C674.5,989.34721 673.548605,991.47221 672.010408,993.010408 C670.47221,994.548605 668.34721,995.5 666,995.5 L642.5,995.5 L642.5,978.5 Z"/><path fill="#4E95CA" stroke="#000" stroke-width="5" d="M652,978.5 C654.34721,978.5 656.47221,979.451395 658.010408,980.989592 C659.548605,982.52779 660.5,984.65279 660.5,987 C660.5,989.34721 659.548605,991.47221 658.010408,993.010408 C656.47221,994.548605 654.34721,995.5 652,995.5 L637,995.5 C634.65279,995.5 632.52779,994.548605 630.989592,993.010408 C629.451395,991.47221 628.5,989.34721 628.5,987 C628.5,984.65279 629.451395,982.52779 630.989592,980.989592 C632.52779,979.451395 634.65279,978.5 637,978.5 Z"/><path fill="#D8D8D8" stroke="#000" stroke-width="5" d="M725,978.5 C727.34721,978.5 729.47221,979.451395 731.010408,980.989592 C732.548605,982.52779 733.5,984.65279 733.5,987 C733.5,989.34721 732.548605,991.47221 731.010408,993.010408 C729.47221,994.548605 727.34721,995.5 725,995.5 L701.5,995.5 L701.5,978.5 Z"/><path fill="#4E95CA" stroke="#000" stroke-width="5" d="M711,978.5 C713.34721,978.5 715.47221,979.451395 717.010408,980.989592 C718.548605,982.52779 719.5,984.65279 719.5,987 C719.5,989.34721 718.548605,991.47221 717.010408,993.010408 C715.47221,994.548605 713.34721,995.5 711,995.5 L696,995.5 C693.65279,995.5 691.52779,994.548605 689.989592,993.010408 C688.451395,991.47221 687.5,989.34721 687.5,987 C687.5,984.65279 688.451395,982.52779 689.989592,980.989592 C691.52779,979.451395 693.65279,978.5 696,978.5 Z"/><path fill="#000" stroke="#000" stroke-width="5" d="M724,932.5 C726.34721,932.5 728.47221,933.451395 730.010408,934.989592 C731.548605,936.52779 732.5,938.65279 732.5,941 C732.5,943.34721 731.548605,945.47221 730.010408,947.010408 C728.47221,948.548605 726.34721,949.5 724,949.5 L719.5,949.5 L719.5,932.5 Z"/><path fill="#FF7070" stroke="#000" stroke-width="5" d="M718,932.5 C720.34721,932.5 722.47221,933.451395 724.010408,934.989592 C725.548605,936.52779 726.5,938.65279 726.5,941 C726.5,943.34721 725.548605,945.47221 724.010408,947.010408 C722.47221,948.548605 720.34721,949.5 718,949.5 C715.65279,949.5 713.52779,948.548605 711.989592,947.010408 C710.451395,945.47221 709.5,943.34721 709.5,941 C709.5,938.65279 710.451395,936.52779 711.989592,934.989592 C713.52779,933.451395 715.65279,932.5 718,932.5 Z"/><path fill="#000" stroke="#000" stroke-width="5" d="M692,932.5 C694.34721,932.5 696.47221,933.451395 698.010408,934.989592 C699.548605,936.52779 700.5,938.65279 700.5,941 C700.5,943.34721 699.548605,945.47221 698.010408,947.010408 C696.47221,948.548605 694.34721,949.5 692,949.5 L687.5,949.5 L687.5,932.5 Z"/><path fill="#FF7070" stroke="#000" stroke-width="5" d="M686,932.5 C688.34721,932.5 690.47221,933.451395 692.010408,934.989592 C693.548605,936.52779 694.5,938.65279 694.5,941 C694.5,943.34721 693.548605,945.47221 692.010408,947.010408 C690.47221,948.548605 688.34721,949.5 686,949.5 C683.65279,949.5 681.52779,948.548605 679.989592,947.010408 C678.451395,945.47221 677.5,943.34721 677.5,941 C677.5,938.65279 678.451395,936.52779 679.989592,934.989592 C681.52779,933.451395 683.65279,932.5 686,932.5 Z"/><line x1="766" x2="828.541" y1="968.223" y2="968.223" stroke="#000" stroke-linecap="round" stroke-width="5"/><line x1="766" x2="828.541" y1="978.223" y2="978.223" stroke="#000" stroke-linecap="round" stroke-width="5"/><line x1="800" x2="828.541" y1="988.223" y2="988.223" stroke="#000" stroke-linecap="round" stroke-width="5"/></g></svg>