<svg xmlns="http://www.w3.org/2000/svg" xmlns:xlink="http://www.w3.org/1999/xlink" width="997" height="997" viewBox="0 0 997 997"><defs><linearGradient id="b" x1="50%" x2="50%" y1="44.595%" y2="103.867%"><stop offset="0%"/><stop offset="99.907%" stop-color="#8B9864"/></linearGradient><linearGradient id="e" x1="104.033%" x2="-17.504%" y1="26.805%" y2="84.104%"><stop offset="0%" stop-color="#707070"/><stop offset="100%"/></linearGradient><linearGradient id="g" x1="10.543%" x2="5.523%" y1="49.536%" y2="50%"><stop offset="0%" stop-opacity="0"/><stop offset="100%" stop-opacity=".504"/></linearGradient><filter id="c" width="100.4%" height="100.4%" x="-.2%" y="-.2%" filterUnits="objectBoundingBox"><feGaussianBlur in="SourceAlpha" result="shadowBlurInner1" stdDeviation="1.5"/><feOffset dy="1" in="shadowBlurInner1" result="shadowOffsetInner1"/><feComposite in="shadowOffsetInner1" in2="SourceAlpha" k2="-1" k3="1" operator="arithmetic" result="shadowInnerInner1"/><feColorMatrix in="shadowInnerInner1" values="0 0 0 0 0 0 0 0 0 0 0 0 0 0 0 0 0 0 0.5 0"/></filter><filter id="i" width="371.8%" height="492.6%" x="-135.9%" y="-192.6%" filterUnits="objectBoundingBox"><feMorphology in="SourceAlpha" operator="dilate" radius="4.5" result="shadowSpreadOuter1"/><feOffset dy="1" in="shadowSpreadOuter1" result="shadowOffsetOuter1"/><feGaussianBlur in="shadowOffsetOuter1" result="shadowBlurOuter1" stdDeviation="13"/><feColorMatrix in="shadowBlurOuter1" values="0 0 0 0 0.0823529412 0 0 0 0 0.796078431 0 0 0 0 0.325490196 0 0 0 1 0"/></filter><path id="f" d="M187.195304,14.6130681 L420.74678,14.6130681 C427.881915,14.6130681 433.875543,19.9790812 434.661569,27.0707885 L456.684416,225.765809 C457.292829,231.255042 453.336142,236.198161 447.846909,236.806573 C447.481099,236.847119 447.11333,236.867438 446.745281,236.867438 L170.910158,236.867438 C168.165962,236.867438 165.934587,234.655682 165.910353,231.911593 L164.196201,37.8161845 C164.084023,25.1141306 174.290134,14.7261431 186.992188,14.613965 C187.059892,14.6133671 187.127598,14.6130681 187.195304,14.6130681 Z"/><path id="h" d="M255,94.6713081 L255,103.671308 L246,103.671308 L246,94.6713081 L255,94.6713081 Z M264,85.6713081 L264,94.6713081 L255,94.6713081 L255,85.6713081 L264,85.6713081 Z M255,76.6713081 L255,85.6713081 L246,85.6713081 L246,76.6713081 L255,76.6713081 Z M276,76.6713081 L285,76.6713081 L285,103.671308 L276,103.671308 Z"/><polygon id="a" points="0 0 1007.999 0 1007.999 1008 0 1008"/></defs><g fill="none" fill-rule="evenodd" transform="translate(-6 -6)"><mask id="d" fill="#fff"><use xlink:href="#a"/></mask><use xlink:href="#a" fill="url(#b)"/><use xlink:href="#a" fill="#000" filter="url(#c)"/><path stroke="#000" stroke-linejoin="square" stroke-width="5" d="M1005.49933,2.5 L1005.49933,1005.5 L2.5,1005.5 L2.5,2.5 L1005.49933,2.5 Z"/><g stroke="#3AFF7D" stroke-linejoin="round" stroke-width="5" mask="url(#d)"><g transform="translate(337 108.817)"><polygon fill="#000" points="71 25.183 58.922 142.471 0 177.183 0 110.649"/><polygon fill="#000" points="0 177.183 .787 251.183 58 222.902"/><polygon points="1 251.183 18.152 369.027 88 465.183 70.719 362.493"/><polygon fill="#000" points="1 251.26 58.442 223.183 115 286.183"/><polygon fill="#000" points="115 286.535 70.598 364.183 1 251.183"/><polygon fill="#000" points="0 178.183 57.56 223.183 58 183.558"/><polygon fill="#000" points="58.449 183.938 58 223.584 115.849 287.183 124 173.183"/><polygon fill="#000" points="71.447 25.366 61 109.821 167 15.183"/><polygon fill="#000" points="61.077 110.183 124 173.183 58 143.038"/><polygon fill="#000" points="61 110.183 151 156.678 123.854 173.183"/><polygon fill="#000" points="61 109.821 166 16.183 149.825 156.183"/><polygon fill="#000" points="151 155.183 148.994 267.183 123 171.553"/><polygon fill="#000" points="121.747 172.183 115 286.183 148 267.316"/><polygon fill="#000" points="115.692 287.183 167 343.732 71 364.183"/><polygon fill="#000" points="385.653 11.3 365.225 99.786 304.852 126.061 306.303 67.964" transform="scale(-1 1) rotate(-47 0 862.707)"/><polygon fill="#000" points="274 178.183 274.787 251.183 332 222.902" transform="matrix(-1 0 0 1 606 0)"/><polygon points="245 251.183 261.365 369.027 331.213 465.183 313.932 362.493" transform="matrix(-1 0 0 1 576.213 0)"/><polygon fill="#000" points="217 251.26 274.442 223.183 331 286.183" transform="matrix(-1 0 0 1 548 0)"/><polygon fill="#000" points="331 286.535 286.598 364.183 217 251.183" transform="matrix(-1 0 0 1 548 0)"/><polygon fill="#000" points="274 178.183 331.56 223.183 332 183.558" transform="matrix(-1 0 0 1 606 0)"/><polygon fill="#000" points="209.449 183.938 209 223.584 266.849 287.183 275 173.183" transform="matrix(-1 0 0 1 484 0)"/><polygon fill="#000" points="176.539 25.366 166 111.293 272.092 15.183" transform="matrix(-1 0 0 1 438.092 0)"/><polygon fill="#000" points="212.077 110.183 275 173.183 209 143.038" transform="matrix(-1 0 0 1 484 0)"/><polygon fill="#000" points="181 110.183 271 156.678 243.854 173.183" transform="matrix(-1 0 0 1 452 0)"/><polygon fill="#000" points="166 109.821 271 16.183 254.825 156.183" transform="matrix(-1 0 0 1 437 0)"/><polygon fill="#000" points="210 155.183 207.994 267.183 182 171.553" transform="matrix(-1 0 0 1 392 0)"/><polygon fill="#000" points="190.747 172.183 184 286.183 217 267.316" transform="matrix(-1 0 0 1 401 0)"/><polygon fill="#000" points="210.692 287.183 262 343.732 166 364.183" transform="matrix(-1 0 0 1 428 0)"/><polygon fill="#000" points="182.553 155.183 150.039 155.183 148 267.183 185 267.183" transform="matrix(-1 0 0 1 333 0)"/><polygon fill="#000" points="166.713 16.183 183 156.183 151 156.183" transform="matrix(-1 0 0 1 334 0)"/><polygon fill="#000" points="217 287.183 166.287 344.183 115 287.183" transform="matrix(-1 0 0 1 332 0)"/><polygon fill="#000" points="114 286.183 217 286.183 184.144 267.183 148.287 267.183"/></g></g><g fill="#000" stroke="#3AFF7D" stroke-linejoin="round" stroke-width="5" mask="url(#d)"><g transform="rotate(-15 971.02 -2823.498)"><polygon points="0 45.73 81.015 0 107.669 24.179"/><polygon points="0 28.511 103.217 24.179 107.669 50.063" transform="matrix(1 0 0 -1 0 74.241)"/></g></g><g stroke="#3AFF7D" stroke-linejoin="round" stroke-width="5" mask="url(#d)"><g transform="rotate(33 -751.925 627.95)"><polyline points="48.639 42.991 20.918 53.465 5.995 32.136"/><polygon points="3.665 44.365 25.853 6.365 47.604 47.1" transform="rotate(-106 25.634 26.732)"/></g></g><polygon stroke="#3AFF7D" stroke-linejoin="round" stroke-width="5" points="783 566.078 777 487 830 541.164" mask="url(#d)" transform="rotate(-25 803.5 526.54)"/><polygon stroke="#3AFF7D" stroke-linejoin="round" stroke-width="5" points="786.046 579.819 780.046 500.74 762.022 552.006" mask="url(#d)" transform="rotate(-25 774.034 540.28)"/><g transform="translate(79 660.329)"><g transform="translate(479.43 210.671)"><path fill="#FFF" stroke="#000" stroke-width="5" d="M300.069008,7.5 C302.140076,7.5 304.015076,8.33946609 305.372309,9.69669914 C306.729542,11.0539322 307.569008,12.9289322 307.569008,15 L307.569008,92.5 L186.069296,92.5 L186.069296,7.5 Z"/><path fill="#4E95CA" stroke="#000" stroke-linejoin="round" stroke-width="5" d="M279.888163,18.5 C281.683088,18.5 283.308088,19.2275373 284.484357,20.4038059 C285.660626,21.5800746 286.388163,23.2050746 286.388163,25 C286.388163,25.3394775 286.361568,25.6784334 286.308622,26.0137567 L284.57178,37.0137567 C284.322359,38.5934259 283.516863,39.9649867 282.373914,40.9416302 C281.230964,41.9182738 279.75056,42.5 278.151321,42.5 L247.987272,42.5 C246.388033,42.5 244.907629,41.9182738 243.764679,40.9416302 C242.621729,39.9649867 241.816234,38.5934259 241.566813,37.0137567 L239.829971,26.0137567 C239.550029,24.2407959 240.015225,22.5222125 240.993645,21.176884 C241.972066,19.8315555 243.463712,18.8594819 245.236673,18.5795407 C245.571996,18.5265949 245.910952,18.5 246.25043,18.5 L279.888163,18.5 Z"/><path fill="#4E95CA" stroke="#000" stroke-linejoin="round" stroke-width="5" d="M283.888163,18.5 C285.683088,18.5 287.308088,19.2275373 288.484357,20.4038059 C289.660626,21.5800746 290.388163,23.2050746 290.388163,25 C290.388163,25.3394775 290.361568,25.6784334 290.308622,26.0137567 L288.57178,37.0137567 C288.322359,38.5934259 287.516863,39.9649867 286.373914,40.9416302 C285.230964,41.9182738 283.75056,42.5 282.151321,42.5 L251.987272,42.5 C250.388033,42.5 248.907629,41.9182738 247.764679,40.9416302 C246.621729,39.9649867 245.816234,38.5934259 245.566813,37.0137567 L243.829971,26.0137567 C243.550029,24.2407959 244.015225,22.5222125 244.993645,21.176884 C245.972066,19.8315555 247.463712,18.8594819 249.236673,18.5795407 C249.571996,18.5265949 249.910952,18.5 250.25043,18.5 L283.888163,18.5 Z"/><path stroke="#000" stroke-width="10" d="M99.5692964,61.2940277 L67.5692964,61.2940277 C22.5230988,62.8016071 0,80.3546957 0,113.953293"/><path stroke="#000" stroke-width="10" d="M99.5692964,61.2940277 L67.5692964,61.2940277 C22.5230988,62.8016071 0,80.3546957 0,113.953293"/><path stroke="#000" stroke-width="10" d="M117.569296,68.2940277 L85.5692964,68.2940277 C40.5230988,69.8016071 18,87.3546957 18,120.953293"/><circle cx="252.569" cy="27" r="2" fill="#000"/><circle cx="258.569" cy="34" r="2" fill="#000"/><circle cx="268.569" cy="34" r="2" fill="#000"/><circle cx="277.569" cy="34" r="2" fill="#000"/><circle cx="262.569" cy="27" r="2" fill="#000"/><circle cx="272.569" cy="27" r="2" fill="#000"/><circle cx="282.569" cy="27" r="2" fill="#000"/><ellipse cx="232.569" cy="30" fill="#D8D8D8" stroke="#000" stroke-width="5" rx="1" ry="2.5"/><ellipse cx="296.569" cy="30" fill="#D8D8D8" stroke="#000" stroke-width="5" rx="1" ry="2.5"/><path fill="url(#e)" stroke="#000" stroke-width="5" d="M214.069296,7.5 L214.069296,92.5 L85.0692964,92.5 L85.0692964,15 C85.0692964,12.9289322 85.9087625,11.0539322 87.2659955,9.69669914 C88.6232286,8.33946609 90.4982286,7.5 92.5692964,7.5 L214.069296,7.5 Z"/><path fill="#000" d="M207.323898-1.38618123e-16 219.814694 1.38618123e-16C221.364786-1.46129121e-16 222.522056.278476833 223.499834.801398111 224.477611 1.32431939 225.244977 2.09168511 225.767898 3.06946289 226.29082 4.04724067 226.569296 5.20451012 226.569296 6.75460192L226.569296 7 226.569296 7 200.569296 7 200.569296 6.75460192C200.569296 5.20451012 200.847773 4.04724067 201.370695 3.06946289 201.893616 2.09168511 202.660982 1.32431939 203.638759.801398111 204.616537.278476833 205.773807 1.46129121e-16 207.323898-1.38618123e-16ZM237.323898-1.38618123e-16 249.814694 1.38618123e-16C251.364786-1.46129121e-16 252.522056.278476833 253.499834.801398111 254.477611 1.32431939 255.244977 2.09168511 255.767898 3.06946289 256.29082 4.04724067 256.569296 5.20451012 256.569296 6.75460192L256.569296 7 256.569296 7 230.569296 7 230.569296 6.75460192C230.569296 5.20451012 230.847773 4.04724067 231.370695 3.06946289 231.893616 2.09168511 232.660982 1.32431939 233.638759.801398111 234.616537.278476833 235.773807 1.46129121e-16 237.323898-1.38618123e-16ZM267.323898-1.38618123e-16 279.814694 1.38618123e-16C281.364786-1.46129121e-16 282.522056.278476833 283.499834.801398111 284.477611 1.32431939 285.244977 2.09168511 285.767898 3.06946289 286.29082 4.04724067 286.569296 5.20451012 286.569296 6.75460192L286.569296 7 286.569296 7 260.569296 7 260.569296 6.75460192C260.569296 5.20451012 260.847773 4.04724067 261.370695 3.06946289 261.893616 2.09168511 262.660982 1.32431939 263.638759.801398111 264.616537.278476833 265.773807 1.46129121e-16 267.323898-1.38618123e-16Z"/><path fill="#D8D8D8" stroke="#000" stroke-width="5" d="M134.569296,65.5 C136.916507,65.5 139.041507,66.4513949 140.579704,67.9895924 C142.117901,69.5277898 143.069296,71.6527898 143.069296,74 C143.069296,76.3472102 142.117901,78.4722102 140.579704,80.0104076 C139.041507,81.5486051 136.916507,82.5 134.569296,82.5 L111.069296,82.5 L111.069296,65.5 Z"/><path fill="#4E95CA" stroke="#000" stroke-width="5" d="M120.569296,65.5 C122.916507,65.5 125.041507,66.4513949 126.579704,67.9895924 C128.117901,69.5277898 129.069296,71.6527898 129.069296,74 C129.069296,76.3472102 128.117901,78.4722102 126.579704,80.0104076 C125.041507,81.5486051 122.916507,82.5 120.569296,82.5 L105.569296,82.5 C103.222086,82.5 101.097086,81.5486051 99.5588888,80.0104076 C98.0206913,78.4722102 97.0692964,76.3472102 97.0692964,74 C97.0692964,71.6527898 98.0206913,69.5277898 99.5588888,67.9895924 C101.097086,66.4513949 103.222086,65.5 105.569296,65.5 Z"/><path fill="#D8D8D8" stroke="#000" stroke-width="5" d="M193.569296,65.5 C195.916507,65.5 198.041507,66.4513949 199.579704,67.9895924 C201.117901,69.5277898 202.069296,71.6527898 202.069296,74 C202.069296,76.3472102 201.117901,78.4722102 199.579704,80.0104076 C198.041507,81.5486051 195.916507,82.5 193.569296,82.5 L170.069296,82.5 L170.069296,65.5 Z"/><path fill="#4E95CA" stroke="#000" stroke-width="5" d="M179.569296,65.5 C181.916507,65.5 184.041507,66.4513949 185.579704,67.9895924 C187.117901,69.5277898 188.069296,71.6527898 188.069296,74 C188.069296,76.3472102 187.117901,78.4722102 185.579704,80.0104076 C184.041507,81.5486051 181.916507,82.5 179.569296,82.5 L164.569296,82.5 C162.222086,82.5 160.097086,81.5486051 158.558889,80.0104076 C157.020691,78.4722102 156.069296,76.3472102 156.069296,74 C156.069296,71.6527898 157.020691,69.5277898 158.558889,67.9895924 C160.097086,66.4513949 162.222086,65.5 164.569296,65.5 Z"/><path fill="#000" stroke="#000" stroke-width="5" d="M192.569296,19.5 C194.916507,19.5 197.041507,20.4513949 198.579704,21.9895924 C200.117901,23.5277898 201.069296,25.6527898 201.069296,28 C201.069296,30.3472102 200.117901,32.4722102 198.579704,34.0104076 C197.041507,35.5486051 194.916507,36.5 192.569296,36.5 L188.069296,36.5 L188.069296,19.5 Z"/><path fill="#FF7070" stroke="#000" stroke-width="5" d="M186.569296,19.5 C188.916507,19.5 191.041507,20.4513949 192.579704,21.9895924 C194.117901,23.5277898 195.069296,25.6527898 195.069296,28 C195.069296,30.3472102 194.117901,32.4722102 192.579704,34.0104076 C191.041507,35.5486051 188.916507,36.5 186.569296,36.5 C184.222086,36.5 182.097086,35.5486051 180.558889,34.0104076 C179.020691,32.4722102 178.069296,30.3472102 178.069296,28 C178.069296,25.6527898 179.020691,23.5277898 180.558889,21.9895924 C182.097086,20.4513949 184.222086,19.5 186.569296,19.5 Z"/><path fill="#000" stroke="#000" stroke-width="5" d="M160.569296,19.5 C162.916507,19.5 165.041507,20.4513949 166.579704,21.9895924 C168.117901,23.5277898 169.069296,25.6527898 169.069296,28 C169.069296,30.3472102 168.117901,32.4722102 166.579704,34.0104076 C165.041507,35.5486051 162.916507,36.5 160.569296,36.5 L156.069296,36.5 L156.069296,19.5 L160.569296,19.5 Z"/><path fill="#FF7070" stroke="#000" stroke-width="5" d="M154.569296,19.5 C156.916507,19.5 159.041507,20.4513949 160.579704,21.9895924 C162.117901,23.5277898 163.069296,25.6527898 163.069296,28 C163.069296,30.3472102 162.117901,32.4722102 160.579704,34.0104076 C159.041507,35.5486051 156.916507,36.5 154.569296,36.5 C152.222086,36.5 150.097086,35.5486051 148.558889,34.0104076 C147.020691,32.4722102 146.069296,30.3472102 146.069296,28 C146.069296,25.6527898 147.020691,23.5277898 148.558889,21.9895924 C150.097086,20.4513949 152.222086,19.5 154.569296,19.5 Z"/><line x1="234.569" x2="297.11" y1="55.223" y2="55.223" stroke="#000" stroke-linecap="round" stroke-width="5"/><line x1="234.569" x2="297.11" y1="65.223" y2="65.223" stroke="#000" stroke-linecap="round" stroke-width="5"/><line x1="268.569" x2="297.11" y1="75.223" y2="75.223" stroke="#000" stroke-linecap="round" stroke-width="5"/></g><path fill="#73684D" stroke="#000" stroke-width="5" d="M819.314207,303.171308 C824.146698,303.171308 828.521698,305.130062 831.688575,308.296939 C834.855452,311.463817 836.814207,315.838817 836.814207,320.671308 L836.814207,324.244857 C836.814207,330.064157 834.455469,335.332545 830.641907,339.146107 C826.828345,342.959669 821.559957,345.318407 815.740657,345.318407 L23.5735492,345.318407 C17.7542493,345.318407 12.485862,342.959669 8.67229967,339.146107 C4.85873734,335.332545 2.5,330.064157 2.5,324.244857 C2.5,318.425557 4.85873734,313.15717 8.67229967,309.343608 C12.485862,305.530045 17.7542493,303.171308 23.5735492,303.171308 Z"/><path fill="#D3CAB3" stroke="#000" stroke-width="5" d="M825.740657,303.171308 C831.559957,303.171308 836.828345,305.530045 840.641907,309.343608 C844.455469,313.15717 846.814207,318.425557 846.814207,324.244857 C846.814207,330.064157 844.455469,335.332545 840.641907,339.146107 C836.828345,342.959669 831.559957,345.318407 825.740657,345.318407 L86.5180427,345.318407 C80.6987428,345.318407 75.4303555,342.959669 71.6167931,339.146107 C67.8032308,335.332545 65.4444935,330.064157 65.4444935,324.244857 C65.4444935,318.425557 67.8032308,313.15717 71.6167931,309.343608 C75.4303555,305.530045 80.6987428,303.171308 86.5180427,303.171308 Z"/><path fill="#5B514A" stroke="#000" stroke-width="5" d="M594.082767,287.721462 C594.082767,279.066312 588.419055,271.430597 580.136304,268.919092 L479.270858,238.334553 C473.537686,236.596134 469.38874,231.613008 468.717833,225.659753 L446.871694,31.8094093 C444.990828,15.1196623 430.87467,2.50498047 414.079275,2.50498047 L189.706382,2.50498047 L189.706382,2.50498047 L189.706382,207.671308 L189.706382,302.294969 L579.50926,302.294969 C587.557986,302.294969 594.082767,295.770187 594.082767,287.721462 Z"/><path fill="#73684D" stroke="#000" stroke-width="5" d="M429.220321,2.5 C433.700612,2.5 437.818992,4.19212401 440.933754,6.99825042 C444.048515,9.80437682 446.159659,13.7245056 446.625477,18.1805152 L468.35949,226.087658 C468.57482,228.147502 467.934848,230.09962 466.726083,231.590609 C465.517318,233.081599 463.73976,234.11146 461.679917,234.326791 C461.420872,234.35387 461.160593,234.367438 460.900137,234.367438 L170.978936,234.367438 C170.29064,234.367438 169.667098,234.089221 169.214904,233.638932 C168.76271,233.188643 168.481864,232.566282 168.478958,231.877992 L167.597488,23.0865455 C167.573589,17.4256773 169.846473,12.291036 173.540549,8.56563709 C177.233509,4.84136301 182.346803,2.52548038 188.005633,2.50020496 Z"/><use xlink:href="#f" fill="#5B514A"/><path fill="url(#g)" stroke="#000" stroke-linejoin="square" stroke-width="5" d="M420.74678,17.1130681 C423.677282,17.1130681 426.373367,18.2150172 428.417535,20.0451327 C430.461703,21.8752482 431.853953,24.4335301 432.176786,27.3461956 L454.199632,226.041216 C454.427787,228.099679 453.799986,230.055745 452.60053,231.554234 C451.401074,233.052723 449.629964,234.093635 447.571502,234.321789 C447.297145,234.352198 447.021318,234.367438 446.745281,234.367438 L170.910158,234.367438 C170.224109,234.367438 169.602163,234.090968 169.150214,233.642993 C168.698265,233.195018 168.416314,232.575538 168.410255,231.889516 L166.696104,37.7941066 C166.646111,32.1334087 168.895303,26.9883451 172.572167,23.2459579 C176.246709,19.5059339 181.347122,17.1668154 187.003543,17.113965 Z"/><path fill="#40342C" d="M270.739678,44.1713081 L363.742468,44.1713081 C380.82142,44.1713081 387.22283,45.9495816 393.857539,49.2888075 C400.492248,52.6280333 405.966055,57.5282116 410.036198,63.7720211 C414.106342,70.0158306 416.609614,76.2090713 418.608924,93.2880231 L424.551802,144.054593 C426.551112,161.133545 425.497837,167.326786 422.889529,173.570595 C420.281221,179.814405 415.954671,184.714583 410.101761,188.053809 C404.248851,191.393035 398.26378,193.171308 381.184828,193.171308 L288.182037,193.171308 C271.103085,193.171308 264.701675,191.393035 258.066966,188.053809 C251.432258,184.714583 245.958451,179.814405 241.888307,173.570595 C237.818163,167.326786 235.314891,161.133545 233.315581,144.054593 L227.372704,93.2880231 C225.373393,76.2090713 226.426669,70.0158306 229.034977,63.7720211 C231.643285,57.5282116 235.969834,52.6280333 241.822745,49.2888075 C247.675655,45.9495816 253.660726,44.1713081 270.739678,44.1713081 Z"/><path fill="#000" d="M268.41862,48.1713081 L355.803792,48.1713081 C371.851129,48.1713081 377.865877,49.8421691 384.099832,52.9796968 C390.333786,56.1172244 395.47696,60.7214188 399.301257,66.5880854 C403.125553,72.4547521 405.47762,78.2739044 407.356167,94.3212417 L412.940078,142.021375 C414.818625,158.068712 413.82897,163.887864 411.378211,169.754531 C408.927452,175.621197 404.862238,180.225392 399.362859,183.362919 C393.86348,186.500447 388.239923,188.171308 372.192586,188.171308 L284.807414,188.171308 C268.760077,188.171308 262.745329,186.500447 256.511374,183.362919 C250.27742,180.225392 245.134245,175.621197 241.309949,169.754531 C237.485653,163.887864 235.133586,158.068712 233.255039,142.021375 L227.671127,94.3212417 C225.792581,78.2739044 226.782235,72.4547521 229.232995,66.5880854 C231.683754,60.7214188 235.748968,56.1172244 241.248347,52.9796968 C246.747726,49.8421691 252.371282,48.1713081 268.41862,48.1713081 Z"/><path fill="#D6C8A4" stroke="#000" stroke-linejoin="round" stroke-width="5" d="M320.082767,287.721462 C320.082767,279.066312 314.419055,271.430597 306.136304,268.919092 L212.130411,240.414515 C202.227715,237.411808 195.048339,228.822651 193.849908,218.544353 L170.878896,21.5343294 C169.967206,13.7152606 174.47616,6.27406256 181.829158,3.4629362 L181.829158,3.4629362 L181.829158,3.4629362 L141.179864,17.9630819 C124.520449,23.9057175 112.479129,38.5287339 109.842915,56.0187711 L72.7225332,302.294969 L72.7225332,302.294969 L305.50926,302.294969 C313.557986,302.294969 320.082767,295.770187 320.082767,287.721462 Z"/><ellipse cx="304.5" cy="285.671" fill="#000" rx="4.875" ry="6"/><ellipse cx="89.5" cy="285.671" fill="#000" rx="4.875" ry="6"/><ellipse cx="155.5" cy="30.671" fill="#000" rx="4.875" ry="6"/><use xlink:href="#h" fill="#000" filter="url(#i)"/><use xlink:href="#h" fill="#3AFF7D"/><line x1="311.417" x2="586.104" y1="271.965" y2="271.965" stroke="#000" stroke-width="5"/><g transform="translate(312.286 195.171)"><path fill="#FFF" stroke="#000" stroke-width="5" d="M127.714208,57.5 C148.125387,57.5 161.714208,58.3126564 161.714208,37.7435897 C161.714208,17.1745231 145.167679,0.5 124.7565,0.5 C104.345322,0.5 87.798792,17.1745231 87.798792,37.7435897 C87.798792,58.3126564 107.30303,57.5 127.714208,57.5 Z"/><path fill="#FFF" stroke="#000" stroke-width="5" d="M54.0088875,0.5 C74.4200661,0.5 90.9665956,17.1745231 90.9665956,37.7435897 C90.9665956,58.3126564 74.4200661,59.5 54.0088875,59.5 C51.9941964,59.5 50.0171575,59.488432 48.0899665,59.4477993 C43.5361865,48.8801094 33.177875,41.5 21.1284258,41.5 C19.8259762,41.5 18.5432857,41.5862284 17.2855495,41.7533898 C17.1309428,40.5063859 17.0511795,39.1717031 17.0511795,37.7435897 C17.0511795,17.1745231 33.597709,0.5 54.0088875,0.5 Z"/><path fill="#000" d="M57.7529579 24C69.2637348 24 78.5950632 18.627417 78.5950632 12 78.5950632 5.372583 69.2637348 0 57.7529579 0 46.242181 0 36.9108527 5.372583 36.9108527 12 36.9108527 13.9703814 55.9055142 8.5 50.8143693 12 45.7232245 15.5 42.9869486 20.6851564 45.7232245 21.800567 49.1216441 23.1858927 53.2721752 24 57.7529579 24ZM126.752958 24C138.263735 24 147.595063 18.627417 147.595063 12 147.595063 5.372583 138.263735 0 126.752958 0 115.242181 0 105.910853 5.372583 105.910853 12 105.910853 13.9703814 124.905514 8.5 119.814369 12 114.723224 15.5 111.986949 20.6851564 114.723224 21.800567 118.121644 23.1858927 122.272175 24 126.752958 24Z"/><path fill="#5B514A" stroke="#000" stroke-linecap="round" stroke-width="5" d="M48.5614114,68.5 C48.5614114,51.9314575 35.3838149,38.5 19.1284258,38.5 C12.8501985,38.5 7.03108317,40.5035606 2.25295793,43.9175941" transform="rotate(-10 25.407 53.5)"/></g><line x1="439.321" x2="428.324" y1="6.178" y2="19.982" stroke="#000" stroke-linecap="round" stroke-width="5"/><g stroke="#000" stroke-linecap="round" stroke-width="5" transform="translate(115.179 119.854)"><line x1="10" x2="35.142" y1=".5" y2=".5"/><line x1="10" x2="35.142" y1="50.5" y2="50.5"/><line x1="5" x2="40.142" y1="10.5" y2="10.5"/><line x1="5" x2="40.142" y1="40.5" y2="40.5"/><line x2="45.142" y1="20.5" y2="20.5"/><line x2="45.142" y1="30.5" y2="30.5"/></g></g><path stroke="#979797" d="M530.524394,882.294028"/><g stroke="#3AFF7D" stroke-linecap="round" stroke-width="5" transform="translate(95 333)"><line x2="87.492" y1=".5" y2=".5"/><line x2="87.492" y1="90.5" y2="90.5"/><line x2="20.341" y1="80.5" y2="80.5"/><line x1="67" x2="87.341" y1="80.5" y2="80.5"/><line x2="20.341" y1="70.5" y2="70.5"/><line x1="67" x2="87.341" y1="70.5" y2="70.5"/><line x2="20.341" y1="60.5" y2="60.5"/><line x1="67" x2="87.341" y1="60.5" y2="60.5"/><line x2="20.341" y1="50.5" y2="50.5"/><line x1="67" x2="87.341" y1="50.5" y2="50.5"/><line x2="20.341" y1="40.5" y2="40.5"/><line x1="67" x2="87.341" y1="40.5" y2="40.5"/><line x2="20.341" y1="30.5" y2="30.5"/><line x1="67" x2="87.341" y1="30.5" y2="30.5"/><line x2="20.341" y1="20.5" y2="20.5"/><line x1="67" x2="87.341" y1="20.5" y2="20.5"/><line x2="20.341" y1="10.5" y2="10.5"/><line x1="67" x2="87.341" y1="10.5" y2="10.5"/></g><g stroke="#3AFF7D" stroke-linecap="round" stroke-width="5" transform="translate(822 333)"><line x1="20" x2="90.73" y1="10.5" y2="10.5"/><line x1="46.984" x2="90.58" y1="20.5" y2="20.5"/><line x1="10" x2="37.362" y1="20.5" y2="20.5"/><line x1="30.368" x2="90.362" y1=".5" y2=".5"/><line x2="37.362" y1="30.5" y2="30.5"/><line x1="46.984" x2="90.58" y1="30.5" y2="30.5"/><line x1="46.984" x2="90.58" y1="40.5" y2="40.5"/><line x1="46.984" x2="90.58" y1="50.5" y2="50.5"/><line x1="46.984" x2="90.58" y1="60.5" y2="60.5"/><line x1="46.984" x2="90.58" y1="70.5" y2="70.5"/><line x1="46.984" x2="90.58" y1="80.5" y2="80.5"/><line x1="46.984" x2="90.58" y1="90.5" y2="90.5"/></g><polygon fill="#000" stroke="#3AFF7D" stroke-linejoin="round" stroke-width="5" points="183.966 146.643 183.966 125.467 164.375 108.74 153.637 163.038" transform="rotate(103 168.801 135.889)"/><polygon fill="#000" stroke="#3AFF7D" stroke-linejoin="round" stroke-width="5" points="751.966 381.643 751.966 360.467 732.375 343.74 721.637 398.038" transform="rotate(55 736.801 370.889)"/><polygon fill="#000" stroke="#3AFF7D" stroke-linejoin="round" stroke-width="5" points="280.494 297.222 238.571 270.164 238.571 287.439 223.003 297.222"/></g></svg>