<svg height="996" viewBox="0 0 996 996" width="996" xmlns="http://www.w3.org/2000/svg" xmlns:xlink="http://www.w3.org/1999/xlink"><linearGradient id="a" x1="50%" x2="50%" y1="87.986%" y2="36.66%"><stop offset="0" stop-color="#d7fcff"/><stop offset="1" stop-color="#5bbade"/></linearGradient><linearGradient id="b" x1="50%" x2="50%" y1="87.986%" y2="36.66%"><stop offset="0" stop-color="#7ad750"/><stop offset="1" stop-color="#51b661"/></linearGradient><linearGradient id="c"><stop offset=".00083" stop-color="#fe5555"/><stop offset="1" stop-color="#ff8e61"/></linearGradient><linearGradient id="d" x1="100%" x2="20.652%" xlink:href="#c" y1="31.217%" y2="63.812%"/><linearGradient id="e" x1="86.492%" x2="28.581%" xlink:href="#c" y1="0%" y2="86.768%"/><linearGradient id="f" x1="104.033%" x2="-17.504%" y1="26.805%" y2="84.104%"><stop offset="0" stop-color="#707070"/><stop offset="1"/></linearGradient><linearGradient id="g" x1="50%" x2="50%" y1="0%" y2="100%"><stop offset="0" stop-color="#ffe171"/><stop offset="1" stop-color="#ffbf3d"/></linearGradient><linearGradient id="h" x1="42.193%" x2="64.735%" y1="63.897%" y2="63.897%"><stop offset="0" stop-color="#ffebaf"/><stop offset="1" stop-color="#ffd277"/></linearGradient><linearGradient id="i" x1="84.172%" x2="84.172%" y1="88.264%" y2="0%"><stop offset="0" stop-color="#424242"/><stop offset="1" stop-color="#1f1f1f"/></linearGradient><g fill="none" fill-rule="evenodd" transform="translate(-6 -4.783)"><path d="m1007.99821 0v906.290538 2.085688l-.02667 2.032782c-.0037.334449-.00778.66674-.01221.996894l-.03106 1.955478-.03988 1.905312c-.00738.313432-.01513.62482-.02324.934186l-.05308 1.832118-.06184 1.784693c-.01104.293557-.02244.585184-.0342.874904l-.07496 1.715608-.08367 1.670923-.09237 1.627334-.10104 1.584839c-.01756.26066-.03548.519595-.05376.776828l-.11401 1.523155-.12262 1.483401c-.12692 1.46389-.26674 2.869795-.41935 4.222645l-.15688 1.335349c-.02685.219672-.05406.437916-.08162.654754l-.16963 1.284351c-.05796.422617-.11733.839797-.17811 1.251721l-.18655 1.220189c-.0636.401596-.12859.79812-.19499 1.189753l-.2034 1.160411c-.1384.764072-.28239 1.509313-.43194 2.237186l-.2285 1.078967c-.03878.177717-.07791.354395-.11738.530056l-.24097 1.041943-.24927 1.01863c-.42234 1.6789-.87913 3.265233-1.36993 4.781834l-.29855.901775c-.05044.148962-.10122.297272-.15233.444954l-.31075.878727c-.05247.145257-.10528.289932-.15842.434046l-.3229.858145-.33097.845792-.33903.834538-.34705.824378-.35506.815315-.363051.807348c-.061172.133955-.122676.267624-.184511.401029l-.374984.797452-.382916.792225-.390825.788095-.398712.785059-.406579.783121-.414422.782278c-6.972284 13.037037-17.203827 23.26858-30.240864 30.240864l-.782278.414422-1.17534.60692-.78644.394771-.790022.386873c-.13203.063819-.264255.127309-.396698.190468l-.797452.374984-.803776.367032-.811194.359059-.81971.35106-.82932.34304-.840029.335-.851831.32694-.864731.31886c-.145258.05247-.291099.1046-.437546.15639l-.886135.30669c-.297924.10088-.598455.20039-.901775.29855l-.918511.2904c-.927244.2863-1.881236.56033-2.866908.822l-.996415.25753c-.16789.04224-.336705.08413-.506469.12567l-1.03015.24512-1.05401.23683c-1.421741.31022-2.910032.59824-4.476564.86384l-1.189753.19499c-1.606384.25437-3.293932.48625-5.074337.69542l-1.352896.15261c-.685336.07417-1.384141.14514-2.097032.21289l-1.444744.13122-1.483401.12262-1.523155.11401-1.564004.10536-1.60595.09671c-.271215.01539-.544223.03043-.819047.0451l-1.670923.08367c-.28218.01322-.566223.02608-.85215.03857l-1.738362.07059-1.784693.06185c-.30137.00957-.604717.01878-.910062.02763l-1.856242.04868c-.313432.00738-.628909.0144-.946454.02104l-1.930258.03547-1.980972.02664c-.334449.0037-.671057.00703-1.009846.01l-2.059098.01779h-2.112553-904.94392l-.5-1007.78292z" fill="url(#a)"/><path d="m770.5 700.282919c14.359403 0 27.359403 5.820299 36.769553 15.230448 9.410149 9.410149 15.230447 22.410149 15.230447 36.769552 0 3.941405-.438135 7.780455-1.268867 11.470978-.116061.515601-.240288 1.030538-.37268 1.545514.426023.316424.847671.638947 1.264797.967481 13.017516 10.25274 21.37675 26.15805 21.37675 44.016027 0 15.463973-6.268014 29.463973-16.40202 39.59798-10.134007 10.134007-24.134007 16.40202-39.59798 16.40202h-96c-15.463973 0-29.463973-6.268013-39.59798-16.40202-10.134006-10.134007-16.40202-24.134007-16.40202-39.59798 0-10.355713 2.81016-20.055221 7.711067-28.376448 5.075123-8.617028 12.390608-15.756646 21.145727-20.617881.302454-.167936.606307-.332976.91058-.495217.089003-.332373.181434-.664234.277305-.995534 3.173219-10.965704 9.860334-20.438624 18.760768-27.122856 8.689677-6.525954 19.490712-10.392064 31.194553-10.392064 3.431755 0 6.785914.33214 10.032006.966399.532166.103981 1.063966.216578 1.596665.337039.300227-.452792.607644-.901082.922159-1.344678 9.420481-13.28681 24.921907-21.95876 42.44917-21.95876z" fill="#56ba5e" stroke="#000" stroke-width="5"/><path d="m1005.49933 801.282919v204.000001h-1002.99933v-204.000001z" fill="url(#b)" stroke="#000" stroke-width="5"/><g stroke-width="5" transform="translate(.5 642.783)"><path d="m2.5 54.5h88v52h-88z" fill="url(#d)" stroke="#000"/><path d="m90.5 54.5h88v52h-88z" fill="url(#d)" stroke="#000"/><path d="m46.5 2.5h88v52h-88z" fill="url(#d)" stroke="#000"/><path d="m46.5 106.5h88v52h-88z" fill="url(#d)" stroke="#000"/><path d="m46.1954733 106.5v52h-43.6954733v-52zm0-104v52h-43.6954733v-52zm131.9999997 104v52h-43.695473v-52zm0-104v52h-43.695473v-52z" fill="url(#e)" stroke="#000"/><g stroke="#fff" stroke-opacity=".505"><path d="m44 7.505h-36.535v44.495"/><path d="m44 111.505h-36.535v44.495"/><path d="m132 7.505h-80.535v44.495"/><path d="m132 111.505h-80.535v44.495"/><path d="m88 59.505h-80.535v44.495"/><path d="m176 59.505h-80.535v44.495"/><path d="m176 7.505h-36.535v44.495"/><path d="m176 111.505h-36.535v44.495"/></g></g><g transform="translate(558.43 844.783)"><path d="m300.069008 7.5c2.071068 0 3.946068.83946609 5.303301 2.19669914 1.357233 1.35723306 2.196699 3.23223306 2.196699 5.30330086v77.5h-121.499712v-85z" fill="#fff" stroke="#000" stroke-width="5"/><path d="m279.888163 18.5c1.794925 0 3.419925.7275373 4.596194 1.9038059 1.176269 1.1762687 1.903806 2.8012687 1.903806 4.5961941 0 .3394775-.026595.6784334-.079541 1.0137567l-1.736842 11c-.249421 1.5796692-1.054917 2.95123-2.197866 3.9278735-1.14295.9766436-2.623354 1.5583698-4.222593 1.5583698h-30.164049c-1.599239 0-3.079643-.5817262-4.222593-1.5583698-1.14295-.9766435-1.948445-2.3482043-2.197866-3.9278735l-1.736842-11c-.279942-1.7729608.185254-3.4915442 1.163674-4.8368727.978421-1.3453285 2.470067-2.3174021 4.243028-2.5973433.335323-.0529458.674279-.0795407 1.013757-.0795407z" fill="#4e95ca" stroke="#000" stroke-linejoin="round" stroke-width="5"/><path d="m283.888163 18.5c1.794925 0 3.419925.7275373 4.596194 1.9038059 1.176269 1.1762687 1.903806 2.8012687 1.903806 4.5961941 0 .3394775-.026595.6784334-.079541 1.0137567l-1.736842 11c-.249421 1.5796692-1.054917 2.95123-2.197866 3.9278735-1.14295.9766436-2.623354 1.5583698-4.222593 1.5583698h-30.164049c-1.599239 0-3.079643-.5817262-4.222593-1.5583698-1.14295-.9766435-1.948445-2.3482043-2.197866-3.9278735l-1.736842-11c-.279942-1.7729608.185254-3.4915442 1.163674-4.8368727.978421-1.3453285 2.470067-2.3174021 4.243028-2.5973433.335323-.0529458.674279-.0795407 1.013757-.0795407z" fill="#4e95ca" stroke="#000" stroke-linejoin="round" stroke-width="5"/><path d="m99.5692964 61.2940277h-32c-45.0461976 1.5075794-67.5692964 19.060668-67.5692964 52.6592653" stroke="#000" stroke-width="10"/><path d="m99.5692964 61.2940277h-32c-45.0461976 1.5075794-67.5692964 19.060668-67.5692964 52.6592653" stroke="#000" stroke-width="10"/><path d="m117.569296 68.2940277h-31.9999996c-45.0461976 1.5075794-67.5692964 19.060668-67.5692964 52.6592653" stroke="#000" stroke-width="10"/><circle cx="252.569" cy="27" fill="#000" r="2"/><circle cx="258.569" cy="34" fill="#000" r="2"/><circle cx="268.569" cy="34" fill="#000" r="2"/><circle cx="277.569" cy="34" fill="#000" r="2"/><circle cx="262.569" cy="27" fill="#000" r="2"/><circle cx="272.569" cy="27" fill="#000" r="2"/><circle cx="282.569" cy="27" fill="#000" r="2"/><ellipse cx="232.569" cy="30" fill="#d8d8d8" rx="1" ry="2.5" stroke="#000" stroke-width="5"/><ellipse cx="296.569" cy="30" fill="#d8d8d8" rx="1" ry="2.5" stroke="#000" stroke-width="5"/><path d="m214.069296 7.5v85h-128.9999996v-77.5c0-2.0710678.8394661-3.9460678 2.1966991-5.30330086 1.3572331-1.35723305 3.2322331-2.19669914 5.3033009-2.19669914z" fill="url(#f)" stroke="#000" stroke-width="5"/><path d="m207.323898 0h12.490796c1.550092 0 2.707362.27847683 3.68514.80139811.977777.52292128 1.745143 1.290287 2.268064 2.26806478.522922.97777778.801398 2.13504723.801398 3.68513903v.24539808h-26v-.24539808c0-1.5500918.278477-2.70736125.801399-3.68513903.522921-.97777778 1.290287-1.7451435 2.268064-2.26806478.977778-.52292128 2.135048-.80139811 3.685139-.80139811zm30 0h12.490796c1.550092 0 2.707362.27847683 3.68514.80139811.977777.52292128 1.745143 1.290287 2.268064 2.26806478.522922.97777778.801398 2.13504723.801398 3.68513903v.24539808h-26v-.24539808c0-1.5500918.278477-2.70736125.801399-3.68513903.522921-.97777778 1.290287-1.7451435 2.268064-2.26806478.977778-.52292128 2.135048-.80139811 3.685139-.80139811zm30 0h12.490796c1.550092 0 2.707362.27847683 3.68514.80139811.977777.52292128 1.745143 1.290287 2.268064 2.26806478.522922.97777778.801398 2.13504723.801398 3.68513903v.24539808h-26v-.24539808c0-1.5500918.278477-2.70736125.801399-3.68513903.522921-.97777778 1.290287-1.7451435 2.268064-2.26806478.977778-.52292128 2.135048-.80139811 3.685139-.80139811z" fill="#000"/><g stroke="#000"><path d="m134.569296 65.5c2.347211 0 4.472211.9513949 6.010408 2.4895924 1.538197 1.5381974 2.489592 3.6631974 2.489592 6.0104076s-.951395 4.4722102-2.489592 6.0104076c-1.538197 1.5381975-3.663197 2.4895924-6.010408 2.4895924h-23.5v-17z" fill="#d8d8d8" stroke-width="5"/><path d="m120.569296 65.5c2.347211 0 4.472211.9513949 6.010408 2.4895924 1.538197 1.5381974 2.489592 3.6631974 2.489592 6.0104076s-.951395 4.4722102-2.489592 6.0104076c-1.538197 1.5381975-3.663197 2.4895924-6.010408 2.4895924h-15c-2.34721 0-4.47221-.9513949-6.0104072-2.4895924-1.5381975-1.5381974-2.4895924-3.6631974-2.4895924-6.0104076s.9513949-4.4722102 2.4895924-6.0104076c1.5381972-1.5381975 3.6631972-2.4895924 6.0104072-2.4895924z" fill="#4e95ca" stroke-width="5"/><path d="m193.569296 65.5c2.347211 0 4.472211.9513949 6.010408 2.4895924 1.538197 1.5381974 2.489592 3.6631974 2.489592 6.0104076s-.951395 4.4722102-2.489592 6.0104076c-1.538197 1.5381975-3.663197 2.4895924-6.010408 2.4895924h-23.5v-17z" fill="#d8d8d8" stroke-width="5"/><path d="m179.569296 65.5c2.347211 0 4.472211.9513949 6.010408 2.4895924 1.538197 1.5381974 2.489592 3.6631974 2.489592 6.0104076s-.951395 4.4722102-2.489592 6.0104076c-1.538197 1.5381975-3.663197 2.4895924-6.010408 2.4895924h-15c-2.34721 0-4.47221-.9513949-6.010407-2.4895924-1.538198-1.5381974-2.489593-3.6631974-2.489593-6.0104076s.951395-4.4722102 2.489593-6.0104076c1.538197-1.5381975 3.663197-2.4895924 6.010407-2.4895924z" fill="#4e95ca" stroke-width="5"/><path d="m192.569296 19.5c2.347211 0 4.472211.9513949 6.010408 2.4895924 1.538197 1.5381974 2.489592 3.6631974 2.489592 6.0104076s-.951395 4.4722102-2.489592 6.0104076c-1.538197 1.5381975-3.663197 2.4895924-6.010408 2.4895924h-4.5v-17z" fill="#000" stroke-width="5"/><path d="m186.569296 19.5c2.347211 0 4.472211.9513949 6.010408 2.4895924 1.538197 1.5381974 2.489592 3.6631974 2.489592 6.0104076s-.951395 4.4722102-2.489592 6.0104076c-1.538197 1.5381975-3.663197 2.4895924-6.010408 2.4895924-2.34721 0-4.47221-.9513949-6.010407-2.4895924-1.538198-1.5381974-2.489593-3.6631974-2.489593-6.0104076s.951395-4.4722102 2.489593-6.0104076c1.538197-1.5381975 3.663197-2.4895924 6.010407-2.4895924z" fill="#ff7070" stroke-width="5"/><path d="m160.569296 19.5c2.347211 0 4.472211.9513949 6.010408 2.4895924 1.538197 1.5381974 2.489592 3.6631974 2.489592 6.0104076s-.951395 4.4722102-2.489592 6.0104076c-1.538197 1.5381975-3.663197 2.4895924-6.010408 2.4895924h-4.5v-17z" fill="#000" stroke-width="5"/><path d="m154.569296 19.5c2.347211 0 4.472211.9513949 6.010408 2.4895924 1.538197 1.5381974 2.489592 3.6631974 2.489592 6.0104076s-.951395 4.4722102-2.489592 6.0104076c-1.538197 1.5381975-3.663197 2.4895924-6.010408 2.4895924-2.34721 0-4.47221-.9513949-6.010407-2.4895924-1.538198-1.5381974-2.489593-3.6631974-2.489593-6.0104076s.951395-4.4722102 2.489593-6.0104076c1.538197-1.5381975 3.663197-2.4895924 6.010407-2.4895924z" fill="#ff7070" stroke-width="5"/><path d="m234.569 55.223h62.541" stroke-linecap="round" stroke-width="5"/><path d="m234.569 65.223h62.541" stroke-linecap="round" stroke-width="5"/><path d="m268.569 75.223h28.541" stroke-linecap="round" stroke-width="5"/></g></g><g stroke="#000"><path d="m898.314207 937.282919c4.832491 0 9.207491 1.958755 12.374368 5.125632s5.125632 7.541877 5.125632 12.374368v49.327551h-834.314207v-49.327551c0-4.832491 1.9587542-9.207491 5.1256313-12.374368s7.5418771-5.125632 12.3743687-5.125632z" fill="#6d6d6d" stroke-width="5"/><path d="m908.314207 937.282919c4.832491 0 9.207491 1.958755 12.374368 5.125632s5.125632 7.541877 5.125632 12.374368v49.327551h-781.369714v-49.327551c0-4.832491 1.958755-9.207491 5.125632-12.374368s7.541877-5.125632 12.374368-5.125632z" fill="#c2c2c2" stroke-width="5"/><g stroke-width="5" transform="translate(327 119.615)"><g transform="translate(355 354.168)"><path d="m70.9995183 2.49999995 3.9210173.00075526c7.5023244.00467056 11.8424945.03827879 20.846342.28040102 11.7493974.31595275 21.6475664 9.89093007 29.0810114 22.72678247 9.219275 15.9195715 14.652111 37.1486738 14.652111 54.4920613 0 18.7876062-4.469214 40.553087-13.281501 56.358805-3.679049 6.598742-8.110864 12.151284-13.328417 15.92477-4.562308 3.299595-9.726352 5.216425-15.4931129 5.216425h-26.3969691c-18.8851688 0-35.964823-8.652948-48.3347692-22.590916-12.4715583-14.05246-20.1652308-33.471018-20.1652308-54.909084 0-21.4380663 7.6936725-40.856624 20.1652308-54.9090841 12.3699462-13.9379675 29.4496004-22.5909159 48.3342875-22.59091595z" fill="url(#g)"/><ellipse cx="96" cy="80" fill="#ffc041" rx="68.5" ry="77.5"/><ellipse cx="99" cy="80" fill="url(#h)" rx="52.978" ry="60.5"/></g><g fill="#fff"><path d="m346.122216 363.228811c0-12.42849 99.517953-232.511623 43.508628-272.86971-42.702494-30.7697157-96.854379 109.420777-120.175089 215.275527-7.267133 32.986155 76.666461 70.022672 76.666461 57.594183z" transform="matrix(.78801075 .61566148 -.61566148 .78801075 210.681801 -160.13238)"/><path d="m299.258813 311.726718c0-12.42849 156.760614-244.6137265 69.032715-282.6088845-34.675463-15.0180241-61.888222 52.2394385-95.987699 104.3272555-28.087021 42.903637-69.707723 72.877315-85.103051 120.687446-10.621863 32.986155 112.058035 70.022672 112.058035 57.594183z" transform="matrix(.93969262 .34202014 -.34202014 .93969262 75.877957 -89.157277)"/><path d="m188.895114 165.299292c38.371885-64.277805 67.019329-142.182825 115.784985-116.949406 31.757433 16.4326427 28.004435 60.126318 11.75051 107.848495l-1.511427 4.348831c-.257431.72644-.517571 1.453642-.780341 2.181527l-1.607538 4.374852-1.666809 4.38735-1.722239 4.395969-1.773827 4.40071-1.821574 4.401572-1.865478 4.398555c-.314359.732625-.630386 1.464964-.948003 2.196934l-1.924134 4.386756-1.958434 4.374042-1.988893 4.357449-2.015511 4.336977-2.038286 4.312625-2.057221 4.284396-2.072314 4.252288-2.083565 4.2163-2.090974 4.176433c17.829422-4.98143 36.616938-7.639709 56.021336-7.639709 39.689654 0 77.459628 6.338457 110.226076 27.783001 40.453192 26.475263 42.773588 64.359615 27.695743 88.622192-14.876807 23.939076-56.723914 18.385932-80.706294 4.00496l-.96829-.595008c-16.727157-10.529985-36.009101-16.1817-56.247235-16.1817-58.70156 0-106.288577 47.894992-106.288577 106.976459s47.587017 106.976459 106.288577 106.976459c20.97072 0 40.915663-6.072908 58.02177-17.32344l1.595325-1.069878c23.519872-16.080996 55.538892-9.9272 71.516483 13.744889 15.977592 23.672089 9.863365 55.898331-13.656506 71.979327-24.124121 16.494132-51.332608 27.710554-80.07052 32.937801-5.042194 1.255063-11.586999 2.12621-19.625522 2.611654-5.89022.500465-11.818208.753092-17.78103.753092l-1.888045-.021589c-8.65439 1.798478-13.619561 12.301745-17.010327 26.374867l-.566246 2.446547-.537768 2.510738-.511658 2.569181-.723709 3.950776-.456741 2.690137-.652431 4.105263-.821336 5.574276-.989698 7.171888-1.620965 11.979028-.588547 4.146672-.610815 4.0816-.640917 3.997512-.447868 2.608901-.467048 2.557441-.488548 2.500347-.512369 2.437619-.538511 2.369255-.566973 2.295257c-3.297874 12.786153-8.078456 21.736663-16.241951 22.237683l-265.1468423.022163c1.4091898-.960814 2.7817283-1.920873 4.1176154-2.880178l2.6229059-1.917605c40.326586-30.026728 62.8067692-59.313096 31.16643-87.859105l-1.7140571-1.528579-1.4463775-1.342494c-.2477536-.235536-.4987756-.476935-.7529506-.724151l-1.5619619-1.552729-1.6320927-1.690115-1.6966831-1.825286c-.5757104-.630711-1.1612626-1.283581-1.7557329-1.958241l-1.8092425-2.088979-1.8572116-2.217503c-.3132249-.380171-.6282176-.765604-.9448628-1.156255l-1.9187769-2.406131-1.952895-2.529115-1.9814726-2.649881-2.0045098-2.768433-2.0220066-2.884767-2.033963-2.998887c-.6793648-1.018402-1.3597989-2.055455-2.0403789-3.110789l-2.0412545-3.220476c-22.7782744-36.566158-44.68402379-93.23388-31.00157485-156.118088 9.38410385-43.129117 29.66858655-77.060408 52.57155025-110.281836l3.9503275-5.689731 3.9923565-5.685327 14.1703634-20.001149 4.0667476-5.783099c18.2871446-26.1245 67.5368736-97.721583 105.9087586-161.999387z" stroke-linejoin="round"/></g><path d="m286.119045 229.577096c-9.621366 3.297139-17.121366 6.172292-22.5 8.625459-5.378635 2.453167-12.878635 6.911348-22.5 13.374541" stroke-linecap="round"/></g><g stroke-width="5" transform="translate(327 119.615)"><g transform="translate(355 354.168)"><path d="m70.9995183 2.49999995 3.9210173.00075526c7.5023244.00467056 11.8424945.03827879 20.846342.28040102 11.7493974.31595275 21.6475664 9.89093007 29.0810114 22.72678247 9.219275 15.9195715 14.652111 37.1486738 14.652111 54.4920613 0 18.7876062-4.469214 40.553087-13.281501 56.358805-3.679049 6.598742-8.110864 12.151284-13.328417 15.92477-4.562308 3.299595-9.726352 5.216425-15.4931129 5.216425h-26.3969691c-18.8851688 0-35.964823-8.652948-48.3347692-22.590916-12.4715583-14.05246-20.1652308-33.471018-20.1652308-54.909084 0-21.4380663 7.6936725-40.856624 20.1652308-54.9090841 12.3699462-13.9379675 29.4496004-22.5909159 48.3342875-22.59091595z" fill="url(#g)"/><ellipse cx="96" cy="80" fill="#ffc041" rx="68.5" ry="77.5"/><ellipse cx="99" cy="80" fill="url(#h)" rx="52.978" ry="60.5"/></g><g fill="#fff"><path d="m346.122216 363.228811c0-12.42849 99.517953-232.511623 43.508628-272.86971-42.702494-30.7697157-96.854379 109.420777-120.175089 215.275527-7.267133 32.986155 76.666461 70.022672 76.666461 57.594183z" transform="matrix(.78801075 .61566148 -.61566148 .78801075 210.681801 -160.13238)"/><path d="m299.258813 311.726718c0-12.42849 156.760614-244.6137265 69.032715-282.6088845-34.675463-15.0180241-61.888222 52.2394385-95.987699 104.3272555-28.087021 42.903637-69.707723 72.877315-85.103051 120.687446-10.621863 32.986155 112.058035 70.022672 112.058035 57.594183z" transform="matrix(.93969262 .34202014 -.34202014 .93969262 75.877957 -89.157277)"/><path d="m188.895114 165.299292c38.371885-64.277805 67.019329-142.182825 115.784985-116.949406 31.757433 16.4326427 28.004435 60.126318 11.75051 107.848495l-1.511427 4.348831c-.257431.72644-.517571 1.453642-.780341 2.181527l-1.607538 4.374852-1.666809 4.38735-1.722239 4.395969-1.773827 4.40071-1.821574 4.401572-1.865478 4.398555c-.314359.732625-.630386 1.464964-.948003 2.196934l-1.924134 4.386756-1.958434 4.374042-1.988893 4.357449-2.015511 4.336977-2.038286 4.312625-2.057221 4.284396-2.072314 4.252288-2.083565 4.2163-2.090974 4.176433c17.829422-4.98143 36.616938-7.639709 56.021336-7.639709 39.689654 0 77.459628 6.338457 110.226076 27.783001 40.453192 26.475263 42.773588 64.359615 27.695743 88.622192-14.876807 23.939076-56.723914 18.385932-80.706294 4.00496l-.96829-.595008c-16.727157-10.529985-36.009101-16.1817-56.247235-16.1817-58.70156 0-106.288577 47.894992-106.288577 106.976459s47.587017 106.976459 106.288577 106.976459c20.97072 0 40.915663-6.072908 58.02177-17.32344l1.595325-1.069878c23.519872-16.080996 55.538892-9.9272 71.516483 13.744889 15.977592 23.672089 9.863365 55.898331-13.656506 71.979327-24.124121 16.494132-51.332608 27.710554-80.07052 32.937801-5.042194 1.255063-11.586999 2.12621-19.625522 2.611654-5.89022.500465-11.818208.753092-17.78103.753092l-1.888045-.021589c-8.65439 1.798478-13.619561 12.301745-17.010327 26.374867l-.566246 2.446547-.537768 2.510738-.511658 2.569181-.723709 3.950776-.456741 2.690137-.652431 4.105263-.821336 5.574276-.989698 7.171888-1.620965 11.979028-.588547 4.146672-.610815 4.0816-.640917 3.997512-.447868 2.608901-.467048 2.557441-.488548 2.500347-.512369 2.437619-.538511 2.369255-.566973 2.295257c-3.297874 12.786153-8.078456 21.736663-16.241951 22.237683l-265.1468423.022163c1.4091898-.960814 2.7817283-1.920873 4.1176154-2.880178l2.6229059-1.917605c40.326586-30.026728 62.8067692-59.313096 31.16643-87.859105l-1.7140571-1.528579-1.4463775-1.342494c-.2477536-.235536-.4987756-.476935-.7529506-.724151l-1.5619619-1.552729-1.6320927-1.690115-1.6966831-1.825286c-.5757104-.630711-1.1612626-1.283581-1.7557329-1.958241l-1.8092425-2.088979-1.8572116-2.217503c-.3132249-.380171-.6282176-.765604-.9448628-1.156255l-1.9187769-2.406131-1.952895-2.529115-1.9814726-2.649881-2.0045098-2.768433-2.0220066-2.884767-2.033963-2.998887c-.6793648-1.018402-1.3597989-2.055455-2.0403789-3.110789l-2.0412545-3.220476c-22.7782744-36.566158-44.68402379-93.23388-31.00157485-156.118088 9.38410385-43.129117 29.66858655-77.060408 52.57155025-110.281836l3.9503275-5.689731 3.9923565-5.685327 14.1703634-20.001149 4.0667476-5.783099c18.2871446-26.1245 67.5368736-97.721583 105.9087586-161.999387z" stroke-linejoin="round"/></g><path d="m286.119045 229.577096c-9.621366 3.297139-17.121366 6.172292-22.5 8.625459-5.378635 2.453167-12.878635 6.911348-22.5 13.374541" stroke-linecap="round"/></g></g><g transform="translate(151 579.783)"><path d="m0 0h380v357h-380z" fill="#6d6d6d" stroke="#000" stroke-width="5"/><g transform="translate(21 91)"><path d="m2.5 2.5h93v49h-93z" fill="#8b8b8b" stroke="#000" stroke-width="5"/><path d="m17.457 38.129v-34.551h75.697v34.551z" fill="url(#i)"/><path d="m3.178 51.039 14.279-12.91v-35.292h-14.279z" fill="#000"/></g><path d="m135 0h382v357h-382z" fill="#c2c2c2" stroke="#000" stroke-width="5"/><g transform="translate(459.216 325.005)"><ellipse cx="6.249" cy="10.495" fill="#000" rx="6.249" ry="8" stroke="#000" stroke-width="5"/><ellipse cx="16.272" cy="10.495" fill="#fff" rx="5.728" ry="7.333" stroke="#000" stroke-width="5"/><g fill="#000"><path d="m16.211 20.417-9.053.566-.519-4.257 8.002 1.103z"/><path d="m16.211.669-9.405-.669-1.458 3.874h7.959z"/></g></g><g transform="translate(369.216 325.005)"><ellipse cx="6.249" cy="10.495" fill="#ff6060" rx="6.249" ry="8" stroke="#000" stroke-width="5"/><path d="m16.211 20.417-9.053.566-.519-4.257 8.002 1.103z" fill="#000"/><path d="m16.211.669-9.405-.669-1.458 3.874h7.959z" fill="#000"/><path d="m6.368 4.998 9.991.668.22 9.661-10.211.667z" fill="#ff6060"/><ellipse cx="16.272" cy="10.495" fill="#ff6060" rx="5.728" ry="7.333" stroke="#000" stroke-width="5"/><g transform="translate(30)"><ellipse cx="6.249" cy="10.495" fill="#46aa25" rx="6.249" ry="8" stroke="#000" stroke-width="5"/><path d="m16.211 20.417-9.053.566-.519-4.257 8.002 1.103z" fill="#000"/><path d="m16.211.669-9.405-.669-1.458 3.874h7.959z" fill="#000"/><g fill="#46aa25"><path d="m6.368 4.998 9.991.668.22 9.661-10.211.667z"/><ellipse cx="16.272" cy="10.495" rx="5.728" ry="7.333" stroke="#000" stroke-width="5"/></g></g><g transform="translate(60)"><ellipse cx="6.249" cy="10.495" fill="#2b68ff" rx="6.249" ry="8" stroke="#000" stroke-width="5"/><path d="m16.211 20.417-9.053.566-.519-4.257 8.002 1.103z" fill="#000"/><path d="m16.211.669-9.405-.669-1.458 3.874h7.959z" fill="#000"/><g fill="#2b68ff"><path d="m6.368 4.998 9.991.668.22 9.661-10.211.667z"/><ellipse cx="16.272" cy="10.495" rx="5.728" ry="7.333" stroke="#000" stroke-width="5"/></g></g></g><g transform="translate(339.216 325.005)"><ellipse cx="6.249" cy="10.495" fill="#000" rx="6.249" ry="8" stroke="#000" stroke-width="5"/><ellipse cx="16.272" cy="10.495" fill="#505050" rx="5.728" ry="7.333" stroke="#000" stroke-width="5"/><g fill="#000"><path d="m16.211 20.417-9.053.566-.519-4.257 8.002 1.103z"/><path d="m16.211.669-9.405-.669-1.458 3.874h7.959z"/></g></g><g transform="translate(309.216 325.005)"><ellipse cx="6.249" cy="10.495" fill="#000" rx="6.249" ry="8" stroke="#000" stroke-width="5"/><ellipse cx="16.272" cy="10.495" fill="#505050" rx="5.728" ry="7.333" stroke="#000" stroke-width="5"/><g fill="#000"><path d="m16.211 20.417-9.053.566-.519-4.257 8.002 1.103z"/><path d="m16.211.669-9.405-.669-1.458 3.874h7.959z"/></g></g><g transform="translate(279.216 325.005)"><ellipse cx="6.249" cy="10.495" fill="#000" rx="6.249" ry="8" stroke="#000" stroke-width="5"/><ellipse cx="16.272" cy="10.495" fill="#505050" rx="5.728" ry="7.333" stroke="#000" stroke-width="5"/><g fill="#000"><path d="m16.211 20.417-9.053.566-.519-4.257 8.002 1.103z"/><path d="m16.211.669-9.405-.669-1.458 3.874h7.959z"/></g></g><g stroke="#000"><path d="m173.5 322.5v23" stroke-linecap="square" stroke-width="5"/><path d="m173.5 322.5v23" stroke-linecap="square" stroke-width="5"/><path d="m183.5 322.5v23" stroke-linecap="square" stroke-width="5"/><path d="m193.5 322.5v23" stroke-linecap="square" stroke-width="5"/><path d="m203.5 322.5v23" stroke-linecap="square" stroke-width="5"/><path d="m213.5 322.5v23" stroke-linecap="square" stroke-width="5"/><path d="m223.5 322.5v23" stroke-linecap="square" stroke-width="5"/><path d="m233.5 322.5v23" stroke-linecap="square" stroke-width="5"/><path d="m243.5 322.5v23" stroke-linecap="square" stroke-width="5"/><path d="m253.5 322.5v23" stroke-linecap="square" stroke-width="5"/><path d="m263.5 322.5v23" stroke-linecap="square" stroke-width="5"/><path d="m173.71 25.078h313.932v281.922h-313.932z" fill="#000" stroke-width="5"/></g><path d="m175.924 32.53h300.277v271.973h-300.277z" fill="#9ec1fc"/><g transform="translate(175.924 32.53)"><path d="m0 0h43.176v271.973h-43.176z" fill="#e2e2e2"/><path d="m43.176 0h43.176v271.973h-43.176z" fill="#e7dd78"/><path d="m86.352 0h43.177v271.973h-43.177z" fill="#6cffe7"/><path d="m129.529 0h43.176v271.973h-43.176z" fill="#46aa25"/><path d="m171.471 0h43.177v271.973h-43.177z" fill="#ca41ec"/><path d="m214.648 0h43.176v271.973h-43.176z" fill="#ff4331"/><path d="m257.824 0h43.176v271.973h-43.176z" fill="#2b68ff"/><path d="m0 228.973h43.176v43h-43.176z" fill="#e2e2e2"/><path d="m43.176 228.973h43.176v43h-43.176z" fill="#ccc"/><path d="m86.352 228.973h43.177v43h-43.177z" fill="#898e8d"/><path d="m129.529 228.973h43.176v43h-43.176z" fill="#7a7a7a"/><path d="m171.471 228.973h43.177v43h-43.177z" fill="#5b5b5b"/><path d="m214.648 228.973h43.176v43h-43.176z" fill="#595959"/><path d="m257.824 228.973h43.176v43h-43.176z" fill="#2a2a2a"/></g><path d="m170.924 312.702h319.575" stroke="#fff" stroke-opacity=".245" stroke-width="5"/><circle cx="218.5" cy="75.5" r="40" stroke="#000" stroke-width="5"/><circle cx="434.5" cy="75.5" r="40" stroke="#000" stroke-width="5"/><circle cx="218.5" cy="261.5" r="40" stroke="#000" stroke-width="5"/><circle cx="434.5" cy="261.5" r="40" stroke="#000" stroke-width="5"/><g transform="translate(231.539 118)"><path d="m129.503542 0c20.411179 0 36.957708 16.6745231 36.957708 37.2435897 0 4.9875199-.972852 9.7460602-2.737759 14.0934244-9.347642 2.9461358-16.702825 10.5114831-19.500943 20.0789248-4.509103 1.9756762-9.487095 3.0712406-14.719006 3.0712406-20.411178 0-36.9577079-16.6745231-36.9577079-37.2435898 0-20.5690666 16.5465299-37.2435897 36.9577079-37.2435897z" fill="#fff" stroke="#000" stroke-width="5"/><path d="m58.7559296 0c20.4111785 0 36.957708 16.6745231 36.957708 37.2435897 0 20.5690667-16.5465295 37.2435898-36.957708 37.2435898-4.7759117 0-9.3402376-.9129139-13.5305171-2.5750244-2.7962-10.2071994-10.7558927-18.2177989-20.8280903-20.9235881-1.677323-4.2522713-2.5991007-8.8901452-2.5991007-13.7449773 0-20.5690666 16.5465295-37.2435897 36.9577081-37.2435897z" fill="#fff" stroke="#000" stroke-width="5"/><path d="m141.391673 43.3974359c10.497178 0 19.006821-8.575469 19.006821-19.1538462 0-10.5783771-8.509643-19.15384611-19.006821-19.15384611-6.084594 0-11.501409 2.88121733-14.980265 7.36364651-2.522887 3.2506841 8.502886 7.3434832 8.502886 11.7901996 0 4.323873-11.107706 8.3131129-8.709632 11.5188749 3.468826 4.6371512 8.980516 7.6349713 15.187011 7.6349713zm-70.7476124 0c10.4971775 0 19.0068212-8.575469 19.0068212-19.1538462 0-10.5783771-8.5096437-19.15384611-19.0068212-19.15384611-7.6308039 0-14.2113158 4.53161888-17.2361112 11.07005151-1.1362097 2.4560442 9.8445695 5.1952485 9.8445695 8.0837946 0 2.8658999-10.9906892 5.5847905-9.8712006 8.0259762 3.0126768 6.5695209 9.609466 11.12787 17.2627423 11.12787z" fill="#000"/><g stroke="#000" stroke-linecap="round" stroke-width="5"><path d="m46.3084535 80c0-16.5685425-13.1775966-30-29.4329856-30-6.2782274 0-12.09734266 2.0035606-16.8754679 5.4175941"/><path d="m189.308453 80c0-16.5685425-13.177596-30-29.432985-30-6.278227 0-12.097343 2.0035606-16.875468 5.4175941" transform="matrix(-1 0 0 1 332.308 0)"/></g></g><path d="m221.5 78.5h210v181h-210z" stroke="#000" stroke-width="5"/><path d="m216.224411 45.6296496 10.425358 5.0303471c1.030639.5929447 1.38546 1.9091193.792515 2.9397582-.279377.485606-.737043.8431841-1.275808.9967993l-10.715273 3.0551904c-4.429854 1.2630612-8.471036 3.5616828-10.042768 7.8916462l-5.552998 17.652702c-.405705 1.1176775-1.640651 1.6948451-2.758329 1.2891397-.774993-.2813146-1.32127-.9805169-1.40674-1.8005459l-1.419644-17.9306518c-.477535-4.5816202-2.000063-8.8570699-5.99282-11.1542799l-11.19852-5.0303313c-1.030627-.5929653-1.385422-1.909147-.792457-2.939774.279393-.4856104.737079-.8431836 1.275861-.9967829l10.715116-3.0547347c4.430071-1.2629533 8.145526-4.1394982 9.717319-8.4696304l5.878827-17.0745556c.405705-1.1176776 1.640651-1.6948451 2.758328-1.2891397.774994.2813146 1.32127.9805169 1.406741 1.8005459l1.834995 17.6054882c.477546 4.5817209 2.357406 9.1816286 6.350297 11.4788092z" fill="#fff" transform="matrix(.99254615 -.12186934 .12186934 .99254615 -4.541876 24.970978)"/><path d="m21 158h98" stroke="#000" stroke-width="5"/><path d="m21 170h98" stroke="#000" stroke-width="5"/><path d="m21 182h98" stroke="#000" stroke-width="5"/></g><path d="m842.453458 502.838855 13.177139 4.475039c1.316691.556533 1.932921 2.07508 1.376388 3.391771-.262221.620385-.755944 1.114122-1.376322 1.376361l-12.338442 5.215557c-5.100896 2.156189-9.586284 5.491122-10.827365 10.888159l-4.039792 21.877789c-.320356 1.393117-1.7094 2.262762-3.102517 1.942407-.965983-.222134-1.720274-.976425-1.942407-1.942407l-4.32108-21.187869c-1.241092-5.397082-3.684269-10.27572-8.785225-12.431887l-14.099717-4.361742c-1.31668-.556559-1.93288-2.075119-1.376321-3.391798.26224-.620393.755987-1.114127 1.376387-1.376349l12.338322-5.214991c5.101171-2.156092 9.11321-6.132912 10.354339-11.530159l4.513295-21.235651c.320356-1.393117 1.7094-2.262762 3.102517-1.942406.965982.222133 1.720273.976424 1.942407 1.942406l4.76906 20.739011c1.241119 5.397201 4.158223 10.610646 9.259334 12.766759zm-92.957992 86.298122 6.841384 2.323377c.683608.288944 1.003546 1.077352.714602 1.76096-.136142.322095-.392476.578436-.714567.714587l-6.405945 2.707843c-2.648313 1.119463-4.977063 2.850913-5.621415 5.652978l-2.097403 11.358639c-.166324.723287-.887496 1.174794-1.610783 1.00847-.501524-.115329-.893141-.506946-1.00847-1.00847l-2.243444-11.000442c-.644357-2.802089-1.91282-5.335008-4.561164-6.45446l-7.320374-2.264554c-.683601-.288958-1.003523-1.077373-.714566-1.760974.136151-.322099.392498-.578439.714601-.714581l6.405882-2.707549c2.648456-1.119413 4.73145-3.184122 5.375826-5.986296l2.343239-11.02525c.166324-.723286.887497-1.174794 1.610783-1.00847.501525.115329.893142.506946 1.00847 1.00847l2.476029 10.767402c.644372 2.80215 2.158891 5.508897 4.807315 6.62832z" fill="#fff"/><g stroke-width="5" transform="translate(248.5 355.783)"><path d="m2.5 54.5h88v52h-88z" fill="url(#d)" stroke="#000"/><path d="m90.5 54.5h88v52h-88z" fill="url(#d)" stroke="#000"/><path d="m46.5 2.5h88v52h-88z" fill="url(#d)" stroke="#000"/><path d="m46.5 106.5h88v52h-88z" fill="url(#d)" stroke="#000"/><path d="m46.1954733 106.5v52h-43.6954733v-52zm0-104v52h-43.6954733v-52zm131.9999997 104v52h-43.695473v-52zm0-104v52h-43.695473v-52z" fill="url(#e)" stroke="#000"/><g stroke="#fff" stroke-opacity=".505"><path d="m44 7.505h-36.535v44.495"/><path d="m44 111.505h-36.535v44.495"/><path d="m132 7.505h-80.535v44.495"/><path d="m132 111.505h-80.535v44.495"/><path d="m88 59.505h-80.535v44.495"/><path d="m176 59.505h-80.535v44.495"/><path d="m176 7.505h-36.535v44.495"/><path d="m176 111.505h-36.535v44.495"/></g></g></g></svg>