<svg height="1002" viewBox="0 0 1002 1002" width="1002" xmlns="http://www.w3.org/2000/svg" xmlns:xlink="http://www.w3.org/1999/xlink"><linearGradient id="a" x1="100%" x2="20.652%" y1="0%" y2="86.768%"><stop offset="0" stop-color="#487dd7"/><stop offset="1" stop-color="#fc9e9e"/></linearGradient><linearGradient id="b" x1="101.015%" x2="7.605%" y1="50%" y2="50%"><stop offset="0"/><stop offset="1" stop-opacity="0"/></linearGradient><linearGradient id="c" x1="104.033%" x2="-17.504%" y1="26.805%" y2="84.104%"><stop offset="0" stop-color="#707070"/><stop offset="1"/></linearGradient><linearGradient id="d" x1="2.008%" x2="100%" y1="8.134%" y2="91.866%"><stop offset="0" stop-color="#3a3a3a"/><stop offset="1" stop-color="#848484"/></linearGradient><g fill="none" fill-rule="evenodd"><g transform="translate(-4)"><path d="m0 0h1007.999v1008h-1007.999z" fill="url(#a)"/><g transform="translate(475.479 242.699)"><path d="m12.0717352 56.2167746h112.9950418 50.504958v39h-50.694335-112.8056648c-10.76955262 0-19.49999999-8.7304474-19.49999999-19.5s8.73044737-19.5 19.49999999-19.5z" fill="url(#b)" opacity=".495" transform="matrix(-.74314483 .66913061 .66913061 .74314483 95.885078 -36.806833)"/><circle cx="17" cy="136.225" fill="#ff7070" r="17" stroke="#000" stroke-width="5"/><ellipse cx="17" cy="130.225" fill="#fff" rx="9.8" ry="7"/></g><g stroke="#000" stroke-width="5" transform="translate(377 350.763)"><rect fill="#fff" height="34" rx="17" width="184" y="87.237"/><path d="m17 87.2368723h6v33.9999997h-6c-9.38884075 0-17-7.611159-17-17 0-9.3888405 7.61115925-16.9999997 17-16.9999997zm144 0h6c9.388841 0 17 7.6111592 17 16.9999997 0 9.388841-7.611159 17-17 17h-6z" fill="#9ec1fc"/><g transform="matrix(-1 0 0 1 282.007 0)"><g fill="#ffe3a1"><path d="m85.6315933 87.9191115c0-3.0683058 24.5686737-57.4017254 10.7412709-67.3652007-10.5422552-7.5963289-23.9110992 27.0134512-29.6684414 53.1465331-1.7940866 8.1435164 18.9271705 17.2869733 18.9271705 14.2186676z" transform="matrix(.78801075 .61566148 -.61566148 .78801075 50.971058 -40.016702)"/><path d="m73.7959725 74.8475596c0-3.0683058 35.9103215-57.4017254 15.6997688-67.36520067-15.4088814-7.59632892-34.949191 27.01345117-43.3642978 53.14653307-2.6222916 8.1435164 27.664529 17.2869733 27.664529 14.2186676z" transform="matrix(.93969262 .34202014 -.34202014 .93969262 18.271785 -21.75244)"/><path d="m45.9739237 40.603312.7092933-1.5277104c10.1663054-21.6149187 16.5630429-35.08179936 28.6149041-28.8557749 7.8484778 4.0545451 6.9209683 14.8354025 2.904001 26.6102413l-.3735315 1.0730186c-.063621.1792396-.1279117.3586676-.1928523.5382639l-.397284 1.0794388-.4119324 1.0825227-.4256312 1.0846494-.4383806 1.0858192-.4501806 1.0860317-.4610313 1.0852873c-.07769.180766-.1557925.3614612-.2342879.5420655l-.4755269 1.0823761-.4840041 1.0792391-.4915317 1.075145-.4981099 1.0700937-.5037387 1.0640855-.5084181 1.0571201-.5121481 1.0491977-.5149286 1.0403182-.5167598 1.0304817c4.4063329-1.2291044 9.0494476-1.8850009 13.8450175-1.8850009 9.8088335 0 19.1432411 1.5639334 27.2410851 6.8551014 9.997533 6.5324335 10.570991 15.8799144 6.844678 21.866396-3.676628 5.9066617-14.018651 4.5364945-19.9456157.9881729l-.2393014-.1468106c-4.1339212-2.5981396-8.8992279-3.9926284-13.900846-3.9926284-14.5074036 0-26.2679778 11.8174788-26.2679778 26.3950774 0 14.577599 11.7605742 26.395078 26.2679778 26.395078 5.1826682 0 10.1118274-1.498413 14.3394015-4.274338l.3942659-.263979c5.8126607-3.967781 13.7257877-2.44941 17.6744617 3.391376 3.948675 5.840786 2.437616 13.792201-3.375046 17.759981-5.961994 4.069717-12.686253 6.837226-19.7884914 8.126983-1.2461192.309671-2.8635912.524615-4.8502183.644392-1.4556987.123483-2.9207316.185816-4.3943734.185816l-.4666082-.005327c-2.1388311.443752-3.3659152 3.035299-4.2039033 6.507662l-.1399411.603655-.1329031.619492-.1264502.633913-.1788562.974804-.1128781.663757-.1612407 1.012921-.2029836 1.375381-.2445924 1.769572-.4006024 2.955673-.1454525 1.023138-.1509559 1.007083-.158395.986335-.1106854.643713-.1154254.631016-.1207389.616929-.1266261.601451-.1330866.584584-.1401208.566325c-.8150309 3.15482-1.9964957 5.363245-4.0140081 5.486865l-.1801974.005468h-65.34774182c.34826477-.237068.68747159-.473951 1.01762046-.710647l.64822049-.473145c9.96624377-7.408712 15.52195807-14.63475 7.70241847-21.678113l-.4236092-.377158-.3574552-.331243c-.0612294-.058116-.1232666-.117678-.186083-.178675l-.3860206-.383116-.4033526-.417015-.4193154-.450366c-.1422801-.15562-.2869924-.316707-.4339088-.483171l-.4471331-.515429-.4589881-.54714c-.0774099-.093802-.1552567-.188903-.2335118-.285291l-.4742033-.593683-.4826351-.624026-.4896978-.653825-.4953911-.683075-.4997153-.71178-.50267013-.739937c-.16789706-.251278-.33605839-.507157-.50425578-.767547l-.50447216-.794612c-5.62938395-9.022233-11.04313357-23.004271-7.66167643-38.520148 2.31917146-10.641559 7.33224398-19.0136729 12.9924434-27.2106367l.9762772-1.4038688.9866642-1.402782 3.5020395-4.9350284 1.0050491-1.4269059c4.5194537-6.4458875 23.9462861-35.1300143 25.4648171-38.4435732z" stroke-linejoin="round"/></g><path d="m70.8182024 54.7016854c-2.3348954.7948558-4.1549816 1.4879816-5.4602588 2.0793775s-3.1253634 1.6661492-5.4602588 3.2242598" stroke-linecap="round"/></g><path d="m197 184.850922c7.197957 9.546831 7.963602 18.206244 2.296935 25.978239-16.471605 22.591274-38.634522 37.221461-44.62095 79.428955-7.802043 55.008547-46.52223 115.351501-116.1605604 181.028864 96.0899144-30.396189 159.5847734-52.97202 190.4845754-67.727494 65.5-31.277985 36.635171-105.240061 43.488194-120.739432 10.624362-24.028952 13.837246-48.025917 9.638652-71.990893-.688238-3.928362-1.92132-17.911365-6.375821-23.530019-11.552994-15.300044-30.286711-3.79546-46.751025-2.44822-5.635903.461174-16.30257.461174-32 0z" fill="#5f5f5f" stroke-linejoin="round"/></g><g transform="translate(493.998 845)"><path d="m-2.49968146 8.53052738c10.7448069.37120947 22.59968646 4.23844262 35.43162066 11.69674032 7.1293153 4.1437678 13.2306311 8.4094698 19.3686517 13.3644304l1.3555642 1.1061517 1.9938649 1.6786826 4.1365701 3.5470834 7.0111361 6.0463918.6354402.5369324c8.6220093 7.1458729 15.530219 10.8499038 25.8985372 13.0175162l1.0145997.2043798.5003741.0952867 1.0471255.1881583c.5182786.0894417 1.0442948.1748657 1.5782451.256266l1.1074301.1614619c.9164225.1276317 1.8555819.2438565 2.8184069.3486386l1.182986.1217773 1.207257.1105968c.602814.05186 1.21443.0995601 1.83505.1430907l1.270669.082508 1.296236.0711504c.213353.0106578.427718.0208581.6431.0306004l1.341692.0542885c.444346.0158986.892917.0299186 1.34577.0420565l1.395222.0311927c.229567.0041302.460206.007794.691925.0109909l1.431308.01371 1.454099.0020878c.24478-.0006241.490708-.0017334.728195-.0032478l1.506772-.0154911c.504054-.0070886 1.01279-.0161282 1.517329-.0269154l1.564739-.0391063 1.585523-.0506851 1.61568-.0625338 1.646195-.074426 1.677064-.0863609 1.708289-.0983377 1.739877-.110356 1.771743-.1223998c.298013-.0214116.597342-.0433252.891391-.0652403l1.827048-.1410899 1.853219-.1527318 1.886409-.1649265 1.919959-.177159 1.953868-.1894287 1.988137-.2017353 2.022766-.2140784 4.440984-.4887337 1.533458 9.9107159-4.721965.5195235c-.352238.0380099-.70303.0754878-1.057774.1129983l-2.074005.2147927-2.045792.2026645-2.012639.1900008-1.979893.1773544-1.947557.1647254-1.915551.1520979c-.31666.024304-.631977.0480807-.952778.0718264l-1.861715.1327398-1.837555.1206472-1.807043.108087-1.776939.0955405-1.747242.0830069-1.717964.0704859-1.688987.0579575c-.279166.0086217-.557107.0167213-.842721.024527l-1.637716.0390197-1.618563.0267245c-.267517.0034177-.53385.0063148-.808489.008759l-1.564539.0080911c-.524552.0000085-1.044396-.0010106-1.559599-.0046038l-1.513861-.0167837c-.7598-.0116064-1.509326-.0279294-2.248805-.0489509l-1.448657-.0476652c-.728251-.0272762-1.446572-.0592639-2.155189-.0959437l-1.385935-.0784741c-.235344-.0144884-.469597-.029512-.702769-.04507l-1.356117-.0974045-1.339042-.1103202-1.316041-.1227868-1.2861974-.1345026c-.218638-.0241128-.4362496-.0487634-.6528435-.0739509l-1.253038-.1530998-1.2386516-.1664775-1.2094498-.1778095c-1.6158074-.2478545-3.1719675-.5287966-4.6728258-.8423841-12.1412219-2.536772-20.4334438-6.8632174-30.2137029-14.875303l-.9122899-.7566901-10.3472121-8.9089988-2.1621055-1.8387503-1.2703738-1.0584854c-6.0314186-4.9352062-11.9392325-9.1096763-18.9078165-13.1600224-10.9360891-6.3563767-20.76076975-9.7763304-29.60199184-10.1576382z" fill="#000" fill-rule="nonzero" stroke="#000" stroke-width="5"/><path d="m364.501513 7.5c2.071068 0 3.946068.83946609 5.303301 2.19669914 1.357233 1.35723306 2.196699 3.23223306 2.196699 5.30330086v77.5h-121.499712v-85z" fill="#fff" stroke="#000" stroke-width="5"/><path d="m344.320668 18.5c1.794925 0 3.419925.7275373 4.596194 1.9038059 1.176269 1.1762687 1.903806 2.8012687 1.903806 4.5961941 0 .3394775-.026595.6784334-.079541 1.0137567l-1.736842 11c-.249421 1.5796692-1.054917 2.95123-2.197866 3.9278735-1.14295.9766436-2.623354 1.5583698-4.222593 1.5583698h-30.164049c-1.599239 0-3.079643-.5817262-4.222593-1.5583698-1.14295-.9766435-1.948445-2.3482043-2.197866-3.9278735l-1.736842-11c-.279942-1.7729608.185254-3.4915442 1.163674-4.8368727.978421-1.3453285 2.470067-2.3174021 4.243028-2.5973433.335323-.0529458.674279-.0795407 1.013757-.0795407z" fill="#4e95ca" stroke="#000" stroke-linejoin="round" stroke-width="5"/><path d="m348.320668 18.5c1.794925 0 3.419925.7275373 4.596194 1.9038059 1.176269 1.1762687 1.903806 2.8012687 1.903806 4.5961941 0 .3394775-.026595.6784334-.079541 1.0137567l-1.736842 11c-.249421 1.5796692-1.054917 2.95123-2.197866 3.9278735-1.14295.9766436-2.623354 1.5583698-4.222593 1.5583698h-30.164049c-1.599239 0-3.079643-.5817262-4.222593-1.5583698-1.14295-.9766435-1.948445-2.3482043-2.197866-3.9278735l-1.736842-11c-.279942-1.7729608.185254-3.4915442 1.163674-4.8368727.978421-1.3453285 2.470067-2.3174021 4.243028-2.5973433.335323-.0529458.674279-.0795407 1.013757-.0795407z" fill="#4e95ca" stroke="#000" stroke-linejoin="round" stroke-width="5"/><circle cx="317.002" cy="27" fill="#000" r="2"/><circle cx="323.002" cy="34" fill="#000" r="2"/><circle cx="333.002" cy="34" fill="#000" r="2"/><circle cx="342.002" cy="34" fill="#000" r="2"/><circle cx="327.002" cy="27" fill="#000" r="2"/><circle cx="337.002" cy="27" fill="#000" r="2"/><circle cx="347.002" cy="27" fill="#000" r="2"/><ellipse cx="297.002" cy="30" fill="#d8d8d8" rx="1" ry="2.5" stroke="#000" stroke-width="5"/><ellipse cx="361.002" cy="30" fill="#d8d8d8" rx="1" ry="2.5" stroke="#000" stroke-width="5"/><path d="m278.501801 7.5v85h-129v-77.5c0-2.0710678.839466-3.9460678 2.1967-5.30330086 1.357233-1.35723305 3.232233-2.19669914 5.3033-2.19669914z" fill="url(#c)" stroke="#000" stroke-width="5"/><path d="m271.756403 0h12.490796c1.550092 0 2.707362.27847683 3.68514.80139811.977777.52292128 1.745143 1.290287 2.268064 2.26806478.522922.97777778.801398 2.13504723.801398 3.68513903v.24539808h-26v-.24539808c0-1.5500918.278477-2.70736125.801399-3.68513903.522921-.97777778 1.290287-1.7451435 2.268064-2.26806478.977778-.52292128 2.135048-.80139811 3.685139-.80139811zm30 0h12.490796c1.550092 0 2.707362.27847683 3.68514.80139811.977777.52292128 1.745143 1.290287 2.268064 2.26806478.522922.97777778.801398 2.13504723.801398 3.68513903v.24539808h-26v-.24539808c0-1.5500918.278477-2.70736125.801399-3.68513903.522921-.97777778 1.290287-1.7451435 2.268064-2.26806478.977778-.52292128 2.135048-.80139811 3.685139-.80139811zm30 0h12.490796c1.550092 0 2.707362.27847683 3.68514.80139811.977777.52292128 1.745143 1.290287 2.268064 2.26806478.522922.97777778.801398 2.13504723.801398 3.68513903v.24539808h-26v-.24539808c0-1.5500918.278477-2.70736125.801399-3.68513903.522921-.97777778 1.290287-1.7451435 2.268064-2.26806478.977778-.52292128 2.135048-.80139811 3.685139-.80139811z" fill="#000"/><g stroke="#000" stroke-width="5"><path d="m199.001801 65.5c2.347211 0 4.472211.9513949 6.010408 2.4895924 1.538197 1.5381974 2.489592 3.6631974 2.489592 6.0104076s-.951395 4.4722102-2.489592 6.0104076c-1.538197 1.5381975-3.663197 2.4895924-6.010408 2.4895924h-23.5v-17z" fill="#d8d8d8"/><path d="m185.001801 65.5c2.347211 0 4.472211.9513949 6.010408 2.4895924 1.538197 1.5381974 2.489592 3.6631974 2.489592 6.0104076s-.951395 4.4722102-2.489592 6.0104076c-1.538197 1.5381975-3.663197 2.4895924-6.010408 2.4895924h-15c-2.34721 0-4.47221-.9513949-6.010407-2.4895924-1.538198-1.5381974-2.489593-3.6631974-2.489593-6.0104076s.951395-4.4722102 2.489593-6.0104076c1.538197-1.5381975 3.663197-2.4895924 6.010407-2.4895924z" fill="#4e95ca"/><path d="m258.001801 65.5c2.347211 0 4.472211.9513949 6.010408 2.4895924 1.538197 1.5381974 2.489592 3.6631974 2.489592 6.0104076s-.951395 4.4722102-2.489592 6.0104076c-1.538197 1.5381975-3.663197 2.4895924-6.010408 2.4895924h-23.5v-17z" fill="#d8d8d8"/><path d="m244.001801 65.5c2.347211 0 4.472211.9513949 6.010408 2.4895924 1.538197 1.5381974 2.489592 3.6631974 2.489592 6.0104076s-.951395 4.4722102-2.489592 6.0104076c-1.538197 1.5381975-3.663197 2.4895924-6.010408 2.4895924h-15c-2.34721 0-4.47221-.9513949-6.010407-2.4895924-1.538198-1.5381974-2.489593-3.6631974-2.489593-6.0104076s.951395-4.4722102 2.489593-6.0104076c1.538197-1.5381975 3.663197-2.4895924 6.010407-2.4895924z" fill="#4e95ca"/><path d="m257.001801 19.5c2.347211 0 4.472211.9513949 6.010408 2.4895924 1.538197 1.5381974 2.489592 3.6631974 2.489592 6.0104076s-.951395 4.4722102-2.489592 6.0104076c-1.538197 1.5381975-3.663197 2.4895924-6.010408 2.4895924h-4.5v-17z" fill="#000"/><path d="m251.001801 19.5c2.347211 0 4.472211.9513949 6.010408 2.4895924 1.538197 1.5381974 2.489592 3.6631974 2.489592 6.0104076s-.951395 4.4722102-2.489592 6.0104076c-1.538197 1.5381975-3.663197 2.4895924-6.010408 2.4895924-2.34721 0-4.47221-.9513949-6.010407-2.4895924-1.538198-1.5381974-2.489593-3.6631974-2.489593-6.0104076s.951395-4.4722102 2.489593-6.0104076c1.538197-1.5381975 3.663197-2.4895924 6.010407-2.4895924z" fill="#ff7070"/><path d="m225.001801 19.5c2.347211 0 4.472211.9513949 6.010408 2.4895924 1.538197 1.5381974 2.489592 3.6631974 2.489592 6.0104076s-.951395 4.4722102-2.489592 6.0104076c-1.538197 1.5381975-3.663197 2.4895924-6.010408 2.4895924h-4.5v-17z" fill="#000"/><path d="m219.001801 19.5c2.347211 0 4.472211.9513949 6.010408 2.4895924 1.538197 1.5381974 2.489592 3.6631974 2.489592 6.0104076s-.951395 4.4722102-2.489592 6.0104076c-1.538197 1.5381975-3.663197 2.4895924-6.010408 2.4895924-2.34721 0-4.47221-.9513949-6.010407-2.4895924-1.538198-1.5381974-2.489593-3.6631974-2.489593-6.0104076s.951395-4.4722102 2.489593-6.0104076c1.538197-1.5381975 3.663197-2.4895924 6.010407-2.4895924z" fill="#ff7070"/><path d="m299.002 55.223h62.54" stroke-linecap="round"/><path d="m299.002 65.223h62.54" stroke-linecap="round"/><path d="m333.002 75.223h28.54" stroke-linecap="round"/></g></g><g transform="translate(73.297 560)"><g stroke="#000"><path d="m0 279.484668v-119.183117c0-7.173247 4.03989328-13.735017 10.4448221-16.964933l35.7929331-18.049875c8.4048477-4.238447 14.5172505-11.962457 16.7105174-21.116444l23.1211779-96.50032181c1.0777051-4.49799268 5.0994634-7.66997719 9.7247619-7.66997719h242.9088526v377h-269.2130136c-5.5228475 0-10-4.477153-10-10v-26.116095c0-12.081258-6.8040308-23.132659-17.5912794-28.572518l-31.4539499-15.861786c-6.40492882-3.229916-10.4448221-9.791686-10.4448221-16.964933z" fill="#212121" stroke-width="5"/><path d="m130.703065 0h392c5.522847 0 10 4.4771525 10 10v357c0 5.522847-4.477153 10-10 10h-392c-5.522848 0-10-4.477153-10-10v-357c0-5.5228475 4.477152-10 10-10z" fill="url(#d)" stroke-width="5"/><rect fill="#5f5f5f" height="22" rx="10.5" stroke-width="5" width="21" x="498.414" y="341"/><path d="m179.414 50h313.931v277h-313.931z" fill="#000" stroke-width="5"/><path d="m201.509055 50h258.602119c7.57791 0 10.325843.7890177 13.096213 2.270628s4.944573 3.6558131 6.426183 6.4261835c1.481611 2.7703704 2.270628 5.5183034 2.270628 13.0962127v233.4139518c0 7.577909-.789017 10.325842-2.270628 13.096212-1.48161 2.770371-3.655813 4.944574-6.426183 6.426184s-5.518303 2.270628-13.096213 2.270628h-258.602119c-7.577909 0-10.325842-.789018-13.096213-2.270628-2.77037-1.48161-4.944573-3.655813-6.426183-6.426184-1.481611-2.77037-2.270628-5.518303-2.270628-13.096212v-233.4139518c0-7.5779093.789017-10.3258423 2.270628-13.0962127 1.48161-2.7703704 3.655813-4.9445732 6.426183-6.4261835 2.770371-1.4816103 5.518304-2.270628 13.096213-2.270628z" fill="#9ec1fc" stroke-linejoin="round" stroke-width="5"/></g><path d="m200.262 85h262v208h-262z" fill="#487dd7"/><path d="m218.703 112h8v16h-8z" fill="#dce9ff"/><g stroke="#000" stroke-linecap="round" stroke-width="5"><path d="m140 128.5h20.995"/><path d="m137 138.5h26.995"/><path d="m135 148.5h30.995"/><path d="m135 158.5h30.995"/><path d="m135 168.5h30.995"/><path d="m137 178.5h26.995"/><path d="m140 188.5h20.995"/></g><g stroke="#000" stroke-linecap="round" stroke-width="5"><path d="m506 128.5h15"/><path d="m505 138.5h19"/><path d="m503 148.5h22"/><path d="m503 158.5h22"/><path d="m503 168.5h22"/><path d="m505 178.5h19"/><path d="m506 188.5h15"/></g><path d="m68.648 363.248h41.97" stroke="#000" stroke-linecap="round" stroke-width="5"/><path d="m176.627 332.702h319.575" stroke="#fff" stroke-opacity=".245" stroke-width="5"/></g><g transform="translate(314.539 520.09)"><path d="m129.503542-1.58974359c10.898135 0 20.76543 4.45002401 27.907611 11.64745179 7.135235 7.1904288 11.550097 17.1234655 11.550097 28.096138 0 10.9726724-4.414862 20.9057091-11.550097 28.0961379-7.142181 7.1974278-17.009476 11.6474518-27.907611 11.6474518s-20.76543-4.450024-27.90761-11.6474518c-7.1352355-7.1904288-11.5500979-17.1234655-11.5500979-28.0961379 0-10.9726725 4.4148624-20.9057092 11.5500979-28.096138 7.14218-7.19742778 17.009475-11.64745179 27.90761-11.64745179z" fill="#fff" stroke="#000" stroke-width="5"/><path d="m58.7559296-1.58974359c10.8981351 0 20.7654302 4.45002401 27.9076106 11.64745179 7.135235 7.1904288 11.5500974 17.1234655 11.5500974 28.096138 0 10.9726724-4.4148624 20.9057091-11.5500974 28.0961379-7.1421804 7.1974278-17.0094755 11.6474518-27.9076106 11.6474518s-20.7654302-4.450024-27.9076106-11.6474518c-7.135235-7.1904288-11.5500975-17.1234655-11.5500975-28.0961379 0-10.9726725 4.4148625-20.9057092 11.5500975-28.096138 7.1421804-7.19742778 17.0094755-11.64745179 27.9076106-11.64745179z" fill="#fff" stroke="#000" stroke-width="5"/><path d="m140.391673 38.3076923c10.497178 0 19.006821-8.575469 19.006821-19.1538461 0-10.57837718-8.509643-19.1538462-19.006821-19.1538462-6.084594 0-11.501409 2.88121733-14.980265 7.36364652-2.522887 3.25068408 8.502886 7.34348318 8.502886 11.79019968 0 4.3238729-11.107706 8.3131128-8.709632 11.5188748 3.468826 4.6371512 8.980516 7.6349713 15.187011 7.6349713zm-70.7476124 0c10.4971775 0 19.0068212-8.575469 19.0068212-19.1538461 0-10.57837718-8.5096437-19.1538462-19.0068212-19.1538462-7.6308039 0-14.2113158 4.53161888-17.2361112 11.0700515-1.1362097 2.4560442 9.8445695 5.1952485 9.8445695 8.0837947 0 2.8658998-10.9906892 5.5847904-9.8712006 8.0259761 3.0126768 6.5695209 9.609466 11.12787 17.2627423 11.12787z" fill="#000"/><g stroke="#000" stroke-linecap="round" stroke-width="5"><path d="m46.3084535 80.9102564c0-16.5685425-13.1775966-30-29.4329856-30-6.2782274 0-12.09734266 2.0035606-16.8754679 5.4175941" fill="#4a4a4a"/><path d="m189.308453 80.9102564c0-16.5685425-13.177596-30-29.432985-30-6.278227 0-12.097343 2.0035606-16.875468 5.4175941" fill="#5a5a5a" transform="matrix(-1 0 0 1 332.308 0)"/></g></g><g stroke="#000" stroke-width="5"><path d="m52.8731382 18.6035666c-7.0141139-4.521198-15.7183976-6.781797-26.1128514-6.781797-11.2894886 0-20.58520482 2.6666667-27.88714865 8" stroke-linecap="round" transform="matrix(.89100652 -.4539905 .4539905 .89100652 309.763951 492.648591)"/><path d="m176.873138 31.8217696c-6.749964-4-14.995431-6-24.736402-6-7.249527 0-13.670727 1.1077579-19.263598 3.3232738" stroke-linecap="round" transform="matrix(.89100652 .4539905 -.4539905 .89100652 344.092061 412.008539)"/><g transform="translate(79 935)"><path d="m819.314207 2.5c4.832491 0 9.207491 1.95875422 12.374368 5.12563133 3.166877 3.16687707 5.125632 7.54187707 5.125632 12.37436867v49.3275459h-834.314207v-49.3275459c0-4.8324916 1.95875422-9.2074916 5.12563133-12.37436867 3.16687707-3.16687711 7.54187707-5.12563133 12.37436867-5.12563133z" fill="#212121"/><path d="m829.314207 2.5c4.832491 0 9.207491 1.95875422 12.374368 5.12563133 3.166877 3.16687707 5.125632 7.54187707 5.125632 12.37436867v49.3275459h-781.3697135v-49.3275459c0-4.8324916 1.9587542-9.2074916 5.1256313-12.37436867 3.1668771-3.16687711 7.5418771-5.12563133 12.3743687-5.12563133z" fill="#3a3a3a"/></g><path d="m75.5 65.5h127v21h-127z" fill="#ff7070"/><path d="m217.5 65.5h127v21h-127z" fill="#ff7070"/><path d="m359.5 65.5h127v21h-127z" fill="#ff7070"/><path d="m501.5 65.5h127v21h-127z" fill="#ffe3a1"/><path d="m643.5 65.5h127v21h-127z" fill="#ff7070"/><path d="m785.5 65.5h127v21h-127z" fill="#487dd7"/><path d="m217.5 209.5h127v21h-127z" fill="#ffe3a1"/><path d="m359.5 209.5h127v21h-127z" fill="#fff"/><path d="m501.5 209.5h127v21h-127z" fill="#ffe3a1"/><path d="m643.5 209.5h127v21h-127z" fill="#ffe3a1"/><path d="m75.5 101.5h127v21h-127z" fill="#487dd7"/><path d="m217.5 101.5h127v21h-127z" fill="#ffe3a1"/><path d="m359.5 101.5h127v21h-127z" fill="#ff7070"/><path d="m785.5 101.5h127v21h-127z" fill="#ffe3a1"/><path d="m217.5 137.5h127v21h-127z" fill="#487dd7"/><path d="m359.5 137.5h127v21h-127z" fill="#ffe3a1"/><path d="m501.5 137.5h127v21h-127z" fill="#ff7070"/><path d="m359.5 173.5h127v21h-127z" fill="#487dd7"/><path d="m501.5 173.5h127v21h-127z" fill="#487dd7"/><path d="m785.5 137.5h127v21h-127z" fill="#487dd7"/></g><path d="m61 220h6v6h-6z" fill="#fff"/><path d="m827 374h6v6h-6z" fill="#fff"/><path d="m934 557h6v6h-6z" fill="#fff"/><path d="m337 320h6v6h-6z" fill="#fff"/><path d="m962 230h6v6h-6z" fill="#fff"/><path d="m723 155h6v6h-6z" fill="#fff"/><path d="m803 580h6v6h-6z" fill="#fff"/><path d="m181 398h6v6h-6z" fill="#fff"/><g fill="#fff"><path d="m912 380h6v6h-6z"/><path d="m918 386h6v6h-6z"/><path d="m912 392h6v6h-6z"/><path d="m906 386h6v6h-6z"/></g><g fill="#fff"><path d="m169 155h6v6h-6z"/><path d="m175 161h6v6h-6z"/><path d="m169 167h6v6h-6z"/><path d="m163 161h6v6h-6z"/></g><g fill="#fff"><path d="m79 512h6v6h-6z"/><path d="m85 518h6v6h-6z"/><path d="m79 524h6v6h-6z"/><path d="m73 518h6v6h-6z"/></g><path d="m649.845457 632.518592c-9.665244 15.188526-14.497867 27.609242-14.497867 37.262148" stroke="#000" stroke-linecap="round" stroke-width="5"/></g><g stroke="#000" stroke-linecap="round" stroke-width="5"><path d="m637.596 402.932h101.739"/><path d="m671.596 445.932h24.739"/><path d="m712.596 427.932h54.191"/></g><path d="m544.224411 626.62965 10.425358 5.030347c1.030639.592944 1.38546 1.909119.792515 2.939758-.279377.485606-.737043.843184-1.275808.996799l-10.715273 3.055191c-4.429854 1.263061-8.471036 3.561682-10.042768 7.891646l-5.552998 17.652702c-.405705 1.117677-1.640651 1.694845-2.758329 1.289139-.774993-.281314-1.32127-.980516-1.40674-1.800545l-1.419644-17.930652c-.477535-4.58162-2.000063-8.85707-5.99282-11.15428l-11.19852-5.030331c-1.030627-.592966-1.385422-1.909147-.792457-2.939774.279393-.485611.737079-.843184 1.275861-.996783l10.715116-3.054735c4.430071-1.262953 8.145526-4.139498 9.717319-8.46963l5.878827-17.074556c.405705-1.117678 1.640651-1.694845 2.758328-1.28914.774994.281315 1.32127.980517 1.406741 1.800546l1.834995 17.605488c.477546 4.581721 2.357406 9.181629 6.350297 11.47881z" fill="#fff" transform="matrix(.99254615 -.12186934 .12186934 .99254615 -72.903103 69.274808)"/></g></svg>