<svg xmlns="http://www.w3.org/2000/svg" xmlns:xlink="http://www.w3.org/1999/xlink" width="996" height="996" viewBox="0 0 996 996"><defs><filter id="j" width="134.8%" height="135.9%" x="-17.4%" y="-17.9%" filterUnits="objectBoundingBox"><feGaussianBlur in="SourceAlpha" result="shadowBlurInner1" stdDeviation="31.5"/><feOffset dx="30" dy="-29" in="shadowBlurInner1" result="shadowOffsetInner1"/><feComposite in="shadowOffsetInner1" in2="SourceAlpha" k2="-1" k3="1" operator="arithmetic" result="shadowInnerInner1"/><feColorMatrix in="shadowInnerInner1" result="shadowMatrixInner1" values="0 0 0 0 0.542512755 0 0 0 0 0.234326351 0 0 0 0 0.185432395 0 0 0 0.907236806 0"/><feGaussianBlur in="SourceAlpha" result="shadowBlurInner2" stdDeviation="5"/><feOffset dx="7" dy="-8" in="shadowBlurInner2" result="shadowOffsetInner2"/><feComposite in="shadowOffsetInner2" in2="SourceAlpha" k2="-1" k3="1" operator="arithmetic" result="shadowInnerInner2"/><feColorMatrix in="shadowInnerInner2" result="shadowMatrixInner2" values="0 0 0 0 0.976470588 0 0 0 0 0.768627451 0 0 0 0 0.443137255 0 0 0 1 0"/><feMerge><feMergeNode in="shadowMatrixInner1"/><feMergeNode in="shadowMatrixInner2"/></feMerge></filter><filter id="m" width="147.3%" height="147.3%" x="-23.6%" y="-23.6%" filterUnits="objectBoundingBox"><feGaussianBlur in="SourceAlpha" result="shadowBlurInner1" stdDeviation="6.5"/><feOffset dx="6" dy="-13" in="shadowBlurInner1" result="shadowOffsetInner1"/><feComposite in="shadowOffsetInner1" in2="SourceAlpha" k2="-1" k3="1" operator="arithmetic" result="shadowInnerInner1"/><feColorMatrix in="shadowInnerInner1" values="0 0 0 0 1 0 0 0 0 0.193728563 0 0 0 0 0.288007018 0 0 0 1 0"/></filter><filter id="o" width="147.3%" height="147.3%" x="-23.6%" y="-23.6%" filterUnits="objectBoundingBox"><feGaussianBlur in="SourceAlpha" result="shadowBlurInner1" stdDeviation="6.5"/><feOffset dx="6" dy="-13" in="shadowBlurInner1" result="shadowOffsetInner1"/><feComposite in="shadowOffsetInner1" in2="SourceAlpha" k2="-1" k3="1" operator="arithmetic" result="shadowInnerInner1"/><feColorMatrix in="shadowInnerInner1" values="0 0 0 0 1 0 0 0 0 0.193728563 0 0 0 0 0.288007018 0 0 0 1 0"/></filter><filter id="q" width="147.3%" height="147.3%" x="-23.6%" y="-23.6%" filterUnits="objectBoundingBox"><feGaussianBlur in="SourceAlpha" result="shadowBlurInner1" stdDeviation="6.5"/><feOffset dx="6" dy="-13" in="shadowBlurInner1" result="shadowOffsetInner1"/><feComposite in="shadowOffsetInner1" in2="SourceAlpha" k2="-1" k3="1" operator="arithmetic" result="shadowInnerInner1"/><feColorMatrix in="shadowInnerInner1" values="0 0 0 0 1 0 0 0 0 0.193728563 0 0 0 0 0.288007018 0 0 0 1 0"/></filter><filter id="s" width="147.3%" height="147.3%" x="-23.6%" y="-23.6%" filterUnits="objectBoundingBox"><feGaussianBlur in="SourceAlpha" result="shadowBlurInner1" stdDeviation="6.5"/><feOffset dx="6" dy="-13" in="shadowBlurInner1" result="shadowOffsetInner1"/><feComposite in="shadowOffsetInner1" in2="SourceAlpha" k2="-1" k3="1" operator="arithmetic" result="shadowInnerInner1"/><feColorMatrix in="shadowInnerInner1" values="0 0 0 0 1 0 0 0 0 0.193728563 0 0 0 0 0.288007018 0 0 0 1 0"/></filter><filter id="u" width="147.3%" height="147.3%" x="-23.6%" y="-23.6%" filterUnits="objectBoundingBox"><feGaussianBlur in="SourceAlpha" result="shadowBlurInner1" stdDeviation="6.5"/><feOffset dx="6" dy="-13" in="shadowBlurInner1" result="shadowOffsetInner1"/><feComposite in="shadowOffsetInner1" in2="SourceAlpha" k2="-1" k3="1" operator="arithmetic" result="shadowInnerInner1"/><feColorMatrix in="shadowInnerInner1" values="0 0 0 0 1 0 0 0 0 0.193728563 0 0 0 0 0.288007018 0 0 0 1 0"/></filter><filter id="x" width="187.9%" height="147.3%" x="-43.9%" y="-23.6%" filterUnits="objectBoundingBox"><feGaussianBlur in="SourceAlpha" result="shadowBlurInner1" stdDeviation="6.5"/><feOffset dx="6" dy="-13" in="shadowBlurInner1" result="shadowOffsetInner1"/><feComposite in="shadowOffsetInner1" in2="SourceAlpha" k2="-1" k3="1" operator="arithmetic" result="shadowInnerInner1"/><feColorMatrix in="shadowInnerInner1" values="0 0 0 0 1 0 0 0 0 0.193728563 0 0 0 0 0.288007018 0 0 0 1 0"/></filter><linearGradient id="a" x1="94.776%" x2="2.084%" y1="4.43%" y2="100%"><stop offset=".072%" stop-color="#7E5530"/><stop offset="99.951%" stop-color="#C2ADF5"/></linearGradient><linearGradient id="b" x1="104.033%" x2="-17.504%" y1="26.805%" y2="84.104%"><stop offset="0%" stop-color="#707070"/><stop offset="100%"/></linearGradient><linearGradient id="c" x1="23.781%" x2="3.411%" y1="45.45%" y2="45.45%"><stop offset="0%" stop-color="#6C4726"/><stop offset="100%" stop-color="#312011"/></linearGradient><linearGradient id="d" x1="84.547%" x2="52.352%" y1="93.008%" y2="22.242%"><stop offset="0%" stop-color="#BAAC9D"/><stop offset="100%" stop-color="#857364"/></linearGradient><linearGradient id="e" x1="-14.129%" x2="76.565%" y1="-17.023%" y2="55.821%"><stop offset="0%" stop-color="#6A6868"/><stop offset="100%"/></linearGradient><linearGradient id="y" x1="50%" x2="50%" y1="0%" y2="100%"><stop offset="0%" stop-color="#878787"/><stop offset="100%" stop-color="#FFF"/></linearGradient><circle id="k" cx="660.921" cy="185.5" r="27.5"/><circle id="n" cx="575.921" cy="185.5" r="27.5"/><circle id="p" cx="745.921" cy="185.5" r="27.5"/><circle id="r" cx="830.921" cy="185.5" r="27.5"/><circle id="t" cx="915.921" cy="185.5" r="27.5"/><radialGradient id="i" cx="59.479%" cy="31.677%" r="49.234%" fx="59.479%" fy="31.677%" gradientTransform="matrix(0 1 -.96971 0 .902 -.278)"><stop offset="0%" stop-color="#FFEC97"/><stop offset="99.618%" stop-color="#F49641"/></radialGradient><radialGradient id="l" cx="59.479%" cy="31.677%" r="49.046%" fx="59.479%" fy="31.677%"><stop offset="0%" stop-color="#D88DFF"/><stop offset="100%" stop-color="#442CCC"/></radialGradient><radialGradient id="w" cx="59.479%" cy="31.677%" r="91.196%" fx="59.479%" fy="31.677%" gradientTransform="matrix(0 .53781 -1 0 .912 -.003)"><stop offset="0%" stop-color="#D88DFF"/><stop offset="100%" stop-color="#442CCC"/></radialGradient><path id="h" d="M528.920562,0 C604.307431,0 665.420562,61.1131317 665.420562,136.5 C665.420562,137.163017 665.415835,137.82493 665.406413,138.485707 C670.333468,144.523217 673.45537,152.12607 673.894524,160.505617 C674.746827,176.768531 665.243698,191.178194 651.150545,197.331472 C628.782754,242.187398 582.449993,273 528.920562,273 C453.533694,273 392.420562,211.886868 392.420562,136.5 C392.420562,61.1131317 453.533694,0 528.920562,0 Z"/><path id="v" d="M1000.92056,158 C1001.62015,158 1002.31364,158.026124 1003.00011,158.077448 L1003.00011,212.922552 C1002.31364,212.973876 1001.62015,213 1000.92056,213 C985.732732,213 973.420562,200.687831 973.420562,185.5 C973.420562,170.312169 985.732732,158 1000.92056,158 Z"/><polygon id="f" points="0 0 438.456 0 438.456 213.047 0 213.047"/></defs><g fill="none" fill-rule="evenodd" transform="translate(-6 -6)"><polygon fill="url(#a)" points="0 0 1007.999 0 1007.999 1008 0 1008"/><g transform="translate(493.998 845)"><path fill="#000" fill-rule="nonzero" stroke="#000" stroke-width="5" d="M-2.49968146,8.53052738 C8.24512544,8.90173685 20.100005,12.76897 32.9319392,20.2272677 C40.0612545,24.3710355 46.1625703,28.6367375 52.3005909,33.5916981 L53.6561551,34.6978498 L55.65002,36.3765324 L59.7865901,39.9236158 L66.7977262,45.9700076 L67.4331664,46.50694 C76.0551757,53.6528129 82.9633854,57.3568438 93.3317036,59.5244562 L94.3463033,59.728836 L94.8466774,59.8241227 L95.8938029,60.012281 C96.4120815,60.1017227 96.9380977,60.1871467 97.472048,60.268547 L98.5794781,60.4300089 C99.4959006,60.5576406 100.43506,60.6738654 101.397885,60.7786475 L102.580871,60.9004248 L103.788128,61.0110216 C104.390942,61.0628816 105.002558,61.1105817 105.623178,61.1541123 L106.893847,61.2366203 L108.190083,61.3077707 C108.403436,61.3184285 108.617801,61.3286288 108.833183,61.3383711 L110.174875,61.3926596 C110.619221,61.4085582 111.067792,61.4225782 111.520645,61.4347161 L112.915867,61.4659088 C113.145434,61.470039 113.376073,61.4737028 113.607792,61.4768997 L115.0391,61.4906097 L116.493199,61.4926975 C116.737979,61.4920734 116.983907,61.4909641 117.221394,61.4894497 L118.728166,61.4739586 C119.23222,61.46687 119.740956,61.4578304 120.245495,61.4470432 L121.810234,61.4079369 L123.395757,61.3572518 L125.011437,61.294718 L126.657632,61.220292 L128.334696,61.1339311 L130.042985,61.0355934 L131.782862,60.9252374 L133.554605,60.8028376 C133.852618,60.781426 134.151947,60.7595124 134.445996,60.7375973 L136.273044,60.5965074 L138.126263,60.4437756 L140.012672,60.2788491 L141.932631,60.1016901 L143.886499,59.9122614 L145.874636,59.7105261 L147.897402,59.4964477 L152.338386,59.007714 L153.871844,68.9184299 L149.149879,69.4379534 C148.797641,69.4759633 148.446849,69.5134412 148.092105,69.5509517 L146.0181,69.7657444 L143.972308,69.9684089 L141.959669,70.1584097 L139.979776,70.3357641 L138.032219,70.5004895 L136.116668,70.6525874 C135.800008,70.6768914 135.484691,70.7006681 135.16389,70.7244138 L133.302175,70.8571536 L131.46462,70.9778008 L129.657577,71.0858878 L127.880638,71.1814283 L126.133396,71.2644352 L124.415432,71.3349211 L122.726445,71.3928786 C122.447279,71.4015003 122.169338,71.4095999 121.883724,71.4174056 L120.246008,71.4564253 L118.627445,71.4831498 C118.359928,71.4865675 118.093595,71.4894646 117.818956,71.4919088 L116.254417,71.4999999 C115.729865,71.5000084 115.210021,71.4989893 114.694818,71.4953961 L113.180957,71.4786124 C112.421157,71.467006 111.671631,71.450683 110.932152,71.4296615 L109.483495,71.3819963 C108.755244,71.3547201 108.036923,71.3227324 107.328306,71.2860526 L105.942371,71.2075785 C105.707027,71.1930901 105.472774,71.1780665 105.239602,71.1625085 L103.883485,71.065104 L102.544443,70.9547838 L101.228402,70.831997 L99.9422046,70.6974944 C99.7235666,70.6733816 99.505955,70.648731 99.2893611,70.6235435 L98.0363231,70.4704437 L96.7976715,70.3039662 L95.5882217,70.1261567 C93.9724143,69.8783022 92.4162542,69.5973601 90.9153959,69.2837726 C78.774174,66.7470006 70.4819521,62.4205552 60.701693,54.4084696 L59.7894031,53.6517795 L49.442191,44.7427807 L47.2800855,42.9040304 L46.0097117,41.845545 C39.9782931,36.9103388 34.0704792,32.7358687 27.1018952,28.6855226 C16.1658061,22.3291459 6.34112545,18.9091922 -2.50009664,18.5278844 Z"/><path fill="#FFF" stroke="#000" stroke-width="5" d="M364.501513,7.5 C366.572581,7.5 368.447581,8.33946609 369.804814,9.69669914 C371.162047,11.0539322 372.001513,12.9289322 372.001513,15 L372.001513,92.5 L250.501801,92.5 L250.501801,7.5 L364.501513,7.5 Z"/><path fill="#4E95CA" stroke="#000" stroke-linejoin="round" stroke-width="5" d="M344.320668,18.5 C346.115593,18.5 347.740593,19.2275373 348.916862,20.4038059 C350.093131,21.5800746 350.820668,23.2050746 350.820668,25 C350.820668,25.3394775 350.794073,25.6784334 350.741127,26.0137567 L349.004285,37.0137567 C348.754864,38.5934259 347.949368,39.9649867 346.806419,40.9416302 C345.663469,41.9182738 344.183065,42.5 342.583826,42.5 L312.419777,42.5 C310.820538,42.5 309.340134,41.9182738 308.197184,40.9416302 C307.054234,39.9649867 306.248739,38.5934259 305.999318,37.0137567 L304.262476,26.0137567 C303.982534,24.2407959 304.44773,22.5222125 305.42615,21.176884 C306.404571,19.8315555 307.896217,18.8594819 309.669178,18.5795407 C310.004501,18.5265949 310.343457,18.5 310.682935,18.5 L344.320668,18.5 Z"/><path fill="#4E95CA" stroke="#000" stroke-linejoin="round" stroke-width="5" d="M348.320668,18.5 C350.115593,18.5 351.740593,19.2275373 352.916862,20.4038059 C354.093131,21.5800746 354.820668,23.2050746 354.820668,25 C354.820668,25.3394775 354.794073,25.6784334 354.741127,26.0137567 L353.004285,37.0137567 C352.754864,38.5934259 351.949368,39.9649867 350.806419,40.9416302 C349.663469,41.9182738 348.183065,42.5 346.583826,42.5 L316.419777,42.5 C314.820538,42.5 313.340134,41.9182738 312.197184,40.9416302 C311.054234,39.9649867 310.248739,38.5934259 309.999318,37.0137567 L308.262476,26.0137567 C307.982534,24.2407959 308.44773,22.5222125 309.42615,21.176884 C310.404571,19.8315555 311.896217,18.8594819 313.669178,18.5795407 C314.004501,18.5265949 314.343457,18.5 314.682935,18.5 L348.320668,18.5 Z"/><circle cx="317.002" cy="27" r="2" fill="#000"/><circle cx="323.002" cy="34" r="2" fill="#000"/><circle cx="333.002" cy="34" r="2" fill="#000"/><circle cx="342.002" cy="34" r="2" fill="#000"/><circle cx="327.002" cy="27" r="2" fill="#000"/><circle cx="337.002" cy="27" r="2" fill="#000"/><circle cx="347.002" cy="27" r="2" fill="#000"/><ellipse cx="297.002" cy="30" fill="#D8D8D8" stroke="#000" stroke-width="5" rx="1" ry="2.5"/><ellipse cx="361.002" cy="30" fill="#D8D8D8" stroke="#000" stroke-width="5" rx="1" ry="2.5"/><path fill="url(#b)" stroke="#000" stroke-width="5" d="M278.501801,7.5 L278.501801,92.5 L149.501801,92.5 L149.501801,15 C149.501801,12.9289322 150.341267,11.0539322 151.698501,9.69669914 C153.055734,8.33946609 154.930734,7.5 157.001801,7.5 L278.501801,7.5 Z"/><path fill="#000" d="M271.756403-1.38618123e-16 284.247199 1.38618123e-16C285.797291-1.46129121e-16 286.954561.278476833 287.932339.801398111 288.910116 1.32431939 289.677482 2.09168511 290.200403 3.06946289 290.723325 4.04724067 291.001801 5.20451012 291.001801 6.75460192L291.001801 7 291.001801 7 265.001801 7 265.001801 6.75460192C265.001801 5.20451012 265.280278 4.04724067 265.8032 3.06946289 266.326121 2.09168511 267.093487 1.32431939 268.071264.801398111 269.049042.278476833 270.206312 1.46129121e-16 271.756403-1.38618123e-16ZM301.756403-1.38618123e-16 314.247199 1.38618123e-16C315.797291-1.46129121e-16 316.954561.278476833 317.932339.801398111 318.910116 1.32431939 319.677482 2.09168511 320.200403 3.06946289 320.723325 4.04724067 321.001801 5.20451012 321.001801 6.75460192L321.001801 7 321.001801 7 295.001801 7 295.001801 6.75460192C295.001801 5.20451012 295.280278 4.04724067 295.8032 3.06946289 296.326121 2.09168511 297.093487 1.32431939 298.071264.801398111 299.049042.278476833 300.206312 1.46129121e-16 301.756403-1.38618123e-16ZM331.756403-1.38618123e-16 344.247199 1.38618123e-16C345.797291-1.46129121e-16 346.954561.278476833 347.932339.801398111 348.910116 1.32431939 349.677482 2.09168511 350.200403 3.06946289 350.723325 4.04724067 351.001801 5.20451012 351.001801 6.75460192L351.001801 7 351.001801 7 325.001801 7 325.001801 6.75460192C325.001801 5.20451012 325.280278 4.04724067 325.8032 3.06946289 326.326121 2.09168511 327.093487 1.32431939 328.071264.801398111 329.049042.278476833 330.206312 1.46129121e-16 331.756403-1.38618123e-16Z"/><path fill="#D8D8D8" stroke="#000" stroke-width="5" d="M199.001801,65.5 C201.349012,65.5 203.474012,66.4513949 205.012209,67.9895924 C206.550406,69.5277898 207.501801,71.6527898 207.501801,74 C207.501801,76.3472102 206.550406,78.4722102 205.012209,80.0104076 C203.474012,81.5486051 201.349012,82.5 199.001801,82.5 L175.501801,82.5 L175.501801,65.5 Z"/><path fill="#4E95CA" stroke="#000" stroke-width="5" d="M185.001801,65.5 C187.349012,65.5 189.474012,66.4513949 191.012209,67.9895924 C192.550406,69.5277898 193.501801,71.6527898 193.501801,74 C193.501801,76.3472102 192.550406,78.4722102 191.012209,80.0104076 C189.474012,81.5486051 187.349012,82.5 185.001801,82.5 L170.001801,82.5 C167.654591,82.5 165.529591,81.5486051 163.991394,80.0104076 C162.453196,78.4722102 161.501801,76.3472102 161.501801,74 C161.501801,71.6527898 162.453196,69.5277898 163.991394,67.9895924 C165.529591,66.4513949 167.654591,65.5 170.001801,65.5 Z"/><path fill="#D8D8D8" stroke="#000" stroke-width="5" d="M258.001801,65.5 C260.349012,65.5 262.474012,66.4513949 264.012209,67.9895924 C265.550406,69.5277898 266.501801,71.6527898 266.501801,74 C266.501801,76.3472102 265.550406,78.4722102 264.012209,80.0104076 C262.474012,81.5486051 260.349012,82.5 258.001801,82.5 L234.501801,82.5 L234.501801,65.5 Z"/><path fill="#4E95CA" stroke="#000" stroke-width="5" d="M244.001801,65.5 C246.349012,65.5 248.474012,66.4513949 250.012209,67.9895924 C251.550406,69.5277898 252.501801,71.6527898 252.501801,74 C252.501801,76.3472102 251.550406,78.4722102 250.012209,80.0104076 C248.474012,81.5486051 246.349012,82.5 244.001801,82.5 L229.001801,82.5 C226.654591,82.5 224.529591,81.5486051 222.991394,80.0104076 C221.453196,78.4722102 220.501801,76.3472102 220.501801,74 C220.501801,71.6527898 221.453196,69.5277898 222.991394,67.9895924 C224.529591,66.4513949 226.654591,65.5 229.001801,65.5 Z"/><path fill="#000" stroke="#000" stroke-width="5" d="M257.001801,19.5 C259.349012,19.5 261.474012,20.4513949 263.012209,21.9895924 C264.550406,23.5277898 265.501801,25.6527898 265.501801,28 C265.501801,30.3472102 264.550406,32.4722102 263.012209,34.0104076 C261.474012,35.5486051 259.349012,36.5 257.001801,36.5 L252.501801,36.5 L252.501801,19.5 L257.001801,19.5 Z"/><path fill="#FF7070" stroke="#000" stroke-width="5" d="M251.001801,19.5 C253.349012,19.5 255.474012,20.4513949 257.012209,21.9895924 C258.550406,23.5277898 259.501801,25.6527898 259.501801,28 C259.501801,30.3472102 258.550406,32.4722102 257.012209,34.0104076 C255.474012,35.5486051 253.349012,36.5 251.001801,36.5 C248.654591,36.5 246.529591,35.5486051 244.991394,34.0104076 C243.453196,32.4722102 242.501801,30.3472102 242.501801,28 C242.501801,25.6527898 243.453196,23.5277898 244.991394,21.9895924 C246.529591,20.4513949 248.654591,19.5 251.001801,19.5 Z"/><path fill="#000" stroke="#000" stroke-width="5" d="M225.001801,19.5 C227.349012,19.5 229.474012,20.4513949 231.012209,21.9895924 C232.550406,23.5277898 233.501801,25.6527898 233.501801,28 C233.501801,30.3472102 232.550406,32.4722102 231.012209,34.0104076 C229.474012,35.5486051 227.349012,36.5 225.001801,36.5 L220.501801,36.5 L220.501801,19.5 Z"/><path fill="#FF7070" stroke="#000" stroke-width="5" d="M219.001801,19.5 C221.349012,19.5 223.474012,20.4513949 225.012209,21.9895924 C226.550406,23.5277898 227.501801,25.6527898 227.501801,28 C227.501801,30.3472102 226.550406,32.4722102 225.012209,34.0104076 C223.474012,35.5486051 221.349012,36.5 219.001801,36.5 C216.654591,36.5 214.529591,35.5486051 212.991394,34.0104076 C211.453196,32.4722102 210.501801,30.3472102 210.501801,28 C210.501801,25.6527898 211.453196,23.5277898 212.991394,21.9895924 C214.529591,20.4513949 216.654591,19.5 219.001801,19.5 Z"/><line x1="299.002" x2="361.542" y1="55.223" y2="55.223" stroke="#000" stroke-linecap="round" stroke-width="5"/><line x1="299.002" x2="361.542" y1="65.223" y2="65.223" stroke="#000" stroke-linecap="round" stroke-width="5"/><line x1="333.002" x2="361.542" y1="75.223" y2="75.223" stroke="#000" stroke-linecap="round" stroke-width="5"/></g><g transform="translate(132.787 560)"><polygon fill="url(#c)" stroke="#000" stroke-width="5" points="0 0 45.359 0 279.213 0 279.213 377 0 377"/><polygon fill="#9B795B" stroke="#000" stroke-width="5" points="61.213 0 538.713 0 538.713 377 61.213 377"/><rect width="351" height="347" x="78.5" y="13.5" fill="url(#d)" stroke="#000" stroke-width="5"/><path fill="#D8D8D8" stroke="#000" stroke-width="5" d="M522.713013,13.5 L522.713013,360.5 L429.5,360.5 L429.5,13.5 L522.713013,13.5 Z"/><polygon fill="#6C4726" points="432 15.975 492.707 15.975 492.707 239 432 239"/><path fill="#6C4726" stroke="#000" stroke-width="5" d="M400.329702,51.5 C404.970821,51.5 406.68894,51.8948698 408.39509,52.8073292 C409.908531,53.6167259 411.096287,54.8044827 411.905684,56.3179229 C412.818143,58.0240736 413.213013,59.7421918 413.213013,64.3833112 L413.213013,308.616689 C413.213013,313.257808 412.818143,314.975926 411.905684,316.682077 C411.096287,318.195517 409.908531,319.383274 408.39509,320.192671 C406.68894,321.10513 404.970821,321.5 400.329702,321.5 L106.580597,321.5 C101.939477,321.5 100.221359,321.10513 98.5152082,320.192671 C97.001768,319.383274 95.8140112,318.195517 95.0046145,316.682077 C94.0921551,314.975926 93.6972853,313.257808 93.6972853,308.616689 L93.6972853,64.3833112 C93.6972853,59.7421918 94.0921551,58.0240736 95.0046145,56.3179229 C95.8140112,54.8044827 97.001768,53.6167259 98.5152082,52.8073292 C100.221359,51.8948698 101.939477,51.5 106.580597,51.5 Z"/><path fill="url(#e)" stroke="#000" stroke-width="5" d="M259.909924,65.4118179 C307.940618,65.4380188 343.419094,66.7612206 366.344321,69.3926077 C374.547733,70.334762 381.745769,74.2780782 386.892958,80.0501917 C392.040127,85.8222828 395.136464,93.4231579 395.136506,101.680452 L395.136506,297.788931 C394.932179,298.001675 394.6294,298.18938 394.261751,298.390485 C392.952974,299.106386 390.980839,299.746232 388.36637,300.359158 C382.650553,301.699152 374.075556,302.806516 362.644727,303.699795 C339.49036,305.509229 304.758899,306.411421 258.450606,306.411421 L256.876497,306.411072 C205.069868,306.388026 167.02161,305.224199 142.732471,302.911695 C134.392827,302.116873 127.038614,298.217243 121.769291,292.421959 C116.499994,286.626702 113.315566,278.935807 113.315453,270.558445 L113.315453,102.352168 C113.315996,94.165595 116.36145,86.618362 121.437277,80.8612529 C126.513067,75.1041841 133.619203,71.1372157 141.741431,70.1110761 C166.307774,67.0046913 204.681806,65.442956 256.861583,65.4118928 Z"/><line x1="495.107" x2="494.713" y1="13.824" y2="238.5" stroke="#000" stroke-width="5"/><g fill="#000" transform="translate(440 256)"><circle cx="4" cy="4" r="4"/><circle cx="17" cy="4" r="4"/><circle cx="30" cy="4" r="4"/><circle cx="43" cy="4" r="4"/><circle cx="56" cy="4" r="4"/><circle cx="11" cy="15" r="4"/><circle cx="24" cy="15" r="4"/><circle cx="37" cy="15" r="4"/><circle cx="50" cy="15" r="4"/><circle cx="63" cy="15" r="4"/><circle cx="69" cy="4" r="4"/><circle cx="4" cy="26" r="4"/><circle cx="17" cy="26" r="4"/><circle cx="30" cy="26" r="4"/><circle cx="43" cy="26" r="4"/><circle cx="56" cy="26" r="4"/><circle cx="11" cy="37" r="4"/><circle cx="24" cy="37" r="4"/><circle cx="37" cy="37" r="4"/><circle cx="50" cy="37" r="4"/><circle cx="63" cy="37" r="4"/><circle cx="69" cy="26" r="4"/><circle cx="4" cy="48" r="4"/><circle cx="17" cy="48" r="4"/><circle cx="30" cy="48" r="4"/><circle cx="43" cy="48" r="4"/><circle cx="56" cy="48" r="4"/><circle cx="11" cy="59" r="4"/><circle cx="24" cy="59" r="4"/><circle cx="37" cy="59" r="4"/><circle cx="50" cy="59" r="4"/><circle cx="63" cy="59" r="4"/><circle cx="11" cy="81" r="4"/><circle cx="24" cy="81" r="4"/><circle cx="37" cy="81" r="4"/><circle cx="50" cy="81" r="4"/><circle cx="63" cy="81" r="4"/><circle cx="69" cy="48" r="4"/><circle cx="4" cy="70" r="4"/><circle cx="17" cy="70" r="4"/><circle cx="30" cy="70" r="4"/><circle cx="43" cy="70" r="4"/><circle cx="56" cy="70" r="4"/><circle cx="69" cy="70" r="4"/></g><line x1="431.713" x2="521.6" y1="238.5" y2="238.5" stroke="#000" stroke-linecap="round" stroke-width="5"/></g><g transform="translate(314.539 499.178)"><g transform="translate(0 24.912)"><path fill="#FFF" stroke="#000" stroke-width="5" d="M129.503542,-1.58974359 C140.401677,-1.58974359 150.268972,2.86028042 157.411153,10.0577082 C164.546388,17.248137 168.96125,27.1811737 168.96125,38.1538462 C168.96125,49.1265186 164.546388,59.0595553 157.411153,66.2499841 C150.268972,73.4474119 140.401677,77.8974359 129.503542,77.8974359 C118.605407,77.8974359 108.738112,73.4474119 101.595932,66.2499841 C94.4606965,59.0595553 90.0458341,49.1265186 90.0458341,38.1538462 C90.0458341,27.1811737 94.4606965,17.248137 101.595932,10.0577082 C108.738112,2.86028042 118.605407,-1.58974359 129.503542,-1.58974359 Z"/><path fill="#FFF" stroke="#000" stroke-width="5" d="M58.7559296,-1.58974359 C69.6540647,-1.58974359 79.5213598,2.86028042 86.6635402,10.0577082 C93.7987752,17.248137 98.2136376,27.1811737 98.2136376,38.1538462 C98.2136376,49.1265186 93.7987752,59.0595553 86.6635402,66.2499841 C79.5213598,73.4474119 69.6540647,77.8974359 58.7559296,77.8974359 C47.8577945,77.8974359 37.9904994,73.4474119 30.848319,66.2499841 C23.713084,59.0595553 19.2982215,49.1265186 19.2982215,38.1538462 C19.2982215,27.1811737 23.713084,17.248137 30.848319,10.0577082 C37.9904994,2.86028042 47.8577945,-1.58974359 58.7559296,-1.58974359 Z"/><path fill="#000" d="M140.391673 38.3076923C150.888851 38.3076923 159.398494 29.7322233 159.398494 19.1538462 159.398494 8.57546902 150.888851 0 140.391673 0 134.307079 0 128.890264 2.88121733 125.411408 7.36364652 122.888521 10.6143306 133.914294 14.7071297 133.914294 19.1538462 133.914294 23.4777191 122.806588 27.466959 125.204662 30.672721 128.673488 35.3098722 134.185178 38.3076923 140.391673 38.3076923ZM69.6440606 38.3076923C80.1412381 38.3076923 88.6508818 29.7322233 88.6508818 19.1538462 88.6508818 8.57546902 80.1412381 0 69.6440606 0 62.0132567 0 55.4327448 4.53161888 52.4079494 11.0700515 51.2717397 13.5260957 62.2525189 16.2653 62.2525189 19.1538462 62.2525189 22.019746 51.2618297 24.7386366 52.3813183 27.1798223 55.3939951 33.7493432 61.9907843 38.3076923 69.6440606 38.3076923Z"/><path fill="#857364" stroke="#000" stroke-linecap="round" stroke-width="5" d="M46.3084535,80.9102564 C46.3084535,64.3417139 33.1308569,50.9102564 16.8754679,50.9102564 C10.5972405,50.9102564 4.77812524,52.913817 0,56.3278505"/><path fill="#857364" stroke="#000" stroke-linecap="round" stroke-width="5" d="M189.308453,80.9102564 C189.308453,64.3417139 176.130857,50.9102564 159.875468,50.9102564 C153.597241,50.9102564 147.778125,52.913817 143,56.3278505" transform="matrix(-1 0 0 1 332.308 0)"/></g><path stroke="#000" stroke-linecap="round" stroke-width="5" d="M62.4612502,18.6035666 C55.4471364,14.0823686 46.7428526,11.8217696 36.3483989,11.8217696 C25.0589102,11.8217696 15.763194,14.4884363 8.46125018,19.8217696" transform="rotate(-27 35.461 15.822)"/><path stroke="#000" stroke-linecap="round" stroke-width="5" d="M171.46125,15.8217696 C164.711287,11.8217696 156.465819,9.82176959 146.724848,9.82176959 C139.475321,9.82176959 133.054121,10.9295275 127.46125,13.1450434" transform="rotate(27 149.461 12.822)"/></g><g stroke="#000" stroke-width="5" transform="translate(79 935)"><path fill="#212121" d="M819.314207,2.5 C824.146698,2.5 828.521698,4.45875422 831.688575,7.62563133 C834.855452,10.7925084 836.814207,15.1675084 836.814207,20 L836.814207,69.3275459 L2.5,69.3275459 L2.5,20 C2.5,15.1675084 4.45875422,10.7925084 7.62563133,7.62563133 C10.7925084,4.45875422 15.1675084,2.5 20,2.5 Z"/><path fill="#3A3A3A" d="M829.314207,2.5 C834.146698,2.5 838.521698,4.45875422 841.688575,7.62563133 C844.855452,10.7925084 846.814207,15.1675084 846.814207,20 L846.814207,69.3275459 L65.4444935,69.3275459 L65.4444935,20 C65.4444935,15.1675084 67.4032477,10.7925084 70.5701248,7.62563133 C73.7370019,4.45875422 78.1120019,2.5 82.9444935,2.5 Z"/></g><g transform="translate(4.58 137)"><g transform="translate(0 19.35)"><mask id="g" fill="#fff"><use xlink:href="#f"/></mask><path fill="#452E19" fill-rule="nonzero" stroke="#000" stroke-width="5" d="M228.551029,180.536834 L208.819805,174.773468 L204.962943,173.659512 L201.381287,172.634269 L197.890016,171.645396 L194.484716,170.69206 L191.160972,169.773426 L187.914371,168.888663 L185.790646,168.317225 L183.697937,167.760224 L181.634935,167.217411 L179.600333,166.688541 L177.592821,166.173366 L175.611093,165.671639 L173.65384,165.183113 L171.719754,164.707542 L168.859202,164.017935 C168.543932,163.94287 168.229491,163.868319 167.915851,163.794276 L166.043419,163.356087 C165.732878,163.284059 165.423084,163.212531 165.11401,163.141495 L163.26799,162.721164 L161.437943,162.312429 L159.622561,161.915043 C159.321147,161.849744 159.020289,161.784908 158.719961,161.720529 L156.03056,161.153333 L154.251326,160.788514 L152.481524,160.434057 L150.719847,160.089716 L148.964988,159.755242 L147.215637,159.430389 C146.924465,159.377035 146.633468,159.324072 146.342619,159.271494 L143.728231,158.80856 L141.987559,158.511089 L140.247165,158.222252 L138.505739,157.941801 L136.761975,157.66949 C111.832707,153.837003 87.9890234,153.01542 63.2131518,155.571411 C-26.8548282,164.863231 -99.174181,207.965181 -154.637727,285.582543 L-156.313282,287.94515 L-180.845593,270.677674 C-120.242971,184.578095 -39.609538,136.019844 60.1345554,125.729792 C87.55649,122.900821 113.951706,123.810322 141.320454,128.017842 L143.220448,128.314536 L145.115979,128.619771 L147.008479,128.933808 C147.323723,128.986896 147.6389,129.040361 147.95404,129.09421 L149.84468,129.421943 L151.735869,129.759133 L153.629039,130.106042 L155.525624,130.462933 L157.427053,130.830066 C157.744442,130.892123 158.062092,130.954618 158.380033,131.017555 L160.291416,131.400544 L162.211225,131.79443 L164.140891,132.199476 L166.081847,132.615943 C166.40636,132.68632 166.731403,132.757185 167.057006,132.828541 L169.017582,133.262631 L170.993027,133.708797 C171.323586,133.784178 171.654825,133.860074 171.986773,133.93649 L173.987208,134.40126 L176.006092,134.878761 L178.044858,135.369254 L180.104938,135.873002 L182.187763,136.390265 L184.294767,136.921307 L186.42738,137.466388 L188.587035,138.025771 L191.880353,138.892233 L194.113877,139.488515 L197.524712,140.411555 L199.841056,141.046373 L203.382833,142.028444 L205.790946,142.703436 L209.47709,143.746993 L215.180586,145.383296 L222.19603,147.421469 L236.838808,151.704155 L243.538397,153.643099 L247.409135,154.752062 L252.406126,156.16908 L256.037035,157.186817 L259.573083,158.166962 L261.880093,158.799955 L264.148464,159.41691 L267.48165,160.312857 L269.659582,160.890889 L271.803802,161.45382 L273.915719,162.001918 L277.026108,162.796839 L279.063429,163.309026 L281.073377,163.807316 L283.057359,164.291979 L285.016783,164.76328 L287.912956,165.445767 L289.817148,165.884838 L291.701713,166.311486 L293.568057,166.725977 C293.877674,166.794061 294.186591,166.86165 294.494837,166.928748 L296.336491,167.325508 L298.163447,167.710781 L299.977111,168.084835 L301.778893,168.447938 L303.570201,168.800358 C303.867957,168.858219 304.165336,168.915646 304.462367,168.972645 L306.240603,169.309541 L308.011886,169.636423 C308.306598,169.690083 308.60108,169.743338 308.89536,169.796192 L310.658852,170.108554 C310.952443,170.159828 311.24589,170.210713 311.539223,170.261214 L313.298095,170.55966 L315.055646,170.849162 C315.348539,170.896682 315.641436,170.94384 315.934366,170.990643 L317.692577,171.267232 L319.452988,171.535547 C319.746651,171.579591 320.040465,171.623302 320.334458,171.666685 L322.10081,171.923091 L323.872883,172.171891 L325.652085,172.413355 L327.439824,172.64775 L330.140522,172.986672 L332.86835,173.311194 L334.704322,173.519987 C374.299822,177.941987 414.070382,175.677874 458.198149,165.240425 L459.704199,164.881434 L466.7109,194.05173 C418.563821,205.616651 374.842371,208.189083 331.374642,203.334635 L329.406826,203.110917 L327.455314,202.881038 L325.518639,202.644728 L323.595336,202.401715 L321.68394,202.151726 L319.782985,201.894491 L317.891006,201.629737 L316.006537,201.357193 C315.693003,201.311104 315.379722,201.26468 315.066661,201.217914 L313.190711,200.933174 C312.878413,200.885019 312.566277,200.836512 312.254269,200.787645 L310.38354,200.490099 L308.514459,200.183675 L306.645561,199.868102 L304.775382,199.543108 L302.902455,199.208421 L301.025315,198.86377 L299.142497,198.508882 L297.252536,198.143487 C296.936865,198.081697 296.620836,198.019457 296.304418,197.956763 L294.400994,197.575096 L292.486762,197.182241 L290.560258,196.777927 L288.620015,196.361882 L286.66457,195.933834 L284.692456,195.493512 L282.702207,195.040644 L280.692359,194.574957 L278.661446,194.096181 L276.608003,193.604042 L274.530564,193.098271 L272.427663,192.578595 L270.297836,192.044741 L267.049403,191.216785 L264.845848,190.646301 L262.610238,190.060688 L260.341107,189.459676 L256.871353,188.528688 L254.512008,187.887987 L252.114014,187.230935 L248.441348,186.214105 L244.673478,185.158956 L242.10623,184.433783 L238.168693,183.312732 L234.122763,182.150917 L228.551029,180.536834 Z" mask="url(#g)"/><path fill="#D94646" fill-rule="nonzero" stroke="#000" stroke-width="5" d="M59.6912615,95.6791383 C89.0593425,92.7388112 116.715195,93.9027968 145.030946,98.6869258 L147.492131,99.1105046 L149.124699,99.4001583 L150.752074,99.695917 L153.185995,100.151547 L155.614906,100.622315 L157.233374,100.944986 L158.852581,101.275008 L161.285375,101.784368 L162.911624,102.133858 L164.542765,102.491571 L167.001246,103.044103 L168.649811,103.423464 L170.307421,103.811921 L172.813393,104.412204 L174.498809,104.824489 L177.052053,105.461684 L178.772691,105.899355 L181.384329,106.575798 L183.147606,107.040413 L185.828764,107.758438 L188.556973,108.502536 L191.336239,109.273546 L194.170565,110.07231 L197.063957,110.899669 L199.027676,111.467543 L202.02841,112.344428 L205.098889,113.252151 L208.243118,114.191553 L211.4651,115.163474 L215.88895,116.511409 L236.590607,122.9128 L241.745386,124.491732 L245.484757,125.626859 L249.120791,126.720988 L252.658235,127.775076 L256.101833,128.790081 L259.456332,129.766958 L262.726478,130.706666 L264.862057,131.312962 L268.002163,132.192848 L270.055443,132.760149 L273.078691,133.582872 L275.058461,134.11295 L277.011287,134.628635 L279.893084,135.375798 L281.784705,135.856743 L283.654305,136.324287 L285.50329,136.778716 L287.333066,137.220311 L289.14504,137.649358 L290.940618,138.066139 L292.721205,138.470938 L294.48821,138.864039 L296.243037,139.245726 L297.987093,139.616281 L299.721784,139.975989 L301.448516,140.325133 L303.168697,140.663997 L304.883731,140.992864 L306.595025,141.312019 L308.303987,141.621744 L310.01202,141.922323 L311.720533,142.21404 C312.005404,142.261937 312.290352,142.309476 312.575409,142.356664 L314.287277,142.63562 L316.00314,142.906423 C316.289528,142.950893 316.576142,142.995035 316.863009,143.038855 L318.587501,143.29796 L320.319503,143.549621 L322.060422,143.794121 L323.811664,144.031745 L325.574635,144.262775 L327.350741,144.487496 L329.141389,144.706191 C329.44112,144.742154 329.741516,144.777877 330.042606,144.813368 C368.955665,149.40014 408.93648,147.225401 454.423466,136.773974 L455.908694,136.430231 L462.719417,165.646905 C413.753453,177.061401 370.233857,179.598148 327.868232,174.762267 L325.559715,174.491644 L323.631126,174.256241 L321.719285,174.014625 L319.822729,173.76651 L317.939989,173.511606 L316.069602,173.249626 L314.210101,172.980283 C313.90101,172.934763 313.592312,172.888924 313.283975,172.84276 L311.438056,172.56183 L309.599358,172.272817 L307.766418,171.975433 L305.937768,171.669389 C305.633269,171.617644 305.328888,171.565526 305.024594,171.513029 L303.199633,171.193456 C302.895566,171.13942 302.591524,171.084993 302.287479,171.03017 L300.462908,170.696419 C300.158723,170.639985 299.854472,170.583141 299.550125,170.525883 L297.722647,170.177308 L295.891399,169.818489 L294.054915,169.449139 L292.211729,169.068971 L290.360376,168.677695 L288.499391,168.275024 L286.627307,167.860671 L283.795166,167.216606 L281.888924,166.771786 L279.966453,166.314275 L278.026289,165.843786 L276.066966,165.36003 L274.087017,164.86272 L271.075215,164.090711 L269.037291,163.558255 L266.973612,163.011237 L263.826597,162.162777 L261.692118,161.578094 L259.526755,160.977842 L257.329041,160.361731 L253.968608,159.407203 L251.683606,158.750188 L248.185369,157.732954 L244.597856,156.6768 L240.91612,155.580755 L237.135213,154.443847 L231.931189,152.862727 L226.530344,151.20493 L209.333217,145.880824 L205.055861,144.570516 L200.924343,143.318069 L197.916157,142.415576 L194.018842,141.259865 L191.176279,140.427765 L188.398558,139.624511 L185.681993,138.84931 L183.022901,138.10137 L181.280283,137.617497 L178.708792,136.913228 L176.18495,136.234106 L173.705072,135.579335 L171.265474,134.948125 L169.659634,134.540015 L167.278984,133.946307 L165.70903,133.562465 L163.377093,133.004058 L161.836204,132.643016 L160.305031,132.290681 L158.782481,131.94682 L157.267464,131.611198 L155.758888,131.283579 L154.25566,130.963729 L152.75669,130.651413 L151.260886,130.346395 L149.767156,130.048441 L148.274409,129.757315 L146.034743,129.332917 L143.791148,128.922561 L142.291416,128.6564 L140.787208,128.395893 L140.033085,128.267686 C114.278681,123.916313 89.2978642,122.864915 62.6799144,125.5299 C-30.541395,134.863201 -106.994161,177.148428 -167.46081,252.920442 L-169.288241,255.226814 L-192.866243,236.67748 C-127.122241,153.110482 -42.6676142,105.927291 59.6912615,95.6791383 Z" mask="url(#g)"/><path fill="#F49641" fill-rule="nonzero" stroke="#000" stroke-width="5" d="M48.247692,67.729151 C80.4095024,63.9762991 110.501565,64.8693372 141.269516,69.8111204 C146.650859,70.6754429 151.866205,71.6134571 157.11299,72.6664251 L158.613098,72.9704367 L160.160193,73.2901501 L162.488711,73.7830856 L164.047933,74.1209597 L165.613961,74.4665064 L167.187909,74.8199589 L168.770895,75.1815505 L170.364033,75.5515146 L171.968442,75.9300844 L174.398628,76.5145851 L177.688739,77.3262168 L179.357675,77.7463993 L181.044022,78.1764706 L183.608626,78.8406295 L186.21868,79.5283505 L188.877952,80.2404209 L192.506721,81.2290861 L196.238617,82.2643053 L199.110588,83.0723936 L203.044444,84.1935733 L207.105985,85.3664396 L212.376074,86.9080498 L219.006508,88.8735672 L232.054783,92.7828138 L237.419804,94.380157 L241.305369,95.5279564 L245.078029,96.6338226 L248.742779,97.6987472 L252.304617,98.7237222 L255.768541,99.7097393 L259.139545,100.65779 L262.422628,101.568867 L265.622785,102.443962 L267.712622,103.007857 L270.785675,103.825185 L272.795401,104.351488 L275.75523,105.113804 L277.6941,105.604351 L279.607219,106.08111 L281.496067,106.544375 L284.287069,107.214612 L286.121716,107.645427 L287.937274,108.063776 L289.735223,108.469953 L291.517044,108.864252 L293.284217,109.246966 L295.038223,109.618391 L296.780542,109.978819 L298.512655,110.328545 L300.236043,110.667862 L301.952185,110.997064 L303.662563,111.316445 L305.368657,111.626299 C305.652731,111.677164 305.936689,111.727644 306.22056,111.777746 L307.923004,112.073861 C308.206655,112.122472 308.490282,112.170717 308.773915,112.218602 L310.47604,112.501639 L312.179803,112.776324 C312.463982,112.821425 312.748291,112.86619 313.032761,112.910626 L314.741757,113.173335 C315.026994,113.216477 315.312453,113.259301 315.598165,113.301814 L317.315725,113.553208 L319.040846,113.797425 L320.775007,114.03476 L322.519689,114.265507 L324.276373,114.48996 L326.04654,114.708412 L327.831669,114.921157 L328.730307,115.025481 C367.570249,119.49523 407.173504,117.326366 452.012866,107.027425 L453.509457,106.681114 L460.32018,135.897788 C411.503256,147.277541 367.987178,149.741213 325.300507,144.828778 L323.372319,144.603031 L320.513225,144.253608 L318.62704,144.013023 L316.754958,143.765979 L314.895437,143.512178 C314.586478,143.469298 314.277978,143.426125 313.969905,143.382651 L312.126335,143.118154 L310.291471,142.846154 L308.463773,142.566351 L306.641697,142.278446 L304.823702,141.982141 C304.520957,141.932041 304.218318,141.881578 303.915753,141.830746 L302.100989,141.521281 L300.286451,141.202669 L298.470597,140.874611 L296.651886,140.536808 L294.828777,140.188962 L292.999726,139.830774 L291.163192,139.461946 L289.317634,139.082177 L287.461509,138.691171 L285.593275,138.288627 L283.711392,137.874248 L281.814316,137.447734 L279.900506,137.008786 L277.968421,136.557107 L276.016518,136.092396 L274.043256,135.614356 L272.047092,135.122688 L270.026485,134.617093 L267.979893,134.097271 L265.905774,133.562925 L263.802587,133.013756 L261.668788,132.449465 L259.502838,131.869752 L256.190253,130.970616 L253.937176,130.351045 L251.64655,129.715007 L248.136834,128.729422 L245.74559,128.05091 L243.311401,127.354887 L239.576222,126.277363 L235.735743,125.158756 L230.44231,123.601631 L224.940092,121.967287 L210.271586,117.574251 L205.270883,116.090022 L202.847653,115.376433 L200.473573,114.681376 L198.146943,114.004491 L194.742249,113.02244 L191.786948,112.179121 L188.467804,111.243345 L185.239989,110.346242 L182.097247,109.486476 L180.046258,108.933384 L178.028446,108.395897 L175.059878,107.618064 L173.116896,107.117863 L171.200603,106.631883 L169.309144,106.159731 L167.440667,105.701009 L165.593317,105.255324 L163.765241,104.822278 L161.954586,104.401478 L160.159497,103.992527 L158.378122,103.59503 L156.608606,103.208592 L154.849096,102.832817 L153.097738,102.46731 L151.352679,102.111675 C151.062258,102.053203 150.772022,101.995126 150.481933,101.937436 L149.090471,101.663458 L147.700312,101.395217 C146.310488,101.129776 144.921194,100.872636 143.528161,100.622885 L142.133722,100.375564 L140.73584,100.132967 C139.335921,99.892664 137.929415,99.6591434 136.51205,99.4314939 C108.391798,94.9149699 81.0606347,94.1038666 51.7246986,97.5269768 C-46.4255205,108.979791 -123.500238,151.596948 -180.390271,225.736747 L-182.108034,227.993057 L-206.04645,209.911237 C-143.98681,127.750841 -58.9160678,80.2337243 48.247692,67.729151 Z" mask="url(#g)"/><path fill="#F4D441" fill-rule="nonzero" stroke="#000" stroke-width="5" d="M42.1059874,38.6207587 C77.2535219,34.4715623 110.381376,35.5084645 144.572974,41.0313084 L147.012211,41.4324107 L149.344397,41.8270402 L150.884424,42.0934273 L153.934996,42.6354452 L156.202333,43.051204 L157.706565,43.3333299 L159.955227,43.7646834 L161.451141,44.058124 L164.441249,44.6604192 L167.43788,45.2852251 L169.695996,45.7700161 L171.208953,46.101469 L174.25893,46.7855182 L176.572673,47.3182124 L178.130151,47.6832535 L179.701159,48.0565665 L181.287019,48.4384454 L184.508581,49.229076 L186.146927,49.6384153 L187.805413,50.0574957 L190.333797,50.7050236 L192.914931,51.3761217 L196.446214,52.3092978 L200.089786,53.2884899 L202.902518,54.054496 L207.756105,55.3943241 L212.834723,56.8170704 L218.159028,58.3273255 L221.480135,59.2773927 L228.427851,61.2809614 L233.300281,62.6964748 L244.57454,65.9789969 L249.613895,67.4321493 L253.278597,68.4797398 L256.849213,69.4919035 L261.470406,70.7876029 L264.836628,71.7199307 L267.035475,72.3231022 L269.199428,72.9118208 L272.382454,73.7682705 L274.464218,74.321799 L276.515125,74.8616284 L278.536329,75.387974 L281.514964,76.1526817 L284.433257,76.8882626 L286.347184,77.3628272 L288.237176,77.8249851 L290.104386,78.2749516 L291.949969,78.7129421 L293.775077,79.139172 L295.580864,79.5538566 L297.368485,79.9572114 L299.139092,80.3494518 L300.893839,80.7307931 L303.498747,81.2828405 L305.218891,81.6378764 L306.927214,81.9827672 L308.624868,82.3177282 L310.313007,82.6429747 L311.992785,82.9587222 L313.665355,83.2651861 L316.163219,83.7079461 L317.822817,83.9921432 L319.479245,84.2678105 L321.133656,84.5351633 C321.409288,84.5790412 321.684883,84.6225817 321.960466,84.6657892 L323.614016,84.9210743 C323.889648,84.9629678 324.165316,85.0045374 324.441044,85.0457874 L326.096328,85.2894894 L327.75421,85.5257386 L329.415843,85.7547502 L331.082382,85.9767399 L332.75498,86.1919228 L334.43479,86.4005144 L336.122966,86.6027302 L337.820662,86.7987854 C373.700875,90.8664355 408.995328,88.9725971 447.46588,79.8729973 L448.910022,79.5283821 L455.931103,108.69522 C413.435242,118.924881 374.189833,121.114035 334.441284,116.607841 L332.615474,116.397067 L330.801153,116.179966 L328.997116,115.95632 L327.202159,115.725911 L325.415076,115.488519 L323.634663,115.243927 L321.859714,114.991915 L320.089024,114.732265 L318.321389,114.464758 L316.555604,114.189175 L314.790462,113.905299 L313.024761,113.612909 L311.257294,113.311789 L309.486857,113.001718 L307.712244,112.682478 L305.932251,112.353851 L304.145672,112.015618 L301.450821,111.489779 L299.642507,111.126575 L297.82339,110.752999 L295.992266,110.368833 L294.147929,109.973858 L292.289174,109.567857 L290.414796,109.150609 L288.523591,108.721897 L285.652596,108.056854 L282.73696,107.364786 L280.766394,106.888029 L278.772975,106.398714 L276.755499,105.896623 L273.681542,105.119052 L271.59865,104.584063 L268.42092,103.75612 L266.265082,103.186867 L262.972284,102.306503 L260.735967,101.701619 L257.316804,100.766783 L254.992478,100.124902 L252.63084,99.4678383 L249.015787,98.4532994 L245.310003,97.403372 L241.509421,96.317318 L236.287487,94.8117738 L220.300708,90.1600992 L214.739062,88.5542947 L207.741518,86.55422 L202.782407,85.1544176 L198.82387,84.0501399 L193.525751,82.5942394 L189.900709,81.615323 L186.396075,80.6844703 L183.000939,79.7992282 L180.356337,79.1222257 L177.769243,78.471588 L174.607739,77.6934532 L172.129618,77.0975444 L169.69085,76.5239186 L167.88424,76.1075669 L166.094268,75.7025131 L164.318577,75.3082272 L161.96913,74.7983471 L159.635296,74.3054121 L157.311488,73.8281664 L154.99212,73.3653538 L153.574521,73.089091 C149.556179,72.3130473 145.51733,71.5928107 141.327483,70.8990422 C109.234827,65.5850369 78.4231285,64.541806 45.6230906,68.4138784 C-56.6179246,80.4835173 -136.994818,124.488813 -196.379205,200.756508 L-198.172307,203.077526 L-221.982176,184.826768 C-157.416683,100.594872 -69.0878636,51.7472874 42.1059874,38.6207587 Z" mask="url(#g)"/><path fill="#FFF" fill-rule="nonzero" stroke="#000" stroke-width="5" d="M38.3022869,9.00431212 C73.9947872,4.43372117 108.108583,5.4088711 143.794962,11.1428109 C148.904701,11.9638227 153.809916,12.8211682 158.699185,13.7555391 L161.487368,14.2970936 L163.979666,14.7959927 L165.854474,15.1804974 L167.736661,15.5744161 L170.261756,16.1151551 L172.809647,16.6747186 L174.738853,17.1074626 L177.995942,17.8550923 L180.645407,18.4782892 L183.339791,19.1250841 L185.393383,19.6263844 L188.179683,20.3173472 L191.02611,21.0351898 L194.677125,21.9721107 L199.208972,23.1575983 L203.123709,24.199225 L207.175603,25.2921746 L213.970882,27.1534632 L220.262246,28.9022687 L228.874739,31.326289 L248.437398,36.8859284 L253.206149,38.226982 L257.832174,39.5140035 L260.093837,40.1376249 L263.424589,41.0486149 L266.683856,41.9307216 L268.818436,42.502995 L270.923417,43.0628041 L275.048061,44.1456259 L278.070311,44.9261325 L280.052854,45.4316976 L282.010578,45.9256185 L284.902529,46.6449933 L287.743527,47.3390074 L289.610666,47.7878427 L291.457331,48.2257794 L293.284391,48.6529666 L295.990123,49.2739182 L297.771973,49.6748839 L299.53726,50.065622 L302.156036,50.6328784 L303.883716,50.9986997 L305.597875,51.3548153 L307.299382,51.7013741 L309.829818,52.2036199 L311.503495,52.5269395 L313.16756,52.8412243 L314.822883,53.1466234 L316.470333,53.443286 L318.110778,53.7313611 L319.745089,54.0109979 L321.374133,54.2823454 L322.99878,54.5455528 L324.619899,54.8007692 L326.238359,55.0481436 L327.855029,55.2878253 L329.470778,55.5199632 L331.086474,55.7447066 L332.702988,55.9622044 L334.321187,56.1726059 L335.941941,56.3760602 L337.566119,56.5727162 L339.19459,56.7627232 L340.828223,56.9462303 C374.60892,60.6681223 407.119253,59.0254704 441.457794,50.9810923 L442.930574,50.6324108 L449.91055,79.8091127 C411.567997,88.9818459 375.147474,90.9089979 337.542762,86.7657834 L335.786799,86.5686087 L334.037664,86.3647407 L332.294449,86.1540288 L330.556244,85.9363224 C330.266911,85.8994468 329.977747,85.8622734 329.688736,85.8247992 L327.95634,85.5963186 L325.362591,85.2397297 L322.771925,84.8660474 L321.045012,84.6071785 C320.757143,84.5633734 320.469236,84.519236 320.181273,84.4747633 L318.452663,84.2038773 L316.721785,83.9247917 L314.987728,83.6373559 L313.249584,83.3414191 L311.506441,83.0368307 L309.757392,82.7234401 L308.001525,82.4010967 L306.237931,82.0696498 L304.4657,81.7289488 L302.683922,81.378843 L299.991366,80.8357209 L298.181742,80.4614442 L296.359387,80.0772355 L294.523391,79.6829441 L292.672845,79.2784195 L289.867754,78.6521156 L287.024807,78.0019394 L285.106962,77.5549753 L283.170018,77.0970246 L281.213064,76.6279369 L278.238127,75.9030936 L275.213052,75.1523444 L273.166964,74.6372018 L270.051503,73.8421464 L266.877716,73.0198294 L263.642532,72.1697423 L259.228142,70.9922163 L255.83776,70.0753554 L253.537899,69.4477768 L248.839031,68.1527308 L245.224544,67.1459504 L218.249711,59.4984946 L211.424927,57.5822986 L206.037886,56.0861293 L202.927777,55.2304064 L198.914518,54.1364715 L194.098256,52.8415077 L191.30769,52.1015038 L187.693744,51.1560229 L185.057818,50.476589 L182.481003,49.8215499 L179.12977,48.9844901 L175.865791,48.1869067 L173.46894,47.6132875 L170.333142,46.879436 L168.020725,46.3510616 L165.73733,45.840514 L164.229067,45.5095894 L161.240413,44.8691461 L159.018295,44.4064493 L156.808005,43.9578261 L154.605246,43.5223384 L152.405719,43.0990478 L150.205126,42.687016 L147.999169,42.2853048 L145.783549,41.892976 L143.553968,41.5090911 L142.057701,41.2573957 L139.7953,40.8854991 L139.035729,40.7629004 C106.070981,35.466261 74.8204686,34.5729586 42.1128113,38.7613265 C-58.6889205,51.6694579 -141.153775,93.9177214 -205.911591,165.735002 L-207.868529,167.920335 L-230.285954,147.983959 C-160.360927,69.3568757 -70.6151404,22.9516961 38.3022869,9.00431212 Z" mask="url(#g)"/></g><use xlink:href="#h" fill="url(#i)"/><use xlink:href="#h" fill="#000" filter="url(#j)"/><use xlink:href="#h" stroke="#000" stroke-width="5"/><path stroke="#000" stroke-linecap="round" stroke-width="5" d="M495.920562,199.5 C516.907383,199.5 533.920562,182.48682 533.920562,161.5 C533.920562,140.51318 516.907383,123.5 495.920562,123.5" transform="rotate(-3 514.92 161.5)"/><path stroke="#000" stroke-linecap="round" stroke-width="5" d="M465.624992,158.477016 C471.796637,150.977494 475.502483,141.372377 475.502483,130.901713 C475.502483,106.918915 456.060584,87.477016 432.077786,87.477016" transform="scale(-1 1) rotate(-34 0 1607.258)"/><path fill="#312011" stroke="#000" stroke-linejoin="round" stroke-width="5" d="M528.495719,142.869824 L639.727017,142.872702 C628.522714,199.90885 602.016225,228.426924 560.207549,228.426924 C535.195465,228.426924 518.463459,218.220183 510.011531,197.806699 C524.728899,191.946275 534.769581,177.202709 533.894524,160.505617 C533.555926,154.044796 531.622499,148.045701 528.495719,142.869824 Z"/><path stroke="#000" stroke-linecap="round" stroke-width="5" d="M643.513118,199.692927 C647.602702,198.160037 651.529754,196.285055 655.294273,194.06798 C666.511123,187.46193 674.038181,175.260575 674.038181,161.301182 C674.038181,146.654616 665.751821,133.943433 653.611406,127.599939" transform="rotate(-3 658.776 163.646)"/><use xlink:href="#k" fill="url(#l)"/><use xlink:href="#k" fill="#000" filter="url(#m)"/><circle cx="660.921" cy="185.5" r="25" stroke="#000" stroke-linejoin="square" stroke-width="5"/><use xlink:href="#n" fill="url(#l)"/><use xlink:href="#n" fill="#000" filter="url(#o)"/><circle cx="575.921" cy="185.5" r="25" stroke="#000" stroke-linejoin="square" stroke-width="5"/><use xlink:href="#p" fill="url(#l)"/><use xlink:href="#p" fill="#000" filter="url(#q)"/><circle cx="745.921" cy="185.5" r="25" stroke="#000" stroke-linejoin="square" stroke-width="5"/><use xlink:href="#r" fill="url(#l)"/><use xlink:href="#r" fill="#000" filter="url(#s)"/><circle cx="830.921" cy="185.5" r="25" stroke="#000" stroke-linejoin="square" stroke-width="5"/><use xlink:href="#t" fill="url(#l)"/><use xlink:href="#t" fill="#000" filter="url(#u)"/><circle cx="915.921" cy="185.5" r="25" stroke="#000" stroke-linejoin="square" stroke-width="5"/><use xlink:href="#v" fill="url(#w)"/><use xlink:href="#v" fill="#000" filter="url(#x)"/><path stroke="#000" stroke-linejoin="square" stroke-width="5" d="M1000.5,160.504 L1000.5,210.496 L1000.45089,210.495677 C993.890015,210.374795 987.94684,207.726501 983.554017,203.483445 L983.242893,203.17767 C978.718783,198.653559 975.920562,192.403559 975.920562,185.5 C975.920562,178.596441 978.718783,172.346441 983.242893,167.82233 C987.767003,163.29822 994.017003,160.5 1000.92056,160.5 L1000.5,160.504 Z"/><path fill="#FFF" stroke="#000" stroke-width="5" d="M614.86485,43.9871795 C625.14819,43.9871795 634.458893,48.1860812 641.19818,54.9774991 C647.930522,61.7619179 652.09619,71.1340573 652.09619,81.4871795 C652.09619,91.8403017 647.930522,101.212441 641.19818,107.99686 C634.458893,114.788278 625.14819,118.987179 614.86485,118.987179 C604.581509,118.987179 595.270806,114.788278 588.531519,107.99686 C581.799177,101.212441 577.63351,91.8403017 577.63351,81.4871795 C577.63351,71.1340573 581.799177,61.7619179 588.531519,54.9774991 C595.270806,48.1860812 604.581509,43.9871795 614.86485,43.9871795 Z"/><path fill="#FFF" stroke="#000" stroke-width="5" d="M544.86485,43.9871795 C555.14819,43.9871795 564.458893,48.1860812 571.19818,54.9774991 C577.930522,61.7619179 582.09619,71.1340573 582.09619,81.4871795 C582.09619,91.8403017 577.930522,101.212441 571.19818,107.99686 C564.458893,114.788278 555.14819,118.987179 544.86485,118.987179 C534.581509,118.987179 525.270806,114.788278 518.531519,107.99686 C511.799177,101.212441 507.63351,91.8403017 507.63351,81.4871795 C507.63351,71.1340573 511.799177,61.7619179 518.531519,54.9774991 C525.270806,48.1860812 534.581509,43.9871795 544.86485,43.9871795 Z"/><path fill="#000" d="M622.946656 100.307692C633.443833 100.307692 641.953477 91.7322233 641.953477 81.1538462 641.953477 70.575469 633.443833 62 622.946656 62 616.862061 62 611.445246 64.8812173 607.96639 69.3636465 605.443503 72.6143306 616.469276 76.7071297 616.469276 81.1538462 616.469276 85.4777191 605.361571 89.466959 607.759644 92.672721 611.22847 97.3098722 616.740161 100.307692 622.946656 100.307692ZM552.946656 100.307692C563.443833 100.307692 571.953477 91.7322233 571.953477 81.1538462 571.953477 70.575469 563.443833 62 552.946656 62 546.862061 62 541.445246 64.8812173 537.96639 69.3636465 535.443503 72.6143306 546.469276 76.7071297 546.469276 81.1538462 546.469276 85.4777191 535.361571 89.466959 537.759644 92.672721 541.22847 97.3098722 546.740161 100.307692 552.946656 100.307692Z"/></g><g stroke="#000" stroke-width="5" transform="translate(572 594)"><path fill="#000" d="M39.49974,2.49999999 C40.2688762,2.50007999 40.8645042,2.98308877 41.3996191,3.6105569 C42.4242061,4.8119729 43.2065907,6.5963553 43.8610646,8.6631354 C45.902271,15.1091148 46.5,24.1924867 46.5,30.0002993 C46.5,36.4121726 46.2268999,45.4195324 44.2429663,51.684586 C43.6301618,53.6197584 42.8744565,55.2808038 41.8269991,56.3921498 C41.1922796,57.0655834 40.4385091,57.5003 39.5,57.5003 L24.5,57.5003 C18.4719808,57.5003 13.0502921,54.454303 9.1122143,49.6321668 C5.00909069,44.6079337 2.5,37.6598374 2.5,30.0002993 C2.5,22.3407323 5.00910856,15.3925437 9.11225508,10.3682326 C13.0503276,5.54605479 18.4719977,2.5 24.5,2.5 Z"/><ellipse cx="39.5" cy="30" fill="url(#y)" rx="22" ry="27.5"/><g transform="translate(37 2)"><path fill="#000" d="M6.5,-2.5 L6.5,59.5 L-2.5,59.5 L-2.5,-2.5 L6.5,-2.5 Z"/><path fill="#FFF" d="M10.5,-2.5 L10.5,59.5 L1.5,59.5 L1.5,-2.5 L10.5,-2.5 Z"/></g></g><g stroke="#000" stroke-width="5" transform="translate(572 675)"><path fill="#000" d="M39.5,2.5 C40.2297763,2.5 40.7856952,2.9972625 41.2958196,3.61039705 C42.3141192,4.83432319 43.1029327,6.64958712 43.7676792,8.74881102 C45.8243752,15.243716 46.5,24.3521638 46.5,30.0003485 C46.5,35.8377574 45.8883436,44.8934069 43.8517335,51.3248074 C43.1955853,53.3968542 42.4120154,55.1851627 41.3881015,56.3893383 C40.8556419,57.0155381 40.2645026,57.5003485 39.5,57.5003485 L24.5,57.5003485 C18.4719807,57.5003485 13.050292,54.4543516 9.11221418,49.6322155 C5.00909064,44.6079826 2.5,37.6598865 2.5,30.0003485 C2.5,22.3407767 5.00911151,15.392573 9.11226181,10.3682489 C13.0503335,5.5460643 18.4720005,2.5 24.5,2.5 Z"/><ellipse cx="39.5" cy="30" fill="url(#y)" rx="22" ry="27.5"/></g><g stroke="#000" stroke-width="5" transform="translate(609 675)"><path fill="#000" d="M6.5,-2.5 L6.5,60.5 L-2.5,60.5 L-2.5,-2.5 L6.5,-2.5 Z"/><path fill="#FFF" d="M10.5,-2.5 L10.5,60.5 L1.5,60.5 L1.5,-2.5 L10.5,-2.5 Z"/></g><path fill="#7E7E7E" fill-rule="nonzero" d="M382.484775,678.5 L382.484775,683.5 L364.5,683.5 L364.5,699.5 L359.5,699.5 L359.5,683.5 L272.5,683.5 L272.5,711 L290,711 L290,716 L272.5,716 L272.5,746 L290,746 L290,751 L272.5,751 L272.5,780 L290,780 L290,785 L272.5,785 L272.5,812.5 L503.5,812.5 L503.5,785 L485,785 L485,780 L503.5,780 L503.5,751 L485,751 L485,746 L503.5,746 L503.5,716 L485,716 L485,711 L503.5,711 L503.5,683.5 L417.5,683.5 L417.5,699.5 L412.5,699.5 L412.5,683.5 L394.012467,683.5 L394.012467,678.5 L508.5,678.5 L508.5,817.5 L267.5,817.5 L267.5,678.5 L382.484775,678.5 Z M304,796 L304,801 L285,801 L285,796 L304,796 Z M443,779.701933 L443,784.701933 L415.741,784.701576 L415.741547,801 L410.741547,801 L410.741547,779.721219 L412,779.720576 L412,779.701933 L443,779.701933 Z M364,779.701933 L364.000453,779.720576 L365.258453,779.721219 L365.258453,801 L360.258453,801 L360.258453,784.701576 L333,784.701933 L333,779.701933 L364,779.701933 Z M398,780 L398,785 L378,785 L378,780 L398,780 Z M322.5,764 L322.5,784.5 L302,784.5 L302,779.5 L317.5,779.5 L317.5,764 L322.5,764 Z M461,764 L461,779.5 L476.5,779.5 L476.5,784.5 L456,784.5 L456,764 L461,764 Z M304,763 L304,768 L285,768 L285,763 L304,763 Z M398,763 L398,768 L378,768 L378,763 L398,763 Z M415.741547,745.911421 L415.741,746.021576 L443,746.021966 L443,751.021966 L415.741,751.021576 L415.741547,767.320033 L410.741547,767.320033 L410.741547,745.911421 L415.741547,745.911421 Z M365.258453,745.911421 L365.258453,767.320033 L360.258453,767.320033 L360.258453,751.021576 L333,751.021966 L333,746.021966 L360.258453,746.021576 L360.258453,745.911421 L365.258453,745.911421 Z M322.5,731 L322.5,751.5 L302,751.5 L302,746.5 L317.5,746.5 L317.5,731 L322.5,731 Z M461,731 L461,746.5 L476.5,746.5 L476.5,751.5 L456,751.5 L456,731 L461,731 Z M398,731 L398,749 L378,749 L378,731 L398,731 Z M393,736 L383,736 L383,744 L393,744 L393,736 Z M304,729 L304,734 L285,734 L285,729 L304,729 Z M415.741547,711.725576 L415.741,711.780576 L443,711.780666 L443,716.780666 L415.741,716.780576 L415.741547,733.078733 L410.741547,733.078733 L410.741547,711.725576 L415.741547,711.725576 Z M365.258453,711.725576 L365.258453,733.078733 L360.258453,733.078733 L360.258453,716.780576 L333,716.780666 L333,711.780666 L360.258453,711.780576 L360.258453,711.725576 L365.258453,711.725576 Z M398,713 L398,718 L378,718 L378,713 L398,713 Z M322.5,696 L322.5,716.5 L302,716.5 L302,711.5 L317.5,711.5 L317.5,696 L322.5,696 Z M461,696 L461,711.5 L476.5,711.5 L476.5,716.5 L456,716.5 L456,696 L461,696 Z M398,696 L398,701 L378,701 L378,696 L398,696 Z M304,696 L304,701 L285,701 L285,696 L304,696 Z" opacity=".409"/><path fill="#FFF" d="M514.968338,645.035502 L529.563839,652.077988 C531.006733,652.90811 531.503483,654.750755 530.67336,656.193649 C530.282231,656.873498 529.641499,657.374107 528.887228,657.589168 L513.885846,661.866435 C507.684051,663.63472 502.026396,666.852791 499.825971,672.914739 L492.051774,697.628522 C491.483786,699.193271 489.754862,700.001305 488.190114,699.433318 C487.105123,699.039477 486.340335,698.060594 486.220677,696.912553 L484.233176,671.809641 C483.564626,665.395373 481.433087,659.409743 475.843227,656.193649 L460.165299,649.151185 C458.722421,648.321034 458.225709,646.47838 459.05586,645.035502 C459.447011,644.355647 460.087771,643.855045 460.842065,643.640006 L475.843227,639.363377 C482.045326,637.595242 487.246964,633.568079 489.447475,627.505895 L497.677831,603.601517 C498.245819,602.036768 499.974743,601.228734 501.539492,601.796721 C502.624482,602.190561 503.38927,603.169445 503.508928,604.317485 L506.077921,628.965169 C506.746486,635.379578 509.37829,641.819449 514.968338,645.035502 Z" transform="rotate(-7 494.865 650.615)"/><rect width="5" height="5" x="334" y="724" fill="#6064EC"/><rect width="5" height="5" x="379" y="754" fill="#6064EC"/><rect width="5" height="5" x="425" y="724" fill="#6064EC"/><rect width="5" height="5" x="439" y="724" fill="#6064EC"/><rect width="5" height="5" x="492" y="765" fill="#6064EC"/><rect width="5" height="5" x="478" y="765" fill="#6064EC"/><rect width="5" height="5" x="422" y="793" fill="#6064EC"/><rect width="5" height="5" x="436" y="793" fill="#6064EC"/><rect width="5" height="5" x="346" y="697" fill="#6064EC"/><rect width="8" height="8" x="322.5" y="796.5" fill="#FFBE45"/><polygon fill="#FFBE45" points="325 794.473 328 794.473 328 807 325 807"/><polygon fill="#FFBE45" points="325 794.473 328 794.473 328 807 325 807" transform="rotate(90 326.5 800.737)"/></g></svg>