<svg xmlns="http://www.w3.org/2000/svg" width="1002" height="1002" viewBox="0 0 1002 1002"><defs><linearGradient id="a" x1="0%" x2="84.762%" y1="27.495%" y2="71.123%"><stop offset="0%" stop-color="#E6E6E6"/><stop offset="100%" stop-color="#C8C8C8"/></linearGradient><linearGradient id="b" x1="104.033%" x2="-17.504%" y1="26.805%" y2="84.104%"><stop offset="0%" stop-color="#707070"/><stop offset="100%"/></linearGradient><linearGradient id="c" x1="28.491%" x2="136.151%" y1="47.011%" y2="58.072%"><stop offset="0%" stop-color="#FFF"/><stop offset="100%" stop-color="#E7E7E7"/></linearGradient><linearGradient id="d" x1="28.491%" x2="136.151%" y1="25.363%" y2="116.535%"><stop offset="0%" stop-color="#F4F4F4"/><stop offset="100%" stop-color="#E7E7E7"/></linearGradient></defs><g fill="none" fill-rule="evenodd"><polygon fill="#59D3BF" points="0 0 1007.999 0 1007.999 1008 0 1008"/><g stroke-width="5" transform="translate(59.932 71.243)"><polyline stroke="#74EDD9" points="38.136 2.524 2.497 2.524 2.497 37.593"/><polyline stroke="#3BA997" points="35.685 0 0 0 0 35.099" transform="rotate(180 17.842 17.55)"/><g transform="translate(100)"><polyline stroke="#74EDD9" points="38.136 2.524 2.497 2.524 2.497 37.593"/><polyline stroke="#3BA997" points="35.685 0 0 0 0 35.099" transform="rotate(180 17.842 17.55)"/></g><g transform="translate(200)"><polyline stroke="#74EDD9" points="38.136 2.524 2.497 2.524 2.497 37.593"/><polyline stroke="#3BA997" points="35.685 0 0 0 0 35.099" transform="rotate(180 17.842 17.55)"/></g><g transform="translate(300)"><polyline stroke="#74EDD9" points="38.136 2.524 2.497 2.524 2.497 37.593"/><polyline stroke="#3BA997" points="35.685 0 0 0 0 35.099" transform="rotate(180 17.842 17.55)"/></g><g transform="translate(400)"><polyline stroke="#74EDD9" points="38.136 2.524 2.497 2.524 2.497 37.593"/><polyline stroke="#3BA997" points="35.685 0 0 0 0 35.099" transform="rotate(180 17.842 17.55)"/></g><g transform="translate(500)"><polyline stroke="#74EDD9" points="38.136 2.524 2.497 2.524 2.497 37.593"/><polyline stroke="#3BA997" points="35.685 0 0 0 0 35.099" transform="rotate(180 17.842 17.55)"/></g><g transform="translate(600)"><polyline stroke="#74EDD9" points="38.136 2.524 2.497 2.524 2.497 37.593"/><polyline stroke="#3BA997" points="35.685 0 0 0 0 35.099" transform="rotate(180 17.842 17.55)"/></g><g transform="translate(700)"><polyline stroke="#74EDD9" points="38.136 2.524 2.497 2.524 2.497 37.593"/><polyline stroke="#3BA997" points="35.685 0 0 0 0 35.099" transform="rotate(180 17.842 17.55)"/></g><g transform="translate(800)"><polyline stroke="#74EDD9" points="38.136 2.524 2.497 2.524 2.497 37.593"/><polyline stroke="#3BA997" points="35.685 0 0 0 0 35.099" transform="rotate(180 17.842 17.55)"/></g><g transform="translate(50 100)"><polyline stroke="#74EDD9" points="38.136 2.524 2.497 2.524 2.497 37.593"/><polyline stroke="#3BA997" points="35.685 0 0 0 0 35.099" transform="rotate(180 17.842 17.55)"/><g transform="translate(100)"><polyline stroke="#74EDD9" points="38.136 2.524 2.497 2.524 2.497 37.593"/><polyline stroke="#3BA997" points="35.685 0 0 0 0 35.099" transform="rotate(180 17.842 17.55)"/></g><g transform="translate(200)"><polyline stroke="#74EDD9" points="38.136 2.524 2.497 2.524 2.497 37.593"/><polyline stroke="#3BA997" points="35.685 0 0 0 0 35.099" transform="rotate(180 17.842 17.55)"/></g><g transform="translate(300)"><polyline stroke="#74EDD9" points="38.136 2.524 2.497 2.524 2.497 37.593"/><polyline stroke="#3BA997" points="35.685 0 0 0 0 35.099" transform="rotate(180 17.842 17.55)"/></g><g transform="translate(400)"><polyline stroke="#74EDD9" points="38.136 2.524 2.497 2.524 2.497 37.593"/><polyline stroke="#3BA997" points="35.685 0 0 0 0 35.099" transform="rotate(180 17.842 17.55)"/></g><g transform="translate(500)"><polyline stroke="#74EDD9" points="38.136 2.524 2.497 2.524 2.497 37.593"/><polyline stroke="#3BA997" points="35.685 0 0 0 0 35.099" transform="rotate(180 17.842 17.55)"/></g><g transform="translate(600)"><polyline stroke="#74EDD9" points="38.136 2.524 2.497 2.524 2.497 37.593"/><polyline stroke="#3BA997" points="35.685 0 0 0 0 35.099" transform="rotate(180 17.842 17.55)"/></g><g transform="translate(700)"><polyline stroke="#74EDD9" points="38.136 2.524 2.497 2.524 2.497 37.593"/><polyline stroke="#3BA997" points="35.685 0 0 0 0 35.099" transform="rotate(180 17.842 17.55)"/></g><g transform="translate(800)"><polyline stroke="#74EDD9" points="38.136 2.524 2.497 2.524 2.497 37.593"/><polyline stroke="#3BA997" points="35.685 0 0 0 0 35.099" transform="rotate(180 17.842 17.55)"/></g></g><g transform="translate(0 200)"><polyline stroke="#74EDD9" points="38.136 2.524 2.497 2.524 2.497 37.593"/><polyline stroke="#3BA997" points="35.685 0 0 0 0 35.099" transform="rotate(180 17.842 17.55)"/><g transform="translate(100)"><polyline stroke="#74EDD9" points="38.136 2.524 2.497 2.524 2.497 37.593"/><polyline stroke="#3BA997" points="35.685 0 0 0 0 35.099" transform="rotate(180 17.842 17.55)"/></g><g transform="translate(200)"><polyline stroke="#74EDD9" points="38.136 2.524 2.497 2.524 2.497 37.593"/><polyline stroke="#3BA997" points="35.685 0 0 0 0 35.099" transform="rotate(180 17.842 17.55)"/></g><g transform="translate(300)"><polyline stroke="#74EDD9" points="38.136 2.524 2.497 2.524 2.497 37.593"/><polyline stroke="#3BA997" points="35.685 0 0 0 0 35.099" transform="rotate(180 17.842 17.55)"/></g><g transform="translate(400)"><polyline stroke="#74EDD9" points="38.136 2.524 2.497 2.524 2.497 37.593"/><polyline stroke="#3BA997" points="35.685 0 0 0 0 35.099" transform="rotate(180 17.842 17.55)"/></g><g transform="translate(500)"><polyline stroke="#74EDD9" points="38.136 2.524 2.497 2.524 2.497 37.593"/><polyline stroke="#3BA997" points="35.685 0 0 0 0 35.099" transform="rotate(180 17.842 17.55)"/></g><g transform="translate(600)"><polyline stroke="#74EDD9" points="38.136 2.524 2.497 2.524 2.497 37.593"/><polyline stroke="#3BA997" points="35.685 0 0 0 0 35.099" transform="rotate(180 17.842 17.55)"/></g><g transform="translate(700)"><polyline stroke="#74EDD9" points="38.136 2.524 2.497 2.524 2.497 37.593"/><polyline stroke="#3BA997" points="35.685 0 0 0 0 35.099" transform="rotate(180 17.842 17.55)"/></g><g transform="translate(800)"><polyline stroke="#74EDD9" points="38.136 2.524 2.497 2.524 2.497 37.593"/><polyline stroke="#3BA997" points="35.685 0 0 0 0 35.099" transform="rotate(180 17.842 17.55)"/></g></g><g transform="translate(50 300)"><polyline stroke="#74EDD9" points="38.136 2.524 2.497 2.524 2.497 37.593"/><polyline stroke="#3BA997" points="35.685 0 0 0 0 35.099" transform="rotate(180 17.842 17.55)"/><g transform="translate(100)"><polyline stroke="#74EDD9" points="38.136 2.524 2.497 2.524 2.497 37.593"/><polyline stroke="#3BA997" points="35.685 0 0 0 0 35.099" transform="rotate(180 17.842 17.55)"/></g><g transform="translate(200)"><polyline stroke="#74EDD9" points="38.136 2.524 2.497 2.524 2.497 37.593"/><polyline stroke="#3BA997" points="35.685 0 0 0 0 35.099" transform="rotate(180 17.842 17.55)"/></g><g transform="translate(300)"><polyline stroke="#74EDD9" points="38.136 2.524 2.497 2.524 2.497 37.593"/><polyline stroke="#3BA997" points="35.685 0 0 0 0 35.099" transform="rotate(180 17.842 17.55)"/></g><g transform="translate(400)"><polyline stroke="#74EDD9" points="38.136 2.524 2.497 2.524 2.497 37.593"/><polyline stroke="#3BA997" points="35.685 0 0 0 0 35.099" transform="rotate(180 17.842 17.55)"/></g><g transform="translate(500)"><polyline stroke="#74EDD9" points="38.136 2.524 2.497 2.524 2.497 37.593"/><polyline stroke="#3BA997" points="35.685 0 0 0 0 35.099" transform="rotate(180 17.842 17.55)"/></g><g transform="translate(600)"><polyline stroke="#74EDD9" points="38.136 2.524 2.497 2.524 2.497 37.593"/><polyline stroke="#3BA997" points="35.685 0 0 0 0 35.099" transform="rotate(180 17.842 17.55)"/></g><g transform="translate(700)"><polyline stroke="#74EDD9" points="38.136 2.524 2.497 2.524 2.497 37.593"/><polyline stroke="#3BA997" points="35.685 0 0 0 0 35.099" transform="rotate(180 17.842 17.55)"/></g><g transform="translate(800)"><polyline stroke="#74EDD9" points="38.136 2.524 2.497 2.524 2.497 37.593"/><polyline stroke="#3BA997" points="35.685 0 0 0 0 35.099" transform="rotate(180 17.842 17.55)"/></g></g><g transform="translate(0 400)"><polyline stroke="#74EDD9" points="38.136 2.524 2.497 2.524 2.497 37.593"/><polyline stroke="#3BA997" points="35.685 0 0 0 0 35.099" transform="rotate(180 17.842 17.55)"/><g transform="translate(100)"><polyline stroke="#74EDD9" points="38.136 2.524 2.497 2.524 2.497 37.593"/><polyline stroke="#3BA997" points="35.685 0 0 0 0 35.099" transform="rotate(180 17.842 17.55)"/></g><g transform="translate(200)"><polyline stroke="#74EDD9" points="38.136 2.524 2.497 2.524 2.497 37.593"/><polyline stroke="#3BA997" points="35.685 0 0 0 0 35.099" transform="rotate(180 17.842 17.55)"/></g><g transform="translate(300)"><polyline stroke="#74EDD9" points="38.136 2.524 2.497 2.524 2.497 37.593"/><polyline stroke="#3BA997" points="35.685 0 0 0 0 35.099" transform="rotate(180 17.842 17.55)"/></g><g transform="translate(400)"><polyline stroke="#74EDD9" points="38.136 2.524 2.497 2.524 2.497 37.593"/><polyline stroke="#3BA997" points="35.685 0 0 0 0 35.099" transform="rotate(180 17.842 17.55)"/></g><g transform="translate(500)"><polyline stroke="#74EDD9" points="38.136 2.524 2.497 2.524 2.497 37.593"/><polyline stroke="#3BA997" points="35.685 0 0 0 0 35.099" transform="rotate(180 17.842 17.55)"/></g><g transform="translate(600)"><polyline stroke="#74EDD9" points="38.136 2.524 2.497 2.524 2.497 37.593"/><polyline stroke="#3BA997" points="35.685 0 0 0 0 35.099" transform="rotate(180 17.842 17.55)"/></g><g transform="translate(700)"><polyline stroke="#74EDD9" points="38.136 2.524 2.497 2.524 2.497 37.593"/><polyline stroke="#3BA997" points="35.685 0 0 0 0 35.099" transform="rotate(180 17.842 17.55)"/></g><g transform="translate(800)"><polyline stroke="#74EDD9" points="38.136 2.524 2.497 2.524 2.497 37.593"/><polyline stroke="#3BA997" points="35.685 0 0 0 0 35.099" transform="rotate(180 17.842 17.55)"/></g></g><g transform="translate(50 500)"><polyline stroke="#74EDD9" points="38.136 2.524 2.497 2.524 2.497 37.593"/><polyline stroke="#3BA997" points="35.685 0 0 0 0 35.099" transform="rotate(180 17.842 17.55)"/><g transform="translate(100)"><polyline stroke="#74EDD9" points="38.136 2.524 2.497 2.524 2.497 37.593"/><polyline stroke="#3BA997" points="35.685 0 0 0 0 35.099" transform="rotate(180 17.842 17.55)"/></g><g transform="translate(200)"><polyline stroke="#74EDD9" points="38.136 2.524 2.497 2.524 2.497 37.593"/><polyline stroke="#3BA997" points="35.685 0 0 0 0 35.099" transform="rotate(180 17.842 17.55)"/></g><g transform="translate(300)"><polyline stroke="#74EDD9" points="38.136 2.524 2.497 2.524 2.497 37.593"/><polyline stroke="#3BA997" points="35.685 0 0 0 0 35.099" transform="rotate(180 17.842 17.55)"/></g><g transform="translate(400)"><polyline stroke="#74EDD9" points="38.136 2.524 2.497 2.524 2.497 37.593"/><polyline stroke="#3BA997" points="35.685 0 0 0 0 35.099" transform="rotate(180 17.842 17.55)"/></g><g transform="translate(500)"><polyline stroke="#74EDD9" points="38.136 2.524 2.497 2.524 2.497 37.593"/><polyline stroke="#3BA997" points="35.685 0 0 0 0 35.099" transform="rotate(180 17.842 17.55)"/></g><g transform="translate(600)"><polyline stroke="#74EDD9" points="38.136 2.524 2.497 2.524 2.497 37.593"/><polyline stroke="#3BA997" points="35.685 0 0 0 0 35.099" transform="rotate(180 17.842 17.55)"/></g><g transform="translate(700)"><polyline stroke="#74EDD9" points="38.136 2.524 2.497 2.524 2.497 37.593"/><polyline stroke="#3BA997" points="35.685 0 0 0 0 35.099" transform="rotate(180 17.842 17.55)"/></g><g transform="translate(800)"><polyline stroke="#74EDD9" points="38.136 2.524 2.497 2.524 2.497 37.593"/><polyline stroke="#3BA997" points="35.685 0 0 0 0 35.099" transform="rotate(180 17.842 17.55)"/></g></g><g transform="translate(0 600)"><polyline stroke="#74EDD9" points="38.136 2.524 2.497 2.524 2.497 37.593"/><polyline stroke="#3BA997" points="35.685 0 0 0 0 35.099" transform="rotate(180 17.842 17.55)"/><g transform="translate(100)"><polyline stroke="#74EDD9" points="38.136 2.524 2.497 2.524 2.497 37.593"/><polyline stroke="#3BA997" points="35.685 0 0 0 0 35.099" transform="rotate(180 17.842 17.55)"/></g><g transform="translate(200)"><polyline stroke="#74EDD9" points="38.136 2.524 2.497 2.524 2.497 37.593"/><polyline stroke="#3BA997" points="35.685 0 0 0 0 35.099" transform="rotate(180 17.842 17.55)"/></g><g transform="translate(300)"><polyline stroke="#74EDD9" points="38.136 2.524 2.497 2.524 2.497 37.593"/><polyline stroke="#3BA997" points="35.685 0 0 0 0 35.099" transform="rotate(180 17.842 17.55)"/></g><g transform="translate(400)"><polyline stroke="#74EDD9" points="38.136 2.524 2.497 2.524 2.497 37.593"/><polyline stroke="#3BA997" points="35.685 0 0 0 0 35.099" transform="rotate(180 17.842 17.55)"/></g><g transform="translate(500)"><polyline stroke="#74EDD9" points="38.136 2.524 2.497 2.524 2.497 37.593"/><polyline stroke="#3BA997" points="35.685 0 0 0 0 35.099" transform="rotate(180 17.842 17.55)"/></g><g transform="translate(600)"><polyline stroke="#74EDD9" points="38.136 2.524 2.497 2.524 2.497 37.593"/><polyline stroke="#3BA997" points="35.685 0 0 0 0 35.099" transform="rotate(180 17.842 17.55)"/></g><g transform="translate(700)"><polyline stroke="#74EDD9" points="38.136 2.524 2.497 2.524 2.497 37.593"/><polyline stroke="#3BA997" points="35.685 0 0 0 0 35.099" transform="rotate(180 17.842 17.55)"/></g><g transform="translate(800)"><polyline stroke="#74EDD9" points="38.136 2.524 2.497 2.524 2.497 37.593"/><polyline stroke="#3BA997" points="35.685 0 0 0 0 35.099" transform="rotate(180 17.842 17.55)"/></g></g><g transform="translate(50 700)"><polyline stroke="#74EDD9" points="38.136 2.524 2.497 2.524 2.497 37.593"/><polyline stroke="#3BA997" points="35.685 0 0 0 0 35.099" transform="rotate(180 17.842 17.55)"/><g transform="translate(100)"><polyline stroke="#74EDD9" points="38.136 2.524 2.497 2.524 2.497 37.593"/><polyline stroke="#3BA997" points="35.685 0 0 0 0 35.099" transform="rotate(180 17.842 17.55)"/></g><g transform="translate(200)"><polyline stroke="#74EDD9" points="38.136 2.524 2.497 2.524 2.497 37.593"/><polyline stroke="#3BA997" points="35.685 0 0 0 0 35.099" transform="rotate(180 17.842 17.55)"/></g><g transform="translate(300)"><polyline stroke="#74EDD9" points="38.136 2.524 2.497 2.524 2.497 37.593"/><polyline stroke="#3BA997" points="35.685 0 0 0 0 35.099" transform="rotate(180 17.842 17.55)"/></g><g transform="translate(400)"><polyline stroke="#74EDD9" points="38.136 2.524 2.497 2.524 2.497 37.593"/><polyline stroke="#3BA997" points="35.685 0 0 0 0 35.099" transform="rotate(180 17.842 17.55)"/></g><g transform="translate(500)"><polyline stroke="#74EDD9" points="38.136 2.524 2.497 2.524 2.497 37.593"/><polyline stroke="#3BA997" points="35.685 0 0 0 0 35.099" transform="rotate(180 17.842 17.55)"/></g><g transform="translate(600)"><polyline stroke="#74EDD9" points="38.136 2.524 2.497 2.524 2.497 37.593"/><polyline stroke="#3BA997" points="35.685 0 0 0 0 35.099" transform="rotate(180 17.842 17.55)"/></g><g transform="translate(700)"><polyline stroke="#74EDD9" points="38.136 2.524 2.497 2.524 2.497 37.593"/><polyline stroke="#3BA997" points="35.685 0 0 0 0 35.099" transform="rotate(180 17.842 17.55)"/></g><g transform="translate(800)"><polyline stroke="#74EDD9" points="38.136 2.524 2.497 2.524 2.497 37.593"/><polyline stroke="#3BA997" points="35.685 0 0 0 0 35.099" transform="rotate(180 17.842 17.55)"/></g></g><g transform="translate(0 800)"><polyline stroke="#74EDD9" points="38.136 2.524 2.497 2.524 2.497 37.593"/><polyline stroke="#3BA997" points="35.685 0 0 0 0 35.099" transform="rotate(180 17.842 17.55)"/><g transform="translate(100)"><polyline stroke="#74EDD9" points="38.136 2.524 2.497 2.524 2.497 37.593"/><polyline stroke="#3BA997" points="35.685 0 0 0 0 35.099" transform="rotate(180 17.842 17.55)"/></g><g transform="translate(200)"><polyline stroke="#74EDD9" points="38.136 2.524 2.497 2.524 2.497 37.593"/><polyline stroke="#3BA997" points="35.685 0 0 0 0 35.099" transform="rotate(180 17.842 17.55)"/></g><g transform="translate(300)"><polyline stroke="#74EDD9" points="38.136 2.524 2.497 2.524 2.497 37.593"/><polyline stroke="#3BA997" points="35.685 0 0 0 0 35.099" transform="rotate(180 17.842 17.55)"/></g><g transform="translate(400)"><polyline stroke="#74EDD9" points="38.136 2.524 2.497 2.524 2.497 37.593"/><polyline stroke="#3BA997" points="35.685 0 0 0 0 35.099" transform="rotate(180 17.842 17.55)"/></g><g transform="translate(500)"><polyline stroke="#74EDD9" points="38.136 2.524 2.497 2.524 2.497 37.593"/><polyline stroke="#3BA997" points="35.685 0 0 0 0 35.099" transform="rotate(180 17.842 17.55)"/></g><g transform="translate(600)"><polyline stroke="#74EDD9" points="38.136 2.524 2.497 2.524 2.497 37.593"/><polyline stroke="#3BA997" points="35.685 0 0 0 0 35.099" transform="rotate(180 17.842 17.55)"/></g><g transform="translate(700)"><polyline stroke="#74EDD9" points="38.136 2.524 2.497 2.524 2.497 37.593"/><polyline stroke="#3BA997" points="35.685 0 0 0 0 35.099" transform="rotate(180 17.842 17.55)"/></g><g transform="translate(800)"><polyline stroke="#74EDD9" points="38.136 2.524 2.497 2.524 2.497 37.593"/><polyline stroke="#3BA997" points="35.685 0 0 0 0 35.099" transform="rotate(180 17.842 17.55)"/></g></g><g transform="translate(50 880)"><polyline stroke="#FFF" points="38.136 2.524 2.497 2.524 2.497 37.593"/><polyline stroke="#000" stroke-opacity=".379" points="35.685 0 0 0 0 35.099" transform="rotate(180 17.842 17.55)"/><g transform="translate(100)"><polyline stroke="#FFF" points="38.136 2.524 2.497 2.524 2.497 37.593"/><polyline stroke="#000" stroke-opacity=".379" points="35.685 0 0 0 0 35.099" transform="rotate(180 17.842 17.55)"/></g><g transform="translate(200)"><polyline stroke="#FFF" points="38.136 2.524 2.497 2.524 2.497 37.593"/><polyline stroke="#000" stroke-opacity=".379" points="35.685 0 0 0 0 35.099" transform="rotate(180 17.842 17.55)"/></g><g transform="translate(300)"><polyline stroke="#FFF" points="38.136 2.524 2.497 2.524 2.497 37.593"/><polyline stroke="#000" stroke-opacity=".379" points="35.685 0 0 0 0 35.099" transform="rotate(180 17.842 17.55)"/></g><g transform="translate(400)"><polyline stroke="#FFF" points="38.136 2.524 2.497 2.524 2.497 37.593"/><polyline stroke="#000" stroke-opacity=".379" points="35.685 0 0 0 0 35.099" transform="rotate(180 17.842 17.55)"/></g><g transform="translate(500)"><polyline stroke="#FFF" points="38.136 2.524 2.497 2.524 2.497 37.593"/><polyline stroke="#000" stroke-opacity=".379" points="35.685 0 0 0 0 35.099" transform="rotate(180 17.842 17.55)"/></g><g transform="translate(600)"><polyline stroke="#FFF" points="38.136 2.524 2.497 2.524 2.497 37.593"/><polyline stroke="#000" stroke-opacity=".379" points="35.685 0 0 0 0 35.099" transform="rotate(180 17.842 17.55)"/></g><g transform="translate(700)"><polyline stroke="#FFF" points="38.136 2.524 2.497 2.524 2.497 37.593"/><polyline stroke="#000" stroke-opacity=".379" points="35.685 0 0 0 0 35.099" transform="rotate(180 17.842 17.55)"/></g></g></g><g stroke="#000" stroke-width="5" transform="translate(304 123)"><path fill="#FFF" d="M211.891698,318.816606 L195.301526,349.533964 L204.130578,413.234942 L60.7996216,413.234942 L29.6666014,413.234942 C29.5879701,379.623987 26.5918524,358.390328 20.6782482,349.533964 C-4.6454389,311.608566 -5.77698977,260.601495 12.1967926,233.395018 C46.4925084,181.482428 63.8916982,198.037968 69.8916982,177.300346 C75.8916982,156.562723 86.3418918,124.378188 100.891698,119.824204 C110.591569,116.788214 147.591569,183.119015 211.891698,318.816606 Z"/><path fill="#FFF" d="M262.035728,301.815981 C238.52284,350.601259 217.185095,374.993898 198.022494,374.993898 C178.859893,374.993898 177.899741,351.443596 195.142038,304.342993 L262.035728,301.815981 Z"/><path fill="#FFF" d="M211.891698,302.517592 C198.558365,344.881224 182.941828,366.06304 165.042089,366.06304 C147.142349,366.06304 145.224378,340.834591 159.288175,290.377694 L211.891698,302.517592 Z"/><path fill="#7373CE" d="M361.09274,7.25668596 L397.391698,62.5044812 L397.391698,305.256686 L103.391698,305.256686 L103.391698,7.25668596 L361.09274,7.25668596 Z"/><rect width="20" height="26" x="367.961" y="265.5" fill="#59D3BF"/><rect width="20" height="15.667" x="367.961" y="265.5" fill="#7373CE"/><path fill="#FFF" d="M357.391698,160.256686 L357.391698,305.256686 L136.391698,305.256686 L136.391698,160.256686 L357.391698,160.256686 Z"/><path fill="#FF8459" d="M357.5,272.72721 L357.5,305.637199 L132.683552,305.637199 L132.683552,272.72721 L357.5,272.72721 Z"/><path fill="url(#a)" d="M325.391698,2.5 L325.391698,108.5 L147.391698,108.5 L147.391698,2.5 L325.391698,2.5 Z"/><line x1="338.382" x2="146.396" y1="189.225" y2="189.225"/><line x1="338.382" x2="146.396" y1="209.225" y2="209.225"/><line x1="338.382" x2="146.396" y1="229.225" y2="229.225"/><line x1="338.382" x2="146.396" y1="249.225" y2="249.225"/><path fill="#7373CE" d="M298.391698,25.5 L298.391698,84.5 L264.391698,84.5 L264.391698,25.5 L298.391698,25.5 Z"/><path fill="#FFF" stroke-linecap="round" d="M57.1954897,265.256686 C53.6106734,238.590019 62.3986439,219.430098 83.5594011,207.776921 C115.300537,190.297155 116.006742,118.572268 158.028455,126.093821 C200.050167,133.615374 180.166601,205.256686 158.028455,235.256686 C141.463877,257.703791 156.670206,305.49976 131.329789,335.067625 C122.803367,345.016479 109.686421,352.901628 89.2240674,357.06304"/><path stroke-linecap="round" d="M100.891698 189.292928C92.3081198 194.347109 82.5879314 197.635337 71.7311331 199.157612M56.8873032 244.623922C54.7134183 251.015918 50.043115 258.301192 42.8763934 266.479744"/><path stroke-linecap="round" d="M140.361288,175.796083 C132.021635,179.459733 125.236478,181.763703 120.005817,182.707991" transform="rotate(37 130.184 179.252)"/><path fill="#FFF" d="M144.822296,127.589414 C150.546942,127.589414 155.747408,129.923307 159.401502,134.552249 C162.900359,138.984539 164.969788,145.433182 164.969788,153.778856 C164.969788,160.376554 163.524756,164.457122 160.823316,166.833298 C157.192679,170.026791 151.681844,170.170241 145.930749,170.212612 L145.197146,170.216595 C144.952634,170.217499 144.707613,170.218033 144.465393,170.218347 L141.389257,170.218006 C136.011825,170.218222 131.455596,170.214592 128.52073,167.403296 C126.081179,165.066461 124.969788,160.854817 124.969788,153.778856 C124.969788,145.398636 126.990609,138.929132 130.447908,134.49169 C134.024367,129.901304 139.129002,127.589414 144.822296,127.589414 Z" transform="rotate(23 144.97 148.904)"/><path fill="#FFF" d="M171.722073,333.222998 C175.805064,333.222998 179.442302,335.512837 182.097642,339.047396 C184.975819,342.878577 186.722073,348.179373 186.722073,354.017488 C186.722073,358.706869 185.62725,361.740942 183.47952,363.545712 C180.655701,365.918609 176.382301,366.222998 171.731822,366.223017 C167.010522,366.204606 162.756357,365.869472 159.952747,363.513556 C157.803368,361.707402 156.722073,358.680771 156.722073,354.017488 C156.722073,348.179373 158.468327,342.878577 161.346504,339.047396 C164.001843,335.512837 167.639081,333.222998 171.722073,333.222998 Z" transform="rotate(-144 171.722 349.723)"/><path fill="#FFF" d="M205.035219,352.308461 C207.876529,352.308461 210.392187,353.912461 212.234692,356.345187 C214.294661,359.065036 215.535219,362.830492 215.535219,366.972822 C215.535219,370.150551 214.842962,372.250311 213.363423,373.483523 C211.363215,375.150718 208.321127,375.308461 205.035219,375.308461 C201.749311,375.308461 198.707224,375.150718 196.707015,373.483523 C195.227476,372.250311 194.535219,370.150551 194.535219,366.972822 C194.535219,362.830492 195.775778,359.065036 197.835746,356.345187 C199.678252,353.912461 202.19391,352.308461 205.035219,352.308461 Z" transform="rotate(-127 205.035 363.808)"/><path stroke-linecap="round" d="M127.706216,154.270821 C138.586592,149.239021 146.353244,152.205452 151.006174,163.170113"/></g><g transform="translate(106.537 845)"><path fill="#FFF" stroke="#000" stroke-width="5" d="M751.96303,7.5 C754.034098,7.5 755.909098,8.33946609 757.266331,9.69669914 C758.623564,11.0539322 759.46303,12.9289322 759.46303,15 L759.46303,92.5 L637.963319,92.5 L637.963319,7.5 L751.96303,7.5 Z"/><path fill="#4E95CA" stroke="#000" stroke-linejoin="round" stroke-width="5" d="M731.782185,18.5 C733.577111,18.5 735.202111,19.2275373 736.37838,20.4038059 C737.554648,21.5800746 738.282185,23.2050746 738.282185,25 C738.282185,25.3394775 738.255591,25.6784334 738.202645,26.0137567 L736.465803,37.0137567 C736.216381,38.5934259 735.410886,39.9649867 734.267936,40.9416302 C733.124987,41.9182738 731.644582,42.5 730.045343,42.5 L699.881295,42.5 C698.282055,42.5 696.801651,41.9182738 695.658702,40.9416302 C694.515752,39.9649867 693.710257,38.5934259 693.460835,37.0137567 L691.723993,26.0137567 C691.444052,24.2407959 691.909247,22.5222125 692.887668,21.176884 C693.866089,19.8315555 695.357735,18.8594819 697.130696,18.5795407 C697.466019,18.5265949 697.804975,18.5 698.144452,18.5 L731.782185,18.5 Z"/><path fill="#4E95CA" stroke="#000" stroke-linejoin="round" stroke-width="5" d="M735.782185,18.5 C737.577111,18.5 739.202111,19.2275373 740.37838,20.4038059 C741.554648,21.5800746 742.282185,23.2050746 742.282185,25 C742.282185,25.3394775 742.255591,25.6784334 742.202645,26.0137567 L740.465803,37.0137567 C740.216381,38.5934259 739.410886,39.9649867 738.267936,40.9416302 C737.124987,41.9182738 735.644582,42.5 734.045343,42.5 L703.881295,42.5 C702.282055,42.5 700.801651,41.9182738 699.658702,40.9416302 C698.515752,39.9649867 697.710257,38.5934259 697.460835,37.0137567 L695.723993,26.0137567 C695.444052,24.2407959 695.909247,22.5222125 696.887668,21.176884 C697.866089,19.8315555 699.357735,18.8594819 701.130696,18.5795407 C701.466019,18.5265949 701.804975,18.5 702.144452,18.5 Z"/><path stroke="#000" stroke-width="10" d="M551.463319,61.2940277 L519.463319,61.2940277 C474.417121,62.8016071 451.894023,80.3546957 451.894023,113.953293"/><path stroke="#000" stroke-width="10" d="M551.463319,61.2940277 L519.463319,61.2940277 C474.417121,62.8016071 451.894023,80.3546957 451.894023,113.953293"/><path stroke="#000" stroke-width="10" d="M569.463319,68.2940277 L537.463319,68.2940277 C492.417121,69.8016071 469.894023,87.3546957 469.894023,120.953293"/><g stroke="#000" stroke-width="10" transform="scale(-1 1) rotate(68 -44.59 -17.425)"><path d="M99.5692964,5.68434189e-14 L67.5692964,5.68434189e-14 C22.5230988,1.50757937 0,19.0606679 0,52.6592657"/><path d="M117.569296,7 L85.5692964,7 C40.5230988,8.50757937 18,26.0606679 18,59.6592657"/></g><circle cx="704.463" cy="27" r="2" fill="#000"/><circle cx="710.463" cy="34" r="2" fill="#000"/><circle cx="720.463" cy="34" r="2" fill="#000"/><circle cx="729.463" cy="34" r="2" fill="#000"/><circle cx="714.463" cy="27" r="2" fill="#000"/><circle cx="724.463" cy="27" r="2" fill="#000"/><circle cx="734.463" cy="27" r="2" fill="#000"/><ellipse cx="684.463" cy="30" fill="#D8D8D8" stroke="#000" stroke-width="5" rx="1" ry="2.5"/><ellipse cx="748.463" cy="30" fill="#D8D8D8" stroke="#000" stroke-width="5" rx="1" ry="2.5"/><path fill="url(#b)" stroke="#000" stroke-width="5" d="M665.963319,7.5 L665.963319,92.5 L536.963319,92.5 L536.963319,15 C536.963319,12.9289322 537.802785,11.0539322 539.160018,9.69669914 C540.517251,8.33946609 542.392251,7.5 544.463319,7.5 L665.963319,7.5 Z"/><path fill="#000" d="M659.217921-1.38618123e-16 671.708717 1.38618123e-16C673.258809-1.46129121e-16 674.416078.278476833 675.393856.801398111 676.371634 1.32431939 677.139 2.09168511 677.661921 3.06946289 678.184842 4.04724067 678.463319 5.20451012 678.463319 6.75460192L678.463319 7 678.463319 7 652.463319 7 652.463319 6.75460192C652.463319 5.20451012 652.741796 4.04724067 653.264717 3.06946289 653.787638 2.09168511 654.555004 1.32431939 655.532782.801398111 656.51056.278476833 657.667829 1.46129121e-16 659.217921-1.38618123e-16ZM689.217921-1.38618123e-16 701.708717 1.38618123e-16C703.258809-1.46129121e-16 704.416078.278476833 705.393856.801398111 706.371634 1.32431939 707.139 2.09168511 707.661921 3.06946289 708.184842 4.04724067 708.463319 5.20451012 708.463319 6.75460192L708.463319 7 708.463319 7 682.463319 7 682.463319 6.75460192C682.463319 5.20451012 682.741796 4.04724067 683.264717 3.06946289 683.787638 2.09168511 684.555004 1.32431939 685.532782.801398111 686.51056.278476833 687.667829 1.46129121e-16 689.217921-1.38618123e-16ZM719.217921-1.38618123e-16 731.708717 1.38618123e-16C733.258809-1.46129121e-16 734.416078.278476833 735.393856.801398111 736.371634 1.32431939 737.139 2.09168511 737.661921 3.06946289 738.184842 4.04724067 738.463319 5.20451012 738.463319 6.75460192L738.463319 7 738.463319 7 712.463319 7 712.463319 6.75460192C712.463319 5.20451012 712.741796 4.04724067 713.264717 3.06946289 713.787638 2.09168511 714.555004 1.32431939 715.532782.801398111 716.51056.278476833 717.667829 1.46129121e-16 719.217921-1.38618123e-16Z"/><path fill="#D8D8D8" stroke="#000" stroke-width="5" d="M586.463319,65.5 C588.810529,65.5 590.935529,66.4513949 592.473727,67.9895924 C594.011924,69.5277898 594.963319,71.6527898 594.963319,74 C594.963319,76.3472102 594.011924,78.4722102 592.473727,80.0104076 C590.935529,81.5486051 588.810529,82.5 586.463319,82.5 L562.963319,82.5 L562.963319,65.5 Z"/><path fill="#4E95CA" stroke="#000" stroke-width="5" d="M572.463319,65.5 C574.810529,65.5 576.935529,66.4513949 578.473727,67.9895924 C580.011924,69.5277898 580.963319,71.6527898 580.963319,74 C580.963319,76.3472102 580.011924,78.4722102 578.473727,80.0104076 C576.935529,81.5486051 574.810529,82.5 572.463319,82.5 L557.463319,82.5 C555.116109,82.5 552.991109,81.5486051 551.452911,80.0104076 C549.914714,78.4722102 548.963319,76.3472102 548.963319,74 C548.963319,71.6527898 549.914714,69.5277898 551.452911,67.9895924 C552.991109,66.4513949 555.116109,65.5 557.463319,65.5 Z"/><path fill="#D8D8D8" stroke="#000" stroke-width="5" d="M645.463319,65.5 C647.810529,65.5 649.935529,66.4513949 651.473727,67.9895924 C653.011924,69.5277898 653.963319,71.6527898 653.963319,74 C653.963319,76.3472102 653.011924,78.4722102 651.473727,80.0104076 C649.935529,81.5486051 647.810529,82.5 645.463319,82.5 L621.963319,82.5 L621.963319,65.5 Z"/><path fill="#4E95CA" stroke="#000" stroke-width="5" d="M631.463319,65.5 C633.810529,65.5 635.935529,66.4513949 637.473727,67.9895924 C639.011924,69.5277898 639.963319,71.6527898 639.963319,74 C639.963319,76.3472102 639.011924,78.4722102 637.473727,80.0104076 C635.935529,81.5486051 633.810529,82.5 631.463319,82.5 L616.463319,82.5 C614.116109,82.5 611.991109,81.5486051 610.452911,80.0104076 C608.914714,78.4722102 607.963319,76.3472102 607.963319,74 C607.963319,71.6527898 608.914714,69.5277898 610.452911,67.9895924 C611.991109,66.4513949 614.116109,65.5 616.463319,65.5 Z"/><path fill="#000" stroke="#000" stroke-width="5" d="M644.463319,19.5 C646.810529,19.5 648.935529,20.4513949 650.473727,21.9895924 C652.011924,23.5277898 652.963319,25.6527898 652.963319,28 C652.963319,30.3472102 652.011924,32.4722102 650.473727,34.0104076 C648.935529,35.5486051 646.810529,36.5 644.463319,36.5 L639.963319,36.5 L639.963319,19.5 Z"/><path fill="#FF7070" stroke="#000" stroke-width="5" d="M638.463319,19.5 C640.810529,19.5 642.935529,20.4513949 644.473727,21.9895924 C646.011924,23.5277898 646.963319,25.6527898 646.963319,28 C646.963319,30.3472102 646.011924,32.4722102 644.473727,34.0104076 C642.935529,35.5486051 640.810529,36.5 638.463319,36.5 C636.116109,36.5 633.991109,35.5486051 632.452911,34.0104076 C630.914714,32.4722102 629.963319,30.3472102 629.963319,28 C629.963319,25.6527898 630.914714,23.5277898 632.452911,21.9895924 C633.991109,20.4513949 636.116109,19.5 638.463319,19.5 Z"/><path fill="#000" stroke="#000" stroke-width="5" d="M612.463319,19.5 C614.810529,19.5 616.935529,20.4513949 618.473727,21.9895924 C620.011924,23.5277898 620.963319,25.6527898 620.963319,28 C620.963319,30.3472102 620.011924,32.4722102 618.473727,34.0104076 C616.935529,35.5486051 614.810529,36.5 612.463319,36.5 L607.963319,36.5 L607.963319,19.5 Z"/><path fill="#FF7070" stroke="#000" stroke-width="5" d="M606.463319,19.5 C608.810529,19.5 610.935529,20.4513949 612.473727,21.9895924 C614.011924,23.5277898 614.963319,25.6527898 614.963319,28 C614.963319,30.3472102 614.011924,32.4722102 612.473727,34.0104076 C610.935529,35.5486051 608.810529,36.5 606.463319,36.5 C604.116109,36.5 601.991109,35.5486051 600.452911,34.0104076 C598.914714,32.4722102 597.963319,30.3472102 597.963319,28 C597.963319,25.6527898 598.914714,23.5277898 600.452911,21.9895924 C601.991109,20.4513949 604.116109,19.5 606.463319,19.5 Z"/><line x1="686.463" x2="749.004" y1="55.223" y2="55.223" stroke="#000" stroke-linecap="round" stroke-width="5"/><line x1="686.463" x2="749.004" y1="65.223" y2="65.223" stroke="#000" stroke-linecap="round" stroke-width="5"/><line x1="720.463" x2="749.004" y1="75.223" y2="75.223" stroke="#000" stroke-linecap="round" stroke-width="5"/></g><g stroke="#000" stroke-width="5" transform="translate(79 935)"><path fill="#C8C8C8" d="M819.314207,2.5 C824.146698,2.5 828.521698,4.45875422 831.688575,7.62563133 C834.855452,10.7925084 836.814207,15.1675084 836.814207,20 L836.814207,69.3275459 L2.5,69.3275459 L2.5,20 C2.5,15.1675084 4.45875422,10.7925084 7.62563133,7.62563133 C10.7925084,4.45875422 15.1675084,2.5 20,2.5 Z"/><path fill="#FBFBFB" d="M829.314207,2.5 C834.146698,2.5 838.521698,4.45875422 841.688575,7.62563133 C844.855452,10.7925084 846.814207,15.1675084 846.814207,20 L846.814207,69.3275459 L65.4444935,69.3275459 L65.4444935,20 C65.4444935,15.1675084 67.4032477,10.7925084 70.5701248,7.62563133 C73.7370019,4.45875422 78.1120019,2.5 82.9444935,2.5 Z"/></g><g transform="translate(161.55 589.2)"><path fill="url(#c)" stroke="#000" stroke-width="5" d="M165.450194,271.326477 L420.978812,271.326477 L420.978812,338.311284 C420.978812,343.834132 416.50166,348.311284 410.978812,348.311284 L165.450194,348.311284 L165.450194,348.311284 L165.450194,271.326477 Z"/><path fill="#C8C8C8" stroke="#000" stroke-width="5" d="M138.037493,2.71696675 C139.210292,2.16491402 140.424718,2.58128997 141.634178,3.05562523 L142.273761,3.30715518 L142.486483,3.3882162 L143.095926,3.61738253 C144.898227,4.29413603 146.735639,4.89825606 148.569323,4.92312469 L341.950194,7.50561191 L341.950194,271.444987 L176.409645,274.34389 C176.323485,293.029225 176.277932,308.444323 176.272976,320.59035 L176.272976,324.891073 C176.277305,334.803023 176.312671,342.223106 176.378895,347.151326 L176.38,347.3 L31.6869171,347.30069 C29.7194027,347.30069 27.9288394,346.543072 26.5910442,345.303652 L26.3836162,345.103991 C25.0263832,343.746758 24.1869171,341.871758 24.1869171,339.80069 L24.1869171,274.603208 L3.09489563,249.78111 C2.71085398,249.329152 2.5,248.75538 2.5,248.162291 L2.5,164.766114 C2.5,153.934487 7.18353637,143.631927 15.3449873,136.510489 L76.0089218,83.5769555 L76.0097939,79.1954662 C76.029781,46.4543748 76.3600138,36.4717326 98.6643437,23.2285524 Z"/><path fill="url(#d)" stroke="#000" stroke-width="5" d="M131.450194,0.800689724 L425.450194,0.800689724 C432.077611,0.800689724 437.450194,6.17327273 437.450194,12.8006897 L437.450194,266.857588 C437.450194,271.828151 433.420756,275.857588 428.450194,275.857588 L128.450194,275.857588 C123.479631,275.857588 119.450194,271.828151 119.450194,266.857588 L119.450194,12.8006897 C119.450194,6.17327273 124.822777,0.800689724 131.450194,0.800689724 Z"/><polygon fill="#DDD4B4" stroke="#000" stroke-width="5" points="137.449 17.329 422.451 17.329 422.451 249.329 137.449 249.329"/><rect width="37" height="12" x="374" y="249.329" fill="#45FF6F" stroke="#000" stroke-width="5"/><path fill="#000" stroke="#000" stroke-width="5" d="M403.950194,40.3006897 L403.950194,226.30069 L158.950194,226.30069 L158.950194,40.3006897 L403.950194,40.3006897 Z"/><path fill="#FF8459" stroke="#000" stroke-width="5" d="M377.939112,40.3006897 C384.363269,40.3006897 386.72796,40.8812108 389.085962,42.1422843 C391.251254,43.3002952 392.950588,44.9996291 394.108599,47.1649212 C395.369673,49.5229238 395.950194,51.8876145 395.950194,58.3117713 L395.950194,208.289608 C395.950194,214.713765 395.369673,217.078456 394.108599,219.436458 C392.950588,221.60175 391.251254,223.301084 389.085962,224.459095 C386.72796,225.720169 384.363269,226.30069 377.939112,226.30069 L176.961275,226.30069 C170.537118,226.30069 168.172428,225.720169 165.814425,224.459095 C163.649133,223.301084 161.949799,221.60175 160.791788,219.436458 C159.530715,217.078456 158.950194,214.713765 158.950194,208.289608 L158.950194,58.3117713 C158.950194,51.8876145 159.530715,49.5229238 160.791788,47.1649212 C161.949799,44.9996291 163.649133,43.3002952 165.814425,42.1422843 C168.172428,40.8812108 170.537118,40.3006897 176.961275,40.3006897 Z"/><g transform="translate(175.45 9.8)"><path fill="#FFF" stroke="#000" stroke-width="5" d="M141,0 C163.09139,0 181,18.1324676 181,40.5 C181,45.9233606 179.947159,51.0977432 178.037132,55.8250478 C167.921026,59.028528 159.960165,67.254838 156.93118,77.6583949 C152.050486,79.8086173 146.662657,81 141,81 C118.90861,81 101,62.8675324 101,40.5 C101,18.1324676 118.90861,0 141,0 Z"/><path fill="#FFF" stroke="#000" stroke-width="5" d="M64,0 C86.09139,0 104,18.1324676 104,40.5 C104,62.8675324 86.09139,81 64,81 C58.8311471,81 53.8912793,80.0073431 49.35621,78.2000403 C46.3291102,67.1000279 37.7143731,58.3892413 26.8132987,55.4468417 C24.9976105,50.8224713 24,45.7791941 24,40.5 C24,18.1324676 41.90861,0 64,0 Z"/><path fill="#000" d="M154.084904 47C165.635993 47 175 37.5979797 175 26 175 14.4020203 165.635993 5 154.084904 5 147.38942 5 141.42876 8.15892502 137.600628 13.0733956 134.824445 16.6373986 146.9572 21.1246844 146.9572 26 146.9572 30.7406317 134.734287 35.1143767 137.373126 38.6291279 141.190219 43.7132334 147.255281 47 154.084904 47ZM77.0844382 47C88.635784 47 98 37.5979797 98 26 98 14.4020203 88.635784 5 77.0844382 5 68.6873187 5 61.4459656 9.96840143 58.1174084 17.1370444 56.8670959 19.8298158 68.9506086 22.8330398 68.9506086 26 68.9506086 29.1421312 56.8561907 32.1230835 58.0881028 34.7995642 61.4033246 42.002292 68.6625895 47 77.0844382 47Z"/><path stroke="#000" stroke-linecap="round" stroke-width="5" d="M50,87 C50,68.7746033 35.771932,54 18.2207206,54 C11.4420152,54 5.15902052,56.2039166 0,59.9593535"/><path stroke="#000" stroke-linecap="round" stroke-width="5" d="M206,87 C206,68.7746033 191.771932,54 174.220721,54 C167.442015,54 161.159021,56.2039166 156,59.9593535" transform="matrix(-1 0 0 1 362 0)"/></g><line x1="337.107" x2="337.107" y1="276.801" y2="348.311" stroke="#000" stroke-linecap="round" stroke-width="5"/><line x1="421.068" x2="337.107" y1="313.024" y2="313.024" stroke="#000" stroke-linecap="round" stroke-width="5"/><line x1="421.068" x2="337.107" y1="313.024" y2="313.024" stroke="#000" stroke-linecap="round" stroke-width="5"/><line x1="408.319" x2="351.254" y1="295.024" y2="295.024" stroke="#000" stroke-linecap="round" stroke-width="5"/><path fill="#000" d="M362 289.87949 396 289.87949C398.761424 289.87949 401 292.118066 401 294.87949 401 297.640913 398.761424 299.87949 396 299.87949L362 299.87949C359.238576 299.87949 357 297.640913 357 294.87949 357 292.118066 359.238576 289.87949 362 289.87949ZM362 325.87949 396 325.87949C398.761424 325.87949 401 328.118066 401 330.87949 401 333.640913 398.761424 335.87949 396 335.87949L362 335.87949C359.238576 335.87949 357 333.640913 357 330.87949 357 328.118066 359.238576 325.87949 362 325.87949Z"/><line x1="408.319" x2="351.254" y1="331.024" y2="331.024" stroke="#000" stroke-linecap="round" stroke-width="5"/><g stroke="#000" stroke-linecap="round" stroke-width="5" transform="translate(13.592 140.826)"><line x1="52.173" y2="27.198"/><line x1="52.173" y1="14" y2="41.198"/><line x1="52.173" y1="27" y2="54.198"/><line x1="52.173" y1="41" y2="68.198"/><line x1="52.173" y1="55" y2="82.198"/></g><line x1="156.45" x2="25.147" y1="276.024" y2="276.024" stroke="#000" stroke-linecap="round" stroke-width="5"/><line x1="119.45" x2="3.069" y1="246.998" y2="246.998" stroke="#000" stroke-linecap="round" stroke-width="5"/><path fill="#848484" d="M6.14081347,249.500626 L116.925013,249.500626 L116.925013,266.580092 C116.925013,269.082269 117.691042,271.524473 119.120124,273.5784 L119.120124,273.5784 L119.120124,273.5784 L26.2906472,273.5784 L6.14081347,249.500626 Z"/><line x1="374" x2="374" y1="255.801" y2="275.858" stroke="#000" stroke-width="5"/><line x1="411" x2="411" y1="255.801" y2="275.858" stroke="#000" stroke-width="5"/><line x1="195.95" x2="196" y1="249.301" y2="275.858" stroke="#000" stroke-width="5"/></g><g transform="translate(498.441 747)"><rect width="6" height="6" x="10.059" y="6" fill="#000"/><rect width="6" height="6" x="28.059" y="6" fill="#000"/><rect width="6" height="6" x="22.059" fill="#000"/><rect width="6" height="6" x="16.059" fill="#000"/><polygon fill="#FFF" stroke="#000" stroke-width="5" points="9.559 24 34.559 24 34.559 51 9.559 51"/><rect width="39" height="11" x="2.559" y="14" fill="#FFF" stroke="#000" stroke-width="5"/><polygon fill="#FF8459" points="0 11.478 5.061 11.478 5.061 16.478 0 16.478"/><polygon fill="#FF8459" points="0 22.478 5.061 22.478 5.061 29.478 0 29.478"/><polygon fill="#FF8459" points="7 48.478 12.061 48.478 12.061 55.478 7 55.478"/><polygon fill="#FF8459" points="32 48.478 37.061 48.478 37.061 55.478 32 55.478"/><polygon fill="#FF8459" points="39 11.478 44.061 11.478 44.061 16.478 39 16.478"/><polygon fill="#FF8459" points="39 22.478 44.061 22.478 44.061 29.478 39 29.478"/><line x1="17.328" x2="17.328" y1="29.982" y2="45.758" stroke="#000" stroke-width="5"/></g></g></svg>