<?xml version="1.0" encoding="UTF-8"?>
<svg width="1225px" height="1095px" viewBox="0 0 1225 1095" version="1.1" xmlns="http://www.w3.org/2000/svg" xmlns:xlink="http://www.w3.org/1999/xlink">
    <title>Artboard Copy 3</title>
    <g id="Artboard-Copy-3" stroke="none" stroke-width="1" fill="none" fill-rule="evenodd">
        <path d="M1086,234 C1097.59798,234 1108.09798,238.70101 1115.69848,246.301515 C1123.29899,253.90202 1128,264.40202 1128,276 L1128,810 C1128,821.59798 1123.29899,832.09798 1115.69848,839.698485 C1108.09798,847.29899 1097.59798,852 1086,852 L139,852 C127.40202,852 116.90202,847.29899 109.301515,839.698485 C101.70101,832.09798 97,821.59798 97,810 L97,330.5 C97,318.90202 101.70101,308.40202 109.301515,300.801515 C116.90202,293.20101 127.40202,288.5 139,288.5 L477.182578,288.5 L477.182578,258 C477.182578,251.372583 479.86887,245.372583 484.212016,241.029437 C488.555161,236.686292 494.555161,234 501.182578,234 Z" id="Rectangle" stroke="#000000" stroke-width="10"></path>
        <polyline id="Path-3" stroke="#000000" stroke-width="10" points="92 422 497.836784 422 949.022203 422 1133 422"></polyline>
        <line x1="92" y1="798" x2="1133" y2="798" id="Path-3-Copy" stroke="#000000" stroke-width="10"></line>
        <circle id="Oval" stroke="#000000" stroke-width="10" fill="#FFFFFF" cx="722.5" cy="561.5" r="263.5"></circle>
        <circle id="Oval-Copy-2" stroke="#000000" stroke-width="10" cx="722.5" cy="561.5" r="201.5"></circle>
        <circle id="Oval-Copy" stroke="#000000" stroke-width="10" cx="722.5" cy="561.5" r="67"></circle>
        <path d="M294.643091,377.035397 C301.696533,377.035397 304.324553,377.593072 306.92204,378.982223 C309.134106,380.165249 310.870148,381.901291 312.053173,384.113357 C313.442324,386.710843 314,389.338864 314,396.392306 L314,422.035397 L165,422.035397 L165.000793,395.938528 C165.02464,389.224617 165.587875,386.654376 166.946827,384.113357 C168.129852,381.901291 169.865894,380.165249 172.07796,378.982223 C174.675447,377.593072 177.303467,377.035397 184.356909,377.035397 Z" id="Rectangle" stroke="#000000" stroke-width="10" fill="#FFFFFF"></path>
        <path d="M240.549068,243 C246.62299,243 249.357465,243.575277 251.92204,244.946827 C254.134106,246.129852 255.870148,247.865894 257.053173,250.07796 C258.424723,252.642535 259,255.37701 259,261.450932 L259,269.549068 C259,275.62299 258.424723,278.357465 257.053173,280.92204 C255.870148,283.134106 254.134106,284.870148 251.92204,286.053173 C249.357465,287.424723 246.62299,288 240.549068,288 L179.450932,288 C173.37701,288 170.642535,287.424723 168.07796,286.053173 C165.865894,284.870148 164.129852,283.134106 162.946827,280.92204 C161.575277,278.357465 161,275.62299 161,269.549068 L161,261.450932 C161,255.37701 161.575277,252.642535 162.946827,250.07796 C164.129852,247.865894 165.865894,246.129852 168.07796,244.946827 C170.642535,243.575277 173.37701,243 179.450932,243 Z" id="Rectangle-Copy" stroke="#000000" stroke-width="10" fill="#FFFFFF"></path>
        <path d="M549.510934,260.000592 C552.30903,260.011005 553.437296,260.162359 554.526234,260.74473 C555.271633,261.143373 555.856627,261.728367 556.25527,262.473766 C556.86004,263.604586 557,264.777818 557,267.819426 L557,297.180574 C557,300.222182 556.86004,301.395414 556.25527,302.526234 C555.856627,303.271633 555.271633,303.856627 554.526234,304.25527 C553.395414,304.86004 552.222182,305 549.180574,305 L513.819426,305 C510.777818,305 509.604586,304.86004 508.473766,304.25527 C507.728367,303.856627 507.143373,303.271633 506.74473,302.526234 C506.13996,301.395414 506,300.222182 506,297.180574 L506.000592,267.489066 C506.011005,264.69097 506.162359,263.562704 506.74473,262.473766 C507.143373,261.728367 507.728367,261.143373 508.473766,260.74473 C509.604586,260.13996 510.777818,260 513.819426,260 Z" id="Rectangle-Copy-3" stroke="#000000" stroke-width="10" fill="#FFFFFF"></path>
        <path d="M438.096869,243.000793 C444.81078,243.02464 447.38102,243.587875 449.92204,244.946827 C452.134106,246.129852 453.870148,247.865894 455.053173,250.07796 C456.442324,252.675447 457,255.303467 457,262.356909 L457,288 L260,288 L260.000793,261.903131 C260.02464,255.18922 260.587875,252.61898 261.946827,250.07796 C263.129852,247.865894 264.865894,246.129852 267.07796,244.946827 C269.611784,243.591723 272.173798,243.029043 278.884606,243.000978 Z" id="Rectangle-Copy-2" stroke="#000000" stroke-width="10" fill="#FFFFFF"></path>
    </g>
</svg>