<svg xmlns="http://www.w3.org/2000/svg" xmlns:xlink="http://www.w3.org/1999/xlink" width="240" height="241" viewBox="0 0 240 241"><defs><filter id="a" width="220%" height="220%" x="-60%" y="-60%" filterUnits="objectBoundingBox"><feGaussianBlur in="SourceGraphic" stdDeviation="16"/></filter><filter id="d" width="127.5%" height="127.5%" x="-13.8%" y="-13.8%" filterUnits="objectBoundingBox"><feGaussianBlur in="SourceAlpha" result="shadowBlurInner1" stdDeviation="6.5"/><feOffset dy="-9" in="shadowBlurInner1" result="shadowOffsetInner1"/><feComposite in="shadowOffsetInner1" in2="SourceAlpha" k2="-1" k3="1" operator="arithmetic" result="shadowInnerInner1"/><feColorMatrix in="shadowInnerInner1" result="shadowMatrixInner1" values="0 0 0 0 0.0880887681 0 0 0 0 0 0 0 0 0 0 0 0 0 1 0"/><feGaussianBlur in="SourceAlpha" result="shadowBlurInner2" stdDeviation="3.5"/><feOffset dy="-5" in="shadowBlurInner2" result="shadowOffsetInner2"/><feComposite in="shadowOffsetInner2" in2="SourceAlpha" k2="-1" k3="1" operator="arithmetic" result="shadowInnerInner2"/><feColorMatrix in="shadowInnerInner2" result="shadowMatrixInner2" values="0 0 0 0 1 0 0 0 0 0.165605945 0 0 0 0 0.165605945 0 0 0 1 0"/><feMerge><feMergeNode in="shadowMatrixInner1"/><feMergeNode in="shadowMatrixInner2"/></feMerge></filter><radialGradient id="c" cx="43.144%" cy="23.255%" r="56.282%" fx="43.144%" fy="23.255%"><stop offset="0%" stop-color="#54CFFF"/><stop offset="99.383%" stop-color="#4446E5"/></radialGradient><circle id="b" cx="120" cy="73" r="40"/></defs><g fill="none" fill-rule="evenodd"><path stroke="#D4D4D4" d="M194.464667,0.500828669 C209.905808,0.542805333 215.60618,2.1788449 221.347423,5.24929527 C227.125667,8.33953376 231.660466,12.8743332 234.750705,18.6525768 C237.861556,24.4693625 239.5,30.2441949 239.5,46.1499336 L239.5,193.850066 C239.5,209.755805 237.861556,215.530638 234.750705,221.347423 C231.660466,227.125667 227.125667,231.660466 221.347423,234.750705 C215.530638,237.861556 209.755805,239.5 193.850066,239.5 L46.1499336,239.5 C30.2441949,239.5 24.4693625,237.861556 18.6525768,234.750705 C12.8743332,231.660466 8.33953376,227.125667 5.24929527,221.347423 C5.0036534,220.888113 4.76719205,220.429065 4.53999298,219.965269 L4.31588438,219.499706 C1.84788228,214.279101 0.538235995,208.258332 0.500823466,194.462247 L0.500828669,45.5353333 C0.542805333,30.0941922 2.1788449,24.3938198 5.24929527,18.6525768 C8.33953376,12.8743332 12.8743332,8.33953376 18.6525768,5.24929527 C19.1118871,5.0036534 19.5709353,4.76719205 20.0347307,4.53999298 L20.5002941,4.31588438 C25.7208985,1.84788228 31.7416676,0.538235995 45.5377529,0.500823466 Z"/><path stroke="#D4D4D4" d="M203.925033,13.5 C211.807103,13.5 214.67236,14.3030137 217.555812,15.8451009 C220.400722,17.3665756 222.633424,19.5992778 224.154899,22.4441881 C225.696986,25.3276405 226.5,28.1928968 226.5,36.0749668 L226.5,203.925033 C226.5,211.807103 225.696986,214.67236 224.154899,217.555812 C222.633424,220.400722 220.400722,222.633424 217.555812,224.154899 C214.67236,225.696986 211.807103,226.5 203.925033,226.5 L36.0749668,226.5 C28.1928968,226.5 25.3276405,225.696986 22.4441881,224.154899 C19.5992778,222.633424 17.3665756,220.400722 15.8451009,217.555812 C14.3030137,214.67236 13.5,211.807103 13.5,203.925033 L13.5009631,35.6080225 C13.5324162,28.0782792 14.3338555,25.2699714 15.8451009,22.4441881 C17.3665756,19.5992778 19.5992778,17.3665756 22.4441881,15.8451009 C25.3276405,14.3030137 28.1928968,13.5 36.0749668,13.5 Z"/><circle cx="120" cy="120" r="67.5" stroke="#D4D4D4"/><circle cx="120" cy="120" r="29.5" stroke="#D4D4D4"/><circle cx="120" cy="120" r="119.5" stroke="#D4D4D4"/><line x1="120" x2="120" y2="240" stroke="#D4D4D4"/><line x1="240" y1="120" y2="120" stroke="#D4D4D4"/><line x1="240" y1="52.625" y2="52.625" stroke="#D4D4D4"/><line x1="240" y1="187.492" y2="187.492" stroke="#D4D4D4"/><g stroke="#D4D4D4" transform="rotate(90 93.938 93.996)"><line x1="240" y1=".5" y2=".5"/><line x1="240" y1="135.368" y2="135.368"/></g><circle cx="120" cy="120" r="40" fill="#000" filter="url(#a)" opacity=".594"/><use xlink:href="#b" fill="url(#c)"/><use xlink:href="#b" fill="#000" filter="url(#d)"/></g></svg>