<svg width="72" height="65" viewBox="0 0 72 65" xmlns="http://www.w3.org/2000/svg"><path d="M404.570618,499.863642 C406.474912,499.863642 408.183324,501.185372 408.873941,503.191938 C409.997088,506.458726 412.779941,508.611248 415.880971,508.611248 L426.729941,508.611248 C427.430882,508.611248 428,509.250504 428,510.038562 C428,523.005528 419.052676,532.841212 408.016559,532.841212 L400.514,532.841212 L399.989882,532.842555 C395.182294,532.86646 390.286294,533.297555 384.624235,538.269251 C381.592426,540.931566 378.938512,542.500161 376.663312,542.975306 C375.959856,543.121959 375.284459,542.600347 375.153456,541.810677 C375.1232,541.62669 375.124656,541.438942 375.157744,541.256028 C376.120374,535.909106 375.369456,533.012576 372.904912,532.564291 C363.330288,530.825137 356,521.775362 356,510.038562 C356,509.250504 356.5688,508.611248 357.2708,508.611248 L367.943344,508.611248 C371.044426,508.611248 373.826512,506.458726 374.9504,503.191938 C375.640912,501.185372 377.349456,499.863642 379.253141,499.863642 L404.570618,499.863642 Z M425.594353,493.540134 C425.808765,494.508097 425.555176,495.054151 424.832794,495.17972 L414.467176,496.219236 C412.589618,496.407629 410.802059,495.244881 409.967441,493.291335 C408.607647,490.109906 405.698,488.216794 402.640382,488.52361 L377.671894,491.026272 C374.614171,491.332256 372.035644,493.776149 371.178791,497.179303 C370.653032,499.268785 369.069456,500.769237 367.191209,500.95763 L357.76832,501.901822 C357.697506,501.903407 357.603808,501.908967 357.486504,501.919281 C356.366406,502.019413 355.879312,501.52031 356.025226,500.421971 C357.573054,490.229915 364.63415,482.156725 373.676424,481.249894 L405.266794,478.083565 C414.334824,477.175147 422.533824,483.761339 425.594353,493.540134 Z" transform="translate(-356 -478)" fill-rule="evenodd"/></svg>