<svg xmlns="http://www.w3.org/2000/svg" width="126" height="58" viewBox="0 0 126 58">
    <g fill="none" fill-rule="evenodd">
        <path fill="#004990" d="M95.547 14.203h20.29v5.684H126v38.222H0V19.887h10.168v-5.684h20.298L63.006.263l32.541 13.94"/>
        <path fill="#FFFFFE" d="M104.48 27.922c.347 0 .708.016 1.073.047 3.182.457 6.326 2.44 6.359 2.46l.05.032v4.683l-.145-.063c-.018-.004-1.476-.62-3.14-1.31-.79-.325-2.317-.873-3.657-.873-.841 0-1.473.215-1.89.636-.393.336-.535.89-.475 1.243.219 1.259 2.203 2.037 2.853 2.29l.117.046c3.29 1.315 5.333 2.847 6.246 4.675l.037.07c.024.045.045.09.067.133l.037.078.13.294c.33.797.485 1.593.46 2.377-.103 3.179-2.427 5.046-2.452 5.063-1.01.822-2.58 1.244-4.656 1.244-3.805 0-8.09-1.419-8.13-1.435l-.073-.021v-5.14l.141.055c.047.016 4.472 1.662 6.655 1.969l.055.007c.152.016.308.028.465.028 1.137 0 2.035-.529 2.235-1.311.196-.76-.275-1.612-1.203-2.168l-.01-.006c-.822-.486-1.698-.886-2.544-1.266-2.057-.931-4.182-1.891-5.507-4.192-1.032-2.035-.898-4.76.314-6.484 1.444-2.095 3.66-3.16 6.588-3.16zm-84.376-3.816v21.052h8.911v5.016H14.344V24.106h5.76zm71.68 4.61v5.044h-7.917v3.29h7.918v4.83h-7.918v3.272h7.918v5.022H78.077V28.716h13.708zm-46.577 0c1.514 0 2.74 1.23 2.74 2.744v15.973a2.739 2.739 0 0 1-2.74 2.741H34.08a2.738 2.738 0 0 1-2.737-2.741V31.46a2.741 2.741 0 0 1 2.737-2.744h11.127zm11.789 0v16.442h3.477V28.716h5.064v16.442h3.479V28.716h5.77v18.717a2.74 2.74 0 0 1-2.742 2.741h-6.82c-1.147 0-2.22-.792-2.22-1.941v.006l-.006.142c-.083 1.02-1.022 1.727-2.063 1.789l-.15.004h-6.82a2.742 2.742 0 0 1-2.741-2.741V28.716h5.772zm-14.82 5.044h-5.065v11.376h5.065V33.76zm72.593-5.188c.958 0 1.775.74 1.775 1.748 0 1.013-.817 1.753-1.775 1.753-.962 0-1.778-.74-1.778-1.753 0-1.008.816-1.748 1.778-1.748zm0 .29c-.802 0-1.427.627-1.427 1.458 0 .845.625 1.462 1.427 1.462.794 0 1.418-.617 1.418-1.462 0-.83-.624-1.457-1.418-1.457zm.095.45c.477 0 .708.177.708.575 0 .361-.222.521-.518.556l.573.89h-.341l-.533-.876h-.355v.876h-.303v-2.021h.77zM93.06 24.106l4.827.002-.833 6.183-3.996-.008.002-6.177zm21.758 5.467h-.419v.627h.367c.261 0 .491-.02.491-.336 0-.246-.228-.29-.439-.29z"/>
    </g>
</svg>
