<svg xmlns="http://www.w3.org/2000/svg" width="144" height="330" viewBox="0 0 144 330"><path fill="#DDBB61" d="M66.2063764,306.767589 C68.7089279,306.767589 70.6744442,307.286629 72.102984,308.324724 C73.5315238,309.362819 74.2457829,310.795369 74.2457829,312.622417 C74.2457829,313.556703 73.9955316,314.381977 73.4950214,315.098262 C72.994511,315.814549 72.3063197,316.411444 71.4304266,316.888968 L71.4304266,316.982396 C72.6191386,317.439159 73.536727,318.129481 74.1832195,319.053386 C74.8297121,319.977291 75.1529534,321.062085 75.1529534,322.307799 C75.1529534,323.345895 74.9339835,324.280166 74.4960369,325.110643 C74.0580903,325.94112 73.4481026,326.647014 72.6660553,327.228347 C71.8840079,327.809681 70.9455652,328.256056 69.8506988,328.567484 C68.7558325,328.878912 67.5514977,329.034625 66.2376581,329.034625 C64.902964,329.034625 63.688202,328.878912 62.5933357,328.567484 C61.4984694,328.256056 60.5548131,327.814871 59.7623384,327.243919 C58.9698637,326.672965 58.3546624,325.982643 57.9167159,325.172929 C57.4787694,324.363214 57.2597994,323.449703 57.2597994,322.43237 C57.2597994,321.207417 57.5882544,320.138196 58.2451741,319.224671 C58.9020939,318.311148 59.8144689,317.605253 60.9823262,317.106967 L60.9823262,317.013539 C59.0845579,316.100016 58.1356881,314.667465 58.1356881,312.715845 C58.1356881,311.823084 58.3233766,311.013382 58.6987593,310.286715 C59.074142,309.560048 59.6111398,308.937199 60.3097689,308.418152 C61.0083978,307.899104 61.8582099,307.494253 62.8592304,307.203587 C63.8602511,306.912919 64.9759552,306.767589 66.2063764,306.767589 Z M33.7672144,306.736446 C35.2061815,306.736446 36.5095741,307.001156 37.6774315,307.530585 C38.8452889,308.060014 39.841081,308.807431 40.6648376,309.77286 C41.488594,310.738288 42.1246497,311.906129 42.5730235,313.276414 C43.0213973,314.6467 43.2455809,316.183059 43.2455809,317.885535 C43.2455809,319.588011 43.0161838,321.124369 42.5573827,322.494656 C42.0985815,323.864942 41.4520988,325.032781 40.6179149,325.99821 C39.7837311,326.963639 38.7827255,327.711057 37.6148681,328.240486 C36.4470107,328.769914 35.1540451,329.034625 33.7359326,329.034625 C32.3386746,329.034625 31.0613498,328.769914 29.9039198,328.240486 C28.7464897,327.711057 27.7506977,326.963639 26.9165138,325.99821 C26.08233,325.032781 25.4358471,323.864942 24.9770461,322.494656 C24.5182449,321.124369 24.2888478,319.588011 24.2888478,317.885535 C24.2888478,316.183059 24.5182449,314.6467 24.9770461,313.276414 C25.4358471,311.906129 26.08233,310.738288 26.9165138,309.77286 C27.7506977,308.807431 28.7464897,308.060014 29.9039198,307.530585 C31.0613498,307.001156 32.3491018,306.736446 33.7672144,306.736446 Z M54.6634152,307.01673 L54.6634152,328.536341 L49.3768014,328.536341 L49.3768014,314.895834 L44.778386,314.895834 L44.778386,311.345567 C46.2173532,311.304042 47.458183,310.935524 48.5009129,310.240001 C49.5436426,309.544477 50.2005525,308.470064 50.4716623,307.01673 L54.6634152,307.01673 Z M14.7166361,306.767589 C16.009621,306.767589 17.151393,306.944062 18.1419863,307.297015 C19.1325797,307.649966 19.9615374,308.137864 20.6288844,308.760722 C21.2962316,309.383579 21.801948,310.110235 22.1460488,310.940712 C22.4901496,311.771187 22.6621975,312.653555 22.6621975,313.587841 C22.6621975,314.33527 22.5683531,315.004831 22.3806619,315.596545 C22.1929705,316.18826 21.9322919,316.728062 21.5986183,317.215966 C21.2649448,317.703872 20.8843542,318.150246 20.4568349,318.555103 C20.0293157,318.959961 19.575735,319.349241 19.0960793,319.722954 C18.6164235,320.117431 18.1211343,320.49633 17.6101968,320.859663 C17.0992592,321.222997 16.5935428,321.581135 16.0930325,321.934087 C15.5925221,322.28704 15.1076601,322.650368 14.6384318,323.024082 C14.1692033,323.397796 13.7469041,323.781886 13.3715213,324.176362 L13.3715213,324.207505 L22.6934792,324.207505 L22.6934792,328.536341 L6.05159468,328.536341 C6.07244928,327.643579 6.18193426,326.839066 6.38005292,326.122781 C6.57817159,325.406495 6.8440637,324.752505 7.17773724,324.160791 C7.51141077,323.569076 7.90242859,323.024084 8.3508024,322.525798 C8.79917622,322.027512 9.29446545,321.560377 9.83668495,321.124376 C10.816851,320.2939 11.8699923,319.489388 12.9961405,318.710816 C14.1222886,317.932245 15.112867,317.169256 15.9679056,316.421827 C16.405852,316.027351 16.7499477,315.6225 17.0002029,315.207262 C17.2504581,314.792025 17.3755837,314.314508 17.3755837,313.774697 C17.3755837,312.944221 17.1409731,312.27466 16.6717446,311.765994 C16.2025163,311.257326 15.5091113,311.002997 14.5915091,311.002997 C13.5696339,311.002997 12.7980254,311.324802 12.2766605,311.968421 C11.9638415,312.321373 11.7292309,312.752176 11.5728214,313.260842 C11.4164119,313.76951 11.3277812,314.387167 11.3069266,315.113833 L6.36441206,315.113833 C6.36441206,313.86812 6.47911061,312.830039 6.70851117,311.999564 C6.93791173,311.169087 7.31328882,310.400908 7.83465373,309.695003 C8.43943702,308.823003 9.31531692,308.117108 10.4623197,307.577299 C11.6093225,307.037488 13.0274138,306.767589 14.7166361,306.767589 Z M66.2376581,318.913244 C65.1115099,318.913244 64.2043486,319.203906 63.5161469,319.78524 C62.8279453,320.366574 62.4838496,321.134753 62.4838496,322.0898 C62.4838496,323.024086 62.8227317,323.766313 63.5005061,324.316504 C64.1782805,324.866695 65.0802282,325.141786 66.2063764,325.141786 C67.3116699,325.141786 68.2031906,324.866695 68.880965,324.316504 C69.5587393,323.766313 69.8976215,323.024086 69.8976215,322.0898 C69.8976215,321.134753 69.5691665,320.366574 68.9122467,319.78524 C68.2553269,319.203906 67.3638063,318.913244 66.2376581,318.913244 Z M33.7672144,310.816141 C33.0373035,310.816141 32.4168886,310.987423 31.9059509,311.329996 C31.3950133,311.672567 30.9779277,312.155273 30.6546814,312.77813 C30.3314352,313.400989 30.0916109,314.148405 29.9352014,315.020405 C29.778792,315.892407 29.7005884,316.847439 29.7005884,317.885535 C29.7005884,318.92363 29.778792,319.873473 29.9352014,320.735093 C30.0916109,321.596712 30.3314352,322.338939 30.6546814,322.961796 C30.9779277,323.584653 31.3950133,324.067361 31.9059509,324.409932 C32.4168886,324.752503 33.0373035,324.923787 33.7672144,324.923787 C34.4971252,324.923787 35.1175402,324.752503 35.6284778,324.409932 C36.1394153,324.067361 36.5565011,323.589844 36.8797473,322.977368 C37.2029935,322.364891 37.4376042,321.627855 37.5835863,320.766235 C37.7295685,319.904616 37.8025585,318.944392 37.8025585,317.885535 C37.8025585,316.847439 37.7295685,315.897596 37.5835863,315.035977 C37.4376042,314.174358 37.1977799,313.432131 36.8641064,312.809273 C36.5304329,312.186416 36.1081336,311.698519 35.597196,311.345567 C35.0862584,310.992614 34.4762706,310.816141 33.7672144,310.816141 Z M66.1750947,310.380143 C65.174074,310.380143 64.397252,310.618901 63.8446052,311.096425 C63.2919584,311.573949 63.0156392,312.196796 63.0156392,312.964986 C63.0156392,313.733178 63.2919584,314.361216 63.8446052,314.84912 C64.397252,315.337026 65.174074,315.580974 66.1750947,315.580974 C67.1761152,315.580974 67.9581509,315.337026 68.521225,314.84912 C69.0842991,314.361216 69.3658319,313.733178 69.3658319,312.964986 C69.3658319,312.196796 69.0842991,311.573949 68.521225,311.096425 C67.9581509,310.618901 67.1761152,310.380143 66.1750947,310.380143 Z M15.4048342,278.968475 C16.6144009,278.968475 17.7457457,279.108616 18.7989028,279.388901 C19.8520599,279.669187 20.7696484,280.08961 21.5516957,280.650181 C22.3337431,281.210753 22.9593716,281.921837 23.4285999,282.783457 C23.8978284,283.645076 24.1637205,284.657203 24.2262843,285.819871 L18.8145437,285.819871 C18.7102707,284.947871 18.3453208,284.283499 17.7196829,283.826738 C17.0940449,283.369975 16.2598736,283.141598 15.2171438,283.141598 C14.2369778,283.141598 13.4549422,283.333642 12.8710135,283.717738 C12.2870848,284.101832 11.9951248,284.605301 11.9951248,285.22816 C11.9951248,285.622636 12.1046098,285.94963 12.3235831,286.209155 C12.5425564,286.468678 12.8605842,286.691865 13.2776761,286.878723 C13.694768,287.065579 14.2213387,287.236863 14.8574038,287.392578 C15.493469,287.548291 16.2285825,287.719575 17.0627663,287.906433 C18.1054962,288.155574 19.1012882,288.435856 20.0501724,288.747286 C20.9990565,289.058714 21.8384414,289.473946 22.5683523,289.992993 C23.2982631,290.512041 23.882183,291.166031 24.3201295,291.954983 C24.7580761,292.743937 24.9770461,293.730112 24.9770461,294.913541 C24.9770461,296.076208 24.7424354,297.109098 24.2732069,298.01224 C23.8039785,298.915383 23.1574958,299.673182 22.3337392,300.285658 C21.5099826,300.898135 20.5402585,301.36527 19.4245376,301.68708 C18.3088167,302.008889 17.1044818,302.169792 15.8114968,302.169792 C14.3308205,302.169792 12.9805057,302.008889 11.7605118,301.68708 C10.5405179,301.36527 9.49780379,300.887754 8.63233804,300.254516 C7.7668723,299.621277 7.08910809,298.832337 6.5990251,297.88767 C6.10894208,296.943002 5.85347711,295.858209 5.83262252,294.633256 L11.4007718,294.633256 C11.5258994,295.7544 11.9534122,296.564102 12.6833231,297.062388 C13.4132339,297.560674 14.445521,297.809813 15.7802152,297.809813 C16.2390162,297.809813 16.6821697,297.76829 17.109689,297.685242 C17.5372082,297.602194 17.9177989,297.467244 18.2514724,297.280387 C18.5851459,297.093529 18.8562516,296.849581 19.0647976,296.548533 C19.2733435,296.247485 19.3776149,295.889348 19.3776149,295.47411 C19.3776149,295.03811 19.26813,294.674782 19.0491567,294.384115 C18.8301835,294.093449 18.5121556,293.84431 18.0950636,293.63669 C17.6779718,293.429071 17.1670419,293.247407 16.5622585,293.091692 C15.9574752,292.935979 15.269284,292.764695 14.4976639,292.577838 C13.5174979,292.349457 12.5529873,292.089937 11.6041031,291.79927 C10.655219,291.508604 9.80540696,291.114133 9.05464151,290.615847 C8.30387604,290.117562 7.69388826,289.484333 7.22465985,288.716143 C6.75543143,287.947952 6.52082074,286.982537 6.52082074,285.819871 C6.52082074,284.636441 6.75021786,283.613934 7.20901897,282.752314 C7.6678201,281.890695 8.29344859,281.17961 9.08592325,280.619038 C9.87839789,280.058467 10.8168406,279.643235 11.9012796,279.37333 C12.9857186,279.103425 14.1535585,278.968475 15.4048342,278.968475 Z M77.3739568,278.937332 C78.6877963,278.937332 79.8817041,279.113805 80.9557157,279.466758 C82.0297274,279.819711 82.9629567,280.297227 83.7554312,280.899323 C84.7355973,281.62599 85.5019922,282.518738 86.0546389,283.577596 C86.6072859,284.636454 86.956595,285.788721 87.1025772,287.034437 L81.5657096,287.034437 C81.4197274,286.037864 80.9765739,285.20221 80.2362358,284.527449 C79.4958976,283.852687 78.531387,283.51531 77.3426751,283.51531 C76.4250729,283.51531 75.6326101,283.691784 74.965263,284.044737 C74.2979159,284.397688 73.7452774,284.890776 73.3073308,285.524015 C72.8693844,286.157253 72.5409294,286.904671 72.3219562,287.76629 C72.1029829,288.627909 71.9934979,289.567371 71.9934979,290.584704 C71.9934979,291.602039 72.1186236,292.541501 72.3688787,293.403119 C72.6191339,294.264739 72.9788703,295.006966 73.4480987,295.629823 C73.9173272,296.25268 74.4803927,296.740579 75.1373125,297.093531 C75.7942323,297.446484 76.5397729,297.622957 77.3739568,297.622957 C78.6252326,297.622957 79.6314518,297.2752 80.3926445,296.579676 C81.1538373,295.884152 81.5969908,294.996594 81.7221183,293.916974 L87.2589859,293.916974 C87.1755675,295.038117 86.8992482,296.086578 86.4300199,297.062388 C85.9607914,298.038198 85.3403766,298.889423 84.5687565,299.61609 C83.6928634,300.446567 82.6762172,301.074605 81.5187871,301.500224 C80.3613569,301.925843 78.9901879,302.138649 77.4052385,302.138649 C75.7577254,302.138649 74.256217,301.847987 72.9006682,301.266654 C71.5451196,300.68532 70.3824932,299.880809 69.4127546,298.853094 C68.4430158,297.825379 67.6922616,296.605636 67.1604694,295.193825 C66.6286772,293.782016 66.3627851,292.245658 66.3627851,290.584704 C66.3627851,288.923752 66.6234636,287.382203 67.1448285,285.960013 C67.6661935,284.537822 68.4065205,283.307697 69.3658319,282.269602 C70.3251433,281.231507 71.482556,280.416614 72.8381048,279.824899 C74.1936536,279.233185 75.705589,278.937332 77.3739568,278.937332 Z M37.3020507,279.37333 C38.678454,279.37333 39.8671482,279.549803 40.8681689,279.902756 C41.8691894,280.255709 42.7137879,280.764367 43.4019895,281.428749 C44.1319005,282.09313 44.6897526,282.892451 45.0755625,283.826738 C45.4613725,284.761023 45.6542747,285.788723 45.6542747,286.909866 C45.6542747,287.968722 45.4770133,288.944518 45.1224851,289.837279 C44.767957,290.730041 44.2622406,291.49822 43.6053208,292.14184 C42.9484011,292.785459 42.1507247,293.288928 41.2122679,293.652261 C40.273811,294.015595 39.2310969,294.197259 38.0840941,294.197259 L32.8600439,294.197259 L32.8600439,301.640366 L27.2293311,301.640366 L27.2293311,279.37333 L37.3020507,279.37333 Z M64.5797261,279.37333 L64.5797261,283.920166 L53.1618917,283.920166 L53.1618917,287.906433 L62.9530756,287.906433 L62.9530756,292.204125 L53.1618917,292.204125 L53.1618917,296.96896 L64.7674164,296.96896 L64.7674164,301.640366 L47.6250242,301.640366 L47.6250242,279.37333 L64.5797261,279.37333 Z M94.7978847,279.37333 L94.7978847,301.640366 L89.2610172,301.640366 L89.2610172,279.37333 L94.7978847,279.37333 Z M125.203734,279.37333 L125.203734,296.96896 L135.245172,296.96896 L135.245172,301.640366 L119.666866,301.640366 L119.666866,279.37333 L125.203734,279.37333 Z M110.032091,279.37333 L118.102779,301.640366 L112.284376,301.640366 L110.970543,297.622957 L103.150109,297.622957 L101.867557,301.640366 L96.2994081,301.640366 L104.338815,279.37333 L110.032091,279.37333 Z M107.122889,285.134731 L107.060326,285.134731 C106.956053,285.529208 106.851782,285.913296 106.747509,286.287012 C106.643236,286.619201 106.544178,286.961768 106.450332,287.314721 C106.356486,287.667673 106.257429,287.989477 106.153155,288.280145 L104.43266,293.667832 L109.687992,293.667832 L107.998778,288.280145 C107.894505,287.989477 107.790234,287.667673 107.685961,287.314721 C107.581688,286.961768 107.487843,286.619201 107.404425,286.287012 C107.300152,285.913296 107.206308,285.529208 107.122889,285.134731 Z M36.9579516,284.013594 L32.8600439,284.013594 L32.8600439,289.837279 L36.9579516,289.837279 C37.9589722,289.837279 38.7305807,289.567379 39.2728002,289.02757 C39.8150197,288.487759 40.0861253,287.771484 40.0861253,286.878723 C40.0861253,285.985961 39.8150197,285.285257 39.2728002,284.77659 C38.7305807,284.267924 37.9589722,284.013594 36.9579516,284.013594 Z M19.0647976,252.477355 L27.1354859,274.744391 L21.3170828,274.744391 L20.0032497,270.726981 L12.1828153,270.726981 L10.900264,274.744391 L5.33211471,274.744391 L13.3715213,252.477355 L19.0647976,252.477355 Z M32.7661987,252.477355 L35.0184839,261.820168 C35.1436114,262.359977 35.2635236,262.946492 35.3782238,263.579731 C35.4929242,264.212968 35.6024092,264.809865 35.7066821,265.370437 C35.810955,266.034817 35.9256536,266.688807 36.0507812,267.332426 L36.1133446,267.332426 C36.2176177,266.751094 36.3323163,266.149007 36.4574438,265.52615 C36.5617167,265.007102 36.6816289,264.436158 36.8171837,263.813301 C36.9527387,263.190443 37.0830779,262.598738 37.2082055,262.038167 L39.304082,252.477355 L44.434287,252.477355 L46.5301634,261.975881 C46.6552909,262.557214 46.7804167,263.154111 46.9055442,263.766587 C47.0306717,264.379062 47.1453703,264.955197 47.2496434,265.495008 C47.3539163,266.117865 47.4686148,266.730331 47.5937424,267.332426 L47.6563059,267.332426 C47.7814335,266.688807 47.9065592,266.034817 48.0316867,265.370437 C48.1359598,264.809865 48.2558718,264.207779 48.3914268,263.56416 C48.5269816,262.92054 48.6573209,262.318454 48.7824485,261.757882 L51.0034519,252.477355 L56.5716011,252.477355 L50.4403805,274.744391 L45.0286399,274.744391 L42.6825096,264.062443 C42.5782366,263.626442 42.4843924,263.164497 42.400974,262.676592 C42.3175555,262.188687 42.2341384,261.737123 42.15072,261.321884 C42.0673017,260.844361 41.9838845,260.377224 41.9004662,259.920463 L41.8379026,259.920463 C41.7544843,260.377224 41.6710671,260.844361 41.5876488,261.321884 C41.5042304,261.737123 41.4260269,262.188687 41.3530357,262.676592 C41.2800446,263.164497 41.191414,263.626442 41.087141,264.062443 L38.7410106,274.744391 L33.2979883,274.744391 L27.1667677,252.477355 L32.7661987,252.477355 Z M110.438754,252.477355 C111.981994,252.477355 113.389658,252.747256 114.661788,253.287065 C115.933919,253.826875 117.023555,254.584673 117.93073,255.560483 C118.837905,256.536293 119.541737,257.719704 120.042247,259.110752 C120.542757,260.501799 120.793009,262.048539 120.793009,263.751016 C120.793009,265.723397 120.45934,267.472561 119.791993,268.998561 C119.124646,270.524562 118.165349,271.765067 116.914073,272.720115 C116.03818,273.384496 115.037175,273.887965 113.911026,274.230536 C112.784878,274.573107 111.512767,274.744391 110.094655,274.744391 L100.897824,274.744391 L100.897824,252.477355 L110.438754,252.477355 Z M90.6061319,252.477355 C91.7114254,252.477355 92.7437124,252.617496 93.7030238,252.897782 C94.6623353,253.178067 95.491293,253.588109 96.1899221,254.127919 C96.888551,254.667728 97.435976,255.337289 97.8322133,256.136623 C98.2284506,256.935956 98.4265663,257.854658 98.4265663,258.892753 C98.4265663,260.200752 98.1085385,261.311499 97.4724733,262.225023 C96.8364082,263.138546 95.8614703,263.823679 94.5476308,264.280442 L94.5476308,264.37387 C95.5277968,264.706059 96.2733375,265.188767 96.7842751,265.822006 C97.2952127,266.455243 97.6340948,267.332421 97.8009315,268.453564 C97.9260591,269.180231 98.0042627,269.891315 98.0355446,270.586839 C98.0668265,271.282363 98.1033215,271.905212 98.1450307,272.455402 C98.1867399,273.005593 98.2493026,273.462348 98.3327211,273.825681 C98.4161395,274.189015 98.5516923,274.401821 98.7393837,274.464107 L98.7393837,274.744391 L93.3589248,274.744391 C93.2129426,274.661343 93.1034576,274.448537 93.0304666,274.105965 C92.9574754,273.763394 92.8949126,273.348163 92.8427762,272.860257 C92.7906396,272.372353 92.7437175,271.842932 92.7020083,271.271979 C92.6602991,270.701027 92.5977362,270.135273 92.5143179,269.574701 C92.3683356,268.536606 92.0085993,267.747666 91.4350979,267.207855 C90.8615965,266.668046 89.9805031,266.398145 88.791791,266.398145 L85.4446451,266.398145 L85.4446451,274.744391 L79.9077775,274.744391 L79.9077775,252.477355 L90.6061319,252.477355 Z M70.2730022,252.477355 L78.3436906,274.744391 L72.5252874,274.744391 L71.2114544,270.726981 L63.39102,270.726981 L62.1084688,274.744391 L56.5403195,274.744391 L64.5797261,252.477355 L70.2730022,252.477355 Z M109.750555,257.086476 L106.434691,257.086476 L106.434691,270.104127 L109.687992,270.104127 C111.523196,270.104127 112.899579,269.559135 113.817181,268.469135 C114.734784,267.379136 115.193578,265.806444 115.193578,263.751016 C115.193578,261.716348 114.724356,260.096944 113.7859,258.892753 C112.847443,257.688562 111.502341,257.086476 109.750555,257.086476 Z M67.3638007,258.238756 L67.3012372,258.238756 C67.1969642,258.633232 67.0926928,259.017321 66.9884199,259.391036 C66.8841468,259.723227 66.785089,260.065793 66.6912434,260.418746 C66.5973976,260.771698 66.4983398,261.093502 66.3940669,261.38417 L64.6735713,266.771857 L69.9289032,266.771857 L68.2396894,261.38417 C68.1354163,261.093502 68.0311449,260.771698 67.926872,260.418746 C67.8225989,260.065793 67.7287547,259.723227 67.6453364,259.391036 C67.5410633,259.017321 67.4472191,258.633232 67.3638007,258.238756 Z M16.155596,258.238756 L16.0930325,258.238756 C15.9887595,258.633232 15.8844881,259.017321 15.7802152,259.391036 C15.6759421,259.723227 15.5768843,260.065793 15.4830385,260.418746 C15.3891929,260.771698 15.2901351,261.093502 15.1858621,261.38417 L13.4653665,266.771857 L18.7206985,266.771857 L17.0314847,261.38417 C16.9272116,261.093502 16.8229402,260.771698 16.7186673,260.418746 C16.6143942,260.065793 16.52055,259.723227 16.4371316,259.391036 C16.3328586,259.017321 16.2390144,258.633232 16.155596,258.238756 Z M89.7302432,256.837334 L85.4446451,256.837334 L85.4446451,262.318451 L89.6051163,262.318451 C90.7104099,262.318451 91.5393676,262.079693 92.0920144,261.602169 C92.6446612,261.124645 92.9209805,260.460273 92.9209805,259.609035 C92.9209805,258.799321 92.6550884,258.134949 92.1232961,257.615902 C91.5915039,257.096854 90.7938277,256.837334 89.7302432,256.837334 Z M57.1033907,225.176525 C58.3129573,225.176525 59.4443022,225.316665 60.4974593,225.596951 C61.5506163,225.877237 62.4682049,226.297659 63.2502522,226.858231 C64.0322995,227.418802 64.657928,228.129887 65.1271565,228.991507 C65.5963848,229.853126 65.8622769,230.865253 65.9248408,232.027921 L60.5131002,232.027921 C60.4088271,231.155921 60.0438772,230.491549 59.4182393,230.034787 C58.7926015,229.578026 57.9584301,229.349648 56.9157003,229.349648 C55.9355342,229.349648 55.1534986,229.541692 54.56957,229.925788 C53.9856413,230.309884 53.6936813,230.813352 53.6936813,231.436209 C53.6936813,231.830685 53.8031663,232.157681 54.0221396,232.417205 C54.2411128,232.676728 54.5591406,232.899915 54.9762326,233.086773 C55.3933245,233.27363 55.9198951,233.444913 56.5559604,233.600628 C57.1920255,233.756341 57.927139,233.927625 58.7613229,234.114482 C59.8040526,234.363625 60.7998446,234.643907 61.7487288,234.955335 C62.6976129,235.266764 63.5369978,235.681995 64.2669087,236.201044 C64.9968195,236.720091 65.5807394,237.374082 66.018686,238.163035 C66.4566325,238.951987 66.6756025,239.938162 66.6756025,241.121592 C66.6756025,242.284258 66.4409918,243.317147 65.9717634,244.22029 C65.5025349,245.123434 64.8560522,245.881231 64.0322956,246.493708 C63.2085391,247.106184 62.2388149,247.573321 61.123094,247.89513 C60.0073731,248.21694 58.8030383,248.377842 57.5100534,248.377842 C56.0293769,248.377842 54.6790622,248.21694 53.4590682,247.89513 C52.2390744,247.573321 51.1963603,247.095804 50.3308945,246.462565 C49.4654288,245.829328 48.7876645,245.040387 48.2975816,244.095719 C47.8074985,243.151053 47.5520336,242.066259 47.531179,240.841308 L53.0993283,240.841308 C53.2244558,241.962451 53.6519686,242.772153 54.3818795,243.270438 C55.1117905,243.768724 56.1440774,244.017863 57.4787716,244.017863 C57.9375726,244.017863 58.3807261,243.976339 58.8082454,243.893292 C59.2357647,243.810244 59.6163553,243.675294 59.9500288,243.488436 C60.2837023,243.30158 60.5548081,243.057631 60.763354,242.756584 C60.9719,242.455536 61.0761714,242.097398 61.0761714,241.682161 C61.0761714,241.24616 60.9666864,240.882832 60.7477132,240.592166 C60.5287399,240.301498 60.210712,240.052359 59.7936202,239.844741 C59.3765282,239.637121 58.8655983,239.455457 58.260815,239.299743 C57.6560318,239.144028 56.9678404,238.972745 56.1962203,238.785889 C55.2160543,238.557508 54.2515437,238.297987 53.3026596,238.007321 C52.3537755,237.716653 51.5039634,237.322184 50.7531979,236.823898 C50.0024325,236.325612 49.3924447,235.692383 48.9232163,234.924193 C48.4539879,234.156001 48.2193771,233.190587 48.2193771,232.027921 C48.2193771,230.844492 48.4487743,229.821983 48.9075754,228.960364 C49.3663765,228.098744 49.992005,227.38766 50.7844797,226.827088 C51.5769544,226.266517 52.5153971,225.851285 53.5998361,225.58138 C54.6842751,225.311476 55.8521149,225.176525 57.1033907,225.176525 Z M87.6656485,225.145382 C89.1046156,225.145382 90.3975812,225.327046 91.544584,225.690379 C92.6915868,226.053713 93.6821652,226.572753 94.5163491,227.247515 C95.3505329,227.922277 96.0230836,228.73717 96.5340211,229.692217 C97.0449588,230.647265 97.394268,231.706106 97.5819593,232.868774 L92.2015005,232.868774 C91.9929545,231.955249 91.5237331,231.197452 90.7938223,230.595356 C90.0639114,229.993261 89.0837601,229.692217 87.8533389,229.692217 C86.9357367,229.692217 86.1276333,229.873881 85.4290042,230.237215 C84.7303753,230.600548 84.151669,231.098826 83.6928678,231.732065 C83.2340668,232.365304 82.8899711,233.11272 82.6605705,233.97434 C82.4311699,234.83596 82.3164713,235.775421 82.3164713,236.792755 C82.3164713,237.810088 82.4468106,238.754742 82.707493,239.626742 C82.9681755,240.498742 83.338339,241.25135 83.8179948,241.884588 C84.2976504,242.517826 84.886784,243.010914 85.5854129,243.363866 C86.2840419,243.716819 87.0712911,243.893292 87.9471841,243.893292 C88.6770949,243.893292 89.3287914,243.784294 89.9022928,243.566293 C90.4757942,243.348294 90.9658698,243.057631 91.3725345,242.694299 C91.779199,242.330965 92.1024405,241.915732 92.3422683,241.44859 C92.5820961,240.981447 92.7332897,240.498739 92.7958535,240.000454 L92.7958535,239.938169 L88.6041006,239.938169 L88.6041006,235.889617 L97.9260585,235.889617 L97.9260585,247.848416 L94.047123,247.848416 L93.7343056,245.170143 L93.6717422,245.170143 C92.9418314,246.312048 92.0398836,247.126941 90.9658719,247.614846 C89.8918601,248.102751 88.6770981,248.346699 87.3215493,248.346699 C85.7157455,248.346699 84.2768,248.076799 83.0046696,247.536989 C81.7325391,246.997179 80.6272622,246.229 79.6888053,245.232428 C78.7086394,244.173572 77.9630987,242.927876 77.4521612,241.495304 C76.9412236,240.062732 76.6857585,238.495232 76.6857585,236.792755 C76.6857585,235.027993 76.972505,233.403398 77.5460064,231.918921 C78.1195078,230.434445 78.9380383,229.162797 80.0016227,228.103939 C80.9400795,227.169654 82.0453565,226.442998 83.317487,225.92395 C84.5896173,225.404903 86.03899,225.145382 87.6656485,225.145382 Z M106.184437,225.58138 L112.816166,236.761613 C112.899584,236.927708 113.029923,237.166466 113.207187,237.477895 C113.384451,237.789323 113.556499,238.100748 113.723336,238.412176 C113.931882,238.78589 114.140425,239.180361 114.348971,239.595599 L114.411534,239.595599 C114.39068,239.097313 114.380253,238.619796 114.380253,238.163035 C114.359398,237.768558 114.348971,237.384468 114.348971,237.010754 L114.348971,225.58138 L119.760711,225.58138 L119.760711,247.848416 L114.192562,247.848416 L107.623397,236.823898 C107.519124,236.678565 107.378358,236.444996 107.201094,236.123187 C107.02383,235.801377 106.851782,235.464001 106.684945,235.111049 C106.476399,234.716573 106.257429,234.290959 106.028029,233.834198 L105.965465,233.834198 C105.965465,234.374007 105.975892,234.882667 105.996747,235.360191 C105.996747,235.775429 106.00196,236.18547 106.012388,236.590328 C106.02073,236.914213 106.025735,237.168335 106.027403,237.352701 L106.028029,247.848416 L100.616288,247.848416 L100.616288,225.58138 L106.184437,225.58138 Z M74.4960369,225.58138 L74.4960369,247.848416 L68.9591693,247.848416 L68.9591693,225.58138 L74.4960369,225.58138 Z M45.9045287,225.58138 L45.9045287,230.128215 L34.4866943,230.128215 L34.4866943,234.114482 L44.2778782,234.114482 L44.2778782,238.412176 L34.4866943,238.412176 L34.4866943,243.177009 L46.0922191,243.177009 L46.0922191,247.848416 L28.9498268,247.848416 L28.9498268,225.58138 L45.9045287,225.58138 Z M16.4371316,225.58138 C17.9803717,225.58138 19.3880359,225.851281 20.6601662,226.39109 C21.9322966,226.9309 23.0219329,227.688698 23.9291079,228.664508 C24.8362828,229.640318 25.5401148,230.823729 26.040625,232.214777 C26.5411354,233.605825 26.7913868,235.152564 26.7913868,236.855041 C26.7913868,238.827422 26.4577182,240.576586 25.7903712,242.102587 C25.1230241,243.628587 24.1637271,244.869092 22.9124513,245.82414 C22.0365583,246.488521 21.0355527,246.99199 19.9094045,247.334561 C18.7832563,247.677134 17.511145,247.848416 16.0930325,247.848416 L6.8962016,247.848416 L6.8962016,225.58138 L16.4371316,225.58138 Z M15.7489334,230.190501 L12.4330692,230.190501 L12.4330692,243.208152 L15.68637,243.208152 C17.5215744,243.208152 18.8979571,242.66316 19.8155593,241.573161 C20.7331615,240.483161 21.1919558,238.910469 21.1919558,236.855041 C21.1919558,234.820373 20.7227343,233.200969 19.7842775,231.996778 C18.8458207,230.792587 17.5007195,230.190501 15.7489334,230.190501 Z M17.0002029,198.249407 C18.43917,198.249407 19.7321356,198.431071 20.8791384,198.794404 C22.0261412,199.157738 23.0167196,199.676778 23.8509034,200.35154 C24.6850873,201.026302 25.357638,201.841195 25.8685755,202.796242 C26.3795131,203.75129 26.7288224,204.810132 26.9165138,205.972799 L21.5360549,205.972799 C21.327509,205.059274 20.8582875,204.301477 20.1283767,203.699381 C19.3984658,203.097286 18.4183146,202.796242 17.1878933,202.796242 C16.2702911,202.796242 15.4621877,202.977906 14.7635586,203.34124 C14.0649297,203.704573 13.4862233,204.202852 13.0274222,204.83609 C12.5686211,205.469329 12.2245254,206.216745 11.9951248,207.078365 C11.7657243,207.939984 11.6510257,208.879447 11.6510257,209.89678 C11.6510257,210.914113 11.781365,211.858767 12.0420475,212.730767 C12.3027299,213.602767 12.6728934,214.355374 13.1525492,214.988613 C13.6322049,215.621851 14.2213384,216.114939 14.9199674,216.467892 C15.6185963,216.820843 16.4058455,216.997318 17.2817385,216.997318 C18.0116493,216.997318 18.6633458,216.888318 19.2368472,216.670319 C19.8103486,216.452319 20.3004242,216.161657 20.7070889,215.798324 C21.1137534,215.43499 21.4369949,215.019757 21.6768227,214.552615 C21.9166506,214.085472 22.0678441,213.602765 22.1304079,213.104479 L22.1304079,213.042194 L17.938655,213.042194 L17.938655,208.993642 L27.2606129,208.993642 L27.2606129,220.952441 L23.3816774,220.952441 L23.06886,218.274169 L23.0062966,218.274169 C22.2763856,219.416073 21.374438,220.230966 20.3004262,220.71887 C19.2264145,221.206776 18.0116525,221.450724 16.6561037,221.450724 C15.0502999,221.450724 13.6113543,221.180824 12.339224,220.641014 C11.0670936,220.101204 9.96181659,219.333025 9.02335977,218.336454 C8.04319375,217.277597 7.29765312,216.031901 6.78671552,214.599329 C6.27577791,213.166758 6.02031294,211.599257 6.02031294,209.89678 C6.02031294,208.132018 6.30705933,206.507423 6.88056073,205.022946 C7.45406212,203.53847 8.27259274,202.266822 9.33617715,201.207964 C10.274634,200.273679 11.379911,199.547023 12.6520414,199.027974 C13.9241717,198.508927 15.3735444,198.249407 17.0002029,198.249407 Z M78.0308732,198.685405 L80.7523844,208.433073 C80.8566575,208.786026 80.9765695,209.247971 81.1121245,209.818923 C81.2476793,210.389875 81.3884457,210.945249 81.5344279,211.485058 C81.7012647,212.128678 81.868099,212.80343 82.0349357,213.509334 L82.0974991,213.509334 C82.2434814,212.80343 82.3998885,212.128678 82.5667253,211.485058 C82.6918528,210.945249 82.8274057,210.389875 82.9733878,209.818923 C83.11937,209.247971 83.2444957,208.786026 83.3487686,208.433073 L86.1015616,198.685405 L93.6091786,198.685405 L93.6091786,220.952441 L88.5415372,220.952441 L88.5415372,208.666643 C88.5415372,208.178739 88.5519644,207.685651 88.5728188,207.187364 C88.5936735,206.606031 88.6145278,205.972803 88.6353824,205.287659 L88.5728188,205.287659 C88.4059821,205.931278 88.2600022,206.522984 88.1348746,207.062794 C88.0306016,207.540317 87.9211166,208.002263 87.8064164,208.448644 C87.691716,208.895025 87.6030854,209.222021 87.5405215,209.429639 L84.3185026,220.952441 L79.7513689,220.952441 L76.5606316,209.460782 C76.4980679,209.253164 76.4042235,208.920977 76.279096,208.464215 C76.1539684,208.007454 76.0392699,207.540317 75.9349968,207.062794 C75.8098693,206.522984 75.6743164,205.931278 75.5283342,205.287659 L75.4657708,205.287659 C75.4657708,205.972803 75.476198,206.606031 75.4970525,207.187364 C75.5179071,207.685651 75.5335478,208.183928 75.5439751,208.682214 C75.5544024,209.180501 75.559616,209.543828 75.559616,209.772209 L75.559616,220.952441 L70.5858196,220.952441 L70.5858196,198.685405 L78.0308732,198.685405 Z M46.9055442,198.685405 L46.9055442,203.23224 L35.4877099,203.23224 L35.4877099,207.218507 L45.2788938,207.218507 L45.2788938,211.516201 L35.4877099,211.516201 L35.4877099,216.281036 L47.0932346,216.281036 L47.0932346,220.952441 L29.9508423,220.952441 L29.9508423,198.685405 L46.9055442,198.685405 Z M60.294128,198.685405 C61.3994216,198.685405 62.4317085,198.825545 63.39102,199.105831 C64.3503314,199.386117 65.1792892,199.796159 65.8779181,200.335968 C66.5765472,200.875779 67.1239721,201.54534 67.5202094,202.344673 C67.9164468,203.144007 68.1145624,204.062707 68.1145624,205.100803 C68.1145624,206.408804 67.7965346,207.519548 67.1604694,208.433073 C66.5244043,209.346597 65.5494665,210.03173 64.2356269,210.488492 L64.2356269,210.58192 C65.2157929,210.91411 65.9613336,211.396817 66.4722712,212.030056 C66.9832088,212.663293 67.3220909,213.540472 67.4889276,214.661615 C67.6140552,215.388282 67.6922588,216.099366 67.7235407,216.79489 C67.7548226,217.490413 67.7913176,218.113262 67.8330268,218.663453 C67.874736,219.213643 67.9372987,219.670399 68.0207172,220.033731 C68.1041356,220.397064 68.2396884,220.609871 68.4273798,220.672156 L68.4273798,220.952441 L63.0469209,220.952441 C62.9009387,220.869393 62.7914537,220.656588 62.7184627,220.314015 C62.6454715,219.971444 62.5829087,219.556212 62.5307721,219.068308 C62.4786358,218.580402 62.4317136,218.050982 62.3900044,217.48003 C62.3482952,216.909077 62.2857323,216.343324 62.202314,215.782752 C62.0563317,214.744657 61.6965954,213.955716 61.123094,213.415906 C60.5495926,212.876097 59.6684992,212.606196 58.4797871,212.606196 L55.1326412,212.606196 L55.1326412,220.952441 L49.5957736,220.952441 L49.5957736,198.685405 L60.294128,198.685405 Z M124.04631,198.685405 L130.678038,209.865637 C130.761456,210.031733 130.891796,210.270491 131.06906,210.58192 C131.246324,210.893348 131.418372,211.204773 131.585208,211.516201 C131.793754,211.889915 132.002297,212.284386 132.210843,212.699624 L132.273407,212.699624 C132.252552,212.201338 132.242125,211.723821 132.242125,211.267059 C132.22127,210.872583 132.210843,210.488493 132.210843,210.114779 L132.210843,198.685405 L137.622584,198.685405 L137.622584,220.952441 L132.054434,220.952441 L125.485269,209.927923 C125.380996,209.78259 125.24023,209.549021 125.062966,209.227212 C124.885702,208.905402 124.713654,208.568027 124.546817,208.215074 C124.338271,207.820598 124.119301,207.394984 123.889901,206.938223 L123.827337,206.938223 C123.827337,207.478032 123.837765,207.986692 123.858619,208.464215 C123.858619,208.879454 123.863833,209.289495 123.87426,209.694353 C123.884687,210.099209 123.889901,210.395062 123.889901,210.58192 L123.889901,220.952441 L118.47816,220.952441 L118.47816,198.685405 L124.04631,198.685405 Z M108.843385,198.685405 L116.914073,220.952441 L111.09567,220.952441 L109.781837,216.935033 L101.961403,216.935033 L100.678851,220.952441 L95.1107021,220.952441 L103.150109,198.685405 L108.843385,198.685405 Z M105.934183,204.446806 L105.87162,204.446806 C105.767347,204.841282 105.663075,205.225372 105.558803,205.599086 C105.454529,205.931277 105.355472,206.273843 105.261626,206.626796 C105.16778,206.979749 105.068722,207.301553 104.96445,207.59222 L103.243954,212.979908 L108.499286,212.979908 L106.810072,207.59222 C106.705799,207.301553 106.601528,206.979749 106.497255,206.626796 C106.392982,206.273843 106.299137,205.931277 106.215719,205.599086 C106.111446,205.225372 106.017602,204.841282 105.934183,204.446806 Z M59.4182393,203.045384 L55.1326412,203.045384 L55.1326412,208.526501 L59.2931123,208.526501 C60.398406,208.526501 61.2273638,208.287742 61.7800106,207.810219 C62.3326573,207.332695 62.6089766,206.668323 62.6089766,205.817085 C62.6089766,205.007371 62.3430845,204.343 61.8112922,203.823952 C61.2795,203.304905 60.4818238,203.045384 59.4182393,203.045384 Z M55.5262727,0 C55.5262727,8.42432227 62.7114434,15.3742641 71.7169428,15.3742641 C80.7224423,15.3742641 87.9076129,8.42432227 87.9076129,0 L103.302021,0 C103.302021,14.2868747 93.3837865,26.2291176 79.9822627,29.7695245 L79.982573,40.6287793 C115.973541,44.5901273 143.967097,74.9679354 143.967097,111.85493 C143.967097,151.433656 111.738965,183.518551 71.9835486,183.518551 C32.2281325,183.518551 0,151.433656 0,111.85493 C0,74.9679354 27.9935565,44.5901273 63.9845243,40.6287793 L63.9852788,29.9056015 C50.3142396,26.5446608 40.1318651,14.4758672 40.1318651,0 L55.5262727,0 Z M71.9835486,56.1165576 C43.7783291,56.1165576 20.4444573,76.8805789 16.5633707,103.89199 L38.5264867,103.891493 C42.1319935,88.8221979 55.7432132,77.6156441 71.9835486,77.6156441 L71.9835486,93.0100517 C61.5293466,93.0100517 53.0545413,101.447191 53.0545413,111.85493 C53.0545413,122.262669 61.5293466,130.699808 71.9835486,130.699808 L71.9835486,146.094215 C55.7429638,146.094215 42.1315757,134.887318 38.5263207,119.817673 L16.5633707,119.81787 C20.4444573,146.829282 43.7783291,167.593302 71.9835486,167.593302 C102.904428,167.593302 127.970753,142.638384 127.970753,111.85493 C127.970753,81.0714769 102.904428,56.1165576 71.9835486,56.1165576 Z"/></svg>