<?xml version="1.0" encoding="UTF-8"?>
<svg width="1225px" height="1095px" viewBox="0 0 1225 1095" version="1.1" xmlns="http://www.w3.org/2000/svg" xmlns:xlink="http://www.w3.org/1999/xlink">
    <title>Artboard Copy 2</title>
    <g id="Artboard-Copy-2" stroke="none" stroke-width="1" fill="none" fill-rule="evenodd">
        <g id="mju_camera" transform="translate(30.000000, 206.000000)" stroke="#000000" stroke-width="10">
            <path d="M816.086579,25 L816.086579,658 L411.619348,658 L411.619348,25 L816.086579,25 Z" id="Rectangle-Copy-2"></path>
            <path d="M393.317839,5 C398.288402,5 402.788402,7.01471863 406.045761,10.2720779 C409.303121,13.5294373 411.317839,18.0294373 411.317839,23 L411.317839,660 C411.317839,664.970563 409.303121,669.470563 406.045761,672.727922 C402.788402,675.985281 398.288402,678 393.317839,678 L100,678 C73.7664744,678 50.0164744,667.366763 32.8248558,650.175144 C15.6332372,632.983526 5,609.233526 5,583 L5,100 C5,73.7664744 15.6332372,50.0164744 32.8248558,32.8248558 C50.0164744,15.6332372 73.7664744,5 100,5 Z" id="Rectangle"></path>
            <path d="M1154.23013,5 C1155.61084,5 1156.86084,5.55964406 1157.76566,6.46446609 C1158.67049,7.36928813 1159.23013,8.61928813 1159.23013,10 L1159.23013,673 C1159.23013,674.380712 1158.67049,675.630712 1157.76566,676.535534 C1156.86084,677.440356 1155.61084,678 1154.23013,678 L911.426321,678 C885.192795,678 861.442795,667.366763 844.251177,650.175144 C827.059558,632.983526 816.426321,609.233526 816.426321,583 L816.426321,100 C816.426321,73.7664744 827.059558,50.0164744 844.251177,32.8248558 C861.442795,15.6332372 885.192795,5 911.426321,5 Z" id="Rectangle-Copy" transform="translate(987.828225, 341.500000) scale(-1, 1) translate(-987.828225, -341.500000) "></path>
            <g id="Group" transform="translate(810.426321, 8.764611)">
                <path d="M240.602852,37.0796947 C241.979202,36.9700255 243.269705,37.4286144 244.243538,38.2587081 C245.21737,39.0888017 245.874533,40.2904001 245.984202,41.6667496 L246,623.406881 C246,624.787593 245.440356,626.037593 244.535534,626.942415 C243.630712,627.847237 242.380712,628.406881 241,628.406881 L43.6639601,612.698741 C32.747429,611.828898 23.081439,606.837639 16.1445817,599.326058 C9.20772447,591.814476 5,581.782573 5,570.831441 L5,94.6393371 C5,83.6882057 9.20772447,73.6563022 16.1445817,66.1447207 C23.081439,58.6331393 32.747429,53.6418799 43.6639601,52.7720368 Z" id="Rectangle-Copy-3" transform="translate(125.500000, 332.735389) scale(-1, 1) translate(-125.500000, -332.735389) "></path>
                <path d="M251,0 C247.82414,33.0322527 221.143204,49.548379 170.957193,49.548379" id="Path"></path>
                <path d="M251,616.268513 C247.82414,649.300766 221.143204,665.816892 170.957193,665.816892" id="Path-Copy" transform="translate(210.978596, 641.042703) scale(1, -1) translate(-210.978596, -641.042703) "></path>
            </g>
            <g id="Group-Copy" transform="translate(226.816526, 341.839033) scale(-1, 1) translate(-226.816526, -341.839033) translate(37.315212, 29.840125)">
                <path d="M353.617125,15.7321162 C354.995757,15.6563447 356.274585,16.1465471 357.227699,17.0003502 C358.180813,17.8541534 358.808212,19.0715572 358.883984,20.4501884 L358.891518,602.595168 C358.891518,603.97588 358.331874,605.22588 357.427052,606.130702 C356.52223,607.035524 355.27223,607.595168 353.891518,607.595168 L44.6950984,590.608835 C33.5616901,589.996927 23.6379155,585.087856 16.497493,577.544209 C9.35707046,570.000562 5,559.822339 5,548.672128 L5,74.6476215 C5,63.4974103 9.35707046,53.3191874 16.497493,45.7755404 C23.6379155,38.2318934 33.5616901,33.3228222 44.6950984,32.7109141 Z" id="Rectangle-Copy-3" transform="translate(181.945759, 311.659875) scale(-1, 1) translate(-181.945759, -311.659875) "></path>
                <path d="M378.859923,0 C368.600947,23.6485764 343.654162,31.9769771 303.905663,31.9769771" id="Path"></path>
                <path d="M379.002627,591.585386 C368.834063,615.455263 343.626377,623.997815 303.69233,623.997815" id="Path-Copy" transform="translate(341.347479, 607.791600) scale(1, -1) translate(-341.347479, -607.791600) "></path>
            </g>
            <circle id="Oval" cx="613.5" cy="341.5" r="140.5"></circle>
            <circle id="Oval-Copy-2" cx="613.5" cy="341.5" r="62.5"></circle>
            <rect id="Rectangle" fill="#FFFFFF" x="449" y="65" width="193" height="25" rx="12.5"></rect>
        </g>
        <line x1="446.317839" y1="822.057814" x2="841.426321" y2="822.057814" id="Path-4" stroke="#000000" stroke-width="10"></line>
    </g>
</svg>