<?xml version="1.0" encoding="UTF-8"?>
<svg width="1225px" height="1095px" viewBox="0 0 1225 1095" version="1.1" xmlns="http://www.w3.org/2000/svg" xmlns:xlink="http://www.w3.org/1999/xlink">
    <title>Artboard</title>
    <g id="Artboard" stroke="none" stroke-width="1" fill="none" fill-rule="evenodd">
        <g id="f100_camera" transform="translate(86.034928, 63.843933)" stroke="#000000" stroke-width="10">
            <path d="M320.018978,156.037423 L411.708646,156.037423 L449.676142,39.9678469 C457.474991,16.1261627 479.717015,9.89055802e-14 504.80183,0 L717.562471,0 C742.647116,-1.88188294e-14 764.88903,16.1259483 772.688015,39.9674095 L810.656674,156.037423 L810.656674,156.037423 L1023.96575,156.037423 C1039.98201,156.037423 1052.96575,169.021165 1052.96575,185.037423 L1052.96575,716.156067 L1052.96575,716.156067 L990.553821,716.156067 C968.009161,716.156067 947.646166,729.627409 938.827868,750.375887 C930.009569,771.124364 909.646574,784.595706 887.101914,784.595706 L286.35581,784.595706 L240.770581,784.595706 L0,784.595706 L0,784.595706 L0,298.779498 C-1.16411557e-13,276.530476 7.41983586,254.916847 21.0852762,237.359092 L54.3520171,194.617016 C73.2985669,170.273938 102.41942,156.037423 133.266741,156.037423 L320.018978,156.037423 L320.018978,156.037423 Z" id="Path-2"></path>
            <path d="M993.039725,110.710661 C1000.98469,110.710661 1003.93599,111.361162 1006.8594,112.924621 C1009.3974,114.281953 1011.38923,116.273784 1012.74656,118.811776 C1014.31002,121.735188 1014.96052,124.686495 1014.96052,132.631456 L1014.96052,155.710661 L833.607725,155.710661 L833.607725,132.631456 C833.607725,124.686495 834.258226,121.735188 835.821684,118.811776 C837.179017,116.273784 839.170848,114.281953 841.708839,112.924621 C844.632252,111.361162 847.583559,110.710661 855.528519,110.710661 Z" id="Rectangle-Copy-2" fill="#FFFFFF"></path>
            <line x1="243.030451" y1="353.763846" x2="9.58267093e-15" y2="353.763846" id="Path-5"></line>
            <line x1="1052.96575" y1="669.763846" x2="243" y2="669.763846" id="Path-5-Copy"></line>
            <path d="M1052.96575,281.763846 L887.79619,281.763846 C871.410916,281.763846 856.682567,271.770839 850.627575,256.545391 L810.656674,156.037423 L810.656674,156.037423 L412.052493,158.43329 L372.26832,254.724338 C366.085479,269.688886 351.490975,279.450067 335.299459,279.450067 L287.524328,279.450067 L287.524328,279.450067" id="Path-5-Copy-2"></path>
            <circle id="Oval" fill="#FFFFFF" cx="622.965072" cy="450.156067" r="261"></circle>
            <circle id="Oval-Copy" cx="622.965072" cy="450.156067" r="214"></circle>
            <circle id="Oval-Copy-3" cx="622.965072" cy="450.156067" r="151"></circle>
            <path d="M324.956992,156.037423 C300.001883,156.037423 287.524328,165.410304 287.524328,184.156067 L287.524328,265.043925 C287.524328,282.282997 280.676134,298.816001 268.486269,311.005865 L262.068511,317.423624 C249.878646,329.613489 243.030451,346.146493 243.030451,363.385565 L243.030451,784.595706 L243.030451,784.595706" id="Path"></path>
            <g id="Group" transform="translate(64.965072, 203.156067)" stroke-linejoin="round">
                <ellipse id="Oval-Copy-2" cx="92.5" cy="43.5" rx="92.5" ry="43.5"></ellipse>
                <ellipse id="Oval" fill="#FFFFFF" cx="92" cy="28.5" rx="60" ry="28.5"></ellipse>
            </g>
        </g>
        <path d="M86.034928,763.70841 L86.034928,947.152306 C86.034928,990.230517 120.956717,1025.15231 164.034928,1025.15231 L1061.00068,1025.15231 C1104.07889,1025.15231 1139.00068,990.230517 1139.00068,947.152306 L1139.00068,733.607779 L1139.00068,733.607779" id="Path-6" stroke="#000000" stroke-width="10"></path>
    </g>
</svg>