<svg xmlns="http://www.w3.org/2000/svg" width="3005" height="2333" viewBox="0 0 3005 2333"><g fill="none" fill-rule="evenodd" transform="translate(.454 .002)"><g transform="matrix(-1 0 0 1 442.424 77.072)"><ellipse cx="124.358" cy="205.068" stroke="#000" stroke-width="8.7" rx="33.39" ry="33.399"/><ellipse cx="124.358" cy="205.068" stroke="#000" stroke-width="8.7" rx="9.472" ry="9.474"/><ellipse cx="124.358" cy="205.068" stroke="#000" stroke-width="8.7" rx="9.472" ry="9.474"/><path fill="#000" fill-rule="nonzero" d="M310.382264,-1.0658141e-14 C326.3438,-1.0658141e-14 339.282118,12.9422168 339.282118,28.9059402 C339.282118,44.8696636 326.3438,57.8118804 310.382264,57.8118804 C294.420728,57.8118804 281.48241,44.8696636 281.48241,28.9059402 C281.48241,12.9422168 294.420728,-1.0658141e-14 310.382264,-1.0658141e-14 Z M310.382264,8.7 C299.226192,8.7 290.18241,17.7465076 290.18241,28.9059402 C290.18241,40.0653728 299.226192,49.1118804 310.382264,49.1118804 C321.538336,49.1118804 330.582118,40.0653728 330.582118,28.9059402 C330.582118,17.7465076 321.538336,8.7 310.382264,8.7 Z"/><path fill="#000" fill-rule="nonzero" d="M310.382264,16.6421135 C317.155382,16.6421135 322.645017,22.1334023 322.645017,28.9059402 C322.645017,35.6784781 317.155382,41.1697669 310.382264,41.1697669 C303.609146,41.1697669 298.119511,35.6784781 298.119511,28.9059402 C298.119511,22.1334023 303.609146,16.6421135 310.382264,16.6421135 Z M310.382264,23.7697669 C307.544454,23.7697669 305.245017,26.0698966 305.245017,28.9059402 C305.245017,31.7419838 307.544454,34.0421135 310.382264,34.0421135 C313.220074,34.0421135 315.519511,31.7419838 315.519511,28.9059402 C315.519511,26.0698966 313.220074,23.7697669 310.382264,23.7697669 Z"/><path fill="#000" fill-rule="nonzero" d="M238.95016,30.2834495 L259.213687,199.158914 C260.272693,207.984628 253.976532,215.997778 245.150817,217.056783 C244.513704,217.133231 243.87259,217.171414 243.230907,217.171414 L201.442917,217.165154 C192.553894,217.163823 185.348997,209.956766 185.350328,201.067744 C185.350328,200.669132 185.365256,200.270659 185.394901,199.873151 L197.953826,31.4724562 C198.556457,23.3918791 205.072351,17.0192504 213.164327,16.59639 L222.129864,16.1278802 C230.587774,15.6858972 237.94114,21.8743184 238.95016,30.2834495 Z M230.312122,31.3199359 C229.848518,27.456281 226.469945,24.6129524 222.583878,24.8160257 L213.618341,25.2845355 C209.900406,25.4788227 206.906617,28.4067872 206.629733,32.1194848 L194.070807,200.52018 C194.057187,200.702819 194.050328,200.885901 194.050328,201.069047 C194.049716,205.153192 197.360075,208.464543 201.44422,208.465154 L243.23221,208.471414 C243.527037,208.471414 243.821603,208.45387 244.114331,208.418746 C248.169389,207.932175 251.06222,204.250458 250.575649,200.1954 L230.312122,31.3199359 Z" transform="rotate(48 222.34 116.639)"/><path fill="#000" fill-rule="nonzero" d="M393.58998,25.1781862 L404.057373,112.611499 C405.114009,121.437497 398.815696,129.448956 389.989698,130.505592 C389.355528,130.581514 388.717401,130.61962 388.078703,130.619707 L372.889255,130.621797 C364.000232,130.62302 356.793263,123.418035 356.79204,114.529012 C356.79204,114.127296 356.80697,113.725719 356.836962,113.325124 L363.376662,25.9779899 C363.866975,19.4291479 369.147428,14.2648476 375.705555,13.9202931 L379.947822,13.6974105 C386.808246,13.3369736 392.773358,18.3570089 393.58998,25.1781862 Z M380.611308,22.379346 L380.404278,22.385428 L376.162011,22.6083106 C373.975969,22.7231621 372.215817,24.4445956 372.05238,26.6275429 L365.51268,113.974677 C365.4989,114.158734 365.49204,114.343243 365.49204,114.527815 C365.492602,118.611961 368.803912,121.921797 372.888058,121.921797 L388.077506,121.919708 C388.370962,121.919667 388.664155,121.902159 388.955531,121.867276 C393.010719,121.381794 395.904539,117.700854 395.419057,113.645666 L384.951664,26.2123532 C384.679457,23.9386275 382.691086,22.2652824 380.404278,22.385428 L380.611308,22.379346 Z" transform="rotate(123 380.483 72.15)"/><path fill="#000" fill-rule="nonzero" d="M77.3101038,89.1425101 C106.615981,52.4997748 144.57676,41.6526342 190.237297,56.8256157 C192.517156,57.5832123 193.751194,60.0455568 192.993598,62.3254163 C192.236001,64.6052757 189.773657,65.8393136 187.493797,65.081717 C145.259449,51.0472567 111.114703,60.8039809 84.104414,94.5764172 C73.4010328,107.959438 67.6524107,123.344227 65.5429054,142.031159 C63.9197733,156.409581 64.2713246,168.461805 66.3182969,195.973735 C66.318996,195.983132 66.318996,195.983132 66.3196951,195.992528 C67.455161,211.25353 68.0033781,220.274387 68.0948911,228.492946 L68.1027341,229.340503 C68.1058465,229.763073 68.1077489,230.183999 68.1084597,230.604032 L68.1082975,231.443132 L68.1049895,232.28119 C68.0952489,233.957156 68.0668256,235.634899 68.0208759,237.362579 C67.6168977,252.551898 65.5218109,265.612236 61.1686131,277.588979 C60.3479262,279.846895 57.8522255,281.011999 55.5943095,280.191313 C53.3363935,279.370626 52.1712891,276.874925 52.9919759,274.617009 C56.9925173,263.610513 58.9431016,251.450974 59.3239513,237.131274 C59.3609214,235.741221 59.3860383,234.382593 59.3986181,233.028146 L59.404656,232.215762 C59.4061636,231.944989 59.4071641,231.674166 59.4076523,231.403073 L59.4075739,230.588773 C59.4067606,230.181001 59.404782,229.772135 59.4016197,229.361438 L59.3937114,228.537386 C59.3019008,220.543737 58.7630346,211.68256 57.6436765,196.638051 C57.6429773,196.628654 57.6429773,196.628654 57.6422782,196.619258 C56.1722747,176.861964 55.5579846,164.868856 55.9182665,154.229189 L55.9520547,153.307256 C56.0426805,151.010171 56.1795264,148.768266 56.3638135,146.51568 L56.4400614,145.61392 C56.571368,144.109516 56.7238319,142.596462 56.8978149,141.055243 C59.1809911,120.829858 65.5064815,103.901222 77.3101038,89.1425101 Z" transform="rotate(18 122.973 165.32)"/><path fill="#000" fill-rule="nonzero" d="M257.00383,61.1913762 C269.209056,45.9393867 285.597251,41.2572264 305.252915,47.3022567 C307.54921,48.0084739 308.838222,50.4424907 308.132005,52.7387853 C307.425788,55.0350798 304.991771,56.3240921 302.695476,55.6178748 C286.386824,50.6022064 273.725699,54.2195309 263.796599,66.6272098 C258.054756,73.8023776 256.369328,83.1148742 256.914123,98.3445408 C256.923407,98.6040677 256.93291,98.8589504 256.942816,99.1133027 L256.963219,99.622519 C257.029871,101.240518 257.117566,102.947249 257.272798,105.787778 C257.58371,111.47707 257.746421,115.14424 257.759315,118.202629 L257.759895,118.806609 C257.755642,120.596709 257.697415,122.201568 257.584865,123.926467 C257.152013,130.560232 255.804552,135.90879 253.128614,140.360779 C251.890957,142.419885 249.218402,143.0858 247.159297,141.848142 C245.100191,140.610485 244.434276,137.93793 245.671934,135.878825 C249.09989,130.175694 249.531281,123.564318 248.58576,106.262514 C248.436521,103.531647 248.34844,101.826285 248.281314,100.238195 L248.259659,99.7119291 C248.245667,99.3623198 248.232489,99.0135183 248.219684,98.6555577 C247.606481,81.5135435 249.612943,70.427235 257.00383,61.1913762 Z" transform="scale(-1 1) rotate(-76 0 447.751)"/><path fill="#000" fill-rule="nonzero" d="M210.675392,236.32 C220.365434,236.32 229.458782,241.000419 235.08988,248.886332 L252.516997,273.291646 C260.021707,283.801405 257.585633,298.405018 247.075874,305.909728 C243.110594,308.741218 238.359847,310.263293 233.487395,310.263293 L23.3831674,310.263293 C10.4690006,310.263293 -3.55271368e-15,299.794292 -3.55271368e-15,286.880126 C-3.55271368e-15,282.007674 1.5220751,277.256927 4.3535653,273.291646 L21.7806823,248.886332 C27.411781,241.000419 36.505129,236.32 46.1951703,236.32 L210.675392,236.32 Z M210.675392,245.02 L46.1951703,245.02 C39.315241,245.02 32.8589639,248.343097 28.8608838,253.942096 L11.4337669,278.34741 C9.655768,280.837358 8.7,283.82053 8.7,286.880125 C8.7,294.989415 15.273878,301.563293 23.3831674,301.563293 L233.487395,301.563293 C236.54699,301.563293 239.530162,300.607525 242.020111,298.829526 C248.619582,294.117037 250.149284,284.946882 245.436796,278.34741 L228.009679,253.942096 C224.011599,248.343097 217.555322,245.02 210.675392,245.02 Z"/></g><g fill="#000" fill-rule="nonzero" transform="translate(1351.812 1396.412)"><path d="M70.9246451,109.511717 L70.9246451,226.020836 L105.484721,226.020836 L140.52151,261.001637 L240.984039,261.001637 L295.873869,206.199519 L295.873869,70.7246849 L142.924802,70.7246849 L104.006334,109.580961 L70.9246451,109.511717 Z M100.418769,100.907949 L136.787572,64.5972625 C138.415267,62.9721691 140.622894,62.0592011 142.924802,62.0592011 L295.873869,62.0592011 C300.667344,62.0592011 304.553222,65.9388703 304.553222,70.7246849 L304.553222,206.199519 C304.553222,208.497748 303.638793,210.701848 302.011099,212.326941 L247.121268,267.129059 C245.493574,268.754153 243.285946,269.667121 240.984039,269.667121 L140.52151,269.667121 C138.219603,269.667121 136.011975,268.754153 134.384281,267.129059 L101.889615,234.686319 L70.9246451,234.686319 C66.1311707,234.686319 62.2452919,230.80665 62.2452919,226.020836 L62.2452919,109.511717 C62.2452919,104.718807 66.1422697,100.836204 70.9428411,100.846253 L100.418769,100.907949 Z"/><g transform="translate(146.9)"><path d="M11.3670198,164.636205 L35.4528451,164.636205 C38.4149249,164.636205 40.5065157,167.533495 39.5698238,170.33908 L30.3386463,197.988359 L65.0634709,148.455401 L41.674359,148.455401 C38.2082794,148.455401 36.1408948,144.59863 38.0635299,141.719286 L58.4516548,111.185968 L38.1349127,111.185968 L11.3670198,164.636205 Z M4.34527566,173.301689 C1.11923813,173.301689 -0.978976899,169.912131 0.463750944,167.031286 L31.5713204,104.915565 C32.306427,103.447701 33.8090969,102.520484 35.4528451,102.520484 L66.5604146,102.520484 C70.0264942,102.520484 72.0938788,106.377255 70.1712438,109.256599 L49.7831188,139.789917 L73.3979798,139.789917 C76.9087778,139.789917 78.9664722,143.73548 76.9533073,146.607143 L20.343631,227.357581 C17.4734386,231.451745 11.088483,228.2439 12.6713248,223.502963 L29.4318655,173.301689 L4.34527566,173.301689 Z M9.12487295,8.66548377 L9.12487295,38.0280728 L143.865709,38.0280728 L143.865709,8.66548377 L9.12487295,8.66548377 Z M9.12487295,0 L143.865709,0 C148.659183,0 152.545062,3.87966924 152.545062,8.66548377 L152.545062,38.0280728 C152.545062,42.8138873 148.659183,46.6935566 143.865709,46.6935566 L9.12487295,46.6935566 C4.33139859,46.6935566 0.445519836,42.8138873 0.445519836,38.0280728 L0.445519836,8.66548377 C0.445519836,3.87966924 4.33139859,0 9.12487295,0 Z"/><path d="M57.0387142,46.6372664 L57.0387142,60.0965642 L95.9518674,60.0965642 L95.9518674,46.6372664 L57.0387142,46.6372664 Z M57.0387142,37.9717826 L95.9518674,37.9717826 C100.745342,37.9717826 104.63122,41.8514518 104.63122,46.6372664 L104.63122,60.0965642 C104.63122,64.8823787 100.745342,68.7620479 95.9518674,68.7620479 L57.0387142,68.7620479 C52.2452398,68.7620479 48.359361,64.8823787 48.359361,60.0965642 L48.359361,46.6372664 C48.359361,41.8514518 52.2452398,37.9717826 57.0387142,37.9717826 Z"/></g><g transform="matrix(0 -1 1 0 0 232.79)"><path d="M8.67935311,8.66548377 L8.67935311,38.0280728 L123.076997,38.0280728 L123.076997,8.66548377 L8.67935311,8.66548377 Z M8.67935311,-3.10680552e-15 L123.076997,-3.10680552e-15 C127.870472,-3.10680552e-15 131.756351,3.87966924 131.756351,8.66548377 L131.756351,38.0280728 C131.756351,42.8138873 127.870472,46.6935566 123.076997,46.6935566 L8.67935311,46.6935566 C3.88587875,46.6935566 0,42.8138873 0,38.0280728 L0,8.66548377 C0,3.87966924 3.88587875,-3.10680552e-15 8.67935311,-3.10680552e-15 Z"/><path d="M46.4215987,60.2382419 L85.3347519,60.2382419 L85.3347519,46.7789441 L46.4215987,46.7789441 L46.4215987,60.2382419 Z M46.4215987,38.1134604 L85.3347519,38.1134604 C90.1282262,38.1134604 94.014105,41.9931296 94.014105,46.7789441 L94.014105,60.2382419 C94.014105,65.0240565 90.1282262,68.9037257 85.3347519,68.9037257 L46.4215987,68.9037257 C41.6281243,68.9037257 37.7422455,65.0240565 37.7422455,60.2382419 L37.7422455,46.7789441 C37.7422455,41.9931296 41.6281243,38.1134604 46.4215987,38.1134604 Z"/></g><g transform="matrix(0 -1 -1 0 365.243 201.498)"><path d="M8.67935311,8.66548377 L8.67935311,38.0280728 L123.076997,38.0280728 L123.076997,8.66548377 L8.67935311,8.66548377 Z M8.67935311,0 L123.076997,0 C127.870472,0 131.756351,3.87966924 131.756351,8.66548377 L131.756351,38.0280728 C131.756351,42.8138873 127.870472,46.6935566 123.076997,46.6935566 L8.67935311,46.6935566 C3.88587875,46.6935566 0,42.8138873 0,38.0280728 L0,8.66548377 C0,3.87966924 3.88587875,0 8.67935311,0 Z"/><path d="M46.4215987,46.8232747 L46.4215987,60.2825725 L85.3347519,60.2825725 L85.3347519,46.8232747 L46.4215987,46.8232747 Z M46.4215987,38.1577909 L85.3347519,38.1577909 C90.1282262,38.1577909 94.014105,42.0374601 94.014105,46.8232747 L94.014105,60.2825725 C94.014105,65.068387 90.1282262,68.9480562 85.3347519,68.9480562 L46.4215987,68.9480562 C41.6281243,68.9480562 37.7422455,65.068387 37.7422455,60.2825725 L37.7422455,46.8232747 C37.7422455,42.0374601 41.6281243,38.1577909 46.4215987,38.1577909 Z"/></g></g><g fill="#000" fill-rule="nonzero" transform="translate(1380.753 123.467)"><path d="M191.300195,30.578449 L73.1338282,30.578449 C71.9266741,30.578449 70.7120731,31.717043 70.6307094,32.9416893 L58.4505004,216.272201 C58.3989253,217.048484 58.8054847,217.483829 59.5615953,217.483829 L279.627855,217.483829 C280.835009,217.483829 282.04961,216.345235 282.130973,215.120589 L295.765512,9.90022309 C295.817087,9.12394033 295.410528,8.68859509 294.654417,8.68859509 L195.100633,8.68859509 C193.893479,8.68859509 192.678878,9.82718913 192.597514,11.0518354 L191.300195,30.578449 Z M183.166958,21.8898539 L183.925276,10.4760292 C184.309672,4.69027805 189.31305,0 195.100633,0 L294.654417,0 C300.442,0 304.822148,4.69027805 304.437751,10.4760292 L290.803212,215.696395 C290.418816,221.482146 285.415437,226.172424 279.627855,226.172424 L59.5615953,226.172424 C53.7740124,226.172424 49.3938647,221.482146 49.7782615,215.696395 L61.9584705,32.3658831 C62.3428673,26.5801319 67.3462454,21.8898539 73.1338282,21.8898539 L183.166958,21.8898539 Z"/><path d="M8.75982837,70.0920014 L40.459708,213.825695 C40.8648199,215.662554 43.0883462,217.483829 44.7619934,217.483829 L280.210302,217.483829 L248.510422,73.7501357 C248.10531,71.9132764 245.881784,70.0920014 244.208137,70.0920014 L8.75982837,70.0920014 Z M8.42285878,61.4034063 L244.208137,61.4034063 C249.99572,61.4034063 255.721904,66.0936843 256.997928,71.8794355 L288.716172,215.696395 C289.992195,221.482146 286.334854,226.172424 280.547271,226.172424 L44.7619934,226.172424 C38.9744106,226.172424 33.2482261,221.482146 31.9722023,215.696395 L0.2539586,71.8794355 C-1.02206522,66.0936843 2.63527596,61.4034063 8.42285878,61.4034063 Z"/></g><g fill="#000" fill-rule="nonzero" transform="translate(93.694 1341.318)"><path d="M265.675363,254.46096 L285.853969,266.073065 C288.551764,267.625555 290.214629,270.501024 290.214629,273.61363 L290.214629,291.881141 C290.214629,294.979178 288.567166,297.843486 285.889273,299.40128 L144.629244,381.575593 C141.840156,383.198072 138.382177,383.143659 135.645518,381.434232 L4.09091764,299.259919 C1.5461099,297.670329 0,294.881615 0,291.881141 L0,273.61363 C0,270.503014 1.66075695,267.629068 4.35583279,266.075845 L24,254.75293 L24,264.79493 L8.7,273.61363 L8.7,291.881141 L140.2546,374.055454 L281.514629,291.881141 L281.514629,273.61363 L265,264.10993 L265.000522,254.11093 C265.229914,254.217464 265.455093,254.334202 265.675363,254.46096 Z"/><path d="M149.446655,1.1594345 L285.853969,79.6572237 C288.551764,81.2097133 290.214629,84.0851824 290.214629,87.1977892 L290.214629,244.193368 C290.214629,247.291405 288.567166,250.155713 285.889273,251.713507 L144.629244,333.88782 C141.840156,335.510298 138.382177,335.455886 135.645518,333.746458 L4.09091764,251.572145 C1.5461099,249.982556 0,247.193841 0,244.193368 L0,87.1977892 C0,84.0851824 1.66286503,81.2097133 4.36065997,79.6572237 L140.767975,1.1594345 C143.454341,-0.386478167 146.760289,-0.386478167 149.446655,1.1594345 Z M145.107315,8.7 L8.7,87.1977892 L8.7,244.193368 L140.2546,326.367681 L281.514629,244.193368 L281.514629,87.1977892 L145.107315,8.7 Z"/><polygon points="281.571 84.185 286.002 91.672 146.82 174.042 144.604 175.353 142.389 174.042 3.206 91.672 7.637 84.185 144.604 165.244"/><polygon points="207.546 36.549 212.146 43.933 72.964 130.638 68.363 123.254"/><polygon points="66.315 126.825 75.012 127.067 70.662 283.136 61.966 282.894"/><polygon points="140.256 170.177 148.952 170.42 144.603 326.489 135.906 326.246"/></g><g fill="#000" fill-rule="nonzero" transform="translate(824.024 71.274)"><path d="M65.4406696,106.329383 L89.0320415,106.329383 C103.107399,106.329383 114.52865,117.797767 114.52865,131.93121 L114.52865,216.994716 C114.52865,218.144682 114.073706,219.247548 113.263899,220.060697 L93.3501727,240.056603 L93.3501727,312.691161 C93.3501727,320.958226 86.6805014,327.66005 78.4428027,327.66005 L36.0858476,327.66005 C27.848149,327.66005 21.1784776,320.958226 21.1784776,312.691161 L21.1784776,240.056603 L1.26475135,220.060697 C0.45494466,219.247548 0,218.144682 0,216.994716 L0,131.93121 C0,117.797767 11.4212511,106.329383 25.4966088,106.329383 L49.5169032,106.329383 C51.8701427,106.329383 53.411961,107.99299 53.7648485,109.883085 C54.019652,111.247834 53.6545938,112.730664 52.5275602,113.790572 C52.2662171,114.034944 51.9761866,114.249608 51.6467012,114.437192 L49.4318274,110.71377 L53.4182332,109.047153 L56.4918981,116.459907 L52.5054922,113.790572 L62.4520806,113.790572 L58.4656747,116.459907 L61.5393396,109.047153 L65.5257454,110.71377 L63.3959474,114.485628 C62.9813861,114.249608 62.6913557,114.034944 62.4392062,113.799192 C61.302979,112.730664 60.9379208,111.247834 61.1927243,109.883085 C61.5456118,107.99299 63.0874301,106.329383 65.4406696,106.329383 Z M46.5321656,115.001285 L25.4966088,115.001285 C16.1909272,115.001285 8.63626241,122.587126 8.63626241,131.93121 L8.63626241,215.198707 L28.5499886,235.194612 C29.3597953,236.007761 29.81474,237.110627 29.81474,238.260593 L29.81474,312.691161 C29.81474,316.170207 32.6191611,318.988148 36.0858476,318.988148 L78.4428027,318.988148 C81.9094892,318.988148 84.7139103,316.170207 84.7139103,312.691161 L84.7139103,238.260593 C84.7139103,237.110627 85.168855,236.007761 85.9786617,235.194612 L105.892388,215.198707 L105.892388,131.93121 C105.892388,122.587126 98.3377231,115.001285 89.0320415,115.001285 L68.4254072,115.001285 L66.4384865,119.793139 C65.7682777,121.409481 64.1957289,122.462474 62.4520806,122.462474 L52.5054922,122.462474 C50.7618438,122.462474 49.1892951,121.409481 48.5190863,119.793139 L46.5321656,115.001285 Z M57.2643252,85.0635061 C78.2711156,85.0635061 95.3031491,67.9611851 95.3031491,46.8677042 C95.3031491,25.7742233 78.2711156,8.67190237 57.2643252,8.67190237 C36.2575347,8.67190237 19.2255012,25.7742233 19.2255012,46.8677042 C19.2255012,67.9611851 36.2575347,85.0635061 57.2643252,85.0635061 Z M57.2643252,93.7354084 C31.4878587,93.7354084 10.5892388,72.7505445 10.5892388,46.8677042 C10.5892388,20.9848639 31.4878587,0 57.2643252,0 C83.0407917,0 103.939412,20.9848639 103.939412,46.8677042 C103.939412,72.7505445 83.0407917,93.7354084 57.2643252,93.7354084 Z"/><path d="M38.7426032,111.176057 L38.7420689,149.791276 L76.5440689,149.791276 L76.5442967,111.176057 L85.1805591,111.176057 L85.1805591,202.767678 L97.9700383,231.662759 L90.078122,235.184753 L76.5442967,204.607981 L76.5440689,158.463276 L38.7420689,158.463276 L38.7426032,204.607981 L25.2087779,235.184753 L17.3168615,231.662759 L30.1063407,202.767678 L30.1063407,111.176057 L38.7426032,111.176057 Z M16.3272001,46.1281783 L123.265625,46.1281783 C125.650463,46.1281783 127.583756,44.1869069 127.583756,41.7922272 C127.583756,39.3975474 125.650463,37.456276 123.265625,37.456276 L16.3272001,37.456276 C13.9423621,37.456276 12.0090689,39.3975474 12.0090689,41.7922272 C12.0090689,44.1869069 13.9423621,46.1281783 16.3272001,46.1281783 Z"/></g><g fill="#000" fill-rule="nonzero" transform="translate(2056.366 141.066)"><path d="M237.767512,15.7320365 C247.377266,15.7320365 255.167512,23.5222818 255.167512,33.1320365 L255.167512,185.374545 C255.167512,194.9843 247.377266,202.774545 237.767512,202.774545 L17.4,202.774545 C7.79024535,202.774545 0,194.9843 0,185.374545 L0,33.1320365 C0,23.5222818 7.79024535,15.7320365 17.4,15.7320365 L237.767512,15.7320365 Z M237.767512,24.4320365 L17.4,24.4320365 C12.5951227,24.4320365 8.7,28.3271591 8.7,33.1320365 L8.7,185.374545 C8.7,190.179423 12.5951227,194.074545 17.4,194.074545 L237.767512,194.074545 C242.572389,194.074545 246.467512,190.179423 246.467512,185.374545 L246.467512,33.1320365 C246.467512,28.3271591 242.572389,24.4320365 237.767512,24.4320365 Z"/><path d="M202.751773,0 C207.556651,0 211.451773,3.89512259 211.451773,8.69999981 L211.451773,15.7487807 C211.451773,20.5536579 207.556651,24.4487805 202.751773,24.4487805 L170.407903,24.4487805 C165.603026,24.4487805 161.707903,20.5536579 161.707903,15.7487807 L161.707903,8.69999981 C161.707903,3.89512259 165.603026,0 170.407903,0 L202.751773,0 Z M202.751773,8.7 L170.407903,8.7 L170.407903,15.7487807 L202.751773,15.7487807 L202.751773,8.7 Z M84.7192792,0 C89.5241564,0 93.419279,3.89512259 93.419279,8.69999981 L93.419279,15.7487807 C93.419279,20.5536579 89.5241564,24.4487805 84.7192792,24.4487805 L52.3754086,24.4487805 C47.5705314,24.4487805 43.6754088,20.5536579 43.6754088,15.7487807 L43.6754088,8.69999981 C43.6754088,3.89512259 47.5705314,0 52.3754086,0 L84.7192792,0 Z M84.7192792,8.7 L52.3754088,8.7 L52.3754088,15.7487807 L84.7192792,15.7487807 L84.7192792,8.7 Z M90.4052132,109.018634 C92.8076518,109.018634 94.7552132,110.966195 94.7552132,113.368634 C94.7552132,115.771073 92.8076518,117.718634 90.4052132,117.718634 L46.6894746,117.718634 C44.2870359,117.718634 42.3394746,115.771073 42.3394746,113.368634 C42.3394746,110.966195 44.2870359,109.018634 46.6894746,109.018634 L90.4052132,109.018634 Z M204.066133,109.018634 C206.468572,109.018634 208.416133,110.966195 208.416133,113.368634 C208.416133,115.771073 206.468572,117.718634 204.066133,117.718634 L169.093543,117.718634 C166.691104,117.718634 164.743543,115.771073 164.743543,113.368634 C164.743543,110.966195 166.691104,109.018634 169.093543,109.018634 L204.066133,109.018634 Z"/><path d="M186.579838,91.6193307 C188.982277,91.6193307 190.929838,93.5668921 190.929838,95.9693307 L190.929838,130.767937 C190.929838,133.170376 188.982277,135.117937 186.579838,135.117937 C184.177399,135.117937 182.229838,133.170376 182.229838,130.767937 L182.229838,95.9693307 C182.229838,93.5668921 184.177399,91.6193307 186.579838,91.6193307 Z"/></g><g fill-rule="nonzero" transform="rotate(-43 1540.821 -3194.16)"><path fill="#000" d="M55.8649146,166.454753 C71.926992,166.454753 84.9478785,179.568339 84.9478785,195.744768 C84.9478785,211.921197 71.926992,225.034783 55.8649146,225.034783 C39.8028372,225.034783 26.7819508,211.921197 26.7819508,195.744768 C26.7819508,179.568339 39.8028372,166.454753 55.8649146,166.454753 Z M55.8649146,175.154753 C44.6215847,175.154753 35.4819508,184.359455 35.4819508,195.744768 C35.4819508,207.130081 44.6215847,216.334783 55.8649146,216.334783 C67.1082446,216.334783 76.2478785,207.130081 76.2478785,195.744768 C76.2478785,184.359455 67.1082446,175.154753 55.8649146,175.154753 Z"/><path fill="#000" d="M183.335926,107.385569 C235.551836,107.385569 277.922886,146.749798 278.281574,195.43526 L278.281574,196.054276 C277.922886,244.739739 235.551836,284.103967 183.335926,284.103967 C176.379081,284.103967 169.596991,283.405219 163.070749,282.106863 L161.969225,281.849687 C160.806392,281.599945 159.651716,281.330258 158.505632,281.041034 L49.5840749,255.598718 C21.1785854,248.725063 0.171539161,224.693766 -1.07793795e-14,196.054276 L-1.07793795e-14,195.43526 C0.171539161,166.79577 21.1785854,142.764474 49.5857538,135.878274 L158.505632,110.448502 C159.651716,110.159278 160.806392,109.889591 161.969225,109.639849 L163.065736,109.410762 C169.596991,108.084317 176.379081,107.385569 183.335926,107.385569 Z M183.335926,116.085569 C177.039822,116.085569 170.836492,116.710193 164.844951,117.926888 L163.796073,118.145883 C162.73635,118.373481 161.682318,118.619592 160.634411,118.88404 L160.483646,118.92066 L51.6353653,144.333396 C26.5579999,150.412416 8.84419456,171.387169 8.69984395,195.43526 L8.69984395,195.498505 L8.69984395,196.002168 C8.84419936,220.103168 26.5584563,241.075807 51.5629852,247.12677 L160.484542,272.569086 L160.634411,272.605497 C161.682318,272.869945 162.73635,273.116055 163.796073,273.343653 L163.947239,273.377529 L164.879,273.594569 L165.910743,273.794134 C171.249009,274.788641 176.681864,275.329079 182.16111,275.396717 L183.335926,275.403967 C230.871571,275.403967 269.259155,239.784755 269.58181,196.054276 L269.58181,195.499355 C269.259155,151.704782 230.871571,116.085569 183.335926,116.085569 Z"/><ellipse cx="193.56" cy="195.643" fill="#FFF" rx="89.048" ry="89.321"/><path fill="#000" d="M193.560053,106.322168 C242.739741,106.322168 282.607756,146.312457 282.607756,195.642979 C282.607756,244.973501 242.739741,284.963791 193.560053,284.963791 C144.380365,284.963791 104.512351,244.973501 104.512351,195.642979 C104.512351,146.312457 144.380365,106.322168 193.560053,106.322168 Z M193.560053,115.022168 C149.191217,115.022168 113.212351,151.111381 113.212351,195.642979 C113.212351,240.174578 149.191217,276.263791 193.560053,276.263791 C237.92889,276.263791 273.907756,240.174578 273.907756,195.642979 C273.907756,151.111381 237.92889,115.022168 193.560053,115.022168 Z"/><ellipse cx="193.157" cy="196.423" fill="#FFF" stroke="#000" stroke-width="8.7" rx="25.006" ry="25.096"/><path fill="#000" d="M167.332801,9.32576221 C174.268574,9.32576221 178.415764,17.0445017 174.587378,22.8279609 L164.658395,37.8267622 L172.516595,37.8270935 C179.460003,37.8271121 183.57347,45.5407901 179.797264,51.2900298 L179.660701,51.4921127 L136.743946,113.244714 C131.013805,121.489772 118.185533,115.078196 121.340451,105.54604 L131.705395,74.2277622 L120.166372,74.2277884 C113.79357,74.2277713 109.612403,67.6173398 112.265602,61.884885 L112.373894,61.6590769 L135.957033,14.1570507 C137.42634,11.1975199 140.445342,9.32576221 143.749534,9.32576221 L167.332801,9.32576221 Z M167.332801,18.0257622 L143.749534,18.0257622 L120.166395,65.5277884 L143.749662,65.5278519 L129.599817,108.279694 L172.516572,46.5270935 L148.466264,46.5270287 L167.332801,18.0257622 Z" transform="rotate(43 146.343 63.18)"/></g><g transform="translate(726.782 1371.045)"><path stroke="#000" stroke-width="8.7" d="M277.14282,37.15533 C278.344039,37.15533 279.431539,37.6422203 280.218734,38.4294155 C281.005929,39.2166106 281.49282,40.3041106 281.49282,41.50533 L281.49282,281.104262 C281.49282,282.305481 281.005929,283.392981 280.218734,284.180177 C279.431539,284.967372 278.344039,285.454262 277.14282,285.454262 L62.8082036,285.454262 C61.7399414,285.454262 60.7090294,285.061174 59.911968,284.349924 L36.3930233,263.363015 C35.4681174,262.537684 34.9392589,261.356959 34.9392589,260.117353 L34.9392589,41.50533 C34.9392589,40.3041106 35.4261492,39.2166106 36.2133444,38.4294155 C37.0005395,37.6422203 38.0880395,37.15533 39.2892589,37.15533 L277.14282,37.15533 Z"/><path fill="#000" fill-rule="nonzero" d="M91.3622871,93.9527907 C88.9707582,93.9527907 87.0320409,95.9047645 87.0320409,98.3126462 L87.0320409,224.296946 C87.0320409,226.704828 88.9707582,228.656801 91.3622871,228.656801 L229.630998,228.656801 C232.022526,228.656801 233.961244,226.704828 233.961244,224.296946 L233.961244,98.3126462 C233.961244,95.9047645 232.022526,93.9527907 229.630998,93.9527907 L91.3622871,93.9527907 Z M91.3622871,85.2330798 L229.630998,85.2330798 C236.805584,85.2330798 242.621736,91.0890011 242.621736,98.3126462 L242.621736,224.296946 C242.621736,231.520591 236.805584,237.376512 229.630998,237.376512 L91.3622871,237.376512 C84.1877004,237.376512 78.3715487,231.520591 78.3715487,224.296946 L78.3715487,98.3126462 C78.3715487,91.0890011 84.1877004,85.2330798 91.3622871,85.2330798 Z M49.1817192,0 C51.5841579,0 53.5317192,1.94756134 53.5317192,4.35 L53.5317192,34.8689881 C53.5317192,37.2714268 51.5841579,39.2189881 49.1817192,39.2189881 C46.7792805,39.2189881 44.8317192,37.2714268 44.8317192,34.8689881 L44.8317192,4.35 C44.8317192,1.94756134 46.7792805,0 49.1817192,0 Z M92.4841804,0 C94.886619,0 96.8341804,1.94756134 96.8341804,4.35 L96.8341804,34.8689881 C96.8341804,37.2714268 94.886619,39.2189881 92.4841804,39.2189881 C90.0817417,39.2189881 88.1341804,37.2714268 88.1341804,34.8689881 L88.1341804,4.35 C88.1341804,1.94756134 90.0817417,0 92.4841804,0 Z M135.786641,0 C138.18908,0 140.136641,1.94756134 140.136641,4.35 L140.136641,34.8689881 C140.136641,37.2714268 138.18908,39.2189881 135.786641,39.2189881 C133.384203,39.2189881 131.436641,37.2714268 131.436641,34.8689881 L131.436641,4.35 C131.436641,1.94756134 133.384203,0 135.786641,0 Z M179.089103,0 C181.491541,0 183.439103,1.94756134 183.439103,4.35 L183.439103,34.8689881 C183.439103,37.2714268 181.491541,39.2189881 179.089103,39.2189881 C176.686664,39.2189881 174.739103,37.2714268 174.739103,34.8689881 L174.739103,4.35 C174.739103,1.94756134 176.686664,0 179.089103,0 Z M222.391564,0 C224.794002,0 226.741564,1.94756134 226.741564,4.35 L226.741564,34.8689881 C226.741564,37.2714268 224.794002,39.2189881 222.391564,39.2189881 C219.989125,39.2189881 218.041564,37.2714268 218.041564,34.8689881 L218.041564,4.35 C218.041564,1.94756134 219.989125,0 222.391564,0 Z M265.694025,0 C268.096464,0 270.044025,1.94756134 270.044025,4.35 L270.044025,34.8689881 C270.044025,37.2714268 268.096464,39.2189881 265.694025,39.2189881 C263.291586,39.2189881 261.344025,37.2714268 261.344025,34.8689881 L261.344025,4.35 C261.344025,1.94756134 263.291586,0 265.694025,0 Z"/><path fill="#000" fill-rule="nonzero" d="M188.402341,142.768659 C190.80478,142.768659 192.752341,144.71622 192.752341,147.118659 L192.752341,177.637647 C192.752341,180.040086 190.80478,181.987647 188.402341,181.987647 C185.999902,181.987647 184.052341,180.040086 184.052341,177.637647 L184.052341,147.118659 C184.052341,144.71622 185.999902,142.768659 188.402341,142.768659 Z M231.704802,142.768659 C234.107241,142.768659 236.054802,144.71622 236.054802,147.118659 L236.054802,177.637647 C236.054802,180.040086 234.107241,181.987647 231.704802,181.987647 C229.302364,181.987647 227.354802,180.040086 227.354802,177.637647 L227.354802,147.118659 C227.354802,144.71622 229.302364,142.768659 231.704802,142.768659 Z M275.007263,142.768659 C277.409702,142.768659 279.357263,144.71622 279.357263,147.118659 L279.357263,177.637647 C279.357263,180.040086 277.409702,181.987647 275.007263,181.987647 C272.604825,181.987647 270.657263,180.040086 270.657263,177.637647 L270.657263,147.118659 C270.657263,144.71622 272.604825,142.768659 275.007263,142.768659 Z M318.309724,142.768659 C320.712163,142.768659 322.659724,144.71622 322.659724,147.118659 L322.659724,177.637647 C322.659724,180.040086 320.712163,181.987647 318.309724,181.987647 C315.907286,181.987647 313.959724,180.040086 313.959724,177.637647 L313.959724,147.118659 C313.959724,144.71622 315.907286,142.768659 318.309724,142.768659 Z M361.612186,142.768659 C364.014624,142.768659 365.962186,144.71622 365.962186,147.118659 L365.962186,177.637647 C365.962186,180.040086 364.014624,181.987647 361.612186,181.987647 C359.209747,181.987647 357.262186,180.040086 357.262186,177.637647 L357.262186,147.118659 C357.262186,144.71622 359.209747,142.768659 361.612186,142.768659 Z M404.914647,142.768659 C407.317085,142.768659 409.264647,144.71622 409.264647,147.118659 L409.264647,177.637647 C409.264647,180.040086 407.317085,181.987647 404.914647,181.987647 C402.512208,181.987647 400.564647,180.040086 400.564647,177.637647 L400.564647,147.118659 C400.564647,144.71622 402.512208,142.768659 404.914647,142.768659 Z" transform="rotate(90 296.658 162.378)"/><path fill="#000" fill-rule="nonzero" d="M-66.9954284,120.970428 C-64.5929898,120.970428 -62.6454284,122.91799 -62.6454284,125.320428 L-62.6454284,155.839417 C-62.6454284,158.241855 -64.5929898,160.189417 -66.9954284,160.189417 C-69.3978671,160.189417 -71.3454284,158.241855 -71.3454284,155.839417 L-71.3454284,125.320428 C-71.3454284,122.91799 -69.3978671,120.970428 -66.9954284,120.970428 Z M-23.6929672,120.970428 C-21.2905286,120.970428 -19.3429672,122.91799 -19.3429672,125.320428 L-19.3429672,155.839417 C-19.3429672,158.241855 -21.2905286,160.189417 -23.6929672,160.189417 C-26.0954059,160.189417 -28.0429672,158.241855 -28.0429672,155.839417 L-28.0429672,125.320428 C-28.0429672,122.91799 -26.0954059,120.970428 -23.6929672,120.970428 Z M19.6094939,120.970428 C22.0119326,120.970428 23.9594939,122.91799 23.9594939,125.320428 L23.9594939,155.839417 C23.9594939,158.241855 22.0119326,160.189417 19.6094939,160.189417 C17.2070553,160.189417 15.2594939,158.241855 15.2594939,155.839417 L15.2594939,125.320428 C15.2594939,122.91799 17.2070553,120.970428 19.6094939,120.970428 Z M62.9119546,120.970428 C65.3143935,120.970428 67.2619545,122.91799 67.2619545,125.320428 L67.2619545,155.839417 C67.2619545,158.241855 65.3143935,160.189417 62.9119546,160.189417 C60.5095166,160.189417 58.5619546,158.241855 58.5619546,155.839417 L58.5619546,125.320428 C58.5619546,122.91799 60.5095166,120.970428 62.9119546,120.970428 Z M106.214417,120.970428 C108.616855,120.970428 110.564417,122.91799 110.564417,125.320428 L110.564417,155.839417 C110.564417,158.241855 108.616855,160.189417 106.214417,160.189417 C103.811978,160.189417 101.864417,158.241855 101.864417,155.839417 L101.864417,125.320428 C101.864417,122.91799 103.811978,120.970428 106.214417,120.970428 Z" transform="rotate(90 19.61 140.58)"/><path fill="#000" fill-rule="nonzero" d="M92.4841804,281.182621 C94.886619,281.182621 96.8341804,283.130182 96.8341804,285.532621 L96.8341804,316.051609 C96.8341804,318.454047 94.886619,320.401609 92.4841804,320.401609 C90.0817417,320.401609 88.1341804,318.454047 88.1341804,316.051609 L88.1341804,285.532621 C88.1341804,283.130182 90.0817417,281.182621 92.4841804,281.182621 Z M135.786641,281.182621 C138.18908,281.182621 140.136641,283.130182 140.136641,285.532621 L140.136641,316.051609 C140.136641,318.454047 138.18908,320.401609 135.786641,320.401609 C133.384203,320.401609 131.436641,318.454047 131.436641,316.051609 L131.436641,285.532621 C131.436641,283.130182 133.384203,281.182621 135.786641,281.182621 Z M179.089103,281.182621 C181.491541,281.182621 183.439103,283.130182 183.439103,285.532621 L183.439103,316.051609 C183.439103,318.454047 181.491541,320.401609 179.089103,320.401609 C176.686664,320.401609 174.739103,318.454047 174.739103,316.051609 L174.739103,285.532621 C174.739103,283.130182 176.686664,281.182621 179.089103,281.182621 Z M222.391564,281.182621 C224.794002,281.182621 226.741564,283.130182 226.741564,285.532621 L226.741564,316.051609 C226.741564,318.454047 224.794002,320.401609 222.391564,320.401609 C219.989125,320.401609 218.041564,318.454047 218.041564,316.051609 L218.041564,285.532621 C218.041564,283.130182 219.989125,281.182621 222.391564,281.182621 Z M265.694025,281.182621 C268.096464,281.182621 270.044025,283.130182 270.044025,285.532621 L270.044025,316.051609 C270.044025,318.454047 268.096464,320.401609 265.694025,320.401609 C263.291586,320.401609 261.344025,318.454047 261.344025,316.051609 L261.344025,285.532621 C261.344025,283.130182 263.291586,281.182621 265.694025,281.182621 Z M81.9567224,228.046401 C83.5101172,226.213732 86.2550644,225.987335 88.0877335,227.54073 C89.9204025,229.094125 90.146799,231.839072 88.5934042,233.671741 L69.3574576,256.365987 C67.8040627,258.198656 65.0591155,258.425052 63.2264465,256.871657 C61.3937774,255.318263 61.1673809,252.573315 62.7207758,250.740646 L81.9567224,228.046401 Z"/></g><g fill-rule="nonzero" transform="translate(117.963 736.742)"><g transform="translate(0 158.295)"><path fill="#FFF" d="M4.35,44.5811937 L239.220096,44.5811937 L239.220096,96.6451481 C239.220096,116.789389 186.642634,133.119523 121.785048,133.119523 C56.9274619,133.119523 4.35,116.789389 4.35,96.6451481 L4.35,44.5811937 Z"/><path fill="#000" d="M243.570096,40.2311937 L243.570096,96.6451481 C243.570096,120.561451 189.13187,137.469523 121.785048,137.469523 C54.4382265,137.469523 -5.32907052e-15,120.561451 -5.32907052e-15,96.6451481 L-5.32907052e-15,40.2311937 L243.570096,40.2311937 Z M234.870096,48.9311937 L8.7,48.9311937 L8.7,96.6451481 C8.7,103.759765 19.6123853,111.844113 39.432857,118.093381 L40.036202,118.282188 C61.468418,124.93886 90.6279155,128.769523 121.785048,128.769523 C152.942181,128.769523 182.101678,124.93886 203.533894,118.282188 C223.736145,112.007532 234.870096,103.83163 234.870096,96.6451481 L234.870096,48.9311937 Z"/><ellipse cx="121.785" cy="40.824" fill="#FFF" rx="117.435" ry="36.474"/><path fill="#000" d="M121.785048,-5.32907052e-15 C189.13187,-5.32907052e-15 243.570096,16.9080723 243.570096,40.824375 C243.570096,64.7406776 189.13187,81.64875 121.785048,81.64875 C54.4382265,81.64875 -5.32907052e-15,64.7406776 -5.32907052e-15,40.824375 C-5.32907052e-15,16.9080723 54.4382265,-5.32907052e-15 121.785048,-5.32907052e-15 Z M121.785048,8.7 C90.6279155,8.7 61.468418,12.5306627 40.036202,19.1873354 C19.8339509,25.461991 8.7,33.6378932 8.7,40.824375 C8.7,48.0108568 19.8339509,56.1867589 40.036202,62.4614145 C61.468418,69.1180873 90.6279155,72.94875 121.785048,72.94875 C152.942181,72.94875 182.101678,69.1180873 203.533894,62.4614145 C223.736145,56.1867589 234.870096,48.0108568 234.870096,40.824375 C234.870096,33.6378932 223.736145,25.461991 203.533894,19.1873354 C182.101678,12.5306627 152.942181,8.7 121.785048,8.7 Z"/></g><g transform="translate(0 79.148)"><path fill="#FFF" d="M4.35,44.5811937 L239.220096,44.5811937 L239.220096,96.6451481 C239.220096,116.789389 186.642634,133.119523 121.785048,133.119523 C56.9274619,133.119523 4.35,116.789389 4.35,96.6451481 L4.35,44.5811937 Z"/><path fill="#000" d="M243.570096,40.2311937 L243.570096,96.6451481 C243.570096,120.561451 189.13187,137.469523 121.785048,137.469523 C54.4382265,137.469523 -5.32907052e-15,120.561451 -5.32907052e-15,96.6451481 L-5.32907052e-15,40.2311937 L243.570096,40.2311937 Z M234.870096,48.9311937 L8.7,48.9311937 L8.7,96.6451481 C8.7,103.759765 19.6123853,111.844113 39.432857,118.093381 L40.036202,118.282188 C61.468418,124.93886 90.6279155,128.769523 121.785048,128.769523 C152.942181,128.769523 182.101678,124.93886 203.533894,118.282188 C223.736145,112.007532 234.870096,103.83163 234.870096,96.6451481 L234.870096,48.9311937 Z"/><ellipse cx="121.785" cy="40.824" fill="#FFF" rx="117.435" ry="36.474"/><path fill="#000" d="M121.785048,-5.32907052e-15 C189.13187,-5.32907052e-15 243.570096,16.9080723 243.570096,40.824375 C243.570096,64.7406776 189.13187,81.64875 121.785048,81.64875 C54.4382265,81.64875 -5.32907052e-15,64.7406776 -5.32907052e-15,40.824375 C-5.32907052e-15,16.9080723 54.4382265,-5.32907052e-15 121.785048,-5.32907052e-15 Z M121.785048,8.7 C90.6279155,8.7 61.468418,12.5306627 40.036202,19.1873354 C19.8339509,25.461991 8.7,33.6378932 8.7,40.824375 C8.7,48.0108568 19.8339509,56.1867589 40.036202,62.4614145 C61.468418,69.1180873 90.6279155,72.94875 121.785048,72.94875 C152.942181,72.94875 182.101678,69.1180873 203.533894,62.4614145 C223.736145,56.1867589 234.870096,48.0108568 234.870096,40.824375 C234.870096,33.6378932 223.736145,25.461991 203.533894,19.1873354 C182.101678,12.5306627 152.942181,8.7 121.785048,8.7 Z"/></g><path fill="#FFF" d="M4.35,44.5811937 L239.220096,44.5811937 L239.220096,96.6451481 C239.220096,116.789389 186.642634,133.119523 121.785048,133.119523 C56.9274619,133.119523 4.35,116.789389 4.35,96.6451481 L4.35,44.5811937 Z"/><path fill="#000" d="M243.570096,40.2311937 L243.570096,96.6451481 C243.570096,120.561451 189.13187,137.469523 121.785048,137.469523 C54.4382265,137.469523 -5.32907052e-15,120.561451 -5.32907052e-15,96.6451481 L-5.32907052e-15,40.2311937 L243.570096,40.2311937 Z M234.870096,48.9311937 L8.7,48.9311937 L8.7,96.6451481 C8.7,103.759765 19.6123853,111.844113 39.432857,118.093381 L40.036202,118.282188 C61.468418,124.93886 90.6279155,128.769523 121.785048,128.769523 C152.942181,128.769523 182.101678,124.93886 203.533894,118.282188 C223.736145,112.007532 234.870096,103.83163 234.870096,96.6451481 L234.870096,48.9311937 Z"/><ellipse cx="121.785" cy="40.824" fill="#FFF" rx="117.435" ry="36.474"/><path fill="#000" d="M121.785048,-5.32907052e-15 C189.13187,-5.32907052e-15 243.570096,16.9080723 243.570096,40.824375 C243.570096,64.7406776 189.13187,81.64875 121.785048,81.64875 C54.4382265,81.64875 -5.32907052e-15,64.7406776 -5.32907052e-15,40.824375 C-5.32907052e-15,16.9080723 54.4382265,-5.32907052e-15 121.785048,-5.32907052e-15 Z M121.785048,8.7 C90.6279155,8.7 61.468418,12.5306627 40.036202,19.1873354 C19.8339509,25.461991 8.7,33.6378932 8.7,40.824375 C8.7,48.0108568 19.8339509,56.1867589 40.036202,62.4614145 C61.468418,69.1180873 90.6279155,72.94875 121.785048,72.94875 C152.942181,72.94875 182.101678,69.1180873 203.533894,62.4614145 C223.736145,56.1867589 234.870096,48.0108568 234.870096,40.824375 C234.870096,33.6378932 223.736145,25.461991 203.533894,19.1873354 C182.101678,12.5306627 152.942181,8.7 121.785048,8.7 Z"/></g><g fill-rule="nonzero" transform="translate(757.332 725.143)"><g transform="translate(50.154)"><g transform="translate(0 147.382)"><path fill="#FFF" d="M4.35,41.8075057 L200.016195,41.8075057 L200.016195,90.2819777 C200.016195,109.0374 156.214825,124.241674 102.183097,124.241674 C48.1513697,124.241674 4.35,109.0374 4.35,90.2819777 L4.35,41.8075057 Z"/><path fill="#000" d="M204.366195,37.4575057 L204.366195,90.2819777 C204.366195,112.690262 158.556469,128.591674 102.183097,128.591674 C45.8097258,128.591674 -5.32907052e-15,112.690262 -5.32907052e-15,90.2819777 L-5.32907052e-15,37.4575057 L4.35,37.4575057 L204.366195,37.4575057 Z M195.666195,46.1575057 L8.7,46.1575057 L8.7,90.2819777 C8.7,96.8798121 17.5832477,104.242626 33.8849851,109.994517 L34.4311219,110.185647 C52.1683769,116.342579 76.3416694,119.891674 102.183097,119.891674 C128.024525,119.891674 152.197818,116.342579 169.935073,110.185647 C186.584445,104.406339 195.666195,96.9531214 195.666195,90.2819777 L195.666195,46.1575057 Z"/><ellipse cx="102.183" cy="38.31" fill="#FFF" rx="97.833" ry="33.96"/><path fill="#000" d="M102.183097,1.77635684e-15 C158.556469,1.77635684e-15 204.366195,15.9014117 204.366195,38.309696 C204.366195,60.7179803 158.556469,76.6193921 102.183097,76.6193921 C45.8097258,76.6193921 -5.32907052e-15,60.7179803 -5.32907052e-15,38.309696 C-5.32907052e-15,15.9014117 45.8097258,1.77635684e-15 102.183097,1.77635684e-15 Z M102.183097,8.7 C76.3416694,8.7 52.1683769,12.2490944 34.4311219,18.4060269 C17.7817499,24.1853351 8.7,31.6385523 8.7,38.309696 C8.7,44.9808397 17.7817499,52.434057 34.4311219,58.2133651 C52.1683769,64.3702977 76.3416694,67.9193921 102.183097,67.9193921 C128.024525,67.9193921 152.197818,64.3702977 169.935073,58.2133651 C186.584445,52.434057 195.666195,44.9808397 195.666195,38.309696 C195.666195,31.6385523 186.584445,24.1853351 169.935073,18.4060269 C152.197818,12.2490944 128.024525,8.7 102.183097,8.7 Z"/></g><g transform="translate(0 73.691)"><path fill="#FFF" d="M4.35,41.8075057 L200.016195,41.8075057 L200.016195,90.2819777 C200.016195,109.0374 156.214825,124.241674 102.183097,124.241674 C48.1513697,124.241674 4.35,109.0374 4.35,90.2819777 L4.35,41.8075057 Z"/><path fill="#000" d="M204.366195,37.4575057 L204.366195,90.2819777 C204.366195,112.690262 158.556469,128.591674 102.183097,128.591674 C45.8097258,128.591674 -5.32907052e-15,112.690262 -5.32907052e-15,90.2819777 L-5.32907052e-15,37.4575057 L204.366195,37.4575057 Z M195.666195,46.1575057 L8.7,46.1575057 L8.7,90.2819777 C8.7,96.8798121 17.5832477,104.242626 33.8849851,109.994517 L34.4311219,110.185647 C52.1683769,116.342579 76.3416694,119.891674 102.183097,119.891674 C128.024525,119.891674 152.197818,116.342579 169.935073,110.185647 C186.584445,104.406339 195.666195,96.9531214 195.666195,90.2819777 L195.666195,46.1575057 Z"/><ellipse cx="102.183" cy="38.31" fill="#FFF" rx="97.833" ry="33.96"/><path fill="#000" d="M102.183097,1.77635684e-15 C158.556469,1.77635684e-15 204.366195,15.9014117 204.366195,38.309696 C204.366195,60.7179803 158.556469,76.6193921 102.183097,76.6193921 C45.8097258,76.6193921 -5.32907052e-15,60.7179803 -5.32907052e-15,38.309696 C-5.32907052e-15,15.9014117 45.8097258,1.77635684e-15 102.183097,1.77635684e-15 Z M102.183097,8.7 C76.3416694,8.7 52.1683769,12.2490944 34.4311219,18.4060269 C17.7817499,24.1853351 8.7,31.6385523 8.7,38.309696 C8.7,44.9808397 17.7817499,52.434057 34.4311219,58.2133651 C52.1683769,64.3702977 76.3416694,67.9193921 102.183097,67.9193921 C128.024525,67.9193921 152.197818,64.3702977 169.935073,58.2133651 C186.584445,52.434057 195.666195,44.9808397 195.666195,38.309696 C195.666195,31.6385523 186.584445,24.1853351 169.935073,18.4060269 C152.197818,12.2490944 128.024525,8.7 102.183097,8.7 Z"/></g><path fill="#FFF" d="M4.35,41.8075057 L200.016195,41.8075057 L200.016195,90.2819777 C200.016195,109.0374 156.214825,124.241674 102.183097,124.241674 C48.1513697,124.241674 4.35,109.0374 4.35,90.2819777 L4.35,41.8075057 Z"/><path fill="#000" d="M204.366195,37.4575057 L204.366195,90.2819777 C204.366195,112.690262 158.556469,128.591674 102.183097,128.591674 C45.8097258,128.591674 -5.32907052e-15,112.690262 -5.32907052e-15,90.2819777 L-5.32907052e-15,37.4575057 L4.35,37.4575057 L204.366195,37.4575057 Z M195.666195,46.1575057 L8.7,46.1575057 L8.7,90.2819777 C8.7,96.8798121 17.5832477,104.242626 33.8849851,109.994517 L34.4311219,110.185647 C52.1683769,116.342579 76.3416694,119.891674 102.183097,119.891674 C128.024525,119.891674 152.197818,116.342579 169.935073,110.185647 C186.584445,104.406339 195.666195,96.9531214 195.666195,90.2819777 L195.666195,46.1575057 Z"/><ellipse cx="102.183" cy="38.31" fill="#FFF" rx="97.833" ry="33.96"/><path fill="#000" d="M102.183097,-5.32907052e-15 C158.556469,-5.32907052e-15 204.366195,15.9014117 204.366195,38.309696 C204.366195,60.7179803 158.556469,76.6193921 102.183097,76.6193921 C45.8097258,76.6193921 -5.32907052e-15,60.7179803 -5.32907052e-15,38.309696 C-5.32907052e-15,15.9014117 45.8097258,-5.32907052e-15 102.183097,-5.32907052e-15 Z M102.183097,8.7 C76.3416694,8.7 52.1683769,12.2490943 34.4311219,18.4060269 C17.7817499,24.1853351 8.7,31.6385523 8.7,38.309696 C8.7,44.9808397 17.7817499,52.434057 34.4311219,58.2133651 C52.1683769,64.3702977 76.3416694,67.9193921 102.183097,67.9193921 C128.024525,67.9193921 152.197818,64.3702977 169.935073,58.2133651 C186.584445,52.434057 195.666195,44.9808397 195.666195,38.309696 C195.666195,31.6385523 186.584445,24.1853351 169.935073,18.4060269 C152.197818,12.2490943 128.024525,8.7 102.183097,8.7 Z"/></g><rect width="134.043" height="248.281" y="41.736" fill="#FFF" rx="24.496"/><path fill="#000" d="M109.546157,41.7356181 C123.075177,41.7356181 134.042615,52.7030559 134.042615,66.232076 L134.042615,265.520304 C134.042615,279.049324 123.075177,290.016762 109.546157,290.016762 L24.4964578,290.016762 C10.9674377,290.016762 0,279.049324 0,265.520304 L0,66.232076 C0,52.7030559 10.9674377,41.7356181 24.4964578,41.7356181 L109.546157,41.7356181 Z M109.546157,50.4356181 L24.4964578,50.4356181 C15.7723151,50.4356181 8.7,57.5079332 8.7,66.232076 L8.7,265.520304 C8.7,274.244446 15.7723151,281.316762 24.4964578,281.316762 L109.546157,281.316762 C118.2703,281.316762 125.342615,274.244446 125.342615,265.520304 L125.342615,66.232076 C125.342615,57.5079332 118.2703,50.4356181 109.546157,50.4356181 Z"/><rect width="134.043" height="222.595" y="89.118" fill="#FFF" rx="24.496"/><path fill="#000" d="M109.546157,89.1175157 C123.075177,89.1175157 134.042615,100.084953 134.042615,113.613974 L134.042615,287.216067 C134.042615,300.745087 123.075177,311.712525 109.546157,311.712525 L24.4964578,311.712525 C10.9674377,311.712525 0,300.745087 0,287.216067 L0,113.613974 C0,100.084953 10.9674377,89.1175157 24.4964578,89.1175157 L109.546157,89.1175157 Z M109.546157,97.8175157 L24.4964578,97.8175157 C15.7723151,97.8175157 8.7,104.889831 8.7,113.613974 L8.7,287.216067 C8.7,295.94021 15.7723151,303.012525 24.4964578,303.012525 L109.546157,303.012525 C118.2703,303.012525 125.342615,295.94021 125.342615,287.216067 L125.342615,113.613974 C125.342615,104.889831 118.2703,97.8175157 109.546157,97.8175157 Z"/><path fill="#000" d="M110.955079,223.986643 C113.357518,223.986643 115.305079,225.934204 115.305079,228.336643 C115.305079,230.739082 113.357518,232.686643 110.955079,232.686643 L23.5990519,232.686643 C21.1966133,232.686643 19.2490519,230.739082 19.2490519,228.336643 C19.2490519,225.934204 21.1966133,223.986643 23.5990519,223.986643 L110.955079,223.986643 Z M110.955079,245.726175 C113.357518,245.726175 115.305079,247.673736 115.305079,250.076175 C115.305079,252.478613 113.357518,254.426175 110.955079,254.426175 L23.5990519,254.426175 C21.1966133,254.426175 19.2490519,252.478613 19.2490519,250.076175 C19.2490519,247.673736 21.1966133,245.726175 23.5990519,245.726175 L110.955079,245.726175 Z M110.955079,267.465706 C113.357518,267.465706 115.305079,269.413267 115.305079,271.815706 C115.305079,274.218145 113.357518,276.165706 110.955079,276.165706 L23.5990519,276.165706 C21.1966133,276.165706 19.2490519,274.218145 19.2490519,271.815706 C19.2490519,269.413267 21.1966133,267.465706 23.5990519,267.465706 L110.955079,267.465706 Z"/></g><g fill="#000" fill-rule="nonzero" transform="translate(1369.154 743.992)"><path d="M23.953472,9.53224869 C16.0159896,9.53224869 9.58138878,15.9338484 9.58138878,23.8306217 L9.58138878,209.709471 C9.58138878,217.606245 16.0159896,224.007844 23.953472,224.007844 L306.604441,224.007844 C314.541923,224.007844 320.976524,217.606245 320.976524,209.709471 L320.976524,23.8306217 C320.976524,15.9338484 314.541923,9.53224869 306.604441,9.53224869 L23.953472,9.53224869 Z M23.953472,0 L306.604441,0 C319.833578,0 330.557913,10.6693328 330.557913,23.8306217 L330.557913,209.709471 C330.557913,222.87076 319.833578,233.540093 306.604441,233.540093 L23.953472,233.540093 C10.7243347,233.540093 0,222.87076 0,209.709471 L0,23.8306217 C0,10.6693328 10.7243347,0 23.953472,0 Z"/><path d="M215.581248,224.0115 L215.581248,262.124834 L114.976665,262.124834 L114.976665,224.0115 L215.581248,224.0115 Z M206.010665,233.5805 L124.545665,233.5805 L124.545665,252.5545 L206.010665,252.5545 L206.010665,233.5805 Z"/><path d="M261.422086,252.669293 C269.318859,252.669293 275.720459,259.070892 275.720459,266.967666 C275.720459,274.864439 269.318859,281.266039 261.422086,281.266039 L74.0495212,281.266039 C66.1527478,281.266039 59.7511482,274.864439 59.7511482,266.967666 C59.7511482,259.070892 66.1527478,252.669293 74.0495212,252.669293 L261.422086,252.669293 Z M261.422086,262.239293 L74.0495212,262.239293 C71.4381129,262.239293 69.3211482,264.356257 69.3211482,266.967666 C69.3211482,269.579074 71.4381129,271.696039 74.0495212,271.696039 L261.422086,271.696039 C264.033494,271.696039 266.150459,269.579074 266.150459,266.967666 C266.150459,264.356257 264.033494,262.239293 261.422086,262.239293 Z" transform="matrix(1 0 0 -1 0 533.935)"/><path d="M74.7465538,157.201178 C76.4617764,155.519 79.2159138,155.545788 80.8980918,157.261011 C82.5802699,158.976233 82.5534821,161.730371 80.8382595,163.412549 L44.4378541,199.111685 C42.7226316,200.793863 39.9684942,200.767075 38.2863161,199.051853 C36.604138,197.33663 36.6309259,194.582493 38.3461484,192.900315 L74.7465538,157.201178 Z M252.323436,66.9227537 C254.026266,65.2280319 256.780526,65.2346049 258.475248,66.9374348 C260.169969,68.6402647 260.163396,71.3945246 258.460566,73.0892463 C235.712202,95.729292 235.712202,95.729292 225.977765,105.417378 C222.01227,109.363991 220.097893,111.269252 218.373988,112.984949 L218.031196,113.326109 C216.551988,114.798274 215.122676,116.22078 212.532047,118.799073 C211.209794,120.11503 209.195666,120.441382 207.525524,119.610287 L183.813001,107.81 L138.939522,165.230343 C137.605314,166.937586 135.228217,167.394619 133.364092,166.334558 L133.173145,166.219474 L114.8851,154.557263 C112.859479,153.265532 112.264542,150.576287 113.556273,148.550665 C114.848004,146.525043 117.537249,145.930107 119.562871,147.221837 L134.518001,156.759 L179.144553,99.65555 C180.371684,98.0853228 182.500814,97.556687 184.310324,98.3464773 L184.510003,98.4396715 L208.606001,110.43 L208.717967,110.320592 C209.906749,109.13747 210.814518,108.234024 211.72354,107.32933 L212.065034,106.989462 C213.835417,105.227509 215.742957,103.329052 219.840635,99.2508851 C222.1769,96.9257445 223.952461,95.1586377 225.616361,93.5026605 L226.03027,93.0907228 C226.579739,92.5438698 227.12096,92.0052265 227.670562,91.4582409 L228.084596,91.046179 C232.52326,86.6286495 237.764483,81.4123829 252.323436,66.9227537 Z M93.8920013,135.656 C98.7797213,135.656 102.742001,139.61828 102.742001,144.506 C102.742001,149.39372 98.7797213,153.356 93.8920013,153.356 C89.0042813,153.356 85.0420013,149.39372 85.0420013,144.506 C85.0420013,139.61828 89.0042813,135.656 93.8920013,135.656 Z M271.892001,45.656 C276.779721,45.656 280.742001,49.61828 280.742001,54.506 C280.742001,59.39372 276.779721,63.356 271.892001,63.356 C267.004281,63.356 263.042001,59.39372 263.042001,54.506 C263.042001,49.61828 267.004281,45.656 271.892001,45.656 Z"/></g><g fill="#000" fill-rule="nonzero" transform="translate(2025.92 730.943)"><path d="M155.130802,0 C240.807184,0 310.261605,69.4547955 310.261605,155.131616 C310.261605,240.808436 240.807184,310.263232 155.130802,310.263232 C69.4544208,310.263232 0,240.808436 0,155.131616 C0,69.4547955 69.4544208,0 155.130802,0 Z M155.130802,8.7 C74.2593086,8.7 8.7,74.2596623 8.7,155.131616 C8.7,236.00357 74.2593086,301.563232 155.130802,301.563232 C236.002296,301.563232 301.561605,236.00357 301.561605,155.131616 C301.561605,74.2596623 236.002296,8.7 155.130802,8.7 Z"/><path d="M155.281957 53.5392759C161.282357 53.5392759 166.204367 58.2924829 166.413682 64.2892494L170.01503 167.473276 170.149103 167.540738C180.842609 172.987612 187.871154 183.97182 188.036985 196.29288L188.039984 196.738794C188.039984 214.830605 173.373744 229.496925 155.282007 229.496925 137.19027 229.496925 122.52403 214.830605 122.52403 196.738794 122.52403 184.237717 129.5921 173.053951 140.413897 167.541255L140.54703 167.473276 144.150233 64.2892305C144.356116 58.3907902 149.121447 53.6954529 154.987741 53.5430926L155.281957 53.5392759ZM155.281957 62.2392759C153.968316 62.2392759 152.890763 63.2798744 152.844938 64.5927331L149.148619 170.478332 149.049424 173.319901 146.406905 174.369397C137.316798 177.979598 131.22403 186.791219 131.22403 196.738794 131.22403 210.025738 141.995158 220.796925 155.282007 220.796925 168.568856 220.796925 179.339984 210.025738 179.339984 196.738794 179.339984 186.790891 173.246813 177.979038 164.156265 174.369061L161.513571 173.319613 161.414395 170.477899 157.718976 64.5927157C157.673152 63.2798744 156.595598 62.2392759 155.281957 62.2392759ZM155.130802 35.6488377C159.958277 35.6488377 163.871718 31.7353752 163.871718 26.9078745 163.871718 22.0803738 159.958277 18.1669112 155.130802 18.1669112 150.303328 18.1669112 146.389886 22.0803738 146.389886 26.9078745 146.389886 31.7353752 150.303328 35.6488377 155.130802 35.6488377ZM217.299507 53.890999C221.348174 56.5202343 226.761659 55.3695564 229.3909 51.3208801 232.020141 47.2722039 230.869462 41.8586571 226.820795 39.2294218 222.772127 36.6001864 217.358643 37.7508643 214.729402 41.7995406 212.100161 45.8482168 213.250839 51.2617636 217.299507 53.890999ZM259.817944 102.971831C261.858132 107.347028 267.058793 109.239924 271.433975 107.199743 275.809157 105.159562 277.702052 99.9588468 275.661864 95.5836495 273.621676 91.2084522 268.421015 89.3155562 264.045833 91.3557371 259.670651 93.395918 257.777756 98.5966336 259.817944 102.971831ZM50.4436612 102.971831C52.4838492 98.5966336 50.5909537 93.395918 46.2157717 91.3557371 41.8405896 89.3155562 36.6399286 91.2084522 34.5997406 95.5836495 32.5595526 99.9588468 34.452448 105.159562 38.8276301 107.199743 43.2028122 109.239924 48.4034732 107.347028 50.4436612 102.971831ZM92.9620981 53.890999C97.0107655 51.2617636 98.1614442 45.8482168 95.5322031 41.7995406 92.902962 37.7508643 87.4894773 36.6001864 83.4408099 39.2294218 79.3921426 41.8586571 78.2414639 47.2722039 80.870705 51.3208801 83.4999461 55.3695564 88.9134308 56.5202343 92.9620981 53.890999Z"/></g><g fill="#000" fill-rule="nonzero" transform="translate(2656.59 738.192)"><path d="M136.443702,197.843625 C127.654162,179.620894 109.256394,167.797338 88.7439266,167.797338 C59.4837168,167.797338 35.7636302,191.635564 35.7636302,221.041505 C35.7636302,237.490954 43.239171,252.712875 55.8088887,262.749977 C57.6896224,264.25177 60.4256685,263.936984 61.9200189,262.046883 C63.4143692,260.156782 63.1011436,257.407109 61.2204099,255.905316 C50.7060198,247.509424 44.4625226,234.796227 44.4625226,221.041505 C44.4625226,196.463757 64.2879825,176.539556 88.7439266,176.539556 C105.891337,176.539556 121.267078,186.420968 128.615987,201.656942 C129.663787,203.829272 132.26549,204.736653 134.427054,203.683634 C136.588618,202.630615 137.491502,200.015954 136.443702,197.843625 Z"/><polygon points="178.328 2.207 178.328 291.884 169.628 291.884 169.628 2.207"/><polygon points="343.7 142.082 343.7 150.782 .093 150.782 .093 142.082"/><path d="M330.555698,0 C340.165452,0 347.955698,7.79024535 347.955698,17.4 L347.955698,275.464293 C347.955698,285.074047 340.165452,292.864293 330.555698,292.864293 L17.4,292.864293 C7.79024535,292.864293 0,285.074047 0,275.464293 L0,17.4 C0,7.79024535 7.79024535,0 17.4,0 L330.555698,0 Z M330.555698,8.7 L17.4,8.7 C12.5951227,8.7 8.7,12.5951227 8.7,17.4 L8.7,275.464293 C8.7,280.26917 12.5951227,284.164293 17.4,284.164293 L330.555698,284.164293 C335.360575,284.164293 339.255698,280.26917 339.255698,275.464293 L339.255698,17.4 C339.255698,12.5951227 335.360575,8.7 330.555698,8.7 Z"/><path d="M245.755148 252.334583 272.982681 252.334583 272.982681 259.590624 234.533577 259.590624 234.533577 253.208805 256.454786 231.265838C257.440665 230.275049 258.397534 229.269704 259.32542 228.249773 260.253307 227.229843 261.065195 226.166217 261.76111 225.058864 262.457025 223.951511 263.022447 222.771323 263.457394 221.518266 263.892341 220.265208 264.109811 218.910178 264.109811 217.453134 264.109811 214.30592 263.080452 211.654141 261.021704 209.497716 258.962956 207.341292 256.077852 206.263096 252.366306 206.263096 248.944725 206.263096 246.161107 206.802194 244.015369 207.880406 241.869632 208.958618 239.897903 210.284508 238.100122 211.858115L234.359599 206.263096C235.229492 205.505433 236.244353 204.689501 237.404211 203.815275 238.564069 202.941049 239.86889 202.139687 241.318713 201.411165 242.768535 200.682643 244.40681 200.070694 246.233587 199.575299 248.060363 199.079905 250.104583 198.832211 252.366306 198.832211 255.207958 198.832211 257.846596 199.283888 260.282298 200.187255 262.718 201.090622 264.83471 202.34366 266.63249 203.946408 268.43027 205.549156 269.836577 207.501565 270.851453 209.803694 271.866328 212.105823 272.373759 214.655611 272.373759 217.453134 272.373759 219.376432 272.141791 221.153998 271.677847 222.785887 271.213904 224.417776 270.561494 225.947649 269.720597 227.375552 268.879699 228.803454 267.893835 230.173055 266.762973 231.484394 265.632111 232.795733 264.370785 234.121623 262.978955 235.462103L245.755148 252.159739 245.755148 252.334583ZM289.684554 258.716402 310.474907 207.574428 310.474907 207.399584 281.15964 207.399584 281.15964 200.143543 319.1738 200.143543 319.1738 206.263096 298.12248 259.590624 289.684554 259.590624 289.684554 258.716402ZM42.2877995 90.3819554C44.6899323 90.3819554 46.6372457 92.3292688 46.6372457 94.7314017L46.6372457 121.00138C46.6372457 123.403513 44.6899323 125.350826 42.2877995 125.350826 39.8856667 125.350826 37.9383533 123.403513 37.9383533 121.00138L37.9383533 94.7314017C37.9383533 92.3292688 39.8856667 90.3819554 42.2877995 90.3819554ZM130.355121 90.3819554C132.757254 90.3819554 134.704568 92.3292688 134.704568 94.7314017L134.704568 121.00138C134.704568 123.403513 132.757254 125.350826 130.355121 125.350826 127.952988 125.350826 126.005675 123.403513 126.005675 121.00138L126.005675 94.7314017C126.005675 92.3292688 127.952988 90.3819554 130.355121 90.3819554ZM59.6855844 68.4978853C62.0877172 68.4978853 64.0350306 70.4451987 64.0350306 72.8473315L64.0350306 121.00138C64.0350306 123.403513 62.0877172 125.350826 59.6855844 125.350826 57.2834516 125.350826 55.3361382 123.403513 55.3361382 121.00138L55.3361382 72.8473315C55.3361382 70.4451987 57.2834516 68.4978853 59.6855844 68.4978853ZM111.890637 68.4978853C114.29277 68.4978853 116.240083 70.4451987 116.240083 72.8473315L116.240083 121.00138C116.240083 123.403513 114.29277 125.350826 111.890637 125.350826 109.488504 125.350826 107.541191 123.403513 107.541191 121.00138L107.541191 72.8473315C107.541191 70.4451987 109.488504 68.4978853 111.890637 68.4978853ZM77.0833693 103.493819C79.4855021 103.493819 81.4328155 105.441132 81.4328155 107.843265L81.4328155 121.00138C81.4328155 123.403513 79.4855021 125.350826 77.0833693 125.350826 74.6812365 125.350826 72.7339231 123.403513 72.7339231 121.00138L72.7339231 107.843265C72.7339231 105.441132 74.6812365 103.493819 77.0833693 103.493819ZM94.492852 43.2388452C96.8949848 43.2388452 98.8422982 45.1861586 98.8422982 47.5882914L98.8422982 121.00138C98.8422982 123.403513 96.8949848 125.350826 94.492852 125.350826 92.0907192 125.350826 90.1434058 123.403513 90.1434058 121.00138L90.1434058 47.5882914C90.1434058 45.1861586 92.0907192 43.2388452 94.492852 43.2388452ZM235.245526 104.133268C236.94409 105.840292 239.698007 105.840292 241.396572 104.133268L264.49118 80.9236364 270.155565 86.6162334C271.854129 88.3232576 274.608046 88.3232576 276.306611 86.6162334L321.903063 40.7926857C323.601628 39.0856615 323.601628 36.3180285 321.903063 34.6110043 320.204499 32.9039801 317.450582 32.9039801 315.752018 34.6110043L273.231088 77.3437113 267.566703 71.6511143C265.868138 69.9440901 263.114221 69.9440901 261.415657 71.6511143L238.321049 94.860746 230.307616 86.8074021C228.609052 85.1003779 225.855135 85.1003779 224.15657 86.8074021L193.710447 117.405164C192.011882 119.112188 192.011882 121.879821 193.710447 123.586845 195.409011 125.29387 198.162928 125.29387 199.861493 123.586845L227.232093 96.0799242 235.245526 104.133268Z"/></g><g fill="#000" fill-rule="nonzero" transform="translate(1995.475 1390.613)"><path d="M331.118574,183.799581 C358.033101,183.799581 379.851637,205.618117 379.851637,232.532644 C379.851637,259.447171 358.033101,281.265707 331.118574,281.265707 L48.7330626,281.265707 C21.8185353,281.265707 0,259.447171 0,232.532644 C0,205.618117 21.8185353,183.799581 48.7330626,183.799581 L331.118574,183.799581 Z M331.118574,192.499581 L48.7330626,192.499581 C26.6234126,192.499581 8.7,210.422994 8.7,232.532644 C8.7,254.642294 26.6234126,272.565707 48.7330626,272.565707 L331.118574,272.565707 C353.228224,272.565707 371.151637,254.642294 371.151637,232.532644 C371.151637,210.422994 353.228224,192.499581 331.118574,192.499581 Z"/><path d="M49.4107603,208.578192 C62.6620795,208.578192 73.4082588,219.300827 73.4082588,232.532644 C73.4082588,245.764461 62.6620795,256.487096 49.4107603,256.487096 C36.1594411,256.487096 25.4132619,245.764461 25.4132619,232.532644 C25.4132619,219.300827 36.1594411,208.578192 49.4107603,208.578192 Z M49.4107603,217.278192 C40.960052,217.278192 34.1132619,224.109981 34.1132619,232.532644 C34.1132619,240.955307 40.960052,247.787096 49.4107603,247.787096 C57.8614687,247.787096 64.7082588,240.955307 64.7082588,232.532644 C64.7082588,224.109981 57.8614687,217.278192 49.4107603,217.278192 Z M328.749707,208.578192 C342.001027,208.578192 352.747206,219.300827 352.747206,232.532644 C352.747206,245.764461 342.001027,256.487096 328.749707,256.487096 C315.498388,256.487096 304.752209,245.764461 304.752209,232.532644 C304.752209,219.300827 315.498388,208.578192 328.749707,208.578192 Z M328.749707,217.278192 C320.298999,217.278192 313.452209,224.109981 313.452209,232.532644 C313.452209,240.955307 320.298999,247.787096 328.749707,247.787096 C337.200416,247.787096 344.047206,240.955307 344.047206,232.532644 C344.047206,224.109981 337.200416,217.278192 328.749707,217.278192 Z M255.4997,0 C272.068243,0 285.4997,13.4314575 285.4997,30 L285.4997,160.728969 C285.4997,177.297511 272.068243,190.728969 255.4997,190.728969 L124.351937,190.728969 C107.783394,190.728969 94.3519367,177.297511 94.3519367,160.728969 L94.3519367,30 C94.3519367,13.4314575 107.783394,0 124.351937,0 L255.4997,0 Z M255.4997,8.7 L124.351937,8.7 C112.588271,8.7 103.051937,18.2363348 103.051937,30 L103.051937,160.728969 C103.051937,172.492634 112.588271,182.028969 124.351937,182.028969 L255.4997,182.028969 C267.263365,182.028969 276.7997,172.492634 276.7997,160.728969 L276.7997,30 C276.7997,18.2363348 267.263365,8.7 255.4997,8.7 Z"/><g transform="translate(9.447 80.144)"><path d="M69.6239591,10.8707009 C72.0263977,10.8707009 73.9739591,12.8182623 73.9739591,15.2207009 C73.9739591,17.6231396 72.0263977,19.5707009 69.6239591,19.5707009 L23.779796,19.5707009 C21.3773574,19.5707009 19.429796,17.6231396 19.429796,15.2207009 C19.429796,12.8182623 21.3773574,10.8707009 23.779796,10.8707009 L69.6239591,10.8707009 Z"/><polygon points="10.916 4.332 26.164 26.164 -4.332 26.164" transform="rotate(-90 10.916 15.248)"/></g><g transform="matrix(-1 0 0 1 371.366 80.144)"><path d="M69.6239591,10.8707009 C72.0263977,10.8707009 73.9739591,12.8182623 73.9739591,15.2207009 C73.9739591,17.6231396 72.0263977,19.5707009 69.6239591,19.5707009 L23.779796,19.5707009 C21.3773574,19.5707009 19.429796,17.6231396 19.429796,15.2207009 C19.429796,12.8182623 21.3773574,10.8707009 23.779796,10.8707009 L69.6239591,10.8707009 Z"/><polygon points="10.916 4.332 26.164 26.164 -4.332 26.164" transform="rotate(-90 10.916 15.248)"/></g></g><g fill-rule="nonzero" transform="translate(2691.385 1393.511)"><path fill="#000" d="M268.216404,-1.0658141e-14 C275.42372,-1.0658141e-14 281.266404,5.84268401 281.266404,13.05 L281.266404,268.217828 C281.266404,275.425144 275.42372,281.267828 268.216404,281.267828 L64.6415768,281.267828 C61.4674851,281.267828 58.4021993,280.110999 56.0195451,278.013902 L4.42796838,232.605487 C1.61309338,230.12797 -1.0658141e-14,226.559294 -1.0658141e-14,222.809413 L-1.0658141e-14,13.05 C-1.0658141e-14,5.84268401 5.84268401,-1.0658141e-14 13.05,-1.0658141e-14 L268.216404,-1.0658141e-14 Z M268.216404,8.7 L13.05,8.7 C10.6475613,8.7 8.7,10.6475613 8.7,13.05 L8.7,222.809413 C8.7,224.059373 9.23769779,225.248932 10.1759895,226.074771 L61.7675662,271.483186 C62.5617843,272.182218 63.5835462,272.567828 64.6415768,272.567828 L268.216404,272.567828 C270.618843,272.567828 272.566404,270.620267 272.566404,268.217828 L272.566404,13.05 C272.566404,10.6475613 270.618843,8.7 268.216404,8.7 Z"/><path fill="#000" d="M250.076945,29.7969234 L250.076945,250.078248 L75.1272853,250.078248 L29.7968096,210.180551 L29.7968096,29.7969234 L250.076945,29.7969234 Z M241.37681,38.4969234 L38.4968096,38.4969234 L38.4968096,206.246923 L78.4108096,241.377923 L241.37681,241.377923 L241.37681,38.4969234 Z"/><polygon fill="#FFF" stroke="#000" stroke-width="4.35" points="103.727 140.586 103.727 144.899 67.724 144.899 67.724 140.586"/><path fill="#000" d="M141.18791,101.24505 C163.924897,101.24505 182.356857,119.67711 182.356857,142.414196 C182.356857,165.151282 163.924897,183.583341 141.18791,183.583341 C118.450923,183.583341 100.018963,165.151282 100.018963,142.414196 C100.018963,119.67711 118.450923,101.24505 141.18791,101.24505 Z M141.18791,109.94505 C123.255811,109.94505 108.718963,124.481976 108.718963,142.414196 C108.718963,160.346415 123.255811,174.883341 141.18791,174.883341 C159.120009,174.883341 173.656857,160.346415 173.656857,142.414196 C173.656857,124.481976 159.120009,109.94505 141.18791,109.94505 Z"/></g><g fill="#000" fill-rule="nonzero" transform="translate(55.622 2037.234)"><path d="M92.2574439,93.4774778 C93.4537221,91.3930111 96.1206035,90.6688136 98.2140903,91.8599374 L128.048407,108.675225 L187.730254,108.675225 C189.428611,108.675225 190.972837,109.655905 191.688972,111.18926 C191.839351,111.511245 192.178251,112.184489 192.709366,113.159325 C193.616491,114.824306 194.723621,116.692812 196.034144,118.71522 C199.794968,124.518947 204.413299,130.35445 209.911223,135.828685 C218.571682,144.451829 223.357965,154.514683 224.164816,165.849818 C230.755825,168.636197 236.201251,178.131621 241.526642,194.038957 C242.616396,197.294134 243.976288,200.717892 245.606362,204.309294 L236.086926,204.309294 C235.004562,201.725158 234.056609,199.218315 233.243081,196.788247 C230.444635,188.429082 227.67966,182.234693 225.02064,178.263348 C222.836599,175.001403 221.065173,173.678557 219.921582,173.678557 C217.510406,173.678557 215.555762,171.732335 215.555762,169.331548 C215.555762,158.912037 211.663038,149.868151 203.737022,141.976284 C197.774669,136.039621 192.777025,129.724837 188.697138,123.428729 C187.162716,121.060799 185.952749,119.009485 185.057459,117.369243 L126.608776,117.369243 C125.849006,117.369243 125.102388,117.171822 124.442723,116.796495 L93.8819839,99.408459 C91.7884971,98.2173352 91.0611658,95.5619444 92.2574439,93.4774778 Z M227.022633,0 C263.294123,0 283.778291,14.0221876 283.778291,39.1230811 C283.778291,48.2530501 281.418788,55.069689 276.947881,61.8502683 C276.086106,63.157238 273.459798,66.8290948 273.395387,66.9226745 C272.415249,68.346669 271.896531,69.2817266 271.670538,70.0083266 C271.474113,70.6398655 271.505974,71.0672082 271.850509,71.7533081 C272.188199,72.4257794 279.399039,80.5999185 286.966215,89.5438034 L287.736732,90.4557423 L288.508184,91.371415 L289.66378,92.748483 C294.020388,97.9532348 298.238567,103.14837 301.071174,107.045582 C313.19902,123.731547 322.162412,141.002225 327.282655,159.69556 C332.603032,179.119555 335.356989,193.873444 335.293578,204.31051 L326.616096,204.31051 C326.576664,195.395358 324.102982,181.129344 318.858685,161.983107 C314.042301,144.399122 305.551477,128.03899 293.997571,112.142673 C291.522364,108.737186 287.685685,104.016389 283.573304,99.0930702 L282.799267,98.1678464 C282.540354,97.8588285 282.280629,97.5492911 282.020358,97.239506 L281.238169,96.3096792 L280.454289,95.379996 C280.32359,95.2251514 280.192887,95.0703806 280.062212,94.9157177 L279.278779,93.9893063 C271.844505,85.205856 264.719683,76.9935211 264.040693,75.6413911 C262.678701,72.9291451 262.474246,70.1868639 263.32971,67.4364118 C263.87446,65.6849571 264.757388,64.0933642 266.192882,62.0078051 C266.274643,61.8890183 267.079739,60.7613874 267.914329,59.5789258 L268.208985,59.1608631 C268.796228,58.3263982 269.357493,57.5205371 269.648744,57.0788253 C273.242995,51.627782 275.046652,46.416994 275.046652,39.1230811 C275.046652,19.6671322 259.016691,8.69401802 227.022633,8.69401802 L145.017732,8.69401802 L97.8546262,30.0394253 C95.6595727,31.032878 93.0712927,30.066455 92.073541,27.8808592 C91.0757894,25.6952634 92.0463944,23.1181354 94.241448,22.1246828 L142.265467,0.38963773 C142.832829,0.13285673 143.448831,0 144.072056,0 L227.022633,0 Z"/><path d="M178.998615,117.369243 L192.096074,117.369243 C204.743978,118.379287 213.678039,121.497177 218.638733,126.436498 C221.300598,129.086893 222.580582,135.095103 223.926673,149.838312 C225.274875,164.604637 225.730112,168.684109 227.137931,176.093378 C228.078903,181.045659 229.237712,185.629737 230.681513,189.942478 C231.443994,192.220064 233.916445,193.450963 236.203887,192.691768 C238.491329,191.932573 239.727554,189.470774 238.965074,187.193188 C237.653288,183.274787 236.589079,179.064932 235.71738,174.477233 C234.382569,167.452203 233.942253,163.506428 232.622454,149.051192 C231.041462,131.73521 229.623338,125.078576 224.812935,120.288898 C218.131442,113.636194 207.31233,109.860442 192.440445,108.68877 L178.998615,108.675225 C176.587439,108.675225 174.632795,110.621447 174.632795,113.022234 C174.632795,115.423021 176.587439,117.369243 178.998615,117.369243 Z M264.988443,63.286575 C252.711747,78.5663248 246.568476,89.2707273 246.568476,96.431193 C246.568476,107.466803 279.054903,163.528681 293.927633,177.086576 C303.333086,185.660534 309.281823,190.224837 314.587285,192.342018 C322.415531,195.465933 328.702996,192.53768 331.578271,183.949023 C332.340751,181.671437 331.104526,179.209639 328.817084,178.450444 C326.529641,177.691248 324.05719,178.922147 323.29471,181.199733 C322.004378,185.054049 320.98501,185.528798 317.835609,184.272007 C313.858193,182.684793 308.433078,178.52225 299.823869,170.674144 C286.586963,158.607457 255.300116,104.615694 255.300116,96.431193 C255.300116,91.9996347 260.799031,82.4179952 271.806708,68.717685 C273.312957,66.8429855 273.007693,64.1074458 271.124881,62.6076862 C269.242069,61.1079266 266.494692,61.4118755 264.988443,63.286575 Z"/><path d="M60.6677263,46.8674633 C58.6922521,46.8674633 56.9629333,48.1882602 56.4510309,50.0880367 L49.9506343,74.212361 L111.039106,74.212361 L104.53871,50.0880367 C104.026807,48.1882602 102.297489,46.8674633 100.322014,46.8674633 L60.6677263,46.8674633 Z M60.6677263,38.1734453 L100.322014,38.1734453 C106.248437,38.1734453 111.436393,42.1358358 112.972101,47.8351654 L119.472497,71.9594897 C120.722108,76.5970547 117.95936,81.3651888 113.301727,82.6094153 C112.563816,82.8065385 111.803113,82.906379 111.039106,82.906379 L49.9506343,82.906379 C45.1282828,82.906379 41.2189945,79.0139346 41.2189945,74.212361 C41.2189945,73.451646 41.3192671,72.6942208 41.5172433,71.9594897 L48.01764,47.8351654 C49.5533473,42.1358358 54.7413036,38.1734453 60.6677263,38.1734453 Z" transform="rotate(-90 80.496 60.54)"/><path d="M235.367738,208.818838 C233.51251,208.818838 231.859897,209.986283 231.247022,211.72981 L213.920154,261.021846 C213.433435,262.406481 213.184841,263.86296 213.184841,265.329955 C213.184841,272.532315 219.048773,278.370982 226.282301,278.370982 L343.520174,278.370982 C344.382668,278.370982 345.243052,278.286154 346.088797,278.117734 C353.181854,276.705235 357.781901,269.834894 356.36329,262.772399 L346.227805,212.313328 C345.819667,210.281431 344.02787,208.818838 341.946766,208.818838 L235.367738,208.818838 Z M235.367738,200.124819 L341.946766,200.124819 C348.190077,200.124819 353.565468,204.512599 354.789882,210.608291 L364.925367,261.067362 C367.289719,272.838187 359.622974,284.288755 347.801212,286.64292 C346.391638,286.92362 344.957663,287.065 343.520174,287.065 L226.282301,287.065 C214.226422,287.065 204.453201,277.333889 204.453201,265.329955 C204.453201,262.884964 204.867524,260.457498 205.678723,258.149773 L223.005591,208.857738 C224.844217,203.627155 229.802053,200.124819 235.367738,200.124819 Z M49.2800039,69.8348175 L58.0116436,69.8348175 L58.0116436,52.4143436 L49.2800039,52.4143436 L49.2800039,69.8348175 Z M40.5483642,43.7203256 L66.7432834,43.7203256 L66.7432834,78.5288355 L40.5483642,78.5288355 L40.5483642,43.7203256 Z"/><polyline points="49.306 54.157 5.648 54.157 0 60.858 5.303 67.56 49.308 67.56"/></g><g fill="#000" fill-rule="nonzero" transform="translate(705.14 2051.732)"><path d="M221.725726 0C268.519608 0 303.347847 5.28557788 326.458425 16.0662714 346.294612 26.048008 356.655015 38.008258 356.655015 52.0993633 356.655015 65.75306 350.101779 76.7452054 337.358869 84.6837817 332.821919 87.4234191 327.970395 89.8318762 322.804952 91.9104535 312.473385 101.028618 308.97761 107.514394 310.698556 110.978373 311.088313 111.762889 315.069414 117.838014 319.316574 124.383227L319.798343 125.125943 320.128307 125.634977 321.118144 127.164016 321.774568 128.180033C324.390155 132.232138 326.862539 136.108969 328.403544 138.667945 333.231061 146.684459 337.215732 154.154187 340.32073 161.26608 346.009328 174.295619 348.489468 185.527868 346.941838 194.873232 342.123796 223.96699 322.957586 252.158892 303.299863 257.104858 283.690066 262.038766 273.112751 247.135503 280.291811 232.685248 284.717616 223.776838 282.756378 214.894633 273.923678 211.931507 264.218484 208.675683 259.407712 201.413221 257.967025 191.263697 257.51698 188.093164 257.424352 185.576163 257.424352 180.609191 257.424352 173.414072 255.645086 160.065342 252.596407 150.422296 248.552603 137.631645 243.373054 132.52107 236.693175 135.210168L236.709168 135.204999C234.184868 136.257829 231.42253 137.142395 228.428518 137.85983 225.960062 138.451329 223.496801 136.862922 222.999164 134.358773 221.944073 129.049467 220.350783 122.902662 218.21836 115.927816 216.48622 110.262238 211.197426 105.383745 201.948359 101.41289 201.703614 101.307815 201.472957 101.183401 201.257399 101.042174 188.260869 100.958247 174.971856 100.91654 161.39243 100.91654L160.37649 100.91654 159.459975 100.475394C146.026031 94.0092369 135.531791 83.1542787 128.035029 68.0645428 120.689416 53.2790459 116.463149 36.54906 115.340657 17.9090985L115.145 14.6600343 118.147946 13.4511481C140.529586 4.44104409 175.004025 0 221.725726 0ZM275.178143 101.508557 274.961386 101.518334C270.120017 101.754877 265.121796 101.827409 259.966956 101.736393 258.117744 101.703743 256.261741 101.672068 254.398945 101.641367 256.202315 106.770016 256.177687 113.422208 253.521386 119.660018 252.265358 122.609554 250.524244 125.236617 248.314386 127.544116 253.818989 130.928622 258.076503 138.022413 261.132566 147.688817 264.481865 158.28273 266.382195 172.539727 266.382195 180.609191 266.382195 185.158394 266.463747 187.374439 266.834837 189.988738 267.837198 197.050287 270.678725 201.339929 276.756397 203.37882 291.572402 208.349179 294.903181 223.433866 288.303949 236.717023 284.417439 244.539922 289.248891 251.347359 301.127267 248.358709 312.747971 245.434891 325.187855 230.754508 332.554861 212.746782 329.153547 213.540184 325.428476 213.053821 321.528063 211.242079 313.558624 207.540274 305.201044 198.335554 297.729606 185.803252 288.602929 170.494515 281.156391 142.484322 275.178143 101.508557ZM305.595283 97.3435496 305.25577 97.4254619C298.621284 98.9931811 291.581527 100.135864 284.137465 100.855426 289.938402 140.366526 297.099057 167.222953 305.410893 181.164906 312.040675 192.285446 319.29582 200.275987 325.28192 203.056531 330.629633 205.540544 334.40284 203.684028 337.721968 195.332962L337.75758 195.346947C337.881637 194.695723 337.997812 194.043672 338.105877 193.391122 339.307215 186.136842 337.171206 176.463123 332.119651 164.892708 329.190567 158.183741 325.383088 151.046181 320.742817 143.340603 319.325619 140.987222 316.958798 137.280058 314.395621 133.308079L313.897273 132.536294 313.665948 132.178341 313.201417 131.46002C312.813462 130.860364 312.423723 130.258552 312.034686 129.658177L311.568338 128.938648C307.299489 122.353502 303.235928 116.116222 302.686418 115.010148 300.046316 109.696062 301.150383 103.839555 305.595283 97.3435496ZM218.723349 101.180476 219.077608 101.500773C222.842326 104.93559 225.428372 108.855302 226.780078 113.276537 228.39512 118.559104 229.719088 123.409777 230.751622 127.832219 231.66516 127.523144 232.537647 127.194064 233.369601 126.845071 233.443288 126.808663 233.520124 126.778165 233.596824 126.748156 239.517183 124.216832 243.350234 120.658775 245.287829 116.108708 247.077186 111.906749 247.195802 107.947924 246.035601 104.86364 245.591118 103.682024 244.989099 102.743416 244.372013 102.161124 244.041943 101.849666 243.882096 101.774384 244.016077 101.774384 243.433482 101.774384 242.876867 101.662437 242.366312 101.458751 234.600535 101.34903 226.719181 101.256534 218.723349 101.180476ZM221.725726 9.01532408C178.181326 9.01532408 145.733616 12.9329578 124.516387 20.6573425 125.842417 36.7883834 129.690276 51.2374034 136.047167 64.0327673 142.510401 77.042183 151.286744 86.2842447 162.42959 91.9012973 196.858509 91.9066831 229.423257 92.1803891 260.124087 92.7224563 290.326679 93.2557265 314.517121 87.9631899 332.696982 76.9857854 342.836001 70.668974 347.697172 62.5150327 347.697172 52.0993633 347.697172 42.1211024 339.577106 32.7471415 322.572178 24.1878965 300.992391 14.1233361 267.334187 9.01532408 221.725726 9.01532408ZM100.165491 19.2265806 26.4731839 6.13860742C24.1155462 5.71988394 21.8670251 7.3039487 21.4509714 9.67671508 21.0349176 12.0494815 22.6088825 14.3124311 24.9665202 14.7311546L98.6588268 27.8191277C101.016465 28.2378512 103.264986 26.6537864 103.681039 24.2810201 104.097093 21.9082537 102.523128 19.645304 100.165491 19.2265806Z"/><path d="M100.165481,100.717287 L26.4731734,87.6293135 C24.1155357,87.21059 21.8670146,88.7946548 21.4509609,91.1674211 C21.0349071,93.5401875 22.608872,95.8031372 24.9665097,96.2218606 L98.6588163,109.309834 C101.016455,109.728557 103.264976,108.144493 103.681029,105.771726 C104.097083,103.39896 102.523118,101.13601 100.165481,100.717287 Z" transform="matrix(-1 0 0 1 125.132 0)"/><path d="M97.5339353,54.0731221 L4.33484157,54.0731221 C1.94077468,54.0731221 0,56.0263505 0,58.4357798 C0,60.8452092 1.94077468,62.7984375 4.33484157,62.7984375 L97.5339353,62.7984375 C99.9280022,62.7984375 101.868777,60.8452092 101.868777,58.4357798 C101.868777,56.0263505 99.9280022,54.0731221 97.5339353,54.0731221 Z"/></g><g fill="#000" fill-rule="nonzero" transform="translate(1398.15 2040.132)"><path d="M20.8396434,0 C25.6445207,0 29.5396434,3.89512268 29.5396434,8.7 L29.539,65.248 L29.5651348,65.2708259 C55.3565342,86.7750219 68.7136596,111.227422 68.9891345,138.327422 L68.9934845,139.184091 C68.9934845,166.625645 55.6280226,191.3668 29.5651348,213.097356 L29.539,213.119 L29.5396434,269.668182 C29.5396434,274.385697 25.7848739,278.22624 21.1008074,278.364337 L20.8396434,278.368182 L8.7,278.368182 C3.89512268,278.368182 0,274.473059 0,269.668182 L0,8.7 C0,3.89512268 3.89512268,0 8.7,0 L20.8396434,0 Z M20.8396434,8.7 L8.7,8.7 L8.7,269.668182 L20.8396434,269.668182 L20.8396434,208.977907 C47.1422041,188.14607 60.2934845,164.881464 60.2934845,139.184091 C60.2934845,113.486717 47.1422041,90.222112 20.8396434,69.3902748 L20.8396434,8.7 Z M178.284318,11.5194293 C137.358825,37.0406437 111.958301,81.8120809 111.958301,130.942416 C111.958301,180.70019 138.015371,225.962826 179.787869,251.289972 C181.831816,252.529241 184.49352,251.877137 185.732951,249.833457 C186.972382,247.789777 186.320193,245.128422 184.276246,243.889153 C145.065305,220.115109 120.614627,177.642869 120.614627,130.942416 C120.614627,84.830593 144.448915,42.8198315 182.865206,18.8633605 C184.893442,17.5985488 185.512186,14.9292212 184.247208,12.9012506 C182.982231,10.87328 180.312554,10.2546175 178.284318,11.5194293 Z"/><path d="M216.829279,47.946922 C187.538074,66.2129725 169.3571,98.2590959 169.3571,133.42359 C169.3571,169.037206 188.007963,201.434832 217.905449,219.562022 C219.949396,220.80129 222.6111,220.149187 223.850531,218.105507 C225.089962,216.061827 224.437772,213.400472 222.393825,212.161203 C195.057897,195.587115 178.013426,165.979885 178.013426,133.42359 C178.013426,101.277608 194.628164,71.9921604 221.410167,55.2908532 C223.438403,54.0260414 224.057147,51.3567139 222.792169,49.3287433 C221.527192,47.3007727 218.857515,46.6821102 216.829279,47.946922 Z M256.582791,77.005588 C237.212346,89.0850341 225.187608,110.280061 225.187608,133.535641 C225.187608,157.088286 237.523069,178.515694 257.294526,190.503356 C259.338473,191.742624 262.000177,191.09052 263.239608,189.046841 C264.479039,187.003161 263.826849,184.341806 261.782902,183.102537 C244.573003,172.667977 233.843934,154.030964 233.843934,133.535641 C233.843934,113.298573 244.302436,94.864222 261.163679,84.3495193 C263.191915,83.0847075 263.810659,80.41538 262.545681,78.3874093 C261.280704,76.3594387 258.611027,75.7407762 256.582791,77.005588 Z"/></g><g fill="#000" fill-rule="nonzero" transform="translate(2065.066 2028.535)"><path d="M214.570465,0 C224.18022,0 231.970465,7.79024535 231.970465,17.4 L231.970465,287.062878 C231.970465,296.672633 224.18022,304.462878 214.570465,304.462878 L17.4,304.462878 C7.79024535,304.462878 0,296.672633 0,287.062878 L0,61.3865255 C0,56.7129215 1.88011668,52.235799 5.21692871,48.9634512 L50.069976,4.97692575 C53.322813,1.78693072 57.6970603,0 62.2530473,0 L214.570465,0 Z M214.570465,8.7 L62.2530473,8.7 C59.9750538,8.7 57.7879301,9.59346536 56.1615116,11.1884629 L11.3084644,55.1749884 C9.64005834,56.8111622 8.7,59.0497235 8.7,61.3865255 L8.7,287.062878 C8.7,291.867756 12.5951227,295.762878 17.4,295.762878 L214.570465,295.762878 C219.375343,295.762878 223.270465,291.867756 223.270465,287.062878 L223.270465,17.4 C223.270465,12.5951227 219.375343,8.7 214.570465,8.7 Z"/><path d="M31.6584899 183.245663 114.849143 183.245663C117.251582 183.245663 119.199143 185.193224 119.199143 187.595663L119.199143 188.121811C119.199143 190.52425 117.251582 192.471811 114.849143 192.471811L31.6584899 192.471811C29.2560512 192.471811 27.3084899 190.52425 27.3084899 188.121811L27.3084899 187.595663C27.3084899 185.193224 29.2560512 183.245663 31.6584899 183.245663ZM31.6584899 201.697959 114.849143 201.697959C117.251582 201.697959 119.199143 203.64552 119.199143 206.047959L119.199143 206.574107C119.199143 208.976545 117.251582 210.924107 114.849143 210.924107L31.6584899 210.924107C29.2560512 210.924107 27.3084899 208.976545 27.3084899 206.574107L27.3084899 206.047959C27.3084899 203.64552 29.2560512 201.697959 31.6584899 201.697959ZM31.6584899 220.150254 114.849143 220.150254C117.251582 220.150254 119.199143 222.097816 119.199143 224.500254L119.199143 225.026402C119.199143 227.428841 117.251582 229.376402 114.849143 229.376402L31.6584899 229.376402C29.2560512 229.376402 27.3084899 227.428841 27.3084899 225.026402L27.3084899 224.500254C27.3084899 222.097816 29.2560512 220.150254 31.6584899 220.150254ZM31.6584899 238.60255 114.849143 238.60255C117.251582 238.60255 119.199143 240.550111 119.199143 242.95255L119.199143 243.478698C119.199143 245.881137 117.251582 247.828698 114.849143 247.828698L31.6584899 247.828698C29.2560512 247.828698 27.3084899 245.881137 27.3084899 243.478698L27.3084899 242.95255C27.3084899 240.550111 29.2560512 238.60255 31.6584899 238.60255ZM62.84958.263073916C65.2520186.263073916 67.19958 2.21063525 67.19958 4.61307392L67.19958 58.2213674C67.19958 60.6238061 65.2520186 62.5713674 62.84958 62.5713674L4.81953238 62.5713674C2.41709372 62.5713674.469532378 60.6238061.469532378 58.2213674.469532378 55.8189288 2.41709372 53.8713674 4.81953238 53.8713674L58.4995324 53.8710739 58.49958 4.61307392C58.49958 2.28129521 60.3342636.37802984 62.6388186.268090163L62.84958.263073916ZM171.495764 176.326052C191.993964 176.326052 208.611038 192.848801 208.611038 213.230644 208.611038 233.612487 191.993964 250.135235 171.495764 250.135235 150.997564 250.135235 134.380489 233.612487 134.380489 213.230644 134.380489 192.848801 150.997564 176.326052 171.495764 176.326052ZM171.495764 185.026052C155.791389 185.026052 143.080489 197.664799 143.080489 213.230644 143.080489 228.796488 155.791389 241.435235 171.495764 241.435235 187.200138 241.435235 199.911038 228.796488 199.911038 213.230644 199.911038 197.664799 187.200138 185.026052 171.495764 185.026052Z"/><path d="M171.495764,178.848015 C173.898203,178.848015 175.845764,180.795576 175.845764,183.198015 L175.845764,206.788015 L198.621252,197.615322 C200.782185,196.744932 203.230575,197.733046 204.195416,199.825683 L204.28147,200.025081 C205.179059,202.253543 204.100173,204.787709 201.871711,205.685298 L173.120993,217.265632 C170.262248,218.417089 167.145764,216.312572 167.145764,213.230644 L167.145764,183.198015 C167.145764,180.795576 169.093325,178.848015 171.495764,178.848015 Z M197.404299,59.506578 C199.107908,57.8126394 201.862164,57.8204789 203.556103,59.5240879 C205.250041,61.2276969 205.242202,63.9819534 203.538593,65.675892 L148.962652,119.942035 C147.265896,121.629159 144.525113,121.629159 142.828358,119.942035 L129.491209,106.680235 L87.6065423,148.327357 C85.9645208,149.960058 83.344742,150.012726 81.6396394,148.485361 L81.4722482,148.327357 L63.5872093,130.544235 L38.8893564,155.101826 C37.2407025,156.741121 34.6080915,156.78666 32.904721,155.243887 L32.7375523,155.084316 C31.0436137,153.380707 31.0514532,150.62645 32.7550622,148.932512 L60.5202267,121.324955 C62.2169822,119.637831 64.9577653,119.637831 66.6545208,121.324955 L84.5392093,139.107235 L126.423988,97.4614701 C128.066009,95.8287695 130.685788,95.7761017 132.390891,97.3034668 L132.558282,97.4614701 L145.895209,110.722235 L197.404299,59.506578 Z"/></g><g fill="#000" fill-rule="nonzero" transform="translate(2702.985 2028.535)"><path d="M240.716835,295.72835 L240.716835,166.620843 L195.349549,198.330699 C192.480605,200.335972 188.561605,198.262874 188.561605,194.739969 L188.561605,166.284988 L139.059301,198.413617 C136.180493,200.282059 132.394435,198.195199 132.394435,194.739969 L132.394435,166.284988 L82.8921304,198.413617 C80.18448,200.170972 76.5920482,198.433531 76.2515359,195.201965 L56.6033329,8.73452801 L36.3404921,8.73452801 L9.08637362,295.72835 L240.716835,295.72835 Z M242.580307,154.694891 C245.449251,152.689618 249.36825,154.762716 249.36825,158.285621 L249.36825,300.095614 C249.36825,302.507588 247.431565,304.462878 245.042543,304.462878 L4.32609673,304.462878 C1.77395902,304.462878 -0.223438024,302.243702 0.0201349192,299.678808 L28.1037203,3.9504576 C28.3164634,1.71021104 30.1805774,0 32.4096821,0 L60.4932675,0 C62.7051536,0 64.5607162,1.68466321 64.7947029,3.90526838 L84.1125814,187.237825 L134.380983,154.611973 C137.259792,152.743531 141.045849,154.830391 141.045849,158.285621 L141.045849,186.740602 L190.548154,154.611973 C193.426962,152.743531 197.21302,154.830391 197.21302,158.285621 L197.21302,186.404747 L242.580307,154.694891 Z"/><path d="M81.3276583,183.400893 C83.7121864,183.398515 85.6471587,185.329627 85.649542,187.714155 C85.649542,187.717016 85.649542,187.719877 85.649542,187.722738 L85.6192191,218.371704 C85.616854,220.762367 83.6794407,222.699798 81.2887778,222.702188 C78.9042497,222.704567 76.9692775,220.773455 76.9668941,218.388927 C76.9668941,218.386066 76.9668941,218.383205 76.9668941,218.380344 L76.9972171,187.731378 C76.9995821,185.340715 78.9369955,183.403284 81.3276583,183.400893 Z" transform="rotate(-6 81.308 203.052)"/><polygon points="27.084 67.125 66.015 67.125 66.015 58.39 27.084 58.39"/></g><path stroke="#000" stroke-width="8.7" d="M2761.27012,1518.461 L2761.27012,1464.70302 L2901.86647,1464.70302 L2901.86647,1605.30013 L2790.20282,1605.30013 L2761.27012,1579.8348 L2761.27012,1533.44857"/></g></svg>